%TF.GenerationSoftware,KiCad,Pcbnew,5.1.10-88a1d61d58~89~ubuntu20.04.1*%
%TF.CreationDate,2021-07-11T19:38:29+02:00*%
%TF.ProjectId,schematic,73636865-6d61-4746-9963-2e6b69636164,rev?*%
%TF.SameCoordinates,PX52dfd20PY755cad8*%
%TF.FileFunction,Copper,L2,Bot*%
%TF.FilePolarity,Positive*%
%FSLAX46Y46*%
G04 Gerber Fmt 4.6, Leading zero omitted, Abs format (unit mm)*
G04 Created by KiCad (PCBNEW 5.1.10-88a1d61d58~89~ubuntu20.04.1) date 2021-07-11 19:38:29*
%MOMM*%
%LPD*%
G01*
G04 APERTURE LIST*
%TA.AperFunction,ComponentPad*%
%ADD10O,1.750000X1.200000*%
%TD*%
%TA.AperFunction,ComponentPad*%
%ADD11R,1.700000X1.700000*%
%TD*%
%TA.AperFunction,ComponentPad*%
%ADD12O,1.700000X1.700000*%
%TD*%
%TA.AperFunction,Conductor*%
%ADD13C,0.750000*%
%TD*%
%TA.AperFunction,Conductor*%
%ADD14C,0.254000*%
%TD*%
%TA.AperFunction,Conductor*%
%ADD15C,0.100000*%
%TD*%
G04 APERTURE END LIST*
D10*
%TO.P,J4,8*%
%TO.N,/3v3*%
X3300000Y43063000D03*
%TO.P,J4,7*%
%TO.N,GND*%
X3300000Y41063000D03*
%TO.P,J4,6*%
%TO.N,/MOSI*%
X3300000Y39063000D03*
%TO.P,J4,5*%
%TO.N,/CLK*%
X3300000Y37063000D03*
%TO.P,J4,4*%
%TO.N,/CS*%
X3300000Y35063000D03*
%TO.P,J4,3*%
%TO.N,/DC*%
X3300000Y33063000D03*
%TO.P,J4,2*%
%TO.N,/RST*%
X3300000Y31063000D03*
%TO.P,J4,1*%
%TO.N,/BUSY*%
%TA.AperFunction,ComponentPad*%
G36*
G01*
X3925001Y28463000D02*
X2674999Y28463000D01*
G75*
G02*
X2425000Y28712999I0J249999D01*
G01*
X2425000Y29413001D01*
G75*
G02*
X2674999Y29663000I249999J0D01*
G01*
X3925001Y29663000D01*
G75*
G02*
X4175000Y29413001I0J-249999D01*
G01*
X4175000Y28712999D01*
G75*
G02*
X3925001Y28463000I-249999J0D01*
G01*
G37*
%TD.AperFunction*%
%TD*%
D11*
%TO.P,J1,1*%
%TO.N,GND*%
X48100000Y55118000D03*
D12*
%TO.P,J1,2*%
%TO.N,N/C*%
X48100000Y52578000D03*
%TO.P,J1,3*%
X48100000Y50038000D03*
%TO.P,J1,4*%
X48100000Y47498000D03*
%TO.P,J1,5*%
X48100000Y44958000D03*
%TO.P,J1,6*%
X48100000Y42418000D03*
%TO.P,J1,7*%
X48100000Y39878000D03*
%TO.P,J1,8*%
X48100000Y37338000D03*
%TO.P,J1,9*%
X48100000Y34798000D03*
%TO.P,J1,10*%
X48100000Y32258000D03*
%TO.P,J1,11*%
X48100000Y29718000D03*
%TO.P,J1,12*%
X48100000Y27178000D03*
%TO.P,J1,13*%
X48100000Y24638000D03*
%TO.P,J1,14*%
X48100000Y22098000D03*
%TO.P,J1,15*%
X48100000Y19558000D03*
%TO.P,J1,16*%
X48100000Y17018000D03*
%TO.P,J1,17*%
X48100000Y14478000D03*
%TO.P,J1,18*%
X48100000Y11938000D03*
%TO.P,J1,19*%
X48100000Y9398000D03*
%TO.P,J1,20*%
X48100000Y6858000D03*
%TO.P,J1,21*%
X48100000Y4318000D03*
%TD*%
D11*
%TO.P,J2,1*%
%TO.N,/3v3*%
X28924000Y68547000D03*
D12*
%TO.P,J2,2*%
%TO.N,GND*%
X31464000Y68547000D03*
%TO.P,J2,3*%
%TO.N,/SDO*%
X34004000Y68547000D03*
%TO.P,J2,4*%
%TO.N,/CSB*%
X36544000Y68547000D03*
%TO.P,J2,5*%
%TO.N,/SDA*%
X39084000Y68547000D03*
%TO.P,J2,6*%
%TO.N,/SCL*%
X41624000Y68547000D03*
%TD*%
%TO.P,J3,21*%
%TO.N,/3v3*%
X23100000Y55118000D03*
%TO.P,J3,20*%
%TO.N,N/C*%
X23100000Y52578000D03*
%TO.P,J3,19*%
%TO.N,/SDO*%
X23100000Y50038000D03*
%TO.P,J3,18*%
%TO.N,/CSB*%
X23100000Y47498000D03*
%TO.P,J3,17*%
%TO.N,/SDA*%
X23100000Y44958000D03*
%TO.P,J3,16*%
%TO.N,/SCL*%
X23100000Y42418000D03*
%TO.P,J3,15*%
%TO.N,N/C*%
X23100000Y39878000D03*
%TO.P,J3,14*%
X23100000Y37338000D03*
%TO.P,J3,13*%
X23100000Y34798000D03*
%TO.P,J3,12*%
X23100000Y32258000D03*
%TO.P,J3,11*%
X23100000Y29718000D03*
%TO.P,J3,10*%
X23100000Y27178000D03*
%TO.P,J3,9*%
%TO.N,/MOSI*%
X23100000Y24638000D03*
%TO.P,J3,8*%
%TO.N,/CLK*%
X23100000Y22098000D03*
%TO.P,J3,7*%
%TO.N,/CS*%
X23100000Y19558000D03*
%TO.P,J3,6*%
%TO.N,/DC*%
X23100000Y17018000D03*
%TO.P,J3,5*%
%TO.N,/RST*%
X23100000Y14478000D03*
%TO.P,J3,4*%
%TO.N,/BUSY*%
X23100000Y11938000D03*
%TO.P,J3,3*%
%TO.N,N/C*%
X23100000Y9398000D03*
%TO.P,J3,2*%
X23100000Y6858000D03*
D11*
%TO.P,J3,1*%
%TO.N,GND*%
X23100000Y4318000D03*
%TD*%
D13*
%TO.N,/3v3*%
X28924000Y60942000D02*
X23100000Y55118000D01*
X28924000Y68547000D02*
X28924000Y60942000D01*
X3300000Y43063000D02*
X3300000Y56663000D01*
X3300000Y56663000D02*
X10300000Y63663000D01*
X14555000Y63663000D02*
X23100000Y55118000D01*
X10300000Y63663000D02*
X14555000Y63663000D01*
%TO.N,/SDO*%
X26003000Y50038000D02*
X23100000Y50038000D01*
X34004000Y58039000D02*
X26003000Y50038000D01*
X34004000Y68547000D02*
X34004000Y58039000D01*
%TO.N,/CSB*%
X27400000Y47498000D02*
X23100000Y47498000D01*
X36544000Y56642000D02*
X27400000Y47498000D01*
X36544000Y68547000D02*
X36544000Y56642000D01*
%TO.N,/SDA*%
X39084000Y68547000D02*
X39084000Y68326000D01*
X39084000Y55372000D02*
X28670000Y44958000D01*
X28670000Y44958000D02*
X23100000Y44958000D01*
X39084000Y68547000D02*
X39084000Y55372000D01*
%TO.N,/SCL*%
X29559000Y42418000D02*
X23100000Y42418000D01*
X41624000Y54483000D02*
X29559000Y42418000D01*
X41624000Y68547000D02*
X41624000Y54483000D01*
%TO.N,/MOSI*%
X23100000Y24638000D02*
X21125000Y24638000D01*
X21125000Y24638000D02*
X20600000Y25163000D01*
X20600000Y25163000D02*
X20600000Y27063000D01*
X8600000Y39063000D02*
X3300000Y39063000D01*
X20600000Y27063000D02*
X8600000Y39063000D01*
%TO.N,/CLK*%
X8000000Y37063000D02*
X3300000Y37063000D01*
X19200000Y25863000D02*
X8000000Y37063000D01*
X19200000Y23963000D02*
X19200000Y25863000D01*
X20965000Y22098000D02*
X19200000Y23963000D01*
X23100000Y22098000D02*
X20965000Y22098000D01*
%TO.N,/CS*%
X7300000Y35063000D02*
X3300000Y35063000D01*
X17700000Y24663000D02*
X7300000Y35063000D01*
X17700000Y22363000D02*
X17700000Y24663000D01*
X20700000Y19563000D02*
X17700000Y22363000D01*
X23100000Y19558000D02*
X20700000Y19563000D01*
%TO.N,/DC*%
X3300000Y33063000D02*
X6100000Y33063000D01*
X6100000Y33063000D02*
X8300000Y30863000D01*
X8300000Y30863000D02*
X8300000Y19363000D01*
X10645000Y17018000D02*
X23100000Y17018000D01*
X8300000Y19363000D02*
X10645000Y17018000D01*
%TO.N,/RST*%
X4925000Y31063000D02*
X6000000Y29988000D01*
X3300000Y31063000D02*
X4925000Y31063000D01*
X6000000Y29988000D02*
X6000000Y17663000D01*
X9185000Y14478000D02*
X23100000Y14478000D01*
X6000000Y17663000D02*
X9185000Y14478000D01*
%TO.N,/BUSY*%
X3300000Y29063000D02*
X3300000Y16163000D01*
X7525000Y11938000D02*
X23100000Y11938000D01*
X3300000Y16163000D02*
X7525000Y11938000D01*
%TD*%
D14*
%TO.N,GND*%
X59873000Y1090000D02*
X1027179Y1090000D01*
X1030523Y3468000D01*
X21611928Y3468000D01*
X21624188Y3343518D01*
X21660498Y3223820D01*
X21719463Y3113506D01*
X21798815Y3016815D01*
X21895506Y2937463D01*
X22005820Y2878498D01*
X22125518Y2842188D01*
X22250000Y2829928D01*
X22814250Y2833000D01*
X22973000Y2991750D01*
X22973000Y4191000D01*
X23227000Y4191000D01*
X23227000Y2991750D01*
X23385750Y2833000D01*
X23950000Y2829928D01*
X24074482Y2842188D01*
X24194180Y2878498D01*
X24304494Y2937463D01*
X24401185Y3016815D01*
X24480537Y3113506D01*
X24539502Y3223820D01*
X24575812Y3343518D01*
X24588072Y3468000D01*
X24585000Y4032250D01*
X24426250Y4191000D01*
X23227000Y4191000D01*
X22973000Y4191000D01*
X21773750Y4191000D01*
X21615000Y4032250D01*
X21611928Y3468000D01*
X1030523Y3468000D01*
X1086212Y43063000D01*
X1784025Y43063000D01*
X1807870Y42820898D01*
X1878489Y42588099D01*
X1993167Y42373551D01*
X2147498Y42185498D01*
X2297348Y42062519D01*
X2233275Y42019307D01*
X2061922Y41846474D01*
X1927579Y41643533D01*
X1835409Y41418282D01*
X1831538Y41380609D01*
X1956269Y41190000D01*
X3173000Y41190000D01*
X3173000Y41210000D01*
X3427000Y41210000D01*
X3427000Y41190000D01*
X4643731Y41190000D01*
X4768462Y41380609D01*
X4764591Y41418282D01*
X4672421Y41643533D01*
X4538078Y41846474D01*
X4366725Y42019307D01*
X4302652Y42062519D01*
X4452502Y42185498D01*
X4606833Y42373551D01*
X4721511Y42588099D01*
X4792130Y42820898D01*
X4815975Y43063000D01*
X4792130Y43305102D01*
X4721511Y43537901D01*
X4606833Y43752449D01*
X4452502Y43940502D01*
X4310000Y44057450D01*
X4310000Y50983128D01*
X11065000Y50983128D01*
X11065000Y50542872D01*
X11150890Y50111075D01*
X11319369Y49704331D01*
X11563962Y49338271D01*
X11875271Y49026962D01*
X12241331Y48782369D01*
X12648075Y48613890D01*
X13079872Y48528000D01*
X13520128Y48528000D01*
X13951925Y48613890D01*
X14358669Y48782369D01*
X14724729Y49026962D01*
X15036038Y49338271D01*
X15280631Y49704331D01*
X15449110Y50111075D01*
X15535000Y50542872D01*
X15535000Y50983128D01*
X15449110Y51414925D01*
X15280631Y51821669D01*
X15036038Y52187729D01*
X14724729Y52499038D01*
X14358669Y52743631D01*
X13951925Y52912110D01*
X13520128Y52998000D01*
X13079872Y52998000D01*
X12648075Y52912110D01*
X12241331Y52743631D01*
X11875271Y52499038D01*
X11563962Y52187729D01*
X11319369Y51821669D01*
X11150890Y51414925D01*
X11065000Y50983128D01*
X4310000Y50983128D01*
X4310000Y56244645D01*
X10718356Y62653000D01*
X14136645Y62653000D01*
X21615000Y55174644D01*
X21615000Y54971740D01*
X21672068Y54684842D01*
X21784010Y54414589D01*
X21946525Y54171368D01*
X22153368Y53964525D01*
X22327760Y53848000D01*
X22153368Y53731475D01*
X21946525Y53524632D01*
X21784010Y53281411D01*
X21672068Y53011158D01*
X21615000Y52724260D01*
X21615000Y52431740D01*
X21672068Y52144842D01*
X21784010Y51874589D01*
X21946525Y51631368D01*
X22153368Y51424525D01*
X22327760Y51308000D01*
X22153368Y51191475D01*
X21946525Y50984632D01*
X21784010Y50741411D01*
X21672068Y50471158D01*
X21615000Y50184260D01*
X21615000Y49891740D01*
X21672068Y49604842D01*
X21784010Y49334589D01*
X21946525Y49091368D01*
X22153368Y48884525D01*
X22327760Y48768000D01*
X22153368Y48651475D01*
X21946525Y48444632D01*
X21784010Y48201411D01*
X21672068Y47931158D01*
X21615000Y47644260D01*
X21615000Y47351740D01*
X21672068Y47064842D01*
X21784010Y46794589D01*
X21946525Y46551368D01*
X22153368Y46344525D01*
X22327760Y46228000D01*
X22153368Y46111475D01*
X21946525Y45904632D01*
X21784010Y45661411D01*
X21672068Y45391158D01*
X21615000Y45104260D01*
X21615000Y44811740D01*
X21672068Y44524842D01*
X21784010Y44254589D01*
X21946525Y44011368D01*
X22153368Y43804525D01*
X22327760Y43688000D01*
X22153368Y43571475D01*
X21946525Y43364632D01*
X21784010Y43121411D01*
X21672068Y42851158D01*
X21615000Y42564260D01*
X21615000Y42271740D01*
X21672068Y41984842D01*
X21784010Y41714589D01*
X21946525Y41471368D01*
X22153368Y41264525D01*
X22327760Y41148000D01*
X22153368Y41031475D01*
X21946525Y40824632D01*
X21784010Y40581411D01*
X21672068Y40311158D01*
X21615000Y40024260D01*
X21615000Y39731740D01*
X21672068Y39444842D01*
X21784010Y39174589D01*
X21946525Y38931368D01*
X22153368Y38724525D01*
X22327760Y38608000D01*
X22153368Y38491475D01*
X21946525Y38284632D01*
X21784010Y38041411D01*
X21672068Y37771158D01*
X21615000Y37484260D01*
X21615000Y37191740D01*
X21672068Y36904842D01*
X21784010Y36634589D01*
X21946525Y36391368D01*
X22153368Y36184525D01*
X22327760Y36068000D01*
X22153368Y35951475D01*
X21946525Y35744632D01*
X21784010Y35501411D01*
X21672068Y35231158D01*
X21615000Y34944260D01*
X21615000Y34651740D01*
X21672068Y34364842D01*
X21784010Y34094589D01*
X21946525Y33851368D01*
X22153368Y33644525D01*
X22327760Y33528000D01*
X22153368Y33411475D01*
X21946525Y33204632D01*
X21784010Y32961411D01*
X21672068Y32691158D01*
X21615000Y32404260D01*
X21615000Y32111740D01*
X21672068Y31824842D01*
X21784010Y31554589D01*
X21946525Y31311368D01*
X22153368Y31104525D01*
X22327760Y30988000D01*
X22153368Y30871475D01*
X21946525Y30664632D01*
X21784010Y30421411D01*
X21672068Y30151158D01*
X21615000Y29864260D01*
X21615000Y29571740D01*
X21672068Y29284842D01*
X21784010Y29014589D01*
X21946525Y28771368D01*
X22153368Y28564525D01*
X22327760Y28448000D01*
X22153368Y28331475D01*
X21946525Y28124632D01*
X21784010Y27881411D01*
X21672068Y27611158D01*
X21615000Y27324260D01*
X21615000Y27031740D01*
X21672068Y26744842D01*
X21784010Y26474589D01*
X21946525Y26231368D01*
X22153368Y26024525D01*
X22327760Y25908000D01*
X22153368Y25791475D01*
X22009893Y25648000D01*
X21610000Y25648000D01*
X21610000Y27013392D01*
X21614886Y27063000D01*
X21595385Y27260995D01*
X21537632Y27451380D01*
X21443846Y27626841D01*
X21349256Y27742100D01*
X21317633Y27780633D01*
X21279100Y27812256D01*
X9349261Y39742094D01*
X9317633Y39780633D01*
X9163840Y39906847D01*
X8988380Y40000632D01*
X8797994Y40058385D01*
X8649608Y40073000D01*
X8600000Y40077886D01*
X8550392Y40073000D01*
X4316766Y40073000D01*
X4366725Y40106693D01*
X4538078Y40279526D01*
X4672421Y40482467D01*
X4764591Y40707718D01*
X4768462Y40745391D01*
X4643731Y40936000D01*
X3427000Y40936000D01*
X3427000Y40916000D01*
X3173000Y40916000D01*
X3173000Y40936000D01*
X1956269Y40936000D01*
X1831538Y40745391D01*
X1835409Y40707718D01*
X1927579Y40482467D01*
X2061922Y40279526D01*
X2233275Y40106693D01*
X2297348Y40063481D01*
X2147498Y39940502D01*
X1993167Y39752449D01*
X1878489Y39537901D01*
X1807870Y39305102D01*
X1784025Y39063000D01*
X1807870Y38820898D01*
X1878489Y38588099D01*
X1993167Y38373551D01*
X2147498Y38185498D01*
X2296762Y38063000D01*
X2147498Y37940502D01*
X1993167Y37752449D01*
X1878489Y37537901D01*
X1807870Y37305102D01*
X1784025Y37063000D01*
X1807870Y36820898D01*
X1878489Y36588099D01*
X1993167Y36373551D01*
X2147498Y36185498D01*
X2296762Y36063000D01*
X2147498Y35940502D01*
X1993167Y35752449D01*
X1878489Y35537901D01*
X1807870Y35305102D01*
X1784025Y35063000D01*
X1807870Y34820898D01*
X1878489Y34588099D01*
X1993167Y34373551D01*
X2147498Y34185498D01*
X2296762Y34063000D01*
X2147498Y33940502D01*
X1993167Y33752449D01*
X1878489Y33537901D01*
X1807870Y33305102D01*
X1784025Y33063000D01*
X1807870Y32820898D01*
X1878489Y32588099D01*
X1993167Y32373551D01*
X2147498Y32185498D01*
X2296762Y32063000D01*
X2147498Y31940502D01*
X1993167Y31752449D01*
X1878489Y31537901D01*
X1807870Y31305102D01*
X1784025Y31063000D01*
X1807870Y30820898D01*
X1878489Y30588099D01*
X1993167Y30373551D01*
X2147498Y30185498D01*
X2186111Y30153809D01*
X2181613Y30151405D01*
X2047038Y30040962D01*
X1936595Y29906387D01*
X1854528Y29752851D01*
X1803992Y29586255D01*
X1786928Y29413001D01*
X1786928Y28712999D01*
X1803992Y28539745D01*
X1854528Y28373149D01*
X1936595Y28219613D01*
X2047038Y28085038D01*
X2181613Y27974595D01*
X2290000Y27916661D01*
X2290001Y16212618D01*
X2285114Y16163000D01*
X2304615Y15965006D01*
X2362368Y15774621D01*
X2438881Y15631475D01*
X2456154Y15599160D01*
X2582368Y15445367D01*
X2620901Y15413744D01*
X6775739Y11258906D01*
X6807367Y11220367D01*
X6961160Y11094153D01*
X7136620Y11000368D01*
X7327006Y10942615D01*
X7475392Y10928000D01*
X7475394Y10928000D01*
X7524999Y10923114D01*
X7574604Y10928000D01*
X22009893Y10928000D01*
X22153368Y10784525D01*
X22327760Y10668000D01*
X22153368Y10551475D01*
X21946525Y10344632D01*
X21784010Y10101411D01*
X21672068Y9831158D01*
X21615000Y9544260D01*
X21615000Y9251740D01*
X21672068Y8964842D01*
X21784010Y8694589D01*
X21946525Y8451368D01*
X22153368Y8244525D01*
X22327760Y8128000D01*
X22153368Y8011475D01*
X21946525Y7804632D01*
X21784010Y7561411D01*
X21672068Y7291158D01*
X21615000Y7004260D01*
X21615000Y6711740D01*
X21672068Y6424842D01*
X21784010Y6154589D01*
X21946525Y5911368D01*
X22078380Y5779513D01*
X22005820Y5757502D01*
X21895506Y5698537D01*
X21798815Y5619185D01*
X21719463Y5522494D01*
X21660498Y5412180D01*
X21624188Y5292482D01*
X21611928Y5168000D01*
X21615000Y4603750D01*
X21773750Y4445000D01*
X22973000Y4445000D01*
X22973000Y4465000D01*
X23227000Y4465000D01*
X23227000Y4445000D01*
X24426250Y4445000D01*
X24585000Y4603750D01*
X24588072Y5168000D01*
X24575812Y5292482D01*
X24539502Y5412180D01*
X24480537Y5522494D01*
X24401185Y5619185D01*
X24304494Y5698537D01*
X24194180Y5757502D01*
X24121620Y5779513D01*
X24253475Y5911368D01*
X24415990Y6154589D01*
X24527932Y6424842D01*
X24585000Y6711740D01*
X24585000Y7004260D01*
X24527932Y7291158D01*
X24415990Y7561411D01*
X24253475Y7804632D01*
X24046632Y8011475D01*
X23872240Y8128000D01*
X24046632Y8244525D01*
X24253475Y8451368D01*
X24415990Y8694589D01*
X24527932Y8964842D01*
X24585000Y9251740D01*
X24585000Y9544260D01*
X24527932Y9831158D01*
X24415990Y10101411D01*
X24253475Y10344632D01*
X24046632Y10551475D01*
X23872240Y10668000D01*
X24046632Y10784525D01*
X24253475Y10991368D01*
X24415990Y11234589D01*
X24527932Y11504842D01*
X24585000Y11791740D01*
X24585000Y12084260D01*
X24527932Y12371158D01*
X24415990Y12641411D01*
X24253475Y12884632D01*
X24046632Y13091475D01*
X23872240Y13208000D01*
X24046632Y13324525D01*
X24253475Y13531368D01*
X24415990Y13774589D01*
X24527932Y14044842D01*
X24585000Y14331740D01*
X24585000Y14624260D01*
X24527932Y14911158D01*
X24415990Y15181411D01*
X24253475Y15424632D01*
X24046632Y15631475D01*
X23872240Y15748000D01*
X24046632Y15864525D01*
X24253475Y16071368D01*
X24415990Y16314589D01*
X24527932Y16584842D01*
X24585000Y16871740D01*
X24585000Y17164260D01*
X24527932Y17451158D01*
X24415990Y17721411D01*
X24253475Y17964632D01*
X24046632Y18171475D01*
X23872240Y18288000D01*
X24046632Y18404525D01*
X24253475Y18611368D01*
X24415990Y18854589D01*
X24527932Y19124842D01*
X24585000Y19411740D01*
X24585000Y19704260D01*
X24527932Y19991158D01*
X24415990Y20261411D01*
X24253475Y20504632D01*
X24046632Y20711475D01*
X23872240Y20828000D01*
X24046632Y20944525D01*
X24253475Y21151368D01*
X24415990Y21394589D01*
X24527932Y21664842D01*
X24585000Y21951740D01*
X24585000Y22244260D01*
X24527932Y22531158D01*
X24415990Y22801411D01*
X24253475Y23044632D01*
X24046632Y23251475D01*
X23872240Y23368000D01*
X24046632Y23484525D01*
X24253475Y23691368D01*
X24415990Y23934589D01*
X24527932Y24204842D01*
X24585000Y24491740D01*
X24585000Y24784260D01*
X24527932Y25071158D01*
X24415990Y25341411D01*
X24253475Y25584632D01*
X24046632Y25791475D01*
X23872240Y25908000D01*
X24046632Y26024525D01*
X24253475Y26231368D01*
X24415990Y26474589D01*
X24527932Y26744842D01*
X24585000Y27031740D01*
X24585000Y27324260D01*
X24527932Y27611158D01*
X24415990Y27881411D01*
X24253475Y28124632D01*
X24046632Y28331475D01*
X23872240Y28448000D01*
X24046632Y28564525D01*
X24253475Y28771368D01*
X24415990Y29014589D01*
X24527932Y29284842D01*
X24585000Y29571740D01*
X24585000Y29864260D01*
X24527932Y30151158D01*
X24415990Y30421411D01*
X24253475Y30664632D01*
X24046632Y30871475D01*
X23872240Y30988000D01*
X24046632Y31104525D01*
X24253475Y31311368D01*
X24415990Y31554589D01*
X24527932Y31824842D01*
X24585000Y32111740D01*
X24585000Y32404260D01*
X24527932Y32691158D01*
X24415990Y32961411D01*
X24253475Y33204632D01*
X24046632Y33411475D01*
X23872240Y33528000D01*
X24046632Y33644525D01*
X24253475Y33851368D01*
X24415990Y34094589D01*
X24527932Y34364842D01*
X24585000Y34651740D01*
X24585000Y34944260D01*
X24527932Y35231158D01*
X24415990Y35501411D01*
X24253475Y35744632D01*
X24046632Y35951475D01*
X23872240Y36068000D01*
X24046632Y36184525D01*
X24253475Y36391368D01*
X24415990Y36634589D01*
X24527932Y36904842D01*
X24585000Y37191740D01*
X24585000Y37484260D01*
X24527932Y37771158D01*
X24415990Y38041411D01*
X24253475Y38284632D01*
X24046632Y38491475D01*
X23872240Y38608000D01*
X24046632Y38724525D01*
X24253475Y38931368D01*
X24415990Y39174589D01*
X24527932Y39444842D01*
X24585000Y39731740D01*
X24585000Y40024260D01*
X24527932Y40311158D01*
X24415990Y40581411D01*
X24253475Y40824632D01*
X24046632Y41031475D01*
X23872240Y41148000D01*
X24046632Y41264525D01*
X24190107Y41408000D01*
X29509392Y41408000D01*
X29559000Y41403114D01*
X29756994Y41422615D01*
X29947380Y41480368D01*
X30122840Y41574153D01*
X30276633Y41700367D01*
X30308261Y41738906D01*
X42303100Y53733744D01*
X42341633Y53765367D01*
X42467847Y53919160D01*
X42561632Y54094620D01*
X42584913Y54171368D01*
X42614226Y54268000D01*
X46611928Y54268000D01*
X46624188Y54143518D01*
X46660498Y54023820D01*
X46719463Y53913506D01*
X46798815Y53816815D01*
X46895506Y53737463D01*
X47005820Y53678498D01*
X47078380Y53656487D01*
X46946525Y53524632D01*
X46784010Y53281411D01*
X46672068Y53011158D01*
X46615000Y52724260D01*
X46615000Y52431740D01*
X46672068Y52144842D01*
X46784010Y51874589D01*
X46946525Y51631368D01*
X47153368Y51424525D01*
X47327760Y51308000D01*
X47153368Y51191475D01*
X46946525Y50984632D01*
X46784010Y50741411D01*
X46672068Y50471158D01*
X46615000Y50184260D01*
X46615000Y49891740D01*
X46672068Y49604842D01*
X46784010Y49334589D01*
X46946525Y49091368D01*
X47153368Y48884525D01*
X47327760Y48768000D01*
X47153368Y48651475D01*
X46946525Y48444632D01*
X46784010Y48201411D01*
X46672068Y47931158D01*
X46615000Y47644260D01*
X46615000Y47351740D01*
X46672068Y47064842D01*
X46784010Y46794589D01*
X46946525Y46551368D01*
X47153368Y46344525D01*
X47327760Y46228000D01*
X47153368Y46111475D01*
X46946525Y45904632D01*
X46784010Y45661411D01*
X46672068Y45391158D01*
X46615000Y45104260D01*
X46615000Y44811740D01*
X46672068Y44524842D01*
X46784010Y44254589D01*
X46946525Y44011368D01*
X47153368Y43804525D01*
X47327760Y43688000D01*
X47153368Y43571475D01*
X46946525Y43364632D01*
X46784010Y43121411D01*
X46672068Y42851158D01*
X46615000Y42564260D01*
X46615000Y42271740D01*
X46672068Y41984842D01*
X46784010Y41714589D01*
X46946525Y41471368D01*
X47153368Y41264525D01*
X47327760Y41148000D01*
X47153368Y41031475D01*
X46946525Y40824632D01*
X46784010Y40581411D01*
X46672068Y40311158D01*
X46615000Y40024260D01*
X46615000Y39731740D01*
X46672068Y39444842D01*
X46784010Y39174589D01*
X46946525Y38931368D01*
X47153368Y38724525D01*
X47327760Y38608000D01*
X47153368Y38491475D01*
X46946525Y38284632D01*
X46784010Y38041411D01*
X46672068Y37771158D01*
X46615000Y37484260D01*
X46615000Y37191740D01*
X46672068Y36904842D01*
X46784010Y36634589D01*
X46946525Y36391368D01*
X47153368Y36184525D01*
X47327760Y36068000D01*
X47153368Y35951475D01*
X46946525Y35744632D01*
X46784010Y35501411D01*
X46672068Y35231158D01*
X46615000Y34944260D01*
X46615000Y34651740D01*
X46672068Y34364842D01*
X46784010Y34094589D01*
X46946525Y33851368D01*
X47153368Y33644525D01*
X47327760Y33528000D01*
X47153368Y33411475D01*
X46946525Y33204632D01*
X46784010Y32961411D01*
X46672068Y32691158D01*
X46615000Y32404260D01*
X46615000Y32111740D01*
X46672068Y31824842D01*
X46784010Y31554589D01*
X46946525Y31311368D01*
X47153368Y31104525D01*
X47327760Y30988000D01*
X47153368Y30871475D01*
X46946525Y30664632D01*
X46784010Y30421411D01*
X46672068Y30151158D01*
X46615000Y29864260D01*
X46615000Y29571740D01*
X46672068Y29284842D01*
X46784010Y29014589D01*
X46946525Y28771368D01*
X47153368Y28564525D01*
X47327760Y28448000D01*
X47153368Y28331475D01*
X46946525Y28124632D01*
X46784010Y27881411D01*
X46672068Y27611158D01*
X46615000Y27324260D01*
X46615000Y27031740D01*
X46672068Y26744842D01*
X46784010Y26474589D01*
X46946525Y26231368D01*
X47153368Y26024525D01*
X47327760Y25908000D01*
X47153368Y25791475D01*
X46946525Y25584632D01*
X46784010Y25341411D01*
X46672068Y25071158D01*
X46615000Y24784260D01*
X46615000Y24491740D01*
X46672068Y24204842D01*
X46784010Y23934589D01*
X46946525Y23691368D01*
X47153368Y23484525D01*
X47327760Y23368000D01*
X47153368Y23251475D01*
X46946525Y23044632D01*
X46784010Y22801411D01*
X46672068Y22531158D01*
X46615000Y22244260D01*
X46615000Y21951740D01*
X46672068Y21664842D01*
X46784010Y21394589D01*
X46946525Y21151368D01*
X47153368Y20944525D01*
X47327760Y20828000D01*
X47153368Y20711475D01*
X46946525Y20504632D01*
X46784010Y20261411D01*
X46672068Y19991158D01*
X46615000Y19704260D01*
X46615000Y19411740D01*
X46672068Y19124842D01*
X46784010Y18854589D01*
X46946525Y18611368D01*
X47153368Y18404525D01*
X47327760Y18288000D01*
X47153368Y18171475D01*
X46946525Y17964632D01*
X46784010Y17721411D01*
X46672068Y17451158D01*
X46615000Y17164260D01*
X46615000Y16871740D01*
X46672068Y16584842D01*
X46784010Y16314589D01*
X46946525Y16071368D01*
X47153368Y15864525D01*
X47327760Y15748000D01*
X47153368Y15631475D01*
X46946525Y15424632D01*
X46784010Y15181411D01*
X46672068Y14911158D01*
X46615000Y14624260D01*
X46615000Y14331740D01*
X46672068Y14044842D01*
X46784010Y13774589D01*
X46946525Y13531368D01*
X47153368Y13324525D01*
X47327760Y13208000D01*
X47153368Y13091475D01*
X46946525Y12884632D01*
X46784010Y12641411D01*
X46672068Y12371158D01*
X46615000Y12084260D01*
X46615000Y11791740D01*
X46672068Y11504842D01*
X46784010Y11234589D01*
X46946525Y10991368D01*
X47153368Y10784525D01*
X47327760Y10668000D01*
X47153368Y10551475D01*
X46946525Y10344632D01*
X46784010Y10101411D01*
X46672068Y9831158D01*
X46615000Y9544260D01*
X46615000Y9251740D01*
X46672068Y8964842D01*
X46784010Y8694589D01*
X46946525Y8451368D01*
X47153368Y8244525D01*
X47327760Y8128000D01*
X47153368Y8011475D01*
X46946525Y7804632D01*
X46784010Y7561411D01*
X46672068Y7291158D01*
X46615000Y7004260D01*
X46615000Y6711740D01*
X46672068Y6424842D01*
X46784010Y6154589D01*
X46946525Y5911368D01*
X47153368Y5704525D01*
X47327760Y5588000D01*
X47153368Y5471475D01*
X46946525Y5264632D01*
X46784010Y5021411D01*
X46672068Y4751158D01*
X46615000Y4464260D01*
X46615000Y4171740D01*
X46672068Y3884842D01*
X46784010Y3614589D01*
X46946525Y3371368D01*
X47153368Y3164525D01*
X47396589Y3002010D01*
X47666842Y2890068D01*
X47953740Y2833000D01*
X48246260Y2833000D01*
X48533158Y2890068D01*
X48803411Y3002010D01*
X49046632Y3164525D01*
X49253475Y3371368D01*
X49415990Y3614589D01*
X49527932Y3884842D01*
X49585000Y4171740D01*
X49585000Y4464260D01*
X49527932Y4751158D01*
X49415990Y5021411D01*
X49253475Y5264632D01*
X49046632Y5471475D01*
X48872240Y5588000D01*
X49046632Y5704525D01*
X49253475Y5911368D01*
X49415990Y6154589D01*
X49527932Y6424842D01*
X49585000Y6711740D01*
X49585000Y7004260D01*
X49527932Y7291158D01*
X49415990Y7561411D01*
X49253475Y7804632D01*
X49046632Y8011475D01*
X48872240Y8128000D01*
X49046632Y8244525D01*
X49253475Y8451368D01*
X49415990Y8694589D01*
X49527932Y8964842D01*
X49585000Y9251740D01*
X49585000Y9544260D01*
X49527932Y9831158D01*
X49415990Y10101411D01*
X49253475Y10344632D01*
X49046632Y10551475D01*
X48872240Y10668000D01*
X49046632Y10784525D01*
X49253475Y10991368D01*
X49415990Y11234589D01*
X49527932Y11504842D01*
X49585000Y11791740D01*
X49585000Y12084260D01*
X49527932Y12371158D01*
X49415990Y12641411D01*
X49253475Y12884632D01*
X49046632Y13091475D01*
X48872240Y13208000D01*
X49046632Y13324525D01*
X49253475Y13531368D01*
X49415990Y13774589D01*
X49527932Y14044842D01*
X49585000Y14331740D01*
X49585000Y14624260D01*
X49527932Y14911158D01*
X49415990Y15181411D01*
X49253475Y15424632D01*
X49046632Y15631475D01*
X48872240Y15748000D01*
X49046632Y15864525D01*
X49253475Y16071368D01*
X49415990Y16314589D01*
X49527932Y16584842D01*
X49585000Y16871740D01*
X49585000Y17164260D01*
X49527932Y17451158D01*
X49415990Y17721411D01*
X49253475Y17964632D01*
X49046632Y18171475D01*
X48872240Y18288000D01*
X49046632Y18404525D01*
X49253475Y18611368D01*
X49415990Y18854589D01*
X49527932Y19124842D01*
X49585000Y19411740D01*
X49585000Y19704260D01*
X49527932Y19991158D01*
X49415990Y20261411D01*
X49253475Y20504632D01*
X49046632Y20711475D01*
X48872240Y20828000D01*
X49046632Y20944525D01*
X49253475Y21151368D01*
X49415990Y21394589D01*
X49527932Y21664842D01*
X49585000Y21951740D01*
X49585000Y22244260D01*
X49527932Y22531158D01*
X49415990Y22801411D01*
X49294571Y22983128D01*
X54065000Y22983128D01*
X54065000Y22542872D01*
X54150890Y22111075D01*
X54319369Y21704331D01*
X54563962Y21338271D01*
X54875271Y21026962D01*
X55241331Y20782369D01*
X55648075Y20613890D01*
X56079872Y20528000D01*
X56520128Y20528000D01*
X56951925Y20613890D01*
X57358669Y20782369D01*
X57724729Y21026962D01*
X58036038Y21338271D01*
X58280631Y21704331D01*
X58449110Y22111075D01*
X58535000Y22542872D01*
X58535000Y22983128D01*
X58449110Y23414925D01*
X58280631Y23821669D01*
X58036038Y24187729D01*
X57724729Y24499038D01*
X57358669Y24743631D01*
X56951925Y24912110D01*
X56520128Y24998000D01*
X56079872Y24998000D01*
X55648075Y24912110D01*
X55241331Y24743631D01*
X54875271Y24499038D01*
X54563962Y24187729D01*
X54319369Y23821669D01*
X54150890Y23414925D01*
X54065000Y22983128D01*
X49294571Y22983128D01*
X49253475Y23044632D01*
X49046632Y23251475D01*
X48872240Y23368000D01*
X49046632Y23484525D01*
X49253475Y23691368D01*
X49415990Y23934589D01*
X49527932Y24204842D01*
X49585000Y24491740D01*
X49585000Y24784260D01*
X49527932Y25071158D01*
X49415990Y25341411D01*
X49253475Y25584632D01*
X49046632Y25791475D01*
X48872240Y25908000D01*
X49046632Y26024525D01*
X49253475Y26231368D01*
X49415990Y26474589D01*
X49527932Y26744842D01*
X49585000Y27031740D01*
X49585000Y27324260D01*
X49527932Y27611158D01*
X49415990Y27881411D01*
X49253475Y28124632D01*
X49046632Y28331475D01*
X48872240Y28448000D01*
X49046632Y28564525D01*
X49253475Y28771368D01*
X49415990Y29014589D01*
X49527932Y29284842D01*
X49585000Y29571740D01*
X49585000Y29864260D01*
X49527932Y30151158D01*
X49415990Y30421411D01*
X49253475Y30664632D01*
X49046632Y30871475D01*
X48872240Y30988000D01*
X49046632Y31104525D01*
X49253475Y31311368D01*
X49415990Y31554589D01*
X49527932Y31824842D01*
X49585000Y32111740D01*
X49585000Y32404260D01*
X49527932Y32691158D01*
X49415990Y32961411D01*
X49253475Y33204632D01*
X49046632Y33411475D01*
X48872240Y33528000D01*
X49046632Y33644525D01*
X49253475Y33851368D01*
X49415990Y34094589D01*
X49527932Y34364842D01*
X49585000Y34651740D01*
X49585000Y34944260D01*
X49527932Y35231158D01*
X49415990Y35501411D01*
X49253475Y35744632D01*
X49046632Y35951475D01*
X48872240Y36068000D01*
X49046632Y36184525D01*
X49253475Y36391368D01*
X49415990Y36634589D01*
X49527932Y36904842D01*
X49585000Y37191740D01*
X49585000Y37484260D01*
X49527932Y37771158D01*
X49415990Y38041411D01*
X49253475Y38284632D01*
X49046632Y38491475D01*
X48872240Y38608000D01*
X49046632Y38724525D01*
X49253475Y38931368D01*
X49415990Y39174589D01*
X49527932Y39444842D01*
X49585000Y39731740D01*
X49585000Y40024260D01*
X49527932Y40311158D01*
X49415990Y40581411D01*
X49253475Y40824632D01*
X49046632Y41031475D01*
X48872240Y41148000D01*
X49046632Y41264525D01*
X49253475Y41471368D01*
X49415990Y41714589D01*
X49527932Y41984842D01*
X49585000Y42271740D01*
X49585000Y42564260D01*
X49527932Y42851158D01*
X49415990Y43121411D01*
X49253475Y43364632D01*
X49046632Y43571475D01*
X48872240Y43688000D01*
X49046632Y43804525D01*
X49253475Y44011368D01*
X49415990Y44254589D01*
X49527932Y44524842D01*
X49585000Y44811740D01*
X49585000Y45104260D01*
X49527932Y45391158D01*
X49415990Y45661411D01*
X49253475Y45904632D01*
X49046632Y46111475D01*
X48872240Y46228000D01*
X49046632Y46344525D01*
X49253475Y46551368D01*
X49415990Y46794589D01*
X49527932Y47064842D01*
X49585000Y47351740D01*
X49585000Y47644260D01*
X49527932Y47931158D01*
X49415990Y48201411D01*
X49253475Y48444632D01*
X49046632Y48651475D01*
X48872240Y48768000D01*
X49046632Y48884525D01*
X49253475Y49091368D01*
X49415990Y49334589D01*
X49527932Y49604842D01*
X49585000Y49891740D01*
X49585000Y50184260D01*
X49527932Y50471158D01*
X49415990Y50741411D01*
X49254480Y50983128D01*
X54065000Y50983128D01*
X54065000Y50542872D01*
X54150890Y50111075D01*
X54319369Y49704331D01*
X54563962Y49338271D01*
X54875271Y49026962D01*
X55241331Y48782369D01*
X55648075Y48613890D01*
X56079872Y48528000D01*
X56520128Y48528000D01*
X56951925Y48613890D01*
X57358669Y48782369D01*
X57724729Y49026962D01*
X58036038Y49338271D01*
X58280631Y49704331D01*
X58449110Y50111075D01*
X58535000Y50542872D01*
X58535000Y50983128D01*
X58449110Y51414925D01*
X58280631Y51821669D01*
X58036038Y52187729D01*
X57724729Y52499038D01*
X57358669Y52743631D01*
X56951925Y52912110D01*
X56520128Y52998000D01*
X56079872Y52998000D01*
X55648075Y52912110D01*
X55241331Y52743631D01*
X54875271Y52499038D01*
X54563962Y52187729D01*
X54319369Y51821669D01*
X54150890Y51414925D01*
X54065000Y50983128D01*
X49254480Y50983128D01*
X49253475Y50984632D01*
X49046632Y51191475D01*
X48872240Y51308000D01*
X49046632Y51424525D01*
X49253475Y51631368D01*
X49415990Y51874589D01*
X49527932Y52144842D01*
X49585000Y52431740D01*
X49585000Y52724260D01*
X49527932Y53011158D01*
X49415990Y53281411D01*
X49253475Y53524632D01*
X49121620Y53656487D01*
X49194180Y53678498D01*
X49304494Y53737463D01*
X49401185Y53816815D01*
X49480537Y53913506D01*
X49539502Y54023820D01*
X49575812Y54143518D01*
X49588072Y54268000D01*
X49585000Y54832250D01*
X49426250Y54991000D01*
X48227000Y54991000D01*
X48227000Y54971000D01*
X47973000Y54971000D01*
X47973000Y54991000D01*
X46773750Y54991000D01*
X46615000Y54832250D01*
X46611928Y54268000D01*
X42614226Y54268000D01*
X42619385Y54285005D01*
X42638886Y54483000D01*
X42634000Y54532608D01*
X42634000Y55968000D01*
X46611928Y55968000D01*
X46615000Y55403750D01*
X46773750Y55245000D01*
X47973000Y55245000D01*
X47973000Y56444250D01*
X48227000Y56444250D01*
X48227000Y55245000D01*
X49426250Y55245000D01*
X49585000Y55403750D01*
X49588072Y55968000D01*
X49575812Y56092482D01*
X49539502Y56212180D01*
X49480537Y56322494D01*
X49401185Y56419185D01*
X49304494Y56498537D01*
X49194180Y56557502D01*
X49074482Y56593812D01*
X48950000Y56606072D01*
X48385750Y56603000D01*
X48227000Y56444250D01*
X47973000Y56444250D01*
X47814250Y56603000D01*
X47250000Y56606072D01*
X47125518Y56593812D01*
X47005820Y56557502D01*
X46895506Y56498537D01*
X46798815Y56419185D01*
X46719463Y56322494D01*
X46660498Y56212180D01*
X46624188Y56092482D01*
X46611928Y55968000D01*
X42634000Y55968000D01*
X42634000Y67456893D01*
X42777475Y67600368D01*
X42939990Y67843589D01*
X43051932Y68113842D01*
X43109000Y68400740D01*
X43109000Y68693260D01*
X43051932Y68980158D01*
X42939990Y69250411D01*
X42777475Y69493632D01*
X42570632Y69700475D01*
X42327411Y69862990D01*
X42057158Y69974932D01*
X41770260Y70032000D01*
X41477740Y70032000D01*
X41190842Y69974932D01*
X40920589Y69862990D01*
X40677368Y69700475D01*
X40470525Y69493632D01*
X40354000Y69319240D01*
X40237475Y69493632D01*
X40030632Y69700475D01*
X39787411Y69862990D01*
X39517158Y69974932D01*
X39230260Y70032000D01*
X38937740Y70032000D01*
X38650842Y69974932D01*
X38380589Y69862990D01*
X38137368Y69700475D01*
X37930525Y69493632D01*
X37814000Y69319240D01*
X37697475Y69493632D01*
X37490632Y69700475D01*
X37247411Y69862990D01*
X36977158Y69974932D01*
X36690260Y70032000D01*
X36397740Y70032000D01*
X36110842Y69974932D01*
X35840589Y69862990D01*
X35597368Y69700475D01*
X35390525Y69493632D01*
X35274000Y69319240D01*
X35157475Y69493632D01*
X34950632Y69700475D01*
X34707411Y69862990D01*
X34437158Y69974932D01*
X34150260Y70032000D01*
X33857740Y70032000D01*
X33570842Y69974932D01*
X33300589Y69862990D01*
X33057368Y69700475D01*
X32850525Y69493632D01*
X32728805Y69311466D01*
X32659178Y69428355D01*
X32464269Y69644588D01*
X32230920Y69818641D01*
X31968099Y69943825D01*
X31820890Y69988476D01*
X31591000Y69867155D01*
X31591000Y68674000D01*
X31611000Y68674000D01*
X31611000Y68420000D01*
X31591000Y68420000D01*
X31591000Y67226845D01*
X31820890Y67105524D01*
X31968099Y67150175D01*
X32230920Y67275359D01*
X32464269Y67449412D01*
X32659178Y67665645D01*
X32728805Y67782534D01*
X32850525Y67600368D01*
X32994000Y67456893D01*
X32994001Y58457357D01*
X25584645Y51048000D01*
X24190107Y51048000D01*
X24046632Y51191475D01*
X23872240Y51308000D01*
X24046632Y51424525D01*
X24253475Y51631368D01*
X24415990Y51874589D01*
X24527932Y52144842D01*
X24585000Y52431740D01*
X24585000Y52724260D01*
X24527932Y53011158D01*
X24415990Y53281411D01*
X24253475Y53524632D01*
X24046632Y53731475D01*
X23872240Y53848000D01*
X24046632Y53964525D01*
X24253475Y54171368D01*
X24415990Y54414589D01*
X24527932Y54684842D01*
X24585000Y54971740D01*
X24585000Y55174645D01*
X29603100Y60192744D01*
X29641633Y60224367D01*
X29767847Y60378160D01*
X29861632Y60553620D01*
X29919385Y60744006D01*
X29934000Y60892392D01*
X29938886Y60942000D01*
X29934000Y60991608D01*
X29934000Y67081962D01*
X30018180Y67107498D01*
X30128494Y67166463D01*
X30225185Y67245815D01*
X30304537Y67342506D01*
X30363502Y67452820D01*
X30387966Y67533466D01*
X30463731Y67449412D01*
X30697080Y67275359D01*
X30959901Y67150175D01*
X31107110Y67105524D01*
X31337000Y67226845D01*
X31337000Y68420000D01*
X31317000Y68420000D01*
X31317000Y68674000D01*
X31337000Y68674000D01*
X31337000Y69867155D01*
X31107110Y69988476D01*
X30959901Y69943825D01*
X30697080Y69818641D01*
X30463731Y69644588D01*
X30387966Y69560534D01*
X30363502Y69641180D01*
X30304537Y69751494D01*
X30225185Y69848185D01*
X30128494Y69927537D01*
X30018180Y69986502D01*
X29898482Y70022812D01*
X29774000Y70035072D01*
X28074000Y70035072D01*
X27949518Y70022812D01*
X27829820Y69986502D01*
X27719506Y69927537D01*
X27622815Y69848185D01*
X27543463Y69751494D01*
X27484498Y69641180D01*
X27448188Y69521482D01*
X27435928Y69397000D01*
X27435928Y67697000D01*
X27448188Y67572518D01*
X27484498Y67452820D01*
X27543463Y67342506D01*
X27622815Y67245815D01*
X27719506Y67166463D01*
X27829820Y67107498D01*
X27914000Y67081962D01*
X27914001Y61360357D01*
X23156645Y56603000D01*
X23043356Y56603000D01*
X15304261Y64342094D01*
X15272633Y64380633D01*
X15118840Y64506847D01*
X14943380Y64600632D01*
X14752994Y64658385D01*
X14604608Y64673000D01*
X14555000Y64677886D01*
X14505392Y64673000D01*
X10349608Y64673000D01*
X10300000Y64677886D01*
X10102005Y64658385D01*
X9911620Y64600632D01*
X9736160Y64506847D01*
X9582367Y64380633D01*
X9550744Y64342100D01*
X2620901Y57412256D01*
X2582368Y57380633D01*
X2550745Y57342100D01*
X2550744Y57342099D01*
X2456154Y57226840D01*
X2362368Y57051379D01*
X2304615Y56860994D01*
X2285114Y56663000D01*
X2290001Y56613382D01*
X2290000Y44057450D01*
X2147498Y43940502D01*
X1993167Y43752449D01*
X1878489Y43537901D01*
X1807870Y43305102D01*
X1784025Y43063000D01*
X1086212Y43063000D01*
X1126822Y71936000D01*
X59873000Y71936000D01*
X59873000Y1090000D01*
%TA.AperFunction,Conductor*%
D15*
G36*
X59873000Y1090000D02*
G01*
X1027179Y1090000D01*
X1030523Y3468000D01*
X21611928Y3468000D01*
X21624188Y3343518D01*
X21660498Y3223820D01*
X21719463Y3113506D01*
X21798815Y3016815D01*
X21895506Y2937463D01*
X22005820Y2878498D01*
X22125518Y2842188D01*
X22250000Y2829928D01*
X22814250Y2833000D01*
X22973000Y2991750D01*
X22973000Y4191000D01*
X23227000Y4191000D01*
X23227000Y2991750D01*
X23385750Y2833000D01*
X23950000Y2829928D01*
X24074482Y2842188D01*
X24194180Y2878498D01*
X24304494Y2937463D01*
X24401185Y3016815D01*
X24480537Y3113506D01*
X24539502Y3223820D01*
X24575812Y3343518D01*
X24588072Y3468000D01*
X24585000Y4032250D01*
X24426250Y4191000D01*
X23227000Y4191000D01*
X22973000Y4191000D01*
X21773750Y4191000D01*
X21615000Y4032250D01*
X21611928Y3468000D01*
X1030523Y3468000D01*
X1086212Y43063000D01*
X1784025Y43063000D01*
X1807870Y42820898D01*
X1878489Y42588099D01*
X1993167Y42373551D01*
X2147498Y42185498D01*
X2297348Y42062519D01*
X2233275Y42019307D01*
X2061922Y41846474D01*
X1927579Y41643533D01*
X1835409Y41418282D01*
X1831538Y41380609D01*
X1956269Y41190000D01*
X3173000Y41190000D01*
X3173000Y41210000D01*
X3427000Y41210000D01*
X3427000Y41190000D01*
X4643731Y41190000D01*
X4768462Y41380609D01*
X4764591Y41418282D01*
X4672421Y41643533D01*
X4538078Y41846474D01*
X4366725Y42019307D01*
X4302652Y42062519D01*
X4452502Y42185498D01*
X4606833Y42373551D01*
X4721511Y42588099D01*
X4792130Y42820898D01*
X4815975Y43063000D01*
X4792130Y43305102D01*
X4721511Y43537901D01*
X4606833Y43752449D01*
X4452502Y43940502D01*
X4310000Y44057450D01*
X4310000Y50983128D01*
X11065000Y50983128D01*
X11065000Y50542872D01*
X11150890Y50111075D01*
X11319369Y49704331D01*
X11563962Y49338271D01*
X11875271Y49026962D01*
X12241331Y48782369D01*
X12648075Y48613890D01*
X13079872Y48528000D01*
X13520128Y48528000D01*
X13951925Y48613890D01*
X14358669Y48782369D01*
X14724729Y49026962D01*
X15036038Y49338271D01*
X15280631Y49704331D01*
X15449110Y50111075D01*
X15535000Y50542872D01*
X15535000Y50983128D01*
X15449110Y51414925D01*
X15280631Y51821669D01*
X15036038Y52187729D01*
X14724729Y52499038D01*
X14358669Y52743631D01*
X13951925Y52912110D01*
X13520128Y52998000D01*
X13079872Y52998000D01*
X12648075Y52912110D01*
X12241331Y52743631D01*
X11875271Y52499038D01*
X11563962Y52187729D01*
X11319369Y51821669D01*
X11150890Y51414925D01*
X11065000Y50983128D01*
X4310000Y50983128D01*
X4310000Y56244645D01*
X10718356Y62653000D01*
X14136645Y62653000D01*
X21615000Y55174644D01*
X21615000Y54971740D01*
X21672068Y54684842D01*
X21784010Y54414589D01*
X21946525Y54171368D01*
X22153368Y53964525D01*
X22327760Y53848000D01*
X22153368Y53731475D01*
X21946525Y53524632D01*
X21784010Y53281411D01*
X21672068Y53011158D01*
X21615000Y52724260D01*
X21615000Y52431740D01*
X21672068Y52144842D01*
X21784010Y51874589D01*
X21946525Y51631368D01*
X22153368Y51424525D01*
X22327760Y51308000D01*
X22153368Y51191475D01*
X21946525Y50984632D01*
X21784010Y50741411D01*
X21672068Y50471158D01*
X21615000Y50184260D01*
X21615000Y49891740D01*
X21672068Y49604842D01*
X21784010Y49334589D01*
X21946525Y49091368D01*
X22153368Y48884525D01*
X22327760Y48768000D01*
X22153368Y48651475D01*
X21946525Y48444632D01*
X21784010Y48201411D01*
X21672068Y47931158D01*
X21615000Y47644260D01*
X21615000Y47351740D01*
X21672068Y47064842D01*
X21784010Y46794589D01*
X21946525Y46551368D01*
X22153368Y46344525D01*
X22327760Y46228000D01*
X22153368Y46111475D01*
X21946525Y45904632D01*
X21784010Y45661411D01*
X21672068Y45391158D01*
X21615000Y45104260D01*
X21615000Y44811740D01*
X21672068Y44524842D01*
X21784010Y44254589D01*
X21946525Y44011368D01*
X22153368Y43804525D01*
X22327760Y43688000D01*
X22153368Y43571475D01*
X21946525Y43364632D01*
X21784010Y43121411D01*
X21672068Y42851158D01*
X21615000Y42564260D01*
X21615000Y42271740D01*
X21672068Y41984842D01*
X21784010Y41714589D01*
X21946525Y41471368D01*
X22153368Y41264525D01*
X22327760Y41148000D01*
X22153368Y41031475D01*
X21946525Y40824632D01*
X21784010Y40581411D01*
X21672068Y40311158D01*
X21615000Y40024260D01*
X21615000Y39731740D01*
X21672068Y39444842D01*
X21784010Y39174589D01*
X21946525Y38931368D01*
X22153368Y38724525D01*
X22327760Y38608000D01*
X22153368Y38491475D01*
X21946525Y38284632D01*
X21784010Y38041411D01*
X21672068Y37771158D01*
X21615000Y37484260D01*
X21615000Y37191740D01*
X21672068Y36904842D01*
X21784010Y36634589D01*
X21946525Y36391368D01*
X22153368Y36184525D01*
X22327760Y36068000D01*
X22153368Y35951475D01*
X21946525Y35744632D01*
X21784010Y35501411D01*
X21672068Y35231158D01*
X21615000Y34944260D01*
X21615000Y34651740D01*
X21672068Y34364842D01*
X21784010Y34094589D01*
X21946525Y33851368D01*
X22153368Y33644525D01*
X22327760Y33528000D01*
X22153368Y33411475D01*
X21946525Y33204632D01*
X21784010Y32961411D01*
X21672068Y32691158D01*
X21615000Y32404260D01*
X21615000Y32111740D01*
X21672068Y31824842D01*
X21784010Y31554589D01*
X21946525Y31311368D01*
X22153368Y31104525D01*
X22327760Y30988000D01*
X22153368Y30871475D01*
X21946525Y30664632D01*
X21784010Y30421411D01*
X21672068Y30151158D01*
X21615000Y29864260D01*
X21615000Y29571740D01*
X21672068Y29284842D01*
X21784010Y29014589D01*
X21946525Y28771368D01*
X22153368Y28564525D01*
X22327760Y28448000D01*
X22153368Y28331475D01*
X21946525Y28124632D01*
X21784010Y27881411D01*
X21672068Y27611158D01*
X21615000Y27324260D01*
X21615000Y27031740D01*
X21672068Y26744842D01*
X21784010Y26474589D01*
X21946525Y26231368D01*
X22153368Y26024525D01*
X22327760Y25908000D01*
X22153368Y25791475D01*
X22009893Y25648000D01*
X21610000Y25648000D01*
X21610000Y27013392D01*
X21614886Y27063000D01*
X21595385Y27260995D01*
X21537632Y27451380D01*
X21443846Y27626841D01*
X21349256Y27742100D01*
X21317633Y27780633D01*
X21279100Y27812256D01*
X9349261Y39742094D01*
X9317633Y39780633D01*
X9163840Y39906847D01*
X8988380Y40000632D01*
X8797994Y40058385D01*
X8649608Y40073000D01*
X8600000Y40077886D01*
X8550392Y40073000D01*
X4316766Y40073000D01*
X4366725Y40106693D01*
X4538078Y40279526D01*
X4672421Y40482467D01*
X4764591Y40707718D01*
X4768462Y40745391D01*
X4643731Y40936000D01*
X3427000Y40936000D01*
X3427000Y40916000D01*
X3173000Y40916000D01*
X3173000Y40936000D01*
X1956269Y40936000D01*
X1831538Y40745391D01*
X1835409Y40707718D01*
X1927579Y40482467D01*
X2061922Y40279526D01*
X2233275Y40106693D01*
X2297348Y40063481D01*
X2147498Y39940502D01*
X1993167Y39752449D01*
X1878489Y39537901D01*
X1807870Y39305102D01*
X1784025Y39063000D01*
X1807870Y38820898D01*
X1878489Y38588099D01*
X1993167Y38373551D01*
X2147498Y38185498D01*
X2296762Y38063000D01*
X2147498Y37940502D01*
X1993167Y37752449D01*
X1878489Y37537901D01*
X1807870Y37305102D01*
X1784025Y37063000D01*
X1807870Y36820898D01*
X1878489Y36588099D01*
X1993167Y36373551D01*
X2147498Y36185498D01*
X2296762Y36063000D01*
X2147498Y35940502D01*
X1993167Y35752449D01*
X1878489Y35537901D01*
X1807870Y35305102D01*
X1784025Y35063000D01*
X1807870Y34820898D01*
X1878489Y34588099D01*
X1993167Y34373551D01*
X2147498Y34185498D01*
X2296762Y34063000D01*
X2147498Y33940502D01*
X1993167Y33752449D01*
X1878489Y33537901D01*
X1807870Y33305102D01*
X1784025Y33063000D01*
X1807870Y32820898D01*
X1878489Y32588099D01*
X1993167Y32373551D01*
X2147498Y32185498D01*
X2296762Y32063000D01*
X2147498Y31940502D01*
X1993167Y31752449D01*
X1878489Y31537901D01*
X1807870Y31305102D01*
X1784025Y31063000D01*
X1807870Y30820898D01*
X1878489Y30588099D01*
X1993167Y30373551D01*
X2147498Y30185498D01*
X2186111Y30153809D01*
X2181613Y30151405D01*
X2047038Y30040962D01*
X1936595Y29906387D01*
X1854528Y29752851D01*
X1803992Y29586255D01*
X1786928Y29413001D01*
X1786928Y28712999D01*
X1803992Y28539745D01*
X1854528Y28373149D01*
X1936595Y28219613D01*
X2047038Y28085038D01*
X2181613Y27974595D01*
X2290000Y27916661D01*
X2290001Y16212618D01*
X2285114Y16163000D01*
X2304615Y15965006D01*
X2362368Y15774621D01*
X2438881Y15631475D01*
X2456154Y15599160D01*
X2582368Y15445367D01*
X2620901Y15413744D01*
X6775739Y11258906D01*
X6807367Y11220367D01*
X6961160Y11094153D01*
X7136620Y11000368D01*
X7327006Y10942615D01*
X7475392Y10928000D01*
X7475394Y10928000D01*
X7524999Y10923114D01*
X7574604Y10928000D01*
X22009893Y10928000D01*
X22153368Y10784525D01*
X22327760Y10668000D01*
X22153368Y10551475D01*
X21946525Y10344632D01*
X21784010Y10101411D01*
X21672068Y9831158D01*
X21615000Y9544260D01*
X21615000Y9251740D01*
X21672068Y8964842D01*
X21784010Y8694589D01*
X21946525Y8451368D01*
X22153368Y8244525D01*
X22327760Y8128000D01*
X22153368Y8011475D01*
X21946525Y7804632D01*
X21784010Y7561411D01*
X21672068Y7291158D01*
X21615000Y7004260D01*
X21615000Y6711740D01*
X21672068Y6424842D01*
X21784010Y6154589D01*
X21946525Y5911368D01*
X22078380Y5779513D01*
X22005820Y5757502D01*
X21895506Y5698537D01*
X21798815Y5619185D01*
X21719463Y5522494D01*
X21660498Y5412180D01*
X21624188Y5292482D01*
X21611928Y5168000D01*
X21615000Y4603750D01*
X21773750Y4445000D01*
X22973000Y4445000D01*
X22973000Y4465000D01*
X23227000Y4465000D01*
X23227000Y4445000D01*
X24426250Y4445000D01*
X24585000Y4603750D01*
X24588072Y5168000D01*
X24575812Y5292482D01*
X24539502Y5412180D01*
X24480537Y5522494D01*
X24401185Y5619185D01*
X24304494Y5698537D01*
X24194180Y5757502D01*
X24121620Y5779513D01*
X24253475Y5911368D01*
X24415990Y6154589D01*
X24527932Y6424842D01*
X24585000Y6711740D01*
X24585000Y7004260D01*
X24527932Y7291158D01*
X24415990Y7561411D01*
X24253475Y7804632D01*
X24046632Y8011475D01*
X23872240Y8128000D01*
X24046632Y8244525D01*
X24253475Y8451368D01*
X24415990Y8694589D01*
X24527932Y8964842D01*
X24585000Y9251740D01*
X24585000Y9544260D01*
X24527932Y9831158D01*
X24415990Y10101411D01*
X24253475Y10344632D01*
X24046632Y10551475D01*
X23872240Y10668000D01*
X24046632Y10784525D01*
X24253475Y10991368D01*
X24415990Y11234589D01*
X24527932Y11504842D01*
X24585000Y11791740D01*
X24585000Y12084260D01*
X24527932Y12371158D01*
X24415990Y12641411D01*
X24253475Y12884632D01*
X24046632Y13091475D01*
X23872240Y13208000D01*
X24046632Y13324525D01*
X24253475Y13531368D01*
X24415990Y13774589D01*
X24527932Y14044842D01*
X24585000Y14331740D01*
X24585000Y14624260D01*
X24527932Y14911158D01*
X24415990Y15181411D01*
X24253475Y15424632D01*
X24046632Y15631475D01*
X23872240Y15748000D01*
X24046632Y15864525D01*
X24253475Y16071368D01*
X24415990Y16314589D01*
X24527932Y16584842D01*
X24585000Y16871740D01*
X24585000Y17164260D01*
X24527932Y17451158D01*
X24415990Y17721411D01*
X24253475Y17964632D01*
X24046632Y18171475D01*
X23872240Y18288000D01*
X24046632Y18404525D01*
X24253475Y18611368D01*
X24415990Y18854589D01*
X24527932Y19124842D01*
X24585000Y19411740D01*
X24585000Y19704260D01*
X24527932Y19991158D01*
X24415990Y20261411D01*
X24253475Y20504632D01*
X24046632Y20711475D01*
X23872240Y20828000D01*
X24046632Y20944525D01*
X24253475Y21151368D01*
X24415990Y21394589D01*
X24527932Y21664842D01*
X24585000Y21951740D01*
X24585000Y22244260D01*
X24527932Y22531158D01*
X24415990Y22801411D01*
X24253475Y23044632D01*
X24046632Y23251475D01*
X23872240Y23368000D01*
X24046632Y23484525D01*
X24253475Y23691368D01*
X24415990Y23934589D01*
X24527932Y24204842D01*
X24585000Y24491740D01*
X24585000Y24784260D01*
X24527932Y25071158D01*
X24415990Y25341411D01*
X24253475Y25584632D01*
X24046632Y25791475D01*
X23872240Y25908000D01*
X24046632Y26024525D01*
X24253475Y26231368D01*
X24415990Y26474589D01*
X24527932Y26744842D01*
X24585000Y27031740D01*
X24585000Y27324260D01*
X24527932Y27611158D01*
X24415990Y27881411D01*
X24253475Y28124632D01*
X24046632Y28331475D01*
X23872240Y28448000D01*
X24046632Y28564525D01*
X24253475Y28771368D01*
X24415990Y29014589D01*
X24527932Y29284842D01*
X24585000Y29571740D01*
X24585000Y29864260D01*
X24527932Y30151158D01*
X24415990Y30421411D01*
X24253475Y30664632D01*
X24046632Y30871475D01*
X23872240Y30988000D01*
X24046632Y31104525D01*
X24253475Y31311368D01*
X24415990Y31554589D01*
X24527932Y31824842D01*
X24585000Y32111740D01*
X24585000Y32404260D01*
X24527932Y32691158D01*
X24415990Y32961411D01*
X24253475Y33204632D01*
X24046632Y33411475D01*
X23872240Y33528000D01*
X24046632Y33644525D01*
X24253475Y33851368D01*
X24415990Y34094589D01*
X24527932Y34364842D01*
X24585000Y34651740D01*
X24585000Y34944260D01*
X24527932Y35231158D01*
X24415990Y35501411D01*
X24253475Y35744632D01*
X24046632Y35951475D01*
X23872240Y36068000D01*
X24046632Y36184525D01*
X24253475Y36391368D01*
X24415990Y36634589D01*
X24527932Y36904842D01*
X24585000Y37191740D01*
X24585000Y37484260D01*
X24527932Y37771158D01*
X24415990Y38041411D01*
X24253475Y38284632D01*
X24046632Y38491475D01*
X23872240Y38608000D01*
X24046632Y38724525D01*
X24253475Y38931368D01*
X24415990Y39174589D01*
X24527932Y39444842D01*
X24585000Y39731740D01*
X24585000Y40024260D01*
X24527932Y40311158D01*
X24415990Y40581411D01*
X24253475Y40824632D01*
X24046632Y41031475D01*
X23872240Y41148000D01*
X24046632Y41264525D01*
X24190107Y41408000D01*
X29509392Y41408000D01*
X29559000Y41403114D01*
X29756994Y41422615D01*
X29947380Y41480368D01*
X30122840Y41574153D01*
X30276633Y41700367D01*
X30308261Y41738906D01*
X42303100Y53733744D01*
X42341633Y53765367D01*
X42467847Y53919160D01*
X42561632Y54094620D01*
X42584913Y54171368D01*
X42614226Y54268000D01*
X46611928Y54268000D01*
X46624188Y54143518D01*
X46660498Y54023820D01*
X46719463Y53913506D01*
X46798815Y53816815D01*
X46895506Y53737463D01*
X47005820Y53678498D01*
X47078380Y53656487D01*
X46946525Y53524632D01*
X46784010Y53281411D01*
X46672068Y53011158D01*
X46615000Y52724260D01*
X46615000Y52431740D01*
X46672068Y52144842D01*
X46784010Y51874589D01*
X46946525Y51631368D01*
X47153368Y51424525D01*
X47327760Y51308000D01*
X47153368Y51191475D01*
X46946525Y50984632D01*
X46784010Y50741411D01*
X46672068Y50471158D01*
X46615000Y50184260D01*
X46615000Y49891740D01*
X46672068Y49604842D01*
X46784010Y49334589D01*
X46946525Y49091368D01*
X47153368Y48884525D01*
X47327760Y48768000D01*
X47153368Y48651475D01*
X46946525Y48444632D01*
X46784010Y48201411D01*
X46672068Y47931158D01*
X46615000Y47644260D01*
X46615000Y47351740D01*
X46672068Y47064842D01*
X46784010Y46794589D01*
X46946525Y46551368D01*
X47153368Y46344525D01*
X47327760Y46228000D01*
X47153368Y46111475D01*
X46946525Y45904632D01*
X46784010Y45661411D01*
X46672068Y45391158D01*
X46615000Y45104260D01*
X46615000Y44811740D01*
X46672068Y44524842D01*
X46784010Y44254589D01*
X46946525Y44011368D01*
X47153368Y43804525D01*
X47327760Y43688000D01*
X47153368Y43571475D01*
X46946525Y43364632D01*
X46784010Y43121411D01*
X46672068Y42851158D01*
X46615000Y42564260D01*
X46615000Y42271740D01*
X46672068Y41984842D01*
X46784010Y41714589D01*
X46946525Y41471368D01*
X47153368Y41264525D01*
X47327760Y41148000D01*
X47153368Y41031475D01*
X46946525Y40824632D01*
X46784010Y40581411D01*
X46672068Y40311158D01*
X46615000Y40024260D01*
X46615000Y39731740D01*
X46672068Y39444842D01*
X46784010Y39174589D01*
X46946525Y38931368D01*
X47153368Y38724525D01*
X47327760Y38608000D01*
X47153368Y38491475D01*
X46946525Y38284632D01*
X46784010Y38041411D01*
X46672068Y37771158D01*
X46615000Y37484260D01*
X46615000Y37191740D01*
X46672068Y36904842D01*
X46784010Y36634589D01*
X46946525Y36391368D01*
X47153368Y36184525D01*
X47327760Y36068000D01*
X47153368Y35951475D01*
X46946525Y35744632D01*
X46784010Y35501411D01*
X46672068Y35231158D01*
X46615000Y34944260D01*
X46615000Y34651740D01*
X46672068Y34364842D01*
X46784010Y34094589D01*
X46946525Y33851368D01*
X47153368Y33644525D01*
X47327760Y33528000D01*
X47153368Y33411475D01*
X46946525Y33204632D01*
X46784010Y32961411D01*
X46672068Y32691158D01*
X46615000Y32404260D01*
X46615000Y32111740D01*
X46672068Y31824842D01*
X46784010Y31554589D01*
X46946525Y31311368D01*
X47153368Y31104525D01*
X47327760Y30988000D01*
X47153368Y30871475D01*
X46946525Y30664632D01*
X46784010Y30421411D01*
X46672068Y30151158D01*
X46615000Y29864260D01*
X46615000Y29571740D01*
X46672068Y29284842D01*
X46784010Y29014589D01*
X46946525Y28771368D01*
X47153368Y28564525D01*
X47327760Y28448000D01*
X47153368Y28331475D01*
X46946525Y28124632D01*
X46784010Y27881411D01*
X46672068Y27611158D01*
X46615000Y27324260D01*
X46615000Y27031740D01*
X46672068Y26744842D01*
X46784010Y26474589D01*
X46946525Y26231368D01*
X47153368Y26024525D01*
X47327760Y25908000D01*
X47153368Y25791475D01*
X46946525Y25584632D01*
X46784010Y25341411D01*
X46672068Y25071158D01*
X46615000Y24784260D01*
X46615000Y24491740D01*
X46672068Y24204842D01*
X46784010Y23934589D01*
X46946525Y23691368D01*
X47153368Y23484525D01*
X47327760Y23368000D01*
X47153368Y23251475D01*
X46946525Y23044632D01*
X46784010Y22801411D01*
X46672068Y22531158D01*
X46615000Y22244260D01*
X46615000Y21951740D01*
X46672068Y21664842D01*
X46784010Y21394589D01*
X46946525Y21151368D01*
X47153368Y20944525D01*
X47327760Y20828000D01*
X47153368Y20711475D01*
X46946525Y20504632D01*
X46784010Y20261411D01*
X46672068Y19991158D01*
X46615000Y19704260D01*
X46615000Y19411740D01*
X46672068Y19124842D01*
X46784010Y18854589D01*
X46946525Y18611368D01*
X47153368Y18404525D01*
X47327760Y18288000D01*
X47153368Y18171475D01*
X46946525Y17964632D01*
X46784010Y17721411D01*
X46672068Y17451158D01*
X46615000Y17164260D01*
X46615000Y16871740D01*
X46672068Y16584842D01*
X46784010Y16314589D01*
X46946525Y16071368D01*
X47153368Y15864525D01*
X47327760Y15748000D01*
X47153368Y15631475D01*
X46946525Y15424632D01*
X46784010Y15181411D01*
X46672068Y14911158D01*
X46615000Y14624260D01*
X46615000Y14331740D01*
X46672068Y14044842D01*
X46784010Y13774589D01*
X46946525Y13531368D01*
X47153368Y13324525D01*
X47327760Y13208000D01*
X47153368Y13091475D01*
X46946525Y12884632D01*
X46784010Y12641411D01*
X46672068Y12371158D01*
X46615000Y12084260D01*
X46615000Y11791740D01*
X46672068Y11504842D01*
X46784010Y11234589D01*
X46946525Y10991368D01*
X47153368Y10784525D01*
X47327760Y10668000D01*
X47153368Y10551475D01*
X46946525Y10344632D01*
X46784010Y10101411D01*
X46672068Y9831158D01*
X46615000Y9544260D01*
X46615000Y9251740D01*
X46672068Y8964842D01*
X46784010Y8694589D01*
X46946525Y8451368D01*
X47153368Y8244525D01*
X47327760Y8128000D01*
X47153368Y8011475D01*
X46946525Y7804632D01*
X46784010Y7561411D01*
X46672068Y7291158D01*
X46615000Y7004260D01*
X46615000Y6711740D01*
X46672068Y6424842D01*
X46784010Y6154589D01*
X46946525Y5911368D01*
X47153368Y5704525D01*
X47327760Y5588000D01*
X47153368Y5471475D01*
X46946525Y5264632D01*
X46784010Y5021411D01*
X46672068Y4751158D01*
X46615000Y4464260D01*
X46615000Y4171740D01*
X46672068Y3884842D01*
X46784010Y3614589D01*
X46946525Y3371368D01*
X47153368Y3164525D01*
X47396589Y3002010D01*
X47666842Y2890068D01*
X47953740Y2833000D01*
X48246260Y2833000D01*
X48533158Y2890068D01*
X48803411Y3002010D01*
X49046632Y3164525D01*
X49253475Y3371368D01*
X49415990Y3614589D01*
X49527932Y3884842D01*
X49585000Y4171740D01*
X49585000Y4464260D01*
X49527932Y4751158D01*
X49415990Y5021411D01*
X49253475Y5264632D01*
X49046632Y5471475D01*
X48872240Y5588000D01*
X49046632Y5704525D01*
X49253475Y5911368D01*
X49415990Y6154589D01*
X49527932Y6424842D01*
X49585000Y6711740D01*
X49585000Y7004260D01*
X49527932Y7291158D01*
X49415990Y7561411D01*
X49253475Y7804632D01*
X49046632Y8011475D01*
X48872240Y8128000D01*
X49046632Y8244525D01*
X49253475Y8451368D01*
X49415990Y8694589D01*
X49527932Y8964842D01*
X49585000Y9251740D01*
X49585000Y9544260D01*
X49527932Y9831158D01*
X49415990Y10101411D01*
X49253475Y10344632D01*
X49046632Y10551475D01*
X48872240Y10668000D01*
X49046632Y10784525D01*
X49253475Y10991368D01*
X49415990Y11234589D01*
X49527932Y11504842D01*
X49585000Y11791740D01*
X49585000Y12084260D01*
X49527932Y12371158D01*
X49415990Y12641411D01*
X49253475Y12884632D01*
X49046632Y13091475D01*
X48872240Y13208000D01*
X49046632Y13324525D01*
X49253475Y13531368D01*
X49415990Y13774589D01*
X49527932Y14044842D01*
X49585000Y14331740D01*
X49585000Y14624260D01*
X49527932Y14911158D01*
X49415990Y15181411D01*
X49253475Y15424632D01*
X49046632Y15631475D01*
X48872240Y15748000D01*
X49046632Y15864525D01*
X49253475Y16071368D01*
X49415990Y16314589D01*
X49527932Y16584842D01*
X49585000Y16871740D01*
X49585000Y17164260D01*
X49527932Y17451158D01*
X49415990Y17721411D01*
X49253475Y17964632D01*
X49046632Y18171475D01*
X48872240Y18288000D01*
X49046632Y18404525D01*
X49253475Y18611368D01*
X49415990Y18854589D01*
X49527932Y19124842D01*
X49585000Y19411740D01*
X49585000Y19704260D01*
X49527932Y19991158D01*
X49415990Y20261411D01*
X49253475Y20504632D01*
X49046632Y20711475D01*
X48872240Y20828000D01*
X49046632Y20944525D01*
X49253475Y21151368D01*
X49415990Y21394589D01*
X49527932Y21664842D01*
X49585000Y21951740D01*
X49585000Y22244260D01*
X49527932Y22531158D01*
X49415990Y22801411D01*
X49294571Y22983128D01*
X54065000Y22983128D01*
X54065000Y22542872D01*
X54150890Y22111075D01*
X54319369Y21704331D01*
X54563962Y21338271D01*
X54875271Y21026962D01*
X55241331Y20782369D01*
X55648075Y20613890D01*
X56079872Y20528000D01*
X56520128Y20528000D01*
X56951925Y20613890D01*
X57358669Y20782369D01*
X57724729Y21026962D01*
X58036038Y21338271D01*
X58280631Y21704331D01*
X58449110Y22111075D01*
X58535000Y22542872D01*
X58535000Y22983128D01*
X58449110Y23414925D01*
X58280631Y23821669D01*
X58036038Y24187729D01*
X57724729Y24499038D01*
X57358669Y24743631D01*
X56951925Y24912110D01*
X56520128Y24998000D01*
X56079872Y24998000D01*
X55648075Y24912110D01*
X55241331Y24743631D01*
X54875271Y24499038D01*
X54563962Y24187729D01*
X54319369Y23821669D01*
X54150890Y23414925D01*
X54065000Y22983128D01*
X49294571Y22983128D01*
X49253475Y23044632D01*
X49046632Y23251475D01*
X48872240Y23368000D01*
X49046632Y23484525D01*
X49253475Y23691368D01*
X49415990Y23934589D01*
X49527932Y24204842D01*
X49585000Y24491740D01*
X49585000Y24784260D01*
X49527932Y25071158D01*
X49415990Y25341411D01*
X49253475Y25584632D01*
X49046632Y25791475D01*
X48872240Y25908000D01*
X49046632Y26024525D01*
X49253475Y26231368D01*
X49415990Y26474589D01*
X49527932Y26744842D01*
X49585000Y27031740D01*
X49585000Y27324260D01*
X49527932Y27611158D01*
X49415990Y27881411D01*
X49253475Y28124632D01*
X49046632Y28331475D01*
X48872240Y28448000D01*
X49046632Y28564525D01*
X49253475Y28771368D01*
X49415990Y29014589D01*
X49527932Y29284842D01*
X49585000Y29571740D01*
X49585000Y29864260D01*
X49527932Y30151158D01*
X49415990Y30421411D01*
X49253475Y30664632D01*
X49046632Y30871475D01*
X48872240Y30988000D01*
X49046632Y31104525D01*
X49253475Y31311368D01*
X49415990Y31554589D01*
X49527932Y31824842D01*
X49585000Y32111740D01*
X49585000Y32404260D01*
X49527932Y32691158D01*
X49415990Y32961411D01*
X49253475Y33204632D01*
X49046632Y33411475D01*
X48872240Y33528000D01*
X49046632Y33644525D01*
X49253475Y33851368D01*
X49415990Y34094589D01*
X49527932Y34364842D01*
X49585000Y34651740D01*
X49585000Y34944260D01*
X49527932Y35231158D01*
X49415990Y35501411D01*
X49253475Y35744632D01*
X49046632Y35951475D01*
X48872240Y36068000D01*
X49046632Y36184525D01*
X49253475Y36391368D01*
X49415990Y36634589D01*
X49527932Y36904842D01*
X49585000Y37191740D01*
X49585000Y37484260D01*
X49527932Y37771158D01*
X49415990Y38041411D01*
X49253475Y38284632D01*
X49046632Y38491475D01*
X48872240Y38608000D01*
X49046632Y38724525D01*
X49253475Y38931368D01*
X49415990Y39174589D01*
X49527932Y39444842D01*
X49585000Y39731740D01*
X49585000Y40024260D01*
X49527932Y40311158D01*
X49415990Y40581411D01*
X49253475Y40824632D01*
X49046632Y41031475D01*
X48872240Y41148000D01*
X49046632Y41264525D01*
X49253475Y41471368D01*
X49415990Y41714589D01*
X49527932Y41984842D01*
X49585000Y42271740D01*
X49585000Y42564260D01*
X49527932Y42851158D01*
X49415990Y43121411D01*
X49253475Y43364632D01*
X49046632Y43571475D01*
X48872240Y43688000D01*
X49046632Y43804525D01*
X49253475Y44011368D01*
X49415990Y44254589D01*
X49527932Y44524842D01*
X49585000Y44811740D01*
X49585000Y45104260D01*
X49527932Y45391158D01*
X49415990Y45661411D01*
X49253475Y45904632D01*
X49046632Y46111475D01*
X48872240Y46228000D01*
X49046632Y46344525D01*
X49253475Y46551368D01*
X49415990Y46794589D01*
X49527932Y47064842D01*
X49585000Y47351740D01*
X49585000Y47644260D01*
X49527932Y47931158D01*
X49415990Y48201411D01*
X49253475Y48444632D01*
X49046632Y48651475D01*
X48872240Y48768000D01*
X49046632Y48884525D01*
X49253475Y49091368D01*
X49415990Y49334589D01*
X49527932Y49604842D01*
X49585000Y49891740D01*
X49585000Y50184260D01*
X49527932Y50471158D01*
X49415990Y50741411D01*
X49254480Y50983128D01*
X54065000Y50983128D01*
X54065000Y50542872D01*
X54150890Y50111075D01*
X54319369Y49704331D01*
X54563962Y49338271D01*
X54875271Y49026962D01*
X55241331Y48782369D01*
X55648075Y48613890D01*
X56079872Y48528000D01*
X56520128Y48528000D01*
X56951925Y48613890D01*
X57358669Y48782369D01*
X57724729Y49026962D01*
X58036038Y49338271D01*
X58280631Y49704331D01*
X58449110Y50111075D01*
X58535000Y50542872D01*
X58535000Y50983128D01*
X58449110Y51414925D01*
X58280631Y51821669D01*
X58036038Y52187729D01*
X57724729Y52499038D01*
X57358669Y52743631D01*
X56951925Y52912110D01*
X56520128Y52998000D01*
X56079872Y52998000D01*
X55648075Y52912110D01*
X55241331Y52743631D01*
X54875271Y52499038D01*
X54563962Y52187729D01*
X54319369Y51821669D01*
X54150890Y51414925D01*
X54065000Y50983128D01*
X49254480Y50983128D01*
X49253475Y50984632D01*
X49046632Y51191475D01*
X48872240Y51308000D01*
X49046632Y51424525D01*
X49253475Y51631368D01*
X49415990Y51874589D01*
X49527932Y52144842D01*
X49585000Y52431740D01*
X49585000Y52724260D01*
X49527932Y53011158D01*
X49415990Y53281411D01*
X49253475Y53524632D01*
X49121620Y53656487D01*
X49194180Y53678498D01*
X49304494Y53737463D01*
X49401185Y53816815D01*
X49480537Y53913506D01*
X49539502Y54023820D01*
X49575812Y54143518D01*
X49588072Y54268000D01*
X49585000Y54832250D01*
X49426250Y54991000D01*
X48227000Y54991000D01*
X48227000Y54971000D01*
X47973000Y54971000D01*
X47973000Y54991000D01*
X46773750Y54991000D01*
X46615000Y54832250D01*
X46611928Y54268000D01*
X42614226Y54268000D01*
X42619385Y54285005D01*
X42638886Y54483000D01*
X42634000Y54532608D01*
X42634000Y55968000D01*
X46611928Y55968000D01*
X46615000Y55403750D01*
X46773750Y55245000D01*
X47973000Y55245000D01*
X47973000Y56444250D01*
X48227000Y56444250D01*
X48227000Y55245000D01*
X49426250Y55245000D01*
X49585000Y55403750D01*
X49588072Y55968000D01*
X49575812Y56092482D01*
X49539502Y56212180D01*
X49480537Y56322494D01*
X49401185Y56419185D01*
X49304494Y56498537D01*
X49194180Y56557502D01*
X49074482Y56593812D01*
X48950000Y56606072D01*
X48385750Y56603000D01*
X48227000Y56444250D01*
X47973000Y56444250D01*
X47814250Y56603000D01*
X47250000Y56606072D01*
X47125518Y56593812D01*
X47005820Y56557502D01*
X46895506Y56498537D01*
X46798815Y56419185D01*
X46719463Y56322494D01*
X46660498Y56212180D01*
X46624188Y56092482D01*
X46611928Y55968000D01*
X42634000Y55968000D01*
X42634000Y67456893D01*
X42777475Y67600368D01*
X42939990Y67843589D01*
X43051932Y68113842D01*
X43109000Y68400740D01*
X43109000Y68693260D01*
X43051932Y68980158D01*
X42939990Y69250411D01*
X42777475Y69493632D01*
X42570632Y69700475D01*
X42327411Y69862990D01*
X42057158Y69974932D01*
X41770260Y70032000D01*
X41477740Y70032000D01*
X41190842Y69974932D01*
X40920589Y69862990D01*
X40677368Y69700475D01*
X40470525Y69493632D01*
X40354000Y69319240D01*
X40237475Y69493632D01*
X40030632Y69700475D01*
X39787411Y69862990D01*
X39517158Y69974932D01*
X39230260Y70032000D01*
X38937740Y70032000D01*
X38650842Y69974932D01*
X38380589Y69862990D01*
X38137368Y69700475D01*
X37930525Y69493632D01*
X37814000Y69319240D01*
X37697475Y69493632D01*
X37490632Y69700475D01*
X37247411Y69862990D01*
X36977158Y69974932D01*
X36690260Y70032000D01*
X36397740Y70032000D01*
X36110842Y69974932D01*
X35840589Y69862990D01*
X35597368Y69700475D01*
X35390525Y69493632D01*
X35274000Y69319240D01*
X35157475Y69493632D01*
X34950632Y69700475D01*
X34707411Y69862990D01*
X34437158Y69974932D01*
X34150260Y70032000D01*
X33857740Y70032000D01*
X33570842Y69974932D01*
X33300589Y69862990D01*
X33057368Y69700475D01*
X32850525Y69493632D01*
X32728805Y69311466D01*
X32659178Y69428355D01*
X32464269Y69644588D01*
X32230920Y69818641D01*
X31968099Y69943825D01*
X31820890Y69988476D01*
X31591000Y69867155D01*
X31591000Y68674000D01*
X31611000Y68674000D01*
X31611000Y68420000D01*
X31591000Y68420000D01*
X31591000Y67226845D01*
X31820890Y67105524D01*
X31968099Y67150175D01*
X32230920Y67275359D01*
X32464269Y67449412D01*
X32659178Y67665645D01*
X32728805Y67782534D01*
X32850525Y67600368D01*
X32994000Y67456893D01*
X32994001Y58457357D01*
X25584645Y51048000D01*
X24190107Y51048000D01*
X24046632Y51191475D01*
X23872240Y51308000D01*
X24046632Y51424525D01*
X24253475Y51631368D01*
X24415990Y51874589D01*
X24527932Y52144842D01*
X24585000Y52431740D01*
X24585000Y52724260D01*
X24527932Y53011158D01*
X24415990Y53281411D01*
X24253475Y53524632D01*
X24046632Y53731475D01*
X23872240Y53848000D01*
X24046632Y53964525D01*
X24253475Y54171368D01*
X24415990Y54414589D01*
X24527932Y54684842D01*
X24585000Y54971740D01*
X24585000Y55174645D01*
X29603100Y60192744D01*
X29641633Y60224367D01*
X29767847Y60378160D01*
X29861632Y60553620D01*
X29919385Y60744006D01*
X29934000Y60892392D01*
X29938886Y60942000D01*
X29934000Y60991608D01*
X29934000Y67081962D01*
X30018180Y67107498D01*
X30128494Y67166463D01*
X30225185Y67245815D01*
X30304537Y67342506D01*
X30363502Y67452820D01*
X30387966Y67533466D01*
X30463731Y67449412D01*
X30697080Y67275359D01*
X30959901Y67150175D01*
X31107110Y67105524D01*
X31337000Y67226845D01*
X31337000Y68420000D01*
X31317000Y68420000D01*
X31317000Y68674000D01*
X31337000Y68674000D01*
X31337000Y69867155D01*
X31107110Y69988476D01*
X30959901Y69943825D01*
X30697080Y69818641D01*
X30463731Y69644588D01*
X30387966Y69560534D01*
X30363502Y69641180D01*
X30304537Y69751494D01*
X30225185Y69848185D01*
X30128494Y69927537D01*
X30018180Y69986502D01*
X29898482Y70022812D01*
X29774000Y70035072D01*
X28074000Y70035072D01*
X27949518Y70022812D01*
X27829820Y69986502D01*
X27719506Y69927537D01*
X27622815Y69848185D01*
X27543463Y69751494D01*
X27484498Y69641180D01*
X27448188Y69521482D01*
X27435928Y69397000D01*
X27435928Y67697000D01*
X27448188Y67572518D01*
X27484498Y67452820D01*
X27543463Y67342506D01*
X27622815Y67245815D01*
X27719506Y67166463D01*
X27829820Y67107498D01*
X27914000Y67081962D01*
X27914001Y61360357D01*
X23156645Y56603000D01*
X23043356Y56603000D01*
X15304261Y64342094D01*
X15272633Y64380633D01*
X15118840Y64506847D01*
X14943380Y64600632D01*
X14752994Y64658385D01*
X14604608Y64673000D01*
X14555000Y64677886D01*
X14505392Y64673000D01*
X10349608Y64673000D01*
X10300000Y64677886D01*
X10102005Y64658385D01*
X9911620Y64600632D01*
X9736160Y64506847D01*
X9582367Y64380633D01*
X9550744Y64342100D01*
X2620901Y57412256D01*
X2582368Y57380633D01*
X2550745Y57342100D01*
X2550744Y57342099D01*
X2456154Y57226840D01*
X2362368Y57051379D01*
X2304615Y56860994D01*
X2285114Y56663000D01*
X2290001Y56613382D01*
X2290000Y44057450D01*
X2147498Y43940502D01*
X1993167Y43752449D01*
X1878489Y43537901D01*
X1807870Y43305102D01*
X1784025Y43063000D01*
X1086212Y43063000D01*
X1126822Y71936000D01*
X59873000Y71936000D01*
X59873000Y1090000D01*
G37*
%TD.AperFunction*%
%TD*%
M02*
