%TF.GenerationSoftware,KiCad,Pcbnew,5.1.10-88a1d61d58~90~ubuntu20.04.1*%
%TF.CreationDate,2022-07-31T10:38:46+02:00*%
%TF.ProjectId,schematic,73636865-6d61-4746-9963-2e6b69636164,rev?*%
%TF.SameCoordinates,Original*%
%TF.FileFunction,Legend,Bot*%
%TF.FilePolarity,Positive*%
%FSLAX46Y46*%
G04 Gerber Fmt 4.6, Leading zero omitted, Abs format (unit mm)*
G04 Created by KiCad (PCBNEW 5.1.10-88a1d61d58~90~ubuntu20.04.1) date 2022-07-31 10:38:46*
%MOMM*%
%LPD*%
G01*
G04 APERTURE LIST*
%ADD10C,0.150000*%
%TA.AperFunction,Profile*%
%ADD11C,0.050000*%
%TD*%
G04 APERTURE END LIST*
D10*
X126719047Y-65828571D02*
X126576190Y-65876190D01*
X126528571Y-65923809D01*
X126480952Y-66019047D01*
X126480952Y-66161904D01*
X126528571Y-66257142D01*
X126576190Y-66304761D01*
X126671428Y-66352380D01*
X127052380Y-66352380D01*
X127052380Y-65352380D01*
X126719047Y-65352380D01*
X126623809Y-65400000D01*
X126576190Y-65447619D01*
X126528571Y-65542857D01*
X126528571Y-65638095D01*
X126576190Y-65733333D01*
X126623809Y-65780952D01*
X126719047Y-65828571D01*
X127052380Y-65828571D01*
X125623809Y-66352380D02*
X125623809Y-65828571D01*
X125671428Y-65733333D01*
X125766666Y-65685714D01*
X125957142Y-65685714D01*
X126052380Y-65733333D01*
X125623809Y-66304761D02*
X125719047Y-66352380D01*
X125957142Y-66352380D01*
X126052380Y-66304761D01*
X126100000Y-66209523D01*
X126100000Y-66114285D01*
X126052380Y-66019047D01*
X125957142Y-65971428D01*
X125719047Y-65971428D01*
X125623809Y-65923809D01*
X124719047Y-66304761D02*
X124814285Y-66352380D01*
X125004761Y-66352380D01*
X125100000Y-66304761D01*
X125147619Y-66257142D01*
X125195238Y-66161904D01*
X125195238Y-65876190D01*
X125147619Y-65780952D01*
X125100000Y-65733333D01*
X125004761Y-65685714D01*
X124814285Y-65685714D01*
X124719047Y-65733333D01*
X124290476Y-66352380D02*
X124290476Y-65352380D01*
X124195238Y-65971428D02*
X123909523Y-66352380D01*
X123909523Y-65685714D02*
X124290476Y-66066666D01*
X122766666Y-66304761D02*
X122671428Y-66352380D01*
X122480952Y-66352380D01*
X122385714Y-66304761D01*
X122338095Y-66209523D01*
X122338095Y-66161904D01*
X122385714Y-66066666D01*
X122480952Y-66019047D01*
X122623809Y-66019047D01*
X122719047Y-65971428D01*
X122766666Y-65876190D01*
X122766666Y-65828571D01*
X122719047Y-65733333D01*
X122623809Y-65685714D01*
X122480952Y-65685714D01*
X122385714Y-65733333D01*
X121909523Y-66352380D02*
X121909523Y-65685714D01*
X121909523Y-65352380D02*
X121957142Y-65400000D01*
X121909523Y-65447619D01*
X121861904Y-65400000D01*
X121909523Y-65352380D01*
X121909523Y-65447619D01*
X121004761Y-66352380D02*
X121004761Y-65352380D01*
X121004761Y-66304761D02*
X121100000Y-66352380D01*
X121290476Y-66352380D01*
X121385714Y-66304761D01*
X121433333Y-66257142D01*
X121480952Y-66161904D01*
X121480952Y-65876190D01*
X121433333Y-65780952D01*
X121385714Y-65733333D01*
X121290476Y-65685714D01*
X121100000Y-65685714D01*
X121004761Y-65733333D01*
X120147619Y-66304761D02*
X120242857Y-66352380D01*
X120433333Y-66352380D01*
X120528571Y-66304761D01*
X120576190Y-66209523D01*
X120576190Y-65828571D01*
X120528571Y-65733333D01*
X120433333Y-65685714D01*
X120242857Y-65685714D01*
X120147619Y-65733333D01*
X120100000Y-65828571D01*
X120100000Y-65923809D01*
X120576190Y-66019047D01*
D11*
X142100000Y-108800000D02*
X142100000Y-104300000D01*
X142100000Y-104300000D02*
X146900000Y-104300000D01*
X146900000Y-104300000D02*
X146900000Y-74100000D01*
X146900000Y-108800000D02*
X146900000Y-108800000D01*
X146900000Y-108800000D02*
X142100000Y-108800000D01*
X146900000Y-72600000D02*
X146900000Y-72600000D01*
X146900000Y-70300000D02*
X146900000Y-61600000D01*
X142900000Y-74100000D02*
X146900000Y-74100000D01*
X142900000Y-70300000D02*
X142900000Y-74100000D01*
X146900000Y-70300000D02*
X142900000Y-70300000D01*
X87100000Y-123063000D02*
X146900000Y-123079000D01*
X146900000Y-61600000D02*
X87100000Y-61600000D01*
X87100000Y-61600000D02*
X87100000Y-123063000D01*
X146900000Y-123079000D02*
X146900000Y-108800000D01*
M02*
