%TF.GenerationSoftware,KiCad,Pcbnew,5.1.10-88a1d61d58~89~ubuntu20.04.1*%
%TF.CreationDate,2021-07-14T19:33:18+02:00*%
%TF.ProjectId,schematic,73636865-6d61-4746-9963-2e6b69636164,rev?*%
%TF.SameCoordinates,Original*%
%TF.FileFunction,Legend,Top*%
%TF.FilePolarity,Positive*%
%FSLAX46Y46*%
G04 Gerber Fmt 4.6, Leading zero omitted, Abs format (unit mm)*
G04 Created by KiCad (PCBNEW 5.1.10-88a1d61d58~89~ubuntu20.04.1) date 2021-07-14 19:33:18*
%MOMM*%
%LPD*%
G01*
G04 APERTURE LIST*
%ADD10C,0.120000*%
G04 APERTURE END LIST*
D10*
%TO.C,J4*%
X105560000Y-93840000D02*
X105560000Y-93560000D01*
X105560000Y-93560000D02*
X107160000Y-93560000D01*
X107160000Y-93560000D02*
X107160000Y-92640000D01*
X107160000Y-92640000D02*
X99340000Y-92640000D01*
X99340000Y-92640000D02*
X99340000Y-110760000D01*
X99340000Y-110760000D02*
X107160000Y-110760000D01*
X107160000Y-110760000D02*
X107160000Y-109840000D01*
X107160000Y-109840000D02*
X105560000Y-109840000D01*
X105560000Y-109840000D02*
X105560000Y-109560000D01*
X99340000Y-95200000D02*
X103700000Y-95200000D01*
X103700000Y-95200000D02*
X103700000Y-108200000D01*
X103700000Y-108200000D02*
X99340000Y-108200000D01*
X105560000Y-92640000D02*
X105560000Y-93560000D01*
X105560000Y-110760000D02*
X105560000Y-109840000D01*
X103200000Y-93400000D02*
X101600000Y-93400000D01*
X101600000Y-93400000D02*
X101600000Y-94400000D01*
X101600000Y-94400000D02*
X103200000Y-94400000D01*
X103200000Y-94400000D02*
X103200000Y-93400000D01*
X103200000Y-110000000D02*
X101600000Y-110000000D01*
X101600000Y-110000000D02*
X101600000Y-109000000D01*
X101600000Y-109000000D02*
X103200000Y-109000000D01*
X103200000Y-109000000D02*
X103200000Y-110000000D01*
X101600000Y-94400000D02*
X99340000Y-94400000D01*
X101600000Y-93900000D02*
X99340000Y-93900000D01*
X105560000Y-93840000D02*
X106775000Y-93840000D01*
%TO.C,J1*%
X133670000Y-122575000D02*
X136330000Y-122575000D01*
X133670000Y-71715000D02*
X133670000Y-122575000D01*
X136330000Y-71715000D02*
X136330000Y-122575000D01*
X133670000Y-71715000D02*
X136330000Y-71715000D01*
X133670000Y-70445000D02*
X133670000Y-69115000D01*
X133670000Y-69115000D02*
X135000000Y-69115000D01*
%TO.C,J2*%
X91170000Y-81930000D02*
X93830000Y-81930000D01*
X91170000Y-69170000D02*
X91170000Y-81930000D01*
X93830000Y-69170000D02*
X93830000Y-81930000D01*
X91170000Y-69170000D02*
X93830000Y-69170000D01*
X91170000Y-67900000D02*
X91170000Y-66570000D01*
X91170000Y-66570000D02*
X92500000Y-66570000D01*
%TO.C,J3*%
X111330000Y-122575000D02*
X110000000Y-122575000D01*
X111330000Y-121245000D02*
X111330000Y-122575000D01*
X111330000Y-119975000D02*
X108670000Y-119975000D01*
X108670000Y-119975000D02*
X108670000Y-69115000D01*
X111330000Y-119975000D02*
X111330000Y-69115000D01*
X111330000Y-69115000D02*
X108670000Y-69115000D01*
%TD*%
M02*
