%TF.GenerationSoftware,KiCad,Pcbnew,5.1.10-88a1d61d58~90~ubuntu20.04.1*%
%TF.CreationDate,2022-03-29T12:07:09+02:00*%
%TF.ProjectId,schematic,73636865-6d61-4746-9963-2e6b69636164,rev?*%
%TF.SameCoordinates,Original*%
%TF.FileFunction,Copper,L1,Top*%
%TF.FilePolarity,Positive*%
%FSLAX46Y46*%
G04 Gerber Fmt 4.6, Leading zero omitted, Abs format (unit mm)*
G04 Created by KiCad (PCBNEW 5.1.10-88a1d61d58~90~ubuntu20.04.1) date 2022-03-29 12:07:09*
%MOMM*%
%LPD*%
G01*
G04 APERTURE LIST*
%TA.AperFunction,Profile*%
%ADD10C,0.050000*%
%TD*%
%TA.AperFunction,ComponentPad*%
%ADD11O,1.600000X1.600000*%
%TD*%
%TA.AperFunction,ComponentPad*%
%ADD12C,1.600000*%
%TD*%
%TA.AperFunction,ComponentPad*%
%ADD13O,1.700000X1.700000*%
%TD*%
%TA.AperFunction,ComponentPad*%
%ADD14R,1.700000X1.700000*%
%TD*%
%TA.AperFunction,ComponentPad*%
%ADD15C,2.000000*%
%TD*%
%TA.AperFunction,ComponentPad*%
%ADD16C,1.700000*%
%TD*%
%TA.AperFunction,ComponentPad*%
%ADD17C,2.200000*%
%TD*%
%TA.AperFunction,ComponentPad*%
%ADD18O,1.750000X1.200000*%
%TD*%
%TA.AperFunction,Conductor*%
%ADD19C,0.500000*%
%TD*%
%TA.AperFunction,Conductor*%
%ADD20C,0.750000*%
%TD*%
%TA.AperFunction,Conductor*%
%ADD21C,0.254000*%
%TD*%
%TA.AperFunction,Conductor*%
%ADD22C,0.100000*%
%TD*%
G04 APERTURE END LIST*
D10*
X146900000Y-72600000D02*
X146900000Y-72600000D01*
X146900000Y-68600000D02*
X146900000Y-61600000D01*
X142900000Y-72600000D02*
X146900000Y-72600000D01*
X142900000Y-68600000D02*
X142900000Y-72600000D01*
X146900000Y-68600000D02*
X142900000Y-68600000D01*
X87100000Y-123063000D02*
X146900000Y-123079000D01*
X146900000Y-61600000D02*
X87100000Y-61600000D01*
X87100000Y-61600000D02*
X87100000Y-123063000D01*
X146900000Y-123079000D02*
X146900000Y-72600000D01*
D11*
%TO.P,R2,2*%
%TO.N,GND*%
X89450000Y-96960000D03*
D12*
%TO.P,R2,1*%
%TO.N,Net-(J3-Pad15)*%
X89450000Y-86800000D03*
%TD*%
D13*
%TO.P,R1,2*%
%TO.N,Net-(J3-Pad15)*%
X93100000Y-86740000D03*
D14*
%TO.P,R1,1*%
%TO.N,3v3*%
X93100000Y-84200000D03*
%TD*%
D15*
%TO.P,SW1,1*%
%TO.N,GND*%
X144900000Y-81100000D03*
%TO.P,SW1,2*%
%TO.N,Net-(J3-Pad20)*%
X140400000Y-81100000D03*
%TO.P,SW1,1*%
%TO.N,GND*%
X144900000Y-74600000D03*
%TO.P,SW1,2*%
%TO.N,Net-(J3-Pad20)*%
X140400000Y-74600000D03*
%TD*%
D16*
%TO.P,SW2,1*%
%TO.N,Net-(J1-Pad2)*%
X94200000Y-120200000D03*
%TO.P,SW2,2*%
%TO.N,GND*%
X89700000Y-120200000D03*
D17*
%TO.P,SW2,*%
%TO.N,*%
X95450000Y-117700000D03*
X88450000Y-117700000D03*
%TD*%
D18*
%TO.P,J4,8*%
%TO.N,/BUSY*%
X105700000Y-108700000D03*
%TO.P,J4,7*%
%TO.N,/RST*%
X105700000Y-106700000D03*
%TO.P,J4,6*%
%TO.N,/DC*%
X105700000Y-104700000D03*
%TO.P,J4,5*%
%TO.N,/CS*%
X105700000Y-102700000D03*
%TO.P,J4,4*%
%TO.N,/CLK*%
X105700000Y-100700000D03*
%TO.P,J4,3*%
%TO.N,/MOSI*%
X105700000Y-98700000D03*
%TO.P,J4,2*%
%TO.N,GND*%
X105700000Y-96700000D03*
%TO.P,J4,1*%
%TO.N,3v3*%
%TA.AperFunction,ComponentPad*%
G36*
G01*
X105074999Y-94100000D02*
X106325001Y-94100000D01*
G75*
G02*
X106575000Y-94349999I0J-249999D01*
G01*
X106575000Y-95050001D01*
G75*
G02*
X106325001Y-95300000I-249999J0D01*
G01*
X105074999Y-95300000D01*
G75*
G02*
X104825000Y-95050001I0J249999D01*
G01*
X104825000Y-94349999D01*
G75*
G02*
X105074999Y-94100000I249999J0D01*
G01*
G37*
%TD.AperFunction*%
%TD*%
D14*
%TO.P,J1,1*%
%TO.N,GND*%
X135000000Y-70445000D03*
D13*
%TO.P,J1,2*%
%TO.N,Net-(J1-Pad2)*%
X135000000Y-72985000D03*
%TO.P,J1,3*%
%TO.N,Net-(J1-Pad3)*%
X135000000Y-75525000D03*
%TO.P,J1,4*%
%TO.N,Net-(J1-Pad4)*%
X135000000Y-78065000D03*
%TO.P,J1,5*%
%TO.N,Net-(J1-Pad5)*%
X135000000Y-80605000D03*
%TO.P,J1,6*%
%TO.N,Net-(J1-Pad6)*%
X135000000Y-83145000D03*
%TO.P,J1,7*%
%TO.N,Net-(J1-Pad7)*%
X135000000Y-85685000D03*
%TO.P,J1,8*%
%TO.N,Net-(J1-Pad8)*%
X135000000Y-88225000D03*
%TO.P,J1,9*%
%TO.N,Net-(J1-Pad9)*%
X135000000Y-90765000D03*
%TO.P,J1,10*%
%TO.N,Net-(J1-Pad10)*%
X135000000Y-93305000D03*
%TO.P,J1,11*%
%TO.N,Net-(J1-Pad11)*%
X135000000Y-95845000D03*
%TO.P,J1,12*%
%TO.N,Net-(J1-Pad12)*%
X135000000Y-98385000D03*
%TO.P,J1,13*%
%TO.N,Net-(J1-Pad13)*%
X135000000Y-100925000D03*
%TO.P,J1,14*%
%TO.N,Net-(J1-Pad14)*%
X135000000Y-103465000D03*
%TO.P,J1,15*%
%TO.N,Net-(J1-Pad15)*%
X135000000Y-106005000D03*
%TO.P,J1,16*%
%TO.N,Net-(J1-Pad16)*%
X135000000Y-108545000D03*
%TO.P,J1,17*%
%TO.N,Net-(J1-Pad17)*%
X135000000Y-111085000D03*
%TO.P,J1,18*%
%TO.N,Net-(J1-Pad18)*%
X135000000Y-113625000D03*
%TO.P,J1,19*%
%TO.N,Net-(J1-Pad19)*%
X135000000Y-116165000D03*
%TO.P,J1,20*%
%TO.N,Net-(J1-Pad20)*%
X135000000Y-118705000D03*
%TO.P,J1,21*%
%TO.N,Net-(J1-Pad21)*%
X135000000Y-121245000D03*
%TD*%
D14*
%TO.P,J2,1*%
%TO.N,3v3*%
X92500000Y-67900000D03*
D13*
%TO.P,J2,2*%
%TO.N,GND*%
X92500000Y-70440000D03*
%TO.P,J2,3*%
%TO.N,/SDO*%
X92500000Y-72980000D03*
%TO.P,J2,4*%
%TO.N,/CSB*%
X92500000Y-75520000D03*
%TO.P,J2,5*%
%TO.N,/SDA*%
X92500000Y-78060000D03*
%TO.P,J2,6*%
%TO.N,/SCL*%
X92500000Y-80600000D03*
%TD*%
%TO.P,J3,21*%
%TO.N,3v3*%
X110000000Y-70445000D03*
%TO.P,J3,20*%
%TO.N,Net-(J3-Pad20)*%
X110000000Y-72985000D03*
%TO.P,J3,19*%
%TO.N,/SDO*%
X110000000Y-75525000D03*
%TO.P,J3,18*%
%TO.N,/CSB*%
X110000000Y-78065000D03*
%TO.P,J3,17*%
%TO.N,/SDA*%
X110000000Y-80605000D03*
%TO.P,J3,16*%
%TO.N,/SCL*%
X110000000Y-83145000D03*
%TO.P,J3,15*%
%TO.N,Net-(J3-Pad15)*%
X110000000Y-85685000D03*
%TO.P,J3,14*%
%TO.N,Net-(J3-Pad14)*%
X110000000Y-88225000D03*
%TO.P,J3,13*%
%TO.N,Net-(J3-Pad13)*%
X110000000Y-90765000D03*
%TO.P,J3,12*%
%TO.N,Net-(J3-Pad12)*%
X110000000Y-93305000D03*
%TO.P,J3,11*%
%TO.N,Net-(J3-Pad11)*%
X110000000Y-95845000D03*
%TO.P,J3,10*%
%TO.N,Net-(J3-Pad10)*%
X110000000Y-98385000D03*
%TO.P,J3,9*%
%TO.N,/MOSI*%
X110000000Y-100925000D03*
%TO.P,J3,8*%
%TO.N,/CLK*%
X110000000Y-103465000D03*
%TO.P,J3,7*%
%TO.N,/CS*%
X110000000Y-106005000D03*
%TO.P,J3,6*%
%TO.N,/DC*%
X110000000Y-108545000D03*
%TO.P,J3,5*%
%TO.N,/RST*%
X110000000Y-111085000D03*
%TO.P,J3,4*%
%TO.N,/BUSY*%
X110000000Y-113625000D03*
%TO.P,J3,3*%
%TO.N,Net-(J3-Pad3)*%
X110000000Y-116165000D03*
%TO.P,J3,2*%
%TO.N,Net-(J3-Pad2)*%
X110000000Y-118705000D03*
D14*
%TO.P,J3,1*%
%TO.N,GND*%
X110000000Y-121245000D03*
%TD*%
D19*
%TO.N,Net-(J1-Pad2)*%
X91800000Y-117200000D02*
X94800000Y-120200000D01*
X95700000Y-84900000D02*
X95700000Y-90500000D01*
X100100000Y-80500000D02*
X95700000Y-84900000D01*
X100100000Y-72800000D02*
X100100000Y-80500000D01*
X108400000Y-64500000D02*
X100100000Y-72800000D01*
X114500000Y-64500000D02*
X108400000Y-64500000D01*
X95700000Y-90500000D02*
X91800000Y-94400000D01*
X122985000Y-72985000D02*
X114500000Y-64500000D01*
X91800000Y-94400000D02*
X91800000Y-117200000D01*
X135000000Y-72985000D02*
X122985000Y-72985000D01*
%TO.N,Net-(J3-Pad15)*%
X93040000Y-86800000D02*
X93100000Y-86740000D01*
X89450000Y-86800000D02*
X93040000Y-86800000D01*
D20*
%TO.N,3v3*%
X110000000Y-70445000D02*
X107255000Y-70445000D01*
X105700000Y-72000000D02*
X105700000Y-94700000D01*
X107255000Y-70445000D02*
X105700000Y-72000000D01*
X95100000Y-67900000D02*
X92500000Y-67900000D01*
X96000000Y-68800000D02*
X95100000Y-67900000D01*
X96000000Y-81300000D02*
X96000000Y-68800000D01*
X93100000Y-84200000D02*
X96000000Y-81300000D01*
%TD*%
D21*
%TO.N,GND*%
X146240000Y-67940000D02*
X142932419Y-67940000D01*
X142900000Y-67936807D01*
X142867581Y-67940000D01*
X142770617Y-67949550D01*
X142693314Y-67973000D01*
X142300000Y-67973000D01*
X142275224Y-67975440D01*
X142251399Y-67982667D01*
X142229443Y-67994403D01*
X142210197Y-68010197D01*
X142194403Y-68029443D01*
X142182667Y-68051399D01*
X142175440Y-68075224D01*
X142173000Y-68100000D01*
X142173000Y-73100000D01*
X142175440Y-73124776D01*
X142182667Y-73148601D01*
X142194403Y-73170557D01*
X142210197Y-73189803D01*
X142229443Y-73205597D01*
X142251399Y-73217333D01*
X142275224Y-73224560D01*
X142300000Y-73227000D01*
X142693314Y-73227000D01*
X142770617Y-73250450D01*
X142867581Y-73260000D01*
X142900000Y-73263193D01*
X142932419Y-73260000D01*
X144018292Y-73260000D01*
X143944192Y-73464587D01*
X144900000Y-74420395D01*
X145855808Y-73464587D01*
X145781708Y-73260000D01*
X146240001Y-73260000D01*
X146240001Y-73718292D01*
X146035413Y-73644192D01*
X145079605Y-74600000D01*
X146035413Y-75555808D01*
X146240001Y-75481708D01*
X146240001Y-80218292D01*
X146035413Y-80144192D01*
X145079605Y-81100000D01*
X146035413Y-82055808D01*
X146240001Y-81981708D01*
X146240000Y-122373000D01*
X135972107Y-122373000D01*
X136153475Y-122191632D01*
X136315990Y-121948411D01*
X136427932Y-121678158D01*
X136485000Y-121391260D01*
X136485000Y-121098740D01*
X136427932Y-120811842D01*
X136315990Y-120541589D01*
X136153475Y-120298368D01*
X135946632Y-120091525D01*
X135772240Y-119975000D01*
X135946632Y-119858475D01*
X136153475Y-119651632D01*
X136315990Y-119408411D01*
X136427932Y-119138158D01*
X136485000Y-118851260D01*
X136485000Y-118558740D01*
X136427932Y-118271842D01*
X136315990Y-118001589D01*
X136153475Y-117758368D01*
X135946632Y-117551525D01*
X135772240Y-117435000D01*
X135946632Y-117318475D01*
X136153475Y-117111632D01*
X136315990Y-116868411D01*
X136427932Y-116598158D01*
X136485000Y-116311260D01*
X136485000Y-116018740D01*
X136427932Y-115731842D01*
X136315990Y-115461589D01*
X136153475Y-115218368D01*
X135946632Y-115011525D01*
X135772240Y-114895000D01*
X135946632Y-114778475D01*
X136153475Y-114571632D01*
X136214787Y-114479872D01*
X140465000Y-114479872D01*
X140465000Y-114920128D01*
X140550890Y-115351925D01*
X140719369Y-115758669D01*
X140963962Y-116124729D01*
X141275271Y-116436038D01*
X141641331Y-116680631D01*
X142048075Y-116849110D01*
X142479872Y-116935000D01*
X142920128Y-116935000D01*
X143351925Y-116849110D01*
X143758669Y-116680631D01*
X144124729Y-116436038D01*
X144436038Y-116124729D01*
X144680631Y-115758669D01*
X144849110Y-115351925D01*
X144935000Y-114920128D01*
X144935000Y-114479872D01*
X144849110Y-114048075D01*
X144680631Y-113641331D01*
X144436038Y-113275271D01*
X144124729Y-112963962D01*
X143758669Y-112719369D01*
X143351925Y-112550890D01*
X142920128Y-112465000D01*
X142479872Y-112465000D01*
X142048075Y-112550890D01*
X141641331Y-112719369D01*
X141275271Y-112963962D01*
X140963962Y-113275271D01*
X140719369Y-113641331D01*
X140550890Y-114048075D01*
X140465000Y-114479872D01*
X136214787Y-114479872D01*
X136315990Y-114328411D01*
X136427932Y-114058158D01*
X136485000Y-113771260D01*
X136485000Y-113478740D01*
X136427932Y-113191842D01*
X136315990Y-112921589D01*
X136153475Y-112678368D01*
X135946632Y-112471525D01*
X135772240Y-112355000D01*
X135946632Y-112238475D01*
X136153475Y-112031632D01*
X136315990Y-111788411D01*
X136427932Y-111518158D01*
X136485000Y-111231260D01*
X136485000Y-110938740D01*
X136427932Y-110651842D01*
X136315990Y-110381589D01*
X136153475Y-110138368D01*
X135946632Y-109931525D01*
X135772240Y-109815000D01*
X135946632Y-109698475D01*
X136153475Y-109491632D01*
X136315990Y-109248411D01*
X136427932Y-108978158D01*
X136485000Y-108691260D01*
X136485000Y-108398740D01*
X136427932Y-108111842D01*
X136315990Y-107841589D01*
X136153475Y-107598368D01*
X135946632Y-107391525D01*
X135772240Y-107275000D01*
X135946632Y-107158475D01*
X136153475Y-106951632D01*
X136315990Y-106708411D01*
X136427932Y-106438158D01*
X136485000Y-106151260D01*
X136485000Y-105858740D01*
X136427932Y-105571842D01*
X136315990Y-105301589D01*
X136153475Y-105058368D01*
X135946632Y-104851525D01*
X135772240Y-104735000D01*
X135946632Y-104618475D01*
X136153475Y-104411632D01*
X136315990Y-104168411D01*
X136427932Y-103898158D01*
X136485000Y-103611260D01*
X136485000Y-103318740D01*
X136427932Y-103031842D01*
X136315990Y-102761589D01*
X136153475Y-102518368D01*
X135946632Y-102311525D01*
X135772240Y-102195000D01*
X135946632Y-102078475D01*
X136153475Y-101871632D01*
X136315990Y-101628411D01*
X136427932Y-101358158D01*
X136485000Y-101071260D01*
X136485000Y-100778740D01*
X136427932Y-100491842D01*
X136315990Y-100221589D01*
X136153475Y-99978368D01*
X135946632Y-99771525D01*
X135772240Y-99655000D01*
X135946632Y-99538475D01*
X136153475Y-99331632D01*
X136315990Y-99088411D01*
X136427932Y-98818158D01*
X136485000Y-98531260D01*
X136485000Y-98238740D01*
X136427932Y-97951842D01*
X136315990Y-97681589D01*
X136153475Y-97438368D01*
X135946632Y-97231525D01*
X135772240Y-97115000D01*
X135946632Y-96998475D01*
X136153475Y-96791632D01*
X136315990Y-96548411D01*
X136427932Y-96278158D01*
X136485000Y-95991260D01*
X136485000Y-95698740D01*
X136427932Y-95411842D01*
X136315990Y-95141589D01*
X136153475Y-94898368D01*
X135946632Y-94691525D01*
X135772240Y-94575000D01*
X135946632Y-94458475D01*
X136153475Y-94251632D01*
X136315990Y-94008411D01*
X136427932Y-93738158D01*
X136485000Y-93451260D01*
X136485000Y-93158740D01*
X136427932Y-92871842D01*
X136315990Y-92601589D01*
X136153475Y-92358368D01*
X135946632Y-92151525D01*
X135772240Y-92035000D01*
X135946632Y-91918475D01*
X136153475Y-91711632D01*
X136315990Y-91468411D01*
X136427932Y-91198158D01*
X136485000Y-90911260D01*
X136485000Y-90618740D01*
X136427932Y-90331842D01*
X136315990Y-90061589D01*
X136153475Y-89818368D01*
X135946632Y-89611525D01*
X135772240Y-89495000D01*
X135946632Y-89378475D01*
X136153475Y-89171632D01*
X136315990Y-88928411D01*
X136427932Y-88658158D01*
X136485000Y-88371260D01*
X136485000Y-88078740D01*
X136427932Y-87791842D01*
X136315990Y-87521589D01*
X136153475Y-87278368D01*
X135946632Y-87071525D01*
X135772240Y-86955000D01*
X135946632Y-86838475D01*
X136153475Y-86631632D01*
X136254877Y-86479872D01*
X140465000Y-86479872D01*
X140465000Y-86920128D01*
X140550890Y-87351925D01*
X140719369Y-87758669D01*
X140963962Y-88124729D01*
X141275271Y-88436038D01*
X141641331Y-88680631D01*
X142048075Y-88849110D01*
X142479872Y-88935000D01*
X142920128Y-88935000D01*
X143351925Y-88849110D01*
X143758669Y-88680631D01*
X144124729Y-88436038D01*
X144436038Y-88124729D01*
X144680631Y-87758669D01*
X144849110Y-87351925D01*
X144935000Y-86920128D01*
X144935000Y-86479872D01*
X144849110Y-86048075D01*
X144680631Y-85641331D01*
X144436038Y-85275271D01*
X144124729Y-84963962D01*
X143758669Y-84719369D01*
X143351925Y-84550890D01*
X142920128Y-84465000D01*
X142479872Y-84465000D01*
X142048075Y-84550890D01*
X141641331Y-84719369D01*
X141275271Y-84963962D01*
X140963962Y-85275271D01*
X140719369Y-85641331D01*
X140550890Y-86048075D01*
X140465000Y-86479872D01*
X136254877Y-86479872D01*
X136315990Y-86388411D01*
X136427932Y-86118158D01*
X136485000Y-85831260D01*
X136485000Y-85538740D01*
X136427932Y-85251842D01*
X136315990Y-84981589D01*
X136153475Y-84738368D01*
X135946632Y-84531525D01*
X135772240Y-84415000D01*
X135946632Y-84298475D01*
X136153475Y-84091632D01*
X136315990Y-83848411D01*
X136427932Y-83578158D01*
X136485000Y-83291260D01*
X136485000Y-82998740D01*
X136427932Y-82711842D01*
X136315990Y-82441589D01*
X136153475Y-82198368D01*
X135946632Y-81991525D01*
X135772240Y-81875000D01*
X135946632Y-81758475D01*
X136153475Y-81551632D01*
X136315990Y-81308411D01*
X136427932Y-81038158D01*
X136447662Y-80938967D01*
X138765000Y-80938967D01*
X138765000Y-81261033D01*
X138827832Y-81576912D01*
X138951082Y-81874463D01*
X139130013Y-82142252D01*
X139357748Y-82369987D01*
X139625537Y-82548918D01*
X139923088Y-82672168D01*
X140238967Y-82735000D01*
X140561033Y-82735000D01*
X140876912Y-82672168D01*
X141174463Y-82548918D01*
X141442252Y-82369987D01*
X141576826Y-82235413D01*
X143944192Y-82235413D01*
X144039956Y-82499814D01*
X144329571Y-82640704D01*
X144641108Y-82722384D01*
X144962595Y-82741718D01*
X145281675Y-82697961D01*
X145586088Y-82592795D01*
X145760044Y-82499814D01*
X145855808Y-82235413D01*
X144900000Y-81279605D01*
X143944192Y-82235413D01*
X141576826Y-82235413D01*
X141669987Y-82142252D01*
X141848918Y-81874463D01*
X141972168Y-81576912D01*
X142035000Y-81261033D01*
X142035000Y-81162595D01*
X143258282Y-81162595D01*
X143302039Y-81481675D01*
X143407205Y-81786088D01*
X143500186Y-81960044D01*
X143764587Y-82055808D01*
X144720395Y-81100000D01*
X143764587Y-80144192D01*
X143500186Y-80239956D01*
X143359296Y-80529571D01*
X143277616Y-80841108D01*
X143258282Y-81162595D01*
X142035000Y-81162595D01*
X142035000Y-80938967D01*
X141972168Y-80623088D01*
X141848918Y-80325537D01*
X141669987Y-80057748D01*
X141576826Y-79964587D01*
X143944192Y-79964587D01*
X144900000Y-80920395D01*
X145855808Y-79964587D01*
X145760044Y-79700186D01*
X145470429Y-79559296D01*
X145158892Y-79477616D01*
X144837405Y-79458282D01*
X144518325Y-79502039D01*
X144213912Y-79607205D01*
X144039956Y-79700186D01*
X143944192Y-79964587D01*
X141576826Y-79964587D01*
X141442252Y-79830013D01*
X141174463Y-79651082D01*
X140876912Y-79527832D01*
X140561033Y-79465000D01*
X140238967Y-79465000D01*
X139923088Y-79527832D01*
X139625537Y-79651082D01*
X139357748Y-79830013D01*
X139130013Y-80057748D01*
X138951082Y-80325537D01*
X138827832Y-80623088D01*
X138765000Y-80938967D01*
X136447662Y-80938967D01*
X136485000Y-80751260D01*
X136485000Y-80458740D01*
X136427932Y-80171842D01*
X136315990Y-79901589D01*
X136153475Y-79658368D01*
X135946632Y-79451525D01*
X135772240Y-79335000D01*
X135946632Y-79218475D01*
X136153475Y-79011632D01*
X136315990Y-78768411D01*
X136427932Y-78498158D01*
X136485000Y-78211260D01*
X136485000Y-77918740D01*
X136427932Y-77631842D01*
X136315990Y-77361589D01*
X136153475Y-77118368D01*
X135946632Y-76911525D01*
X135772240Y-76795000D01*
X135946632Y-76678475D01*
X136153475Y-76471632D01*
X136315990Y-76228411D01*
X136427932Y-75958158D01*
X136485000Y-75671260D01*
X136485000Y-75378740D01*
X136427932Y-75091842D01*
X136315990Y-74821589D01*
X136153475Y-74578368D01*
X136014074Y-74438967D01*
X138765000Y-74438967D01*
X138765000Y-74761033D01*
X138827832Y-75076912D01*
X138951082Y-75374463D01*
X139130013Y-75642252D01*
X139357748Y-75869987D01*
X139625537Y-76048918D01*
X139923088Y-76172168D01*
X140238967Y-76235000D01*
X140561033Y-76235000D01*
X140876912Y-76172168D01*
X141174463Y-76048918D01*
X141442252Y-75869987D01*
X141576826Y-75735413D01*
X143944192Y-75735413D01*
X144039956Y-75999814D01*
X144329571Y-76140704D01*
X144641108Y-76222384D01*
X144962595Y-76241718D01*
X145281675Y-76197961D01*
X145586088Y-76092795D01*
X145760044Y-75999814D01*
X145855808Y-75735413D01*
X144900000Y-74779605D01*
X143944192Y-75735413D01*
X141576826Y-75735413D01*
X141669987Y-75642252D01*
X141848918Y-75374463D01*
X141972168Y-75076912D01*
X142035000Y-74761033D01*
X142035000Y-74662595D01*
X143258282Y-74662595D01*
X143302039Y-74981675D01*
X143407205Y-75286088D01*
X143500186Y-75460044D01*
X143764587Y-75555808D01*
X144720395Y-74600000D01*
X143764587Y-73644192D01*
X143500186Y-73739956D01*
X143359296Y-74029571D01*
X143277616Y-74341108D01*
X143258282Y-74662595D01*
X142035000Y-74662595D01*
X142035000Y-74438967D01*
X141972168Y-74123088D01*
X141848918Y-73825537D01*
X141669987Y-73557748D01*
X141442252Y-73330013D01*
X141174463Y-73151082D01*
X140876912Y-73027832D01*
X140561033Y-72965000D01*
X140238967Y-72965000D01*
X139923088Y-73027832D01*
X139625537Y-73151082D01*
X139357748Y-73330013D01*
X139130013Y-73557748D01*
X138951082Y-73825537D01*
X138827832Y-74123088D01*
X138765000Y-74438967D01*
X136014074Y-74438967D01*
X135946632Y-74371525D01*
X135772240Y-74255000D01*
X135946632Y-74138475D01*
X136153475Y-73931632D01*
X136315990Y-73688411D01*
X136427932Y-73418158D01*
X136485000Y-73131260D01*
X136485000Y-72838740D01*
X136427932Y-72551842D01*
X136315990Y-72281589D01*
X136153475Y-72038368D01*
X136021620Y-71906513D01*
X136094180Y-71884502D01*
X136204494Y-71825537D01*
X136301185Y-71746185D01*
X136380537Y-71649494D01*
X136439502Y-71539180D01*
X136475812Y-71419482D01*
X136488072Y-71295000D01*
X136485000Y-70730750D01*
X136326250Y-70572000D01*
X135127000Y-70572000D01*
X135127000Y-70592000D01*
X134873000Y-70592000D01*
X134873000Y-70572000D01*
X133673750Y-70572000D01*
X133515000Y-70730750D01*
X133511928Y-71295000D01*
X133524188Y-71419482D01*
X133560498Y-71539180D01*
X133619463Y-71649494D01*
X133698815Y-71746185D01*
X133795506Y-71825537D01*
X133905820Y-71884502D01*
X133978380Y-71906513D01*
X133846525Y-72038368D01*
X133805344Y-72100000D01*
X123351579Y-72100000D01*
X120846579Y-69595000D01*
X133511928Y-69595000D01*
X133515000Y-70159250D01*
X133673750Y-70318000D01*
X134873000Y-70318000D01*
X134873000Y-69118750D01*
X135127000Y-69118750D01*
X135127000Y-70318000D01*
X136326250Y-70318000D01*
X136485000Y-70159250D01*
X136488072Y-69595000D01*
X136475812Y-69470518D01*
X136439502Y-69350820D01*
X136380537Y-69240506D01*
X136301185Y-69143815D01*
X136204494Y-69064463D01*
X136094180Y-69005498D01*
X135974482Y-68969188D01*
X135850000Y-68956928D01*
X135285750Y-68960000D01*
X135127000Y-69118750D01*
X134873000Y-69118750D01*
X134714250Y-68960000D01*
X134150000Y-68956928D01*
X134025518Y-68969188D01*
X133905820Y-69005498D01*
X133795506Y-69064463D01*
X133698815Y-69143815D01*
X133619463Y-69240506D01*
X133560498Y-69350820D01*
X133524188Y-69470518D01*
X133511928Y-69595000D01*
X120846579Y-69595000D01*
X115156534Y-63904956D01*
X115128817Y-63871183D01*
X114994059Y-63760589D01*
X114840313Y-63678411D01*
X114673490Y-63627805D01*
X114543477Y-63615000D01*
X114543469Y-63615000D01*
X114500000Y-63610719D01*
X114456531Y-63615000D01*
X108443469Y-63615000D01*
X108400000Y-63610719D01*
X108356531Y-63615000D01*
X108356523Y-63615000D01*
X108226510Y-63627805D01*
X108059686Y-63678411D01*
X107905941Y-63760589D01*
X107804953Y-63843468D01*
X107804951Y-63843470D01*
X107771183Y-63871183D01*
X107743470Y-63904951D01*
X99504956Y-72143466D01*
X99471183Y-72171183D01*
X99360589Y-72305942D01*
X99278411Y-72459688D01*
X99227805Y-72626511D01*
X99215000Y-72756524D01*
X99215000Y-72756531D01*
X99210719Y-72800000D01*
X99215000Y-72843469D01*
X99215001Y-80133420D01*
X95104956Y-84243466D01*
X95071183Y-84271183D01*
X94960589Y-84405942D01*
X94878411Y-84559688D01*
X94869708Y-84588379D01*
X94829972Y-84719369D01*
X94827805Y-84726511D01*
X94815000Y-84856524D01*
X94815000Y-84856531D01*
X94810719Y-84900000D01*
X94815000Y-84943469D01*
X94815001Y-90133420D01*
X91204956Y-93743466D01*
X91171183Y-93771183D01*
X91060589Y-93905942D01*
X90978411Y-94059688D01*
X90927805Y-94226511D01*
X90915000Y-94356524D01*
X90915000Y-94356531D01*
X90910719Y-94400000D01*
X90915000Y-94443469D01*
X90915001Y-117156521D01*
X90910719Y-117200000D01*
X90927805Y-117373490D01*
X90978412Y-117540313D01*
X91060590Y-117694059D01*
X91143468Y-117795046D01*
X91143471Y-117795049D01*
X91171184Y-117828817D01*
X91204951Y-117856529D01*
X92872587Y-119524166D01*
X92772068Y-119766842D01*
X92715000Y-120053740D01*
X92715000Y-120346260D01*
X92772068Y-120633158D01*
X92884010Y-120903411D01*
X93046525Y-121146632D01*
X93253368Y-121353475D01*
X93496589Y-121515990D01*
X93766842Y-121627932D01*
X94053740Y-121685000D01*
X94346260Y-121685000D01*
X94633158Y-121627932D01*
X94903411Y-121515990D01*
X95146632Y-121353475D01*
X95353475Y-121146632D01*
X95515990Y-120903411D01*
X95627932Y-120633158D01*
X95685000Y-120346260D01*
X95685000Y-120243469D01*
X95689281Y-120200000D01*
X95685000Y-120156531D01*
X95685000Y-120053740D01*
X95627932Y-119766842D01*
X95515990Y-119496589D01*
X95474838Y-119435000D01*
X95620883Y-119435000D01*
X95956081Y-119368325D01*
X96271831Y-119237537D01*
X96555998Y-119047663D01*
X96797663Y-118805998D01*
X96987537Y-118521831D01*
X97118325Y-118206081D01*
X97185000Y-117870883D01*
X97185000Y-117529117D01*
X97118325Y-117193919D01*
X96987537Y-116878169D01*
X96797663Y-116594002D01*
X96555998Y-116352337D01*
X96271831Y-116162463D01*
X95956081Y-116031675D01*
X95620883Y-115965000D01*
X95279117Y-115965000D01*
X94943919Y-116031675D01*
X94628169Y-116162463D01*
X94344002Y-116352337D01*
X94102337Y-116594002D01*
X93912463Y-116878169D01*
X93781675Y-117193919D01*
X93715000Y-117529117D01*
X93715000Y-117863422D01*
X92685000Y-116833422D01*
X92685000Y-114479872D01*
X97465000Y-114479872D01*
X97465000Y-114920128D01*
X97550890Y-115351925D01*
X97719369Y-115758669D01*
X97963962Y-116124729D01*
X98275271Y-116436038D01*
X98641331Y-116680631D01*
X99048075Y-116849110D01*
X99479872Y-116935000D01*
X99920128Y-116935000D01*
X100351925Y-116849110D01*
X100758669Y-116680631D01*
X101124729Y-116436038D01*
X101436038Y-116124729D01*
X101680631Y-115758669D01*
X101849110Y-115351925D01*
X101935000Y-114920128D01*
X101935000Y-114479872D01*
X101849110Y-114048075D01*
X101680631Y-113641331D01*
X101436038Y-113275271D01*
X101124729Y-112963962D01*
X100758669Y-112719369D01*
X100351925Y-112550890D01*
X99920128Y-112465000D01*
X99479872Y-112465000D01*
X99048075Y-112550890D01*
X98641331Y-112719369D01*
X98275271Y-112963962D01*
X97963962Y-113275271D01*
X97719369Y-113641331D01*
X97550890Y-114048075D01*
X97465000Y-114479872D01*
X92685000Y-114479872D01*
X92685000Y-98700000D01*
X104184025Y-98700000D01*
X104207870Y-98942102D01*
X104278489Y-99174901D01*
X104393167Y-99389449D01*
X104547498Y-99577502D01*
X104696762Y-99700000D01*
X104547498Y-99822498D01*
X104393167Y-100010551D01*
X104278489Y-100225099D01*
X104207870Y-100457898D01*
X104184025Y-100700000D01*
X104207870Y-100942102D01*
X104278489Y-101174901D01*
X104393167Y-101389449D01*
X104547498Y-101577502D01*
X104696762Y-101700000D01*
X104547498Y-101822498D01*
X104393167Y-102010551D01*
X104278489Y-102225099D01*
X104207870Y-102457898D01*
X104184025Y-102700000D01*
X104207870Y-102942102D01*
X104278489Y-103174901D01*
X104393167Y-103389449D01*
X104547498Y-103577502D01*
X104696762Y-103700000D01*
X104547498Y-103822498D01*
X104393167Y-104010551D01*
X104278489Y-104225099D01*
X104207870Y-104457898D01*
X104184025Y-104700000D01*
X104207870Y-104942102D01*
X104278489Y-105174901D01*
X104393167Y-105389449D01*
X104547498Y-105577502D01*
X104696762Y-105700000D01*
X104547498Y-105822498D01*
X104393167Y-106010551D01*
X104278489Y-106225099D01*
X104207870Y-106457898D01*
X104184025Y-106700000D01*
X104207870Y-106942102D01*
X104278489Y-107174901D01*
X104393167Y-107389449D01*
X104547498Y-107577502D01*
X104696762Y-107700000D01*
X104547498Y-107822498D01*
X104393167Y-108010551D01*
X104278489Y-108225099D01*
X104207870Y-108457898D01*
X104184025Y-108700000D01*
X104207870Y-108942102D01*
X104278489Y-109174901D01*
X104393167Y-109389449D01*
X104547498Y-109577502D01*
X104735551Y-109731833D01*
X104950099Y-109846511D01*
X105182898Y-109917130D01*
X105364335Y-109935000D01*
X106035665Y-109935000D01*
X106217102Y-109917130D01*
X106449901Y-109846511D01*
X106664449Y-109731833D01*
X106852502Y-109577502D01*
X107006833Y-109389449D01*
X107121511Y-109174901D01*
X107192130Y-108942102D01*
X107215975Y-108700000D01*
X107192130Y-108457898D01*
X107121511Y-108225099D01*
X107006833Y-108010551D01*
X106852502Y-107822498D01*
X106703238Y-107700000D01*
X106852502Y-107577502D01*
X107006833Y-107389449D01*
X107121511Y-107174901D01*
X107192130Y-106942102D01*
X107215975Y-106700000D01*
X107192130Y-106457898D01*
X107121511Y-106225099D01*
X107006833Y-106010551D01*
X106852502Y-105822498D01*
X106703238Y-105700000D01*
X106852502Y-105577502D01*
X107006833Y-105389449D01*
X107121511Y-105174901D01*
X107192130Y-104942102D01*
X107215975Y-104700000D01*
X107192130Y-104457898D01*
X107121511Y-104225099D01*
X107006833Y-104010551D01*
X106852502Y-103822498D01*
X106703238Y-103700000D01*
X106852502Y-103577502D01*
X107006833Y-103389449D01*
X107121511Y-103174901D01*
X107192130Y-102942102D01*
X107215975Y-102700000D01*
X107192130Y-102457898D01*
X107121511Y-102225099D01*
X107006833Y-102010551D01*
X106852502Y-101822498D01*
X106703238Y-101700000D01*
X106852502Y-101577502D01*
X107006833Y-101389449D01*
X107121511Y-101174901D01*
X107192130Y-100942102D01*
X107215975Y-100700000D01*
X107192130Y-100457898D01*
X107121511Y-100225099D01*
X107006833Y-100010551D01*
X106852502Y-99822498D01*
X106703238Y-99700000D01*
X106852502Y-99577502D01*
X107006833Y-99389449D01*
X107121511Y-99174901D01*
X107192130Y-98942102D01*
X107215975Y-98700000D01*
X107192130Y-98457898D01*
X107121511Y-98225099D01*
X107006833Y-98010551D01*
X106852502Y-97822498D01*
X106702652Y-97699519D01*
X106766725Y-97656307D01*
X106938078Y-97483474D01*
X107072421Y-97280533D01*
X107164591Y-97055282D01*
X107168462Y-97017609D01*
X107043731Y-96827000D01*
X105827000Y-96827000D01*
X105827000Y-96847000D01*
X105573000Y-96847000D01*
X105573000Y-96827000D01*
X104356269Y-96827000D01*
X104231538Y-97017609D01*
X104235409Y-97055282D01*
X104327579Y-97280533D01*
X104461922Y-97483474D01*
X104633275Y-97656307D01*
X104697348Y-97699519D01*
X104547498Y-97822498D01*
X104393167Y-98010551D01*
X104278489Y-98225099D01*
X104207870Y-98457898D01*
X104184025Y-98700000D01*
X92685000Y-98700000D01*
X92685000Y-94766578D01*
X93101579Y-94349999D01*
X104186928Y-94349999D01*
X104186928Y-95050001D01*
X104203992Y-95223255D01*
X104254528Y-95389851D01*
X104336595Y-95543387D01*
X104447038Y-95677962D01*
X104581613Y-95788405D01*
X104586406Y-95790967D01*
X104461922Y-95916526D01*
X104327579Y-96119467D01*
X104235409Y-96344718D01*
X104231538Y-96382391D01*
X104356269Y-96573000D01*
X105573000Y-96573000D01*
X105573000Y-96553000D01*
X105827000Y-96553000D01*
X105827000Y-96573000D01*
X107043731Y-96573000D01*
X107168462Y-96382391D01*
X107164591Y-96344718D01*
X107072421Y-96119467D01*
X106938078Y-95916526D01*
X106813594Y-95790967D01*
X106818387Y-95788405D01*
X106952962Y-95677962D01*
X107063405Y-95543387D01*
X107145472Y-95389851D01*
X107196008Y-95223255D01*
X107213072Y-95050001D01*
X107213072Y-94349999D01*
X107196008Y-94176745D01*
X107145472Y-94010149D01*
X107063405Y-93856613D01*
X106952962Y-93722038D01*
X106818387Y-93611595D01*
X106710000Y-93553661D01*
X106710000Y-72418355D01*
X107673355Y-71455000D01*
X108909893Y-71455000D01*
X109053368Y-71598475D01*
X109227760Y-71715000D01*
X109053368Y-71831525D01*
X108846525Y-72038368D01*
X108684010Y-72281589D01*
X108572068Y-72551842D01*
X108515000Y-72838740D01*
X108515000Y-73131260D01*
X108572068Y-73418158D01*
X108684010Y-73688411D01*
X108846525Y-73931632D01*
X109053368Y-74138475D01*
X109227760Y-74255000D01*
X109053368Y-74371525D01*
X108846525Y-74578368D01*
X108684010Y-74821589D01*
X108572068Y-75091842D01*
X108515000Y-75378740D01*
X108515000Y-75671260D01*
X108572068Y-75958158D01*
X108684010Y-76228411D01*
X108846525Y-76471632D01*
X109053368Y-76678475D01*
X109227760Y-76795000D01*
X109053368Y-76911525D01*
X108846525Y-77118368D01*
X108684010Y-77361589D01*
X108572068Y-77631842D01*
X108515000Y-77918740D01*
X108515000Y-78211260D01*
X108572068Y-78498158D01*
X108684010Y-78768411D01*
X108846525Y-79011632D01*
X109053368Y-79218475D01*
X109227760Y-79335000D01*
X109053368Y-79451525D01*
X108846525Y-79658368D01*
X108684010Y-79901589D01*
X108572068Y-80171842D01*
X108515000Y-80458740D01*
X108515000Y-80751260D01*
X108572068Y-81038158D01*
X108684010Y-81308411D01*
X108846525Y-81551632D01*
X109053368Y-81758475D01*
X109227760Y-81875000D01*
X109053368Y-81991525D01*
X108846525Y-82198368D01*
X108684010Y-82441589D01*
X108572068Y-82711842D01*
X108515000Y-82998740D01*
X108515000Y-83291260D01*
X108572068Y-83578158D01*
X108684010Y-83848411D01*
X108846525Y-84091632D01*
X109053368Y-84298475D01*
X109227760Y-84415000D01*
X109053368Y-84531525D01*
X108846525Y-84738368D01*
X108684010Y-84981589D01*
X108572068Y-85251842D01*
X108515000Y-85538740D01*
X108515000Y-85831260D01*
X108572068Y-86118158D01*
X108684010Y-86388411D01*
X108846525Y-86631632D01*
X109053368Y-86838475D01*
X109227760Y-86955000D01*
X109053368Y-87071525D01*
X108846525Y-87278368D01*
X108684010Y-87521589D01*
X108572068Y-87791842D01*
X108515000Y-88078740D01*
X108515000Y-88371260D01*
X108572068Y-88658158D01*
X108684010Y-88928411D01*
X108846525Y-89171632D01*
X109053368Y-89378475D01*
X109227760Y-89495000D01*
X109053368Y-89611525D01*
X108846525Y-89818368D01*
X108684010Y-90061589D01*
X108572068Y-90331842D01*
X108515000Y-90618740D01*
X108515000Y-90911260D01*
X108572068Y-91198158D01*
X108684010Y-91468411D01*
X108846525Y-91711632D01*
X109053368Y-91918475D01*
X109227760Y-92035000D01*
X109053368Y-92151525D01*
X108846525Y-92358368D01*
X108684010Y-92601589D01*
X108572068Y-92871842D01*
X108515000Y-93158740D01*
X108515000Y-93451260D01*
X108572068Y-93738158D01*
X108684010Y-94008411D01*
X108846525Y-94251632D01*
X109053368Y-94458475D01*
X109227760Y-94575000D01*
X109053368Y-94691525D01*
X108846525Y-94898368D01*
X108684010Y-95141589D01*
X108572068Y-95411842D01*
X108515000Y-95698740D01*
X108515000Y-95991260D01*
X108572068Y-96278158D01*
X108684010Y-96548411D01*
X108846525Y-96791632D01*
X109053368Y-96998475D01*
X109227760Y-97115000D01*
X109053368Y-97231525D01*
X108846525Y-97438368D01*
X108684010Y-97681589D01*
X108572068Y-97951842D01*
X108515000Y-98238740D01*
X108515000Y-98531260D01*
X108572068Y-98818158D01*
X108684010Y-99088411D01*
X108846525Y-99331632D01*
X109053368Y-99538475D01*
X109227760Y-99655000D01*
X109053368Y-99771525D01*
X108846525Y-99978368D01*
X108684010Y-100221589D01*
X108572068Y-100491842D01*
X108515000Y-100778740D01*
X108515000Y-101071260D01*
X108572068Y-101358158D01*
X108684010Y-101628411D01*
X108846525Y-101871632D01*
X109053368Y-102078475D01*
X109227760Y-102195000D01*
X109053368Y-102311525D01*
X108846525Y-102518368D01*
X108684010Y-102761589D01*
X108572068Y-103031842D01*
X108515000Y-103318740D01*
X108515000Y-103611260D01*
X108572068Y-103898158D01*
X108684010Y-104168411D01*
X108846525Y-104411632D01*
X109053368Y-104618475D01*
X109227760Y-104735000D01*
X109053368Y-104851525D01*
X108846525Y-105058368D01*
X108684010Y-105301589D01*
X108572068Y-105571842D01*
X108515000Y-105858740D01*
X108515000Y-106151260D01*
X108572068Y-106438158D01*
X108684010Y-106708411D01*
X108846525Y-106951632D01*
X109053368Y-107158475D01*
X109227760Y-107275000D01*
X109053368Y-107391525D01*
X108846525Y-107598368D01*
X108684010Y-107841589D01*
X108572068Y-108111842D01*
X108515000Y-108398740D01*
X108515000Y-108691260D01*
X108572068Y-108978158D01*
X108684010Y-109248411D01*
X108846525Y-109491632D01*
X109053368Y-109698475D01*
X109227760Y-109815000D01*
X109053368Y-109931525D01*
X108846525Y-110138368D01*
X108684010Y-110381589D01*
X108572068Y-110651842D01*
X108515000Y-110938740D01*
X108515000Y-111231260D01*
X108572068Y-111518158D01*
X108684010Y-111788411D01*
X108846525Y-112031632D01*
X109053368Y-112238475D01*
X109227760Y-112355000D01*
X109053368Y-112471525D01*
X108846525Y-112678368D01*
X108684010Y-112921589D01*
X108572068Y-113191842D01*
X108515000Y-113478740D01*
X108515000Y-113771260D01*
X108572068Y-114058158D01*
X108684010Y-114328411D01*
X108846525Y-114571632D01*
X109053368Y-114778475D01*
X109227760Y-114895000D01*
X109053368Y-115011525D01*
X108846525Y-115218368D01*
X108684010Y-115461589D01*
X108572068Y-115731842D01*
X108515000Y-116018740D01*
X108515000Y-116311260D01*
X108572068Y-116598158D01*
X108684010Y-116868411D01*
X108846525Y-117111632D01*
X109053368Y-117318475D01*
X109227760Y-117435000D01*
X109053368Y-117551525D01*
X108846525Y-117758368D01*
X108684010Y-118001589D01*
X108572068Y-118271842D01*
X108515000Y-118558740D01*
X108515000Y-118851260D01*
X108572068Y-119138158D01*
X108684010Y-119408411D01*
X108846525Y-119651632D01*
X108978380Y-119783487D01*
X108905820Y-119805498D01*
X108795506Y-119864463D01*
X108698815Y-119943815D01*
X108619463Y-120040506D01*
X108560498Y-120150820D01*
X108524188Y-120270518D01*
X108511928Y-120395000D01*
X108515000Y-120959250D01*
X108673750Y-121118000D01*
X109873000Y-121118000D01*
X109873000Y-121098000D01*
X110127000Y-121098000D01*
X110127000Y-121118000D01*
X111326250Y-121118000D01*
X111485000Y-120959250D01*
X111488072Y-120395000D01*
X111475812Y-120270518D01*
X111439502Y-120150820D01*
X111380537Y-120040506D01*
X111301185Y-119943815D01*
X111204494Y-119864463D01*
X111094180Y-119805498D01*
X111021620Y-119783487D01*
X111153475Y-119651632D01*
X111315990Y-119408411D01*
X111427932Y-119138158D01*
X111485000Y-118851260D01*
X111485000Y-118558740D01*
X111427932Y-118271842D01*
X111315990Y-118001589D01*
X111153475Y-117758368D01*
X110946632Y-117551525D01*
X110772240Y-117435000D01*
X110946632Y-117318475D01*
X111153475Y-117111632D01*
X111315990Y-116868411D01*
X111427932Y-116598158D01*
X111485000Y-116311260D01*
X111485000Y-116018740D01*
X111427932Y-115731842D01*
X111315990Y-115461589D01*
X111153475Y-115218368D01*
X110946632Y-115011525D01*
X110772240Y-114895000D01*
X110946632Y-114778475D01*
X111153475Y-114571632D01*
X111315990Y-114328411D01*
X111427932Y-114058158D01*
X111485000Y-113771260D01*
X111485000Y-113478740D01*
X111427932Y-113191842D01*
X111315990Y-112921589D01*
X111153475Y-112678368D01*
X110946632Y-112471525D01*
X110772240Y-112355000D01*
X110946632Y-112238475D01*
X111153475Y-112031632D01*
X111315990Y-111788411D01*
X111427932Y-111518158D01*
X111485000Y-111231260D01*
X111485000Y-110938740D01*
X111427932Y-110651842D01*
X111315990Y-110381589D01*
X111153475Y-110138368D01*
X110946632Y-109931525D01*
X110772240Y-109815000D01*
X110946632Y-109698475D01*
X111153475Y-109491632D01*
X111315990Y-109248411D01*
X111427932Y-108978158D01*
X111485000Y-108691260D01*
X111485000Y-108398740D01*
X111427932Y-108111842D01*
X111315990Y-107841589D01*
X111153475Y-107598368D01*
X110946632Y-107391525D01*
X110772240Y-107275000D01*
X110946632Y-107158475D01*
X111153475Y-106951632D01*
X111315990Y-106708411D01*
X111427932Y-106438158D01*
X111485000Y-106151260D01*
X111485000Y-105858740D01*
X111427932Y-105571842D01*
X111315990Y-105301589D01*
X111153475Y-105058368D01*
X110946632Y-104851525D01*
X110772240Y-104735000D01*
X110946632Y-104618475D01*
X111153475Y-104411632D01*
X111315990Y-104168411D01*
X111427932Y-103898158D01*
X111485000Y-103611260D01*
X111485000Y-103318740D01*
X111427932Y-103031842D01*
X111315990Y-102761589D01*
X111153475Y-102518368D01*
X110946632Y-102311525D01*
X110772240Y-102195000D01*
X110946632Y-102078475D01*
X111153475Y-101871632D01*
X111315990Y-101628411D01*
X111427932Y-101358158D01*
X111485000Y-101071260D01*
X111485000Y-100778740D01*
X111427932Y-100491842D01*
X111315990Y-100221589D01*
X111153475Y-99978368D01*
X110946632Y-99771525D01*
X110772240Y-99655000D01*
X110946632Y-99538475D01*
X111153475Y-99331632D01*
X111315990Y-99088411D01*
X111427932Y-98818158D01*
X111485000Y-98531260D01*
X111485000Y-98238740D01*
X111427932Y-97951842D01*
X111315990Y-97681589D01*
X111153475Y-97438368D01*
X110946632Y-97231525D01*
X110772240Y-97115000D01*
X110946632Y-96998475D01*
X111153475Y-96791632D01*
X111315990Y-96548411D01*
X111427932Y-96278158D01*
X111485000Y-95991260D01*
X111485000Y-95698740D01*
X111427932Y-95411842D01*
X111315990Y-95141589D01*
X111153475Y-94898368D01*
X110946632Y-94691525D01*
X110772240Y-94575000D01*
X110946632Y-94458475D01*
X111153475Y-94251632D01*
X111315990Y-94008411D01*
X111427932Y-93738158D01*
X111485000Y-93451260D01*
X111485000Y-93158740D01*
X111427932Y-92871842D01*
X111315990Y-92601589D01*
X111153475Y-92358368D01*
X110946632Y-92151525D01*
X110772240Y-92035000D01*
X110946632Y-91918475D01*
X111153475Y-91711632D01*
X111315990Y-91468411D01*
X111427932Y-91198158D01*
X111485000Y-90911260D01*
X111485000Y-90618740D01*
X111427932Y-90331842D01*
X111315990Y-90061589D01*
X111153475Y-89818368D01*
X110946632Y-89611525D01*
X110772240Y-89495000D01*
X110946632Y-89378475D01*
X111153475Y-89171632D01*
X111315990Y-88928411D01*
X111427932Y-88658158D01*
X111485000Y-88371260D01*
X111485000Y-88078740D01*
X111427932Y-87791842D01*
X111315990Y-87521589D01*
X111153475Y-87278368D01*
X110946632Y-87071525D01*
X110772240Y-86955000D01*
X110946632Y-86838475D01*
X111153475Y-86631632D01*
X111315990Y-86388411D01*
X111427932Y-86118158D01*
X111485000Y-85831260D01*
X111485000Y-85538740D01*
X111427932Y-85251842D01*
X111315990Y-84981589D01*
X111153475Y-84738368D01*
X110946632Y-84531525D01*
X110772240Y-84415000D01*
X110946632Y-84298475D01*
X111153475Y-84091632D01*
X111315990Y-83848411D01*
X111427932Y-83578158D01*
X111485000Y-83291260D01*
X111485000Y-82998740D01*
X111427932Y-82711842D01*
X111315990Y-82441589D01*
X111153475Y-82198368D01*
X110946632Y-81991525D01*
X110772240Y-81875000D01*
X110946632Y-81758475D01*
X111153475Y-81551632D01*
X111315990Y-81308411D01*
X111427932Y-81038158D01*
X111485000Y-80751260D01*
X111485000Y-80458740D01*
X111427932Y-80171842D01*
X111315990Y-79901589D01*
X111153475Y-79658368D01*
X110946632Y-79451525D01*
X110772240Y-79335000D01*
X110946632Y-79218475D01*
X111153475Y-79011632D01*
X111315990Y-78768411D01*
X111427932Y-78498158D01*
X111485000Y-78211260D01*
X111485000Y-77918740D01*
X111427932Y-77631842D01*
X111315990Y-77361589D01*
X111153475Y-77118368D01*
X110946632Y-76911525D01*
X110772240Y-76795000D01*
X110946632Y-76678475D01*
X111153475Y-76471632D01*
X111315990Y-76228411D01*
X111427932Y-75958158D01*
X111485000Y-75671260D01*
X111485000Y-75378740D01*
X111427932Y-75091842D01*
X111315990Y-74821589D01*
X111153475Y-74578368D01*
X110946632Y-74371525D01*
X110772240Y-74255000D01*
X110946632Y-74138475D01*
X111153475Y-73931632D01*
X111315990Y-73688411D01*
X111427932Y-73418158D01*
X111485000Y-73131260D01*
X111485000Y-72838740D01*
X111427932Y-72551842D01*
X111315990Y-72281589D01*
X111153475Y-72038368D01*
X110946632Y-71831525D01*
X110772240Y-71715000D01*
X110946632Y-71598475D01*
X111153475Y-71391632D01*
X111315990Y-71148411D01*
X111427932Y-70878158D01*
X111485000Y-70591260D01*
X111485000Y-70298740D01*
X111427932Y-70011842D01*
X111315990Y-69741589D01*
X111153475Y-69498368D01*
X110946632Y-69291525D01*
X110703411Y-69129010D01*
X110433158Y-69017068D01*
X110146260Y-68960000D01*
X109853740Y-68960000D01*
X109566842Y-69017068D01*
X109296589Y-69129010D01*
X109053368Y-69291525D01*
X108909893Y-69435000D01*
X107304604Y-69435000D01*
X107254999Y-69430114D01*
X107205394Y-69435000D01*
X107205392Y-69435000D01*
X107057006Y-69449615D01*
X106866620Y-69507368D01*
X106691160Y-69601153D01*
X106537367Y-69727367D01*
X106505739Y-69765906D01*
X105020906Y-71250739D01*
X104982367Y-71282367D01*
X104856153Y-71436160D01*
X104791527Y-71557068D01*
X104762368Y-71611621D01*
X104704615Y-71802006D01*
X104685114Y-72000000D01*
X104690000Y-72049608D01*
X104690001Y-93553660D01*
X104581613Y-93611595D01*
X104447038Y-93722038D01*
X104336595Y-93856613D01*
X104254528Y-94010149D01*
X104203992Y-94176745D01*
X104186928Y-94349999D01*
X93101579Y-94349999D01*
X96295049Y-91156530D01*
X96328817Y-91128817D01*
X96439411Y-90994059D01*
X96521589Y-90840313D01*
X96572195Y-90673490D01*
X96585000Y-90543477D01*
X96585000Y-90543469D01*
X96589281Y-90500000D01*
X96585000Y-90456531D01*
X96585000Y-86479872D01*
X97465000Y-86479872D01*
X97465000Y-86920128D01*
X97550890Y-87351925D01*
X97719369Y-87758669D01*
X97963962Y-88124729D01*
X98275271Y-88436038D01*
X98641331Y-88680631D01*
X99048075Y-88849110D01*
X99479872Y-88935000D01*
X99920128Y-88935000D01*
X100351925Y-88849110D01*
X100758669Y-88680631D01*
X101124729Y-88436038D01*
X101436038Y-88124729D01*
X101680631Y-87758669D01*
X101849110Y-87351925D01*
X101935000Y-86920128D01*
X101935000Y-86479872D01*
X101849110Y-86048075D01*
X101680631Y-85641331D01*
X101436038Y-85275271D01*
X101124729Y-84963962D01*
X100758669Y-84719369D01*
X100351925Y-84550890D01*
X99920128Y-84465000D01*
X99479872Y-84465000D01*
X99048075Y-84550890D01*
X98641331Y-84719369D01*
X98275271Y-84963962D01*
X97963962Y-85275271D01*
X97719369Y-85641331D01*
X97550890Y-86048075D01*
X97465000Y-86479872D01*
X96585000Y-86479872D01*
X96585000Y-85266578D01*
X100695049Y-81156530D01*
X100728817Y-81128817D01*
X100839411Y-80994059D01*
X100883475Y-80911621D01*
X100921589Y-80840314D01*
X100972195Y-80673490D01*
X100977159Y-80623088D01*
X100985000Y-80543477D01*
X100985000Y-80543469D01*
X100989281Y-80500000D01*
X100985000Y-80456531D01*
X100985000Y-73166578D01*
X108766579Y-65385000D01*
X114133422Y-65385000D01*
X122328470Y-73580049D01*
X122356183Y-73613817D01*
X122389951Y-73641530D01*
X122389953Y-73641532D01*
X122427316Y-73672195D01*
X122490941Y-73724411D01*
X122644687Y-73806589D01*
X122811510Y-73857195D01*
X122941523Y-73870000D01*
X122941533Y-73870000D01*
X122984999Y-73874281D01*
X123028466Y-73870000D01*
X133805344Y-73870000D01*
X133846525Y-73931632D01*
X134053368Y-74138475D01*
X134227760Y-74255000D01*
X134053368Y-74371525D01*
X133846525Y-74578368D01*
X133684010Y-74821589D01*
X133572068Y-75091842D01*
X133515000Y-75378740D01*
X133515000Y-75671260D01*
X133572068Y-75958158D01*
X133684010Y-76228411D01*
X133846525Y-76471632D01*
X134053368Y-76678475D01*
X134227760Y-76795000D01*
X134053368Y-76911525D01*
X133846525Y-77118368D01*
X133684010Y-77361589D01*
X133572068Y-77631842D01*
X133515000Y-77918740D01*
X133515000Y-78211260D01*
X133572068Y-78498158D01*
X133684010Y-78768411D01*
X133846525Y-79011632D01*
X134053368Y-79218475D01*
X134227760Y-79335000D01*
X134053368Y-79451525D01*
X133846525Y-79658368D01*
X133684010Y-79901589D01*
X133572068Y-80171842D01*
X133515000Y-80458740D01*
X133515000Y-80751260D01*
X133572068Y-81038158D01*
X133684010Y-81308411D01*
X133846525Y-81551632D01*
X134053368Y-81758475D01*
X134227760Y-81875000D01*
X134053368Y-81991525D01*
X133846525Y-82198368D01*
X133684010Y-82441589D01*
X133572068Y-82711842D01*
X133515000Y-82998740D01*
X133515000Y-83291260D01*
X133572068Y-83578158D01*
X133684010Y-83848411D01*
X133846525Y-84091632D01*
X134053368Y-84298475D01*
X134227760Y-84415000D01*
X134053368Y-84531525D01*
X133846525Y-84738368D01*
X133684010Y-84981589D01*
X133572068Y-85251842D01*
X133515000Y-85538740D01*
X133515000Y-85831260D01*
X133572068Y-86118158D01*
X133684010Y-86388411D01*
X133846525Y-86631632D01*
X134053368Y-86838475D01*
X134227760Y-86955000D01*
X134053368Y-87071525D01*
X133846525Y-87278368D01*
X133684010Y-87521589D01*
X133572068Y-87791842D01*
X133515000Y-88078740D01*
X133515000Y-88371260D01*
X133572068Y-88658158D01*
X133684010Y-88928411D01*
X133846525Y-89171632D01*
X134053368Y-89378475D01*
X134227760Y-89495000D01*
X134053368Y-89611525D01*
X133846525Y-89818368D01*
X133684010Y-90061589D01*
X133572068Y-90331842D01*
X133515000Y-90618740D01*
X133515000Y-90911260D01*
X133572068Y-91198158D01*
X133684010Y-91468411D01*
X133846525Y-91711632D01*
X134053368Y-91918475D01*
X134227760Y-92035000D01*
X134053368Y-92151525D01*
X133846525Y-92358368D01*
X133684010Y-92601589D01*
X133572068Y-92871842D01*
X133515000Y-93158740D01*
X133515000Y-93451260D01*
X133572068Y-93738158D01*
X133684010Y-94008411D01*
X133846525Y-94251632D01*
X134053368Y-94458475D01*
X134227760Y-94575000D01*
X134053368Y-94691525D01*
X133846525Y-94898368D01*
X133684010Y-95141589D01*
X133572068Y-95411842D01*
X133515000Y-95698740D01*
X133515000Y-95991260D01*
X133572068Y-96278158D01*
X133684010Y-96548411D01*
X133846525Y-96791632D01*
X134053368Y-96998475D01*
X134227760Y-97115000D01*
X134053368Y-97231525D01*
X133846525Y-97438368D01*
X133684010Y-97681589D01*
X133572068Y-97951842D01*
X133515000Y-98238740D01*
X133515000Y-98531260D01*
X133572068Y-98818158D01*
X133684010Y-99088411D01*
X133846525Y-99331632D01*
X134053368Y-99538475D01*
X134227760Y-99655000D01*
X134053368Y-99771525D01*
X133846525Y-99978368D01*
X133684010Y-100221589D01*
X133572068Y-100491842D01*
X133515000Y-100778740D01*
X133515000Y-101071260D01*
X133572068Y-101358158D01*
X133684010Y-101628411D01*
X133846525Y-101871632D01*
X134053368Y-102078475D01*
X134227760Y-102195000D01*
X134053368Y-102311525D01*
X133846525Y-102518368D01*
X133684010Y-102761589D01*
X133572068Y-103031842D01*
X133515000Y-103318740D01*
X133515000Y-103611260D01*
X133572068Y-103898158D01*
X133684010Y-104168411D01*
X133846525Y-104411632D01*
X134053368Y-104618475D01*
X134227760Y-104735000D01*
X134053368Y-104851525D01*
X133846525Y-105058368D01*
X133684010Y-105301589D01*
X133572068Y-105571842D01*
X133515000Y-105858740D01*
X133515000Y-106151260D01*
X133572068Y-106438158D01*
X133684010Y-106708411D01*
X133846525Y-106951632D01*
X134053368Y-107158475D01*
X134227760Y-107275000D01*
X134053368Y-107391525D01*
X133846525Y-107598368D01*
X133684010Y-107841589D01*
X133572068Y-108111842D01*
X133515000Y-108398740D01*
X133515000Y-108691260D01*
X133572068Y-108978158D01*
X133684010Y-109248411D01*
X133846525Y-109491632D01*
X134053368Y-109698475D01*
X134227760Y-109815000D01*
X134053368Y-109931525D01*
X133846525Y-110138368D01*
X133684010Y-110381589D01*
X133572068Y-110651842D01*
X133515000Y-110938740D01*
X133515000Y-111231260D01*
X133572068Y-111518158D01*
X133684010Y-111788411D01*
X133846525Y-112031632D01*
X134053368Y-112238475D01*
X134227760Y-112355000D01*
X134053368Y-112471525D01*
X133846525Y-112678368D01*
X133684010Y-112921589D01*
X133572068Y-113191842D01*
X133515000Y-113478740D01*
X133515000Y-113771260D01*
X133572068Y-114058158D01*
X133684010Y-114328411D01*
X133846525Y-114571632D01*
X134053368Y-114778475D01*
X134227760Y-114895000D01*
X134053368Y-115011525D01*
X133846525Y-115218368D01*
X133684010Y-115461589D01*
X133572068Y-115731842D01*
X133515000Y-116018740D01*
X133515000Y-116311260D01*
X133572068Y-116598158D01*
X133684010Y-116868411D01*
X133846525Y-117111632D01*
X134053368Y-117318475D01*
X134227760Y-117435000D01*
X134053368Y-117551525D01*
X133846525Y-117758368D01*
X133684010Y-118001589D01*
X133572068Y-118271842D01*
X133515000Y-118558740D01*
X133515000Y-118851260D01*
X133572068Y-119138158D01*
X133684010Y-119408411D01*
X133846525Y-119651632D01*
X134053368Y-119858475D01*
X134227760Y-119975000D01*
X134053368Y-120091525D01*
X133846525Y-120298368D01*
X133684010Y-120541589D01*
X133572068Y-120811842D01*
X133515000Y-121098740D01*
X133515000Y-121391260D01*
X133572068Y-121678158D01*
X133684010Y-121948411D01*
X133846525Y-122191632D01*
X134027893Y-122373000D01*
X111421425Y-122373000D01*
X111439502Y-122339180D01*
X111475812Y-122219482D01*
X111488072Y-122095000D01*
X111485000Y-121530750D01*
X111326250Y-121372000D01*
X110127000Y-121372000D01*
X110127000Y-121392000D01*
X109873000Y-121392000D01*
X109873000Y-121372000D01*
X108673750Y-121372000D01*
X108515000Y-121530750D01*
X108511928Y-122095000D01*
X108524188Y-122219482D01*
X108560498Y-122339180D01*
X108578576Y-122373000D01*
X87760000Y-122373000D01*
X87760000Y-121228397D01*
X88851208Y-121228397D01*
X88928843Y-121477472D01*
X89192883Y-121603371D01*
X89476411Y-121675339D01*
X89768531Y-121690611D01*
X90058019Y-121648599D01*
X90333747Y-121550919D01*
X90471157Y-121477472D01*
X90548792Y-121228397D01*
X89700000Y-120379605D01*
X88851208Y-121228397D01*
X87760000Y-121228397D01*
X87760000Y-119292143D01*
X87943919Y-119368325D01*
X88279117Y-119435000D01*
X88419592Y-119435000D01*
X88296629Y-119692883D01*
X88224661Y-119976411D01*
X88209389Y-120268531D01*
X88251401Y-120558019D01*
X88349081Y-120833747D01*
X88422528Y-120971157D01*
X88671603Y-121048792D01*
X89520395Y-120200000D01*
X89879605Y-120200000D01*
X90728397Y-121048792D01*
X90977472Y-120971157D01*
X91103371Y-120707117D01*
X91175339Y-120423589D01*
X91190611Y-120131469D01*
X91148599Y-119841981D01*
X91050919Y-119566253D01*
X90977472Y-119428843D01*
X90728397Y-119351208D01*
X89879605Y-120200000D01*
X89520395Y-120200000D01*
X89506253Y-120185858D01*
X89685858Y-120006253D01*
X89700000Y-120020395D01*
X90548792Y-119171603D01*
X90471157Y-118922528D01*
X90207117Y-118796629D01*
X89923589Y-118724661D01*
X89854427Y-118721045D01*
X89987537Y-118521831D01*
X90118325Y-118206081D01*
X90185000Y-117870883D01*
X90185000Y-117529117D01*
X90118325Y-117193919D01*
X89987537Y-116878169D01*
X89797663Y-116594002D01*
X89555998Y-116352337D01*
X89271831Y-116162463D01*
X88956081Y-116031675D01*
X88620883Y-115965000D01*
X88279117Y-115965000D01*
X87943919Y-116031675D01*
X87760000Y-116107857D01*
X87760000Y-97309040D01*
X88058091Y-97309040D01*
X88152930Y-97573881D01*
X88297615Y-97815131D01*
X88486586Y-98023519D01*
X88712580Y-98191037D01*
X88966913Y-98311246D01*
X89100961Y-98351904D01*
X89323000Y-98229915D01*
X89323000Y-97087000D01*
X89577000Y-97087000D01*
X89577000Y-98229915D01*
X89799039Y-98351904D01*
X89933087Y-98311246D01*
X90187420Y-98191037D01*
X90413414Y-98023519D01*
X90602385Y-97815131D01*
X90747070Y-97573881D01*
X90841909Y-97309040D01*
X90720624Y-97087000D01*
X89577000Y-97087000D01*
X89323000Y-97087000D01*
X88179376Y-97087000D01*
X88058091Y-97309040D01*
X87760000Y-97309040D01*
X87760000Y-96610960D01*
X88058091Y-96610960D01*
X88179376Y-96833000D01*
X89323000Y-96833000D01*
X89323000Y-95690085D01*
X89577000Y-95690085D01*
X89577000Y-96833000D01*
X90720624Y-96833000D01*
X90841909Y-96610960D01*
X90747070Y-96346119D01*
X90602385Y-96104869D01*
X90413414Y-95896481D01*
X90187420Y-95728963D01*
X89933087Y-95608754D01*
X89799039Y-95568096D01*
X89577000Y-95690085D01*
X89323000Y-95690085D01*
X89100961Y-95568096D01*
X88966913Y-95608754D01*
X88712580Y-95728963D01*
X88486586Y-95896481D01*
X88297615Y-96104869D01*
X88152930Y-96346119D01*
X88058091Y-96610960D01*
X87760000Y-96610960D01*
X87760000Y-86658665D01*
X88015000Y-86658665D01*
X88015000Y-86941335D01*
X88070147Y-87218574D01*
X88178320Y-87479727D01*
X88335363Y-87714759D01*
X88535241Y-87914637D01*
X88770273Y-88071680D01*
X89031426Y-88179853D01*
X89308665Y-88235000D01*
X89591335Y-88235000D01*
X89868574Y-88179853D01*
X90129727Y-88071680D01*
X90364759Y-87914637D01*
X90564637Y-87714759D01*
X90584521Y-87685000D01*
X91945435Y-87685000D01*
X91946525Y-87686632D01*
X92153368Y-87893475D01*
X92396589Y-88055990D01*
X92666842Y-88167932D01*
X92953740Y-88225000D01*
X93246260Y-88225000D01*
X93533158Y-88167932D01*
X93803411Y-88055990D01*
X94046632Y-87893475D01*
X94253475Y-87686632D01*
X94415990Y-87443411D01*
X94527932Y-87173158D01*
X94585000Y-86886260D01*
X94585000Y-86593740D01*
X94527932Y-86306842D01*
X94415990Y-86036589D01*
X94253475Y-85793368D01*
X94121620Y-85661513D01*
X94194180Y-85639502D01*
X94304494Y-85580537D01*
X94401185Y-85501185D01*
X94480537Y-85404494D01*
X94539502Y-85294180D01*
X94575812Y-85174482D01*
X94588072Y-85050000D01*
X94588072Y-84140283D01*
X96679094Y-82049261D01*
X96717633Y-82017633D01*
X96843847Y-81863840D01*
X96937632Y-81688380D01*
X96995385Y-81497994D01*
X97010000Y-81349608D01*
X97010000Y-81349606D01*
X97014886Y-81300001D01*
X97010000Y-81250396D01*
X97010000Y-68849604D01*
X97014886Y-68799999D01*
X97009355Y-68743847D01*
X96995385Y-68602006D01*
X96937632Y-68411620D01*
X96843847Y-68236160D01*
X96717633Y-68082367D01*
X96679094Y-68050739D01*
X95849261Y-67220906D01*
X95817633Y-67182367D01*
X95663840Y-67056153D01*
X95488380Y-66962368D01*
X95297994Y-66904615D01*
X95149608Y-66890000D01*
X95100000Y-66885114D01*
X95050392Y-66890000D01*
X93965038Y-66890000D01*
X93939502Y-66805820D01*
X93880537Y-66695506D01*
X93801185Y-66598815D01*
X93704494Y-66519463D01*
X93594180Y-66460498D01*
X93474482Y-66424188D01*
X93350000Y-66411928D01*
X91650000Y-66411928D01*
X91525518Y-66424188D01*
X91405820Y-66460498D01*
X91295506Y-66519463D01*
X91198815Y-66598815D01*
X91119463Y-66695506D01*
X91060498Y-66805820D01*
X91024188Y-66925518D01*
X91011928Y-67050000D01*
X91011928Y-68750000D01*
X91024188Y-68874482D01*
X91060498Y-68994180D01*
X91119463Y-69104494D01*
X91198815Y-69201185D01*
X91295506Y-69280537D01*
X91405820Y-69339502D01*
X91486466Y-69363966D01*
X91402412Y-69439731D01*
X91228359Y-69673080D01*
X91103175Y-69935901D01*
X91058524Y-70083110D01*
X91179845Y-70313000D01*
X92373000Y-70313000D01*
X92373000Y-70293000D01*
X92627000Y-70293000D01*
X92627000Y-70313000D01*
X93820155Y-70313000D01*
X93941476Y-70083110D01*
X93896825Y-69935901D01*
X93771641Y-69673080D01*
X93597588Y-69439731D01*
X93513534Y-69363966D01*
X93594180Y-69339502D01*
X93704494Y-69280537D01*
X93801185Y-69201185D01*
X93880537Y-69104494D01*
X93939502Y-68994180D01*
X93965038Y-68910000D01*
X94681645Y-68910000D01*
X94990001Y-69218356D01*
X94990000Y-80881645D01*
X93159717Y-82711928D01*
X92250000Y-82711928D01*
X92125518Y-82724188D01*
X92005820Y-82760498D01*
X91895506Y-82819463D01*
X91798815Y-82898815D01*
X91719463Y-82995506D01*
X91660498Y-83105820D01*
X91624188Y-83225518D01*
X91611928Y-83350000D01*
X91611928Y-85050000D01*
X91624188Y-85174482D01*
X91660498Y-85294180D01*
X91719463Y-85404494D01*
X91798815Y-85501185D01*
X91895506Y-85580537D01*
X92005820Y-85639502D01*
X92078380Y-85661513D01*
X91946525Y-85793368D01*
X91865253Y-85915000D01*
X90584521Y-85915000D01*
X90564637Y-85885241D01*
X90364759Y-85685363D01*
X90129727Y-85528320D01*
X89868574Y-85420147D01*
X89591335Y-85365000D01*
X89308665Y-85365000D01*
X89031426Y-85420147D01*
X88770273Y-85528320D01*
X88535241Y-85685363D01*
X88335363Y-85885241D01*
X88178320Y-86120273D01*
X88070147Y-86381426D01*
X88015000Y-86658665D01*
X87760000Y-86658665D01*
X87760000Y-72833740D01*
X91015000Y-72833740D01*
X91015000Y-73126260D01*
X91072068Y-73413158D01*
X91184010Y-73683411D01*
X91346525Y-73926632D01*
X91553368Y-74133475D01*
X91727760Y-74250000D01*
X91553368Y-74366525D01*
X91346525Y-74573368D01*
X91184010Y-74816589D01*
X91072068Y-75086842D01*
X91015000Y-75373740D01*
X91015000Y-75666260D01*
X91072068Y-75953158D01*
X91184010Y-76223411D01*
X91346525Y-76466632D01*
X91553368Y-76673475D01*
X91727760Y-76790000D01*
X91553368Y-76906525D01*
X91346525Y-77113368D01*
X91184010Y-77356589D01*
X91072068Y-77626842D01*
X91015000Y-77913740D01*
X91015000Y-78206260D01*
X91072068Y-78493158D01*
X91184010Y-78763411D01*
X91346525Y-79006632D01*
X91553368Y-79213475D01*
X91727760Y-79330000D01*
X91553368Y-79446525D01*
X91346525Y-79653368D01*
X91184010Y-79896589D01*
X91072068Y-80166842D01*
X91015000Y-80453740D01*
X91015000Y-80746260D01*
X91072068Y-81033158D01*
X91184010Y-81303411D01*
X91346525Y-81546632D01*
X91553368Y-81753475D01*
X91796589Y-81915990D01*
X92066842Y-82027932D01*
X92353740Y-82085000D01*
X92646260Y-82085000D01*
X92933158Y-82027932D01*
X93203411Y-81915990D01*
X93446632Y-81753475D01*
X93653475Y-81546632D01*
X93815990Y-81303411D01*
X93927932Y-81033158D01*
X93985000Y-80746260D01*
X93985000Y-80453740D01*
X93927932Y-80166842D01*
X93815990Y-79896589D01*
X93653475Y-79653368D01*
X93446632Y-79446525D01*
X93272240Y-79330000D01*
X93446632Y-79213475D01*
X93653475Y-79006632D01*
X93815990Y-78763411D01*
X93927932Y-78493158D01*
X93985000Y-78206260D01*
X93985000Y-77913740D01*
X93927932Y-77626842D01*
X93815990Y-77356589D01*
X93653475Y-77113368D01*
X93446632Y-76906525D01*
X93272240Y-76790000D01*
X93446632Y-76673475D01*
X93653475Y-76466632D01*
X93815990Y-76223411D01*
X93927932Y-75953158D01*
X93985000Y-75666260D01*
X93985000Y-75373740D01*
X93927932Y-75086842D01*
X93815990Y-74816589D01*
X93653475Y-74573368D01*
X93446632Y-74366525D01*
X93272240Y-74250000D01*
X93446632Y-74133475D01*
X93653475Y-73926632D01*
X93815990Y-73683411D01*
X93927932Y-73413158D01*
X93985000Y-73126260D01*
X93985000Y-72833740D01*
X93927932Y-72546842D01*
X93815990Y-72276589D01*
X93653475Y-72033368D01*
X93446632Y-71826525D01*
X93264466Y-71704805D01*
X93381355Y-71635178D01*
X93597588Y-71440269D01*
X93771641Y-71206920D01*
X93896825Y-70944099D01*
X93941476Y-70796890D01*
X93820155Y-70567000D01*
X92627000Y-70567000D01*
X92627000Y-70587000D01*
X92373000Y-70587000D01*
X92373000Y-70567000D01*
X91179845Y-70567000D01*
X91058524Y-70796890D01*
X91103175Y-70944099D01*
X91228359Y-71206920D01*
X91402412Y-71440269D01*
X91618645Y-71635178D01*
X91735534Y-71704805D01*
X91553368Y-71826525D01*
X91346525Y-72033368D01*
X91184010Y-72276589D01*
X91072068Y-72546842D01*
X91015000Y-72833740D01*
X87760000Y-72833740D01*
X87760000Y-62260000D01*
X146240001Y-62260000D01*
X146240000Y-67940000D01*
%TA.AperFunction,Conductor*%
D22*
G36*
X146240000Y-67940000D02*
G01*
X142932419Y-67940000D01*
X142900000Y-67936807D01*
X142867581Y-67940000D01*
X142770617Y-67949550D01*
X142693314Y-67973000D01*
X142300000Y-67973000D01*
X142275224Y-67975440D01*
X142251399Y-67982667D01*
X142229443Y-67994403D01*
X142210197Y-68010197D01*
X142194403Y-68029443D01*
X142182667Y-68051399D01*
X142175440Y-68075224D01*
X142173000Y-68100000D01*
X142173000Y-73100000D01*
X142175440Y-73124776D01*
X142182667Y-73148601D01*
X142194403Y-73170557D01*
X142210197Y-73189803D01*
X142229443Y-73205597D01*
X142251399Y-73217333D01*
X142275224Y-73224560D01*
X142300000Y-73227000D01*
X142693314Y-73227000D01*
X142770617Y-73250450D01*
X142867581Y-73260000D01*
X142900000Y-73263193D01*
X142932419Y-73260000D01*
X144018292Y-73260000D01*
X143944192Y-73464587D01*
X144900000Y-74420395D01*
X145855808Y-73464587D01*
X145781708Y-73260000D01*
X146240001Y-73260000D01*
X146240001Y-73718292D01*
X146035413Y-73644192D01*
X145079605Y-74600000D01*
X146035413Y-75555808D01*
X146240001Y-75481708D01*
X146240001Y-80218292D01*
X146035413Y-80144192D01*
X145079605Y-81100000D01*
X146035413Y-82055808D01*
X146240001Y-81981708D01*
X146240000Y-122373000D01*
X135972107Y-122373000D01*
X136153475Y-122191632D01*
X136315990Y-121948411D01*
X136427932Y-121678158D01*
X136485000Y-121391260D01*
X136485000Y-121098740D01*
X136427932Y-120811842D01*
X136315990Y-120541589D01*
X136153475Y-120298368D01*
X135946632Y-120091525D01*
X135772240Y-119975000D01*
X135946632Y-119858475D01*
X136153475Y-119651632D01*
X136315990Y-119408411D01*
X136427932Y-119138158D01*
X136485000Y-118851260D01*
X136485000Y-118558740D01*
X136427932Y-118271842D01*
X136315990Y-118001589D01*
X136153475Y-117758368D01*
X135946632Y-117551525D01*
X135772240Y-117435000D01*
X135946632Y-117318475D01*
X136153475Y-117111632D01*
X136315990Y-116868411D01*
X136427932Y-116598158D01*
X136485000Y-116311260D01*
X136485000Y-116018740D01*
X136427932Y-115731842D01*
X136315990Y-115461589D01*
X136153475Y-115218368D01*
X135946632Y-115011525D01*
X135772240Y-114895000D01*
X135946632Y-114778475D01*
X136153475Y-114571632D01*
X136214787Y-114479872D01*
X140465000Y-114479872D01*
X140465000Y-114920128D01*
X140550890Y-115351925D01*
X140719369Y-115758669D01*
X140963962Y-116124729D01*
X141275271Y-116436038D01*
X141641331Y-116680631D01*
X142048075Y-116849110D01*
X142479872Y-116935000D01*
X142920128Y-116935000D01*
X143351925Y-116849110D01*
X143758669Y-116680631D01*
X144124729Y-116436038D01*
X144436038Y-116124729D01*
X144680631Y-115758669D01*
X144849110Y-115351925D01*
X144935000Y-114920128D01*
X144935000Y-114479872D01*
X144849110Y-114048075D01*
X144680631Y-113641331D01*
X144436038Y-113275271D01*
X144124729Y-112963962D01*
X143758669Y-112719369D01*
X143351925Y-112550890D01*
X142920128Y-112465000D01*
X142479872Y-112465000D01*
X142048075Y-112550890D01*
X141641331Y-112719369D01*
X141275271Y-112963962D01*
X140963962Y-113275271D01*
X140719369Y-113641331D01*
X140550890Y-114048075D01*
X140465000Y-114479872D01*
X136214787Y-114479872D01*
X136315990Y-114328411D01*
X136427932Y-114058158D01*
X136485000Y-113771260D01*
X136485000Y-113478740D01*
X136427932Y-113191842D01*
X136315990Y-112921589D01*
X136153475Y-112678368D01*
X135946632Y-112471525D01*
X135772240Y-112355000D01*
X135946632Y-112238475D01*
X136153475Y-112031632D01*
X136315990Y-111788411D01*
X136427932Y-111518158D01*
X136485000Y-111231260D01*
X136485000Y-110938740D01*
X136427932Y-110651842D01*
X136315990Y-110381589D01*
X136153475Y-110138368D01*
X135946632Y-109931525D01*
X135772240Y-109815000D01*
X135946632Y-109698475D01*
X136153475Y-109491632D01*
X136315990Y-109248411D01*
X136427932Y-108978158D01*
X136485000Y-108691260D01*
X136485000Y-108398740D01*
X136427932Y-108111842D01*
X136315990Y-107841589D01*
X136153475Y-107598368D01*
X135946632Y-107391525D01*
X135772240Y-107275000D01*
X135946632Y-107158475D01*
X136153475Y-106951632D01*
X136315990Y-106708411D01*
X136427932Y-106438158D01*
X136485000Y-106151260D01*
X136485000Y-105858740D01*
X136427932Y-105571842D01*
X136315990Y-105301589D01*
X136153475Y-105058368D01*
X135946632Y-104851525D01*
X135772240Y-104735000D01*
X135946632Y-104618475D01*
X136153475Y-104411632D01*
X136315990Y-104168411D01*
X136427932Y-103898158D01*
X136485000Y-103611260D01*
X136485000Y-103318740D01*
X136427932Y-103031842D01*
X136315990Y-102761589D01*
X136153475Y-102518368D01*
X135946632Y-102311525D01*
X135772240Y-102195000D01*
X135946632Y-102078475D01*
X136153475Y-101871632D01*
X136315990Y-101628411D01*
X136427932Y-101358158D01*
X136485000Y-101071260D01*
X136485000Y-100778740D01*
X136427932Y-100491842D01*
X136315990Y-100221589D01*
X136153475Y-99978368D01*
X135946632Y-99771525D01*
X135772240Y-99655000D01*
X135946632Y-99538475D01*
X136153475Y-99331632D01*
X136315990Y-99088411D01*
X136427932Y-98818158D01*
X136485000Y-98531260D01*
X136485000Y-98238740D01*
X136427932Y-97951842D01*
X136315990Y-97681589D01*
X136153475Y-97438368D01*
X135946632Y-97231525D01*
X135772240Y-97115000D01*
X135946632Y-96998475D01*
X136153475Y-96791632D01*
X136315990Y-96548411D01*
X136427932Y-96278158D01*
X136485000Y-95991260D01*
X136485000Y-95698740D01*
X136427932Y-95411842D01*
X136315990Y-95141589D01*
X136153475Y-94898368D01*
X135946632Y-94691525D01*
X135772240Y-94575000D01*
X135946632Y-94458475D01*
X136153475Y-94251632D01*
X136315990Y-94008411D01*
X136427932Y-93738158D01*
X136485000Y-93451260D01*
X136485000Y-93158740D01*
X136427932Y-92871842D01*
X136315990Y-92601589D01*
X136153475Y-92358368D01*
X135946632Y-92151525D01*
X135772240Y-92035000D01*
X135946632Y-91918475D01*
X136153475Y-91711632D01*
X136315990Y-91468411D01*
X136427932Y-91198158D01*
X136485000Y-90911260D01*
X136485000Y-90618740D01*
X136427932Y-90331842D01*
X136315990Y-90061589D01*
X136153475Y-89818368D01*
X135946632Y-89611525D01*
X135772240Y-89495000D01*
X135946632Y-89378475D01*
X136153475Y-89171632D01*
X136315990Y-88928411D01*
X136427932Y-88658158D01*
X136485000Y-88371260D01*
X136485000Y-88078740D01*
X136427932Y-87791842D01*
X136315990Y-87521589D01*
X136153475Y-87278368D01*
X135946632Y-87071525D01*
X135772240Y-86955000D01*
X135946632Y-86838475D01*
X136153475Y-86631632D01*
X136254877Y-86479872D01*
X140465000Y-86479872D01*
X140465000Y-86920128D01*
X140550890Y-87351925D01*
X140719369Y-87758669D01*
X140963962Y-88124729D01*
X141275271Y-88436038D01*
X141641331Y-88680631D01*
X142048075Y-88849110D01*
X142479872Y-88935000D01*
X142920128Y-88935000D01*
X143351925Y-88849110D01*
X143758669Y-88680631D01*
X144124729Y-88436038D01*
X144436038Y-88124729D01*
X144680631Y-87758669D01*
X144849110Y-87351925D01*
X144935000Y-86920128D01*
X144935000Y-86479872D01*
X144849110Y-86048075D01*
X144680631Y-85641331D01*
X144436038Y-85275271D01*
X144124729Y-84963962D01*
X143758669Y-84719369D01*
X143351925Y-84550890D01*
X142920128Y-84465000D01*
X142479872Y-84465000D01*
X142048075Y-84550890D01*
X141641331Y-84719369D01*
X141275271Y-84963962D01*
X140963962Y-85275271D01*
X140719369Y-85641331D01*
X140550890Y-86048075D01*
X140465000Y-86479872D01*
X136254877Y-86479872D01*
X136315990Y-86388411D01*
X136427932Y-86118158D01*
X136485000Y-85831260D01*
X136485000Y-85538740D01*
X136427932Y-85251842D01*
X136315990Y-84981589D01*
X136153475Y-84738368D01*
X135946632Y-84531525D01*
X135772240Y-84415000D01*
X135946632Y-84298475D01*
X136153475Y-84091632D01*
X136315990Y-83848411D01*
X136427932Y-83578158D01*
X136485000Y-83291260D01*
X136485000Y-82998740D01*
X136427932Y-82711842D01*
X136315990Y-82441589D01*
X136153475Y-82198368D01*
X135946632Y-81991525D01*
X135772240Y-81875000D01*
X135946632Y-81758475D01*
X136153475Y-81551632D01*
X136315990Y-81308411D01*
X136427932Y-81038158D01*
X136447662Y-80938967D01*
X138765000Y-80938967D01*
X138765000Y-81261033D01*
X138827832Y-81576912D01*
X138951082Y-81874463D01*
X139130013Y-82142252D01*
X139357748Y-82369987D01*
X139625537Y-82548918D01*
X139923088Y-82672168D01*
X140238967Y-82735000D01*
X140561033Y-82735000D01*
X140876912Y-82672168D01*
X141174463Y-82548918D01*
X141442252Y-82369987D01*
X141576826Y-82235413D01*
X143944192Y-82235413D01*
X144039956Y-82499814D01*
X144329571Y-82640704D01*
X144641108Y-82722384D01*
X144962595Y-82741718D01*
X145281675Y-82697961D01*
X145586088Y-82592795D01*
X145760044Y-82499814D01*
X145855808Y-82235413D01*
X144900000Y-81279605D01*
X143944192Y-82235413D01*
X141576826Y-82235413D01*
X141669987Y-82142252D01*
X141848918Y-81874463D01*
X141972168Y-81576912D01*
X142035000Y-81261033D01*
X142035000Y-81162595D01*
X143258282Y-81162595D01*
X143302039Y-81481675D01*
X143407205Y-81786088D01*
X143500186Y-81960044D01*
X143764587Y-82055808D01*
X144720395Y-81100000D01*
X143764587Y-80144192D01*
X143500186Y-80239956D01*
X143359296Y-80529571D01*
X143277616Y-80841108D01*
X143258282Y-81162595D01*
X142035000Y-81162595D01*
X142035000Y-80938967D01*
X141972168Y-80623088D01*
X141848918Y-80325537D01*
X141669987Y-80057748D01*
X141576826Y-79964587D01*
X143944192Y-79964587D01*
X144900000Y-80920395D01*
X145855808Y-79964587D01*
X145760044Y-79700186D01*
X145470429Y-79559296D01*
X145158892Y-79477616D01*
X144837405Y-79458282D01*
X144518325Y-79502039D01*
X144213912Y-79607205D01*
X144039956Y-79700186D01*
X143944192Y-79964587D01*
X141576826Y-79964587D01*
X141442252Y-79830013D01*
X141174463Y-79651082D01*
X140876912Y-79527832D01*
X140561033Y-79465000D01*
X140238967Y-79465000D01*
X139923088Y-79527832D01*
X139625537Y-79651082D01*
X139357748Y-79830013D01*
X139130013Y-80057748D01*
X138951082Y-80325537D01*
X138827832Y-80623088D01*
X138765000Y-80938967D01*
X136447662Y-80938967D01*
X136485000Y-80751260D01*
X136485000Y-80458740D01*
X136427932Y-80171842D01*
X136315990Y-79901589D01*
X136153475Y-79658368D01*
X135946632Y-79451525D01*
X135772240Y-79335000D01*
X135946632Y-79218475D01*
X136153475Y-79011632D01*
X136315990Y-78768411D01*
X136427932Y-78498158D01*
X136485000Y-78211260D01*
X136485000Y-77918740D01*
X136427932Y-77631842D01*
X136315990Y-77361589D01*
X136153475Y-77118368D01*
X135946632Y-76911525D01*
X135772240Y-76795000D01*
X135946632Y-76678475D01*
X136153475Y-76471632D01*
X136315990Y-76228411D01*
X136427932Y-75958158D01*
X136485000Y-75671260D01*
X136485000Y-75378740D01*
X136427932Y-75091842D01*
X136315990Y-74821589D01*
X136153475Y-74578368D01*
X136014074Y-74438967D01*
X138765000Y-74438967D01*
X138765000Y-74761033D01*
X138827832Y-75076912D01*
X138951082Y-75374463D01*
X139130013Y-75642252D01*
X139357748Y-75869987D01*
X139625537Y-76048918D01*
X139923088Y-76172168D01*
X140238967Y-76235000D01*
X140561033Y-76235000D01*
X140876912Y-76172168D01*
X141174463Y-76048918D01*
X141442252Y-75869987D01*
X141576826Y-75735413D01*
X143944192Y-75735413D01*
X144039956Y-75999814D01*
X144329571Y-76140704D01*
X144641108Y-76222384D01*
X144962595Y-76241718D01*
X145281675Y-76197961D01*
X145586088Y-76092795D01*
X145760044Y-75999814D01*
X145855808Y-75735413D01*
X144900000Y-74779605D01*
X143944192Y-75735413D01*
X141576826Y-75735413D01*
X141669987Y-75642252D01*
X141848918Y-75374463D01*
X141972168Y-75076912D01*
X142035000Y-74761033D01*
X142035000Y-74662595D01*
X143258282Y-74662595D01*
X143302039Y-74981675D01*
X143407205Y-75286088D01*
X143500186Y-75460044D01*
X143764587Y-75555808D01*
X144720395Y-74600000D01*
X143764587Y-73644192D01*
X143500186Y-73739956D01*
X143359296Y-74029571D01*
X143277616Y-74341108D01*
X143258282Y-74662595D01*
X142035000Y-74662595D01*
X142035000Y-74438967D01*
X141972168Y-74123088D01*
X141848918Y-73825537D01*
X141669987Y-73557748D01*
X141442252Y-73330013D01*
X141174463Y-73151082D01*
X140876912Y-73027832D01*
X140561033Y-72965000D01*
X140238967Y-72965000D01*
X139923088Y-73027832D01*
X139625537Y-73151082D01*
X139357748Y-73330013D01*
X139130013Y-73557748D01*
X138951082Y-73825537D01*
X138827832Y-74123088D01*
X138765000Y-74438967D01*
X136014074Y-74438967D01*
X135946632Y-74371525D01*
X135772240Y-74255000D01*
X135946632Y-74138475D01*
X136153475Y-73931632D01*
X136315990Y-73688411D01*
X136427932Y-73418158D01*
X136485000Y-73131260D01*
X136485000Y-72838740D01*
X136427932Y-72551842D01*
X136315990Y-72281589D01*
X136153475Y-72038368D01*
X136021620Y-71906513D01*
X136094180Y-71884502D01*
X136204494Y-71825537D01*
X136301185Y-71746185D01*
X136380537Y-71649494D01*
X136439502Y-71539180D01*
X136475812Y-71419482D01*
X136488072Y-71295000D01*
X136485000Y-70730750D01*
X136326250Y-70572000D01*
X135127000Y-70572000D01*
X135127000Y-70592000D01*
X134873000Y-70592000D01*
X134873000Y-70572000D01*
X133673750Y-70572000D01*
X133515000Y-70730750D01*
X133511928Y-71295000D01*
X133524188Y-71419482D01*
X133560498Y-71539180D01*
X133619463Y-71649494D01*
X133698815Y-71746185D01*
X133795506Y-71825537D01*
X133905820Y-71884502D01*
X133978380Y-71906513D01*
X133846525Y-72038368D01*
X133805344Y-72100000D01*
X123351579Y-72100000D01*
X120846579Y-69595000D01*
X133511928Y-69595000D01*
X133515000Y-70159250D01*
X133673750Y-70318000D01*
X134873000Y-70318000D01*
X134873000Y-69118750D01*
X135127000Y-69118750D01*
X135127000Y-70318000D01*
X136326250Y-70318000D01*
X136485000Y-70159250D01*
X136488072Y-69595000D01*
X136475812Y-69470518D01*
X136439502Y-69350820D01*
X136380537Y-69240506D01*
X136301185Y-69143815D01*
X136204494Y-69064463D01*
X136094180Y-69005498D01*
X135974482Y-68969188D01*
X135850000Y-68956928D01*
X135285750Y-68960000D01*
X135127000Y-69118750D01*
X134873000Y-69118750D01*
X134714250Y-68960000D01*
X134150000Y-68956928D01*
X134025518Y-68969188D01*
X133905820Y-69005498D01*
X133795506Y-69064463D01*
X133698815Y-69143815D01*
X133619463Y-69240506D01*
X133560498Y-69350820D01*
X133524188Y-69470518D01*
X133511928Y-69595000D01*
X120846579Y-69595000D01*
X115156534Y-63904956D01*
X115128817Y-63871183D01*
X114994059Y-63760589D01*
X114840313Y-63678411D01*
X114673490Y-63627805D01*
X114543477Y-63615000D01*
X114543469Y-63615000D01*
X114500000Y-63610719D01*
X114456531Y-63615000D01*
X108443469Y-63615000D01*
X108400000Y-63610719D01*
X108356531Y-63615000D01*
X108356523Y-63615000D01*
X108226510Y-63627805D01*
X108059686Y-63678411D01*
X107905941Y-63760589D01*
X107804953Y-63843468D01*
X107804951Y-63843470D01*
X107771183Y-63871183D01*
X107743470Y-63904951D01*
X99504956Y-72143466D01*
X99471183Y-72171183D01*
X99360589Y-72305942D01*
X99278411Y-72459688D01*
X99227805Y-72626511D01*
X99215000Y-72756524D01*
X99215000Y-72756531D01*
X99210719Y-72800000D01*
X99215000Y-72843469D01*
X99215001Y-80133420D01*
X95104956Y-84243466D01*
X95071183Y-84271183D01*
X94960589Y-84405942D01*
X94878411Y-84559688D01*
X94869708Y-84588379D01*
X94829972Y-84719369D01*
X94827805Y-84726511D01*
X94815000Y-84856524D01*
X94815000Y-84856531D01*
X94810719Y-84900000D01*
X94815000Y-84943469D01*
X94815001Y-90133420D01*
X91204956Y-93743466D01*
X91171183Y-93771183D01*
X91060589Y-93905942D01*
X90978411Y-94059688D01*
X90927805Y-94226511D01*
X90915000Y-94356524D01*
X90915000Y-94356531D01*
X90910719Y-94400000D01*
X90915000Y-94443469D01*
X90915001Y-117156521D01*
X90910719Y-117200000D01*
X90927805Y-117373490D01*
X90978412Y-117540313D01*
X91060590Y-117694059D01*
X91143468Y-117795046D01*
X91143471Y-117795049D01*
X91171184Y-117828817D01*
X91204951Y-117856529D01*
X92872587Y-119524166D01*
X92772068Y-119766842D01*
X92715000Y-120053740D01*
X92715000Y-120346260D01*
X92772068Y-120633158D01*
X92884010Y-120903411D01*
X93046525Y-121146632D01*
X93253368Y-121353475D01*
X93496589Y-121515990D01*
X93766842Y-121627932D01*
X94053740Y-121685000D01*
X94346260Y-121685000D01*
X94633158Y-121627932D01*
X94903411Y-121515990D01*
X95146632Y-121353475D01*
X95353475Y-121146632D01*
X95515990Y-120903411D01*
X95627932Y-120633158D01*
X95685000Y-120346260D01*
X95685000Y-120243469D01*
X95689281Y-120200000D01*
X95685000Y-120156531D01*
X95685000Y-120053740D01*
X95627932Y-119766842D01*
X95515990Y-119496589D01*
X95474838Y-119435000D01*
X95620883Y-119435000D01*
X95956081Y-119368325D01*
X96271831Y-119237537D01*
X96555998Y-119047663D01*
X96797663Y-118805998D01*
X96987537Y-118521831D01*
X97118325Y-118206081D01*
X97185000Y-117870883D01*
X97185000Y-117529117D01*
X97118325Y-117193919D01*
X96987537Y-116878169D01*
X96797663Y-116594002D01*
X96555998Y-116352337D01*
X96271831Y-116162463D01*
X95956081Y-116031675D01*
X95620883Y-115965000D01*
X95279117Y-115965000D01*
X94943919Y-116031675D01*
X94628169Y-116162463D01*
X94344002Y-116352337D01*
X94102337Y-116594002D01*
X93912463Y-116878169D01*
X93781675Y-117193919D01*
X93715000Y-117529117D01*
X93715000Y-117863422D01*
X92685000Y-116833422D01*
X92685000Y-114479872D01*
X97465000Y-114479872D01*
X97465000Y-114920128D01*
X97550890Y-115351925D01*
X97719369Y-115758669D01*
X97963962Y-116124729D01*
X98275271Y-116436038D01*
X98641331Y-116680631D01*
X99048075Y-116849110D01*
X99479872Y-116935000D01*
X99920128Y-116935000D01*
X100351925Y-116849110D01*
X100758669Y-116680631D01*
X101124729Y-116436038D01*
X101436038Y-116124729D01*
X101680631Y-115758669D01*
X101849110Y-115351925D01*
X101935000Y-114920128D01*
X101935000Y-114479872D01*
X101849110Y-114048075D01*
X101680631Y-113641331D01*
X101436038Y-113275271D01*
X101124729Y-112963962D01*
X100758669Y-112719369D01*
X100351925Y-112550890D01*
X99920128Y-112465000D01*
X99479872Y-112465000D01*
X99048075Y-112550890D01*
X98641331Y-112719369D01*
X98275271Y-112963962D01*
X97963962Y-113275271D01*
X97719369Y-113641331D01*
X97550890Y-114048075D01*
X97465000Y-114479872D01*
X92685000Y-114479872D01*
X92685000Y-98700000D01*
X104184025Y-98700000D01*
X104207870Y-98942102D01*
X104278489Y-99174901D01*
X104393167Y-99389449D01*
X104547498Y-99577502D01*
X104696762Y-99700000D01*
X104547498Y-99822498D01*
X104393167Y-100010551D01*
X104278489Y-100225099D01*
X104207870Y-100457898D01*
X104184025Y-100700000D01*
X104207870Y-100942102D01*
X104278489Y-101174901D01*
X104393167Y-101389449D01*
X104547498Y-101577502D01*
X104696762Y-101700000D01*
X104547498Y-101822498D01*
X104393167Y-102010551D01*
X104278489Y-102225099D01*
X104207870Y-102457898D01*
X104184025Y-102700000D01*
X104207870Y-102942102D01*
X104278489Y-103174901D01*
X104393167Y-103389449D01*
X104547498Y-103577502D01*
X104696762Y-103700000D01*
X104547498Y-103822498D01*
X104393167Y-104010551D01*
X104278489Y-104225099D01*
X104207870Y-104457898D01*
X104184025Y-104700000D01*
X104207870Y-104942102D01*
X104278489Y-105174901D01*
X104393167Y-105389449D01*
X104547498Y-105577502D01*
X104696762Y-105700000D01*
X104547498Y-105822498D01*
X104393167Y-106010551D01*
X104278489Y-106225099D01*
X104207870Y-106457898D01*
X104184025Y-106700000D01*
X104207870Y-106942102D01*
X104278489Y-107174901D01*
X104393167Y-107389449D01*
X104547498Y-107577502D01*
X104696762Y-107700000D01*
X104547498Y-107822498D01*
X104393167Y-108010551D01*
X104278489Y-108225099D01*
X104207870Y-108457898D01*
X104184025Y-108700000D01*
X104207870Y-108942102D01*
X104278489Y-109174901D01*
X104393167Y-109389449D01*
X104547498Y-109577502D01*
X104735551Y-109731833D01*
X104950099Y-109846511D01*
X105182898Y-109917130D01*
X105364335Y-109935000D01*
X106035665Y-109935000D01*
X106217102Y-109917130D01*
X106449901Y-109846511D01*
X106664449Y-109731833D01*
X106852502Y-109577502D01*
X107006833Y-109389449D01*
X107121511Y-109174901D01*
X107192130Y-108942102D01*
X107215975Y-108700000D01*
X107192130Y-108457898D01*
X107121511Y-108225099D01*
X107006833Y-108010551D01*
X106852502Y-107822498D01*
X106703238Y-107700000D01*
X106852502Y-107577502D01*
X107006833Y-107389449D01*
X107121511Y-107174901D01*
X107192130Y-106942102D01*
X107215975Y-106700000D01*
X107192130Y-106457898D01*
X107121511Y-106225099D01*
X107006833Y-106010551D01*
X106852502Y-105822498D01*
X106703238Y-105700000D01*
X106852502Y-105577502D01*
X107006833Y-105389449D01*
X107121511Y-105174901D01*
X107192130Y-104942102D01*
X107215975Y-104700000D01*
X107192130Y-104457898D01*
X107121511Y-104225099D01*
X107006833Y-104010551D01*
X106852502Y-103822498D01*
X106703238Y-103700000D01*
X106852502Y-103577502D01*
X107006833Y-103389449D01*
X107121511Y-103174901D01*
X107192130Y-102942102D01*
X107215975Y-102700000D01*
X107192130Y-102457898D01*
X107121511Y-102225099D01*
X107006833Y-102010551D01*
X106852502Y-101822498D01*
X106703238Y-101700000D01*
X106852502Y-101577502D01*
X107006833Y-101389449D01*
X107121511Y-101174901D01*
X107192130Y-100942102D01*
X107215975Y-100700000D01*
X107192130Y-100457898D01*
X107121511Y-100225099D01*
X107006833Y-100010551D01*
X106852502Y-99822498D01*
X106703238Y-99700000D01*
X106852502Y-99577502D01*
X107006833Y-99389449D01*
X107121511Y-99174901D01*
X107192130Y-98942102D01*
X107215975Y-98700000D01*
X107192130Y-98457898D01*
X107121511Y-98225099D01*
X107006833Y-98010551D01*
X106852502Y-97822498D01*
X106702652Y-97699519D01*
X106766725Y-97656307D01*
X106938078Y-97483474D01*
X107072421Y-97280533D01*
X107164591Y-97055282D01*
X107168462Y-97017609D01*
X107043731Y-96827000D01*
X105827000Y-96827000D01*
X105827000Y-96847000D01*
X105573000Y-96847000D01*
X105573000Y-96827000D01*
X104356269Y-96827000D01*
X104231538Y-97017609D01*
X104235409Y-97055282D01*
X104327579Y-97280533D01*
X104461922Y-97483474D01*
X104633275Y-97656307D01*
X104697348Y-97699519D01*
X104547498Y-97822498D01*
X104393167Y-98010551D01*
X104278489Y-98225099D01*
X104207870Y-98457898D01*
X104184025Y-98700000D01*
X92685000Y-98700000D01*
X92685000Y-94766578D01*
X93101579Y-94349999D01*
X104186928Y-94349999D01*
X104186928Y-95050001D01*
X104203992Y-95223255D01*
X104254528Y-95389851D01*
X104336595Y-95543387D01*
X104447038Y-95677962D01*
X104581613Y-95788405D01*
X104586406Y-95790967D01*
X104461922Y-95916526D01*
X104327579Y-96119467D01*
X104235409Y-96344718D01*
X104231538Y-96382391D01*
X104356269Y-96573000D01*
X105573000Y-96573000D01*
X105573000Y-96553000D01*
X105827000Y-96553000D01*
X105827000Y-96573000D01*
X107043731Y-96573000D01*
X107168462Y-96382391D01*
X107164591Y-96344718D01*
X107072421Y-96119467D01*
X106938078Y-95916526D01*
X106813594Y-95790967D01*
X106818387Y-95788405D01*
X106952962Y-95677962D01*
X107063405Y-95543387D01*
X107145472Y-95389851D01*
X107196008Y-95223255D01*
X107213072Y-95050001D01*
X107213072Y-94349999D01*
X107196008Y-94176745D01*
X107145472Y-94010149D01*
X107063405Y-93856613D01*
X106952962Y-93722038D01*
X106818387Y-93611595D01*
X106710000Y-93553661D01*
X106710000Y-72418355D01*
X107673355Y-71455000D01*
X108909893Y-71455000D01*
X109053368Y-71598475D01*
X109227760Y-71715000D01*
X109053368Y-71831525D01*
X108846525Y-72038368D01*
X108684010Y-72281589D01*
X108572068Y-72551842D01*
X108515000Y-72838740D01*
X108515000Y-73131260D01*
X108572068Y-73418158D01*
X108684010Y-73688411D01*
X108846525Y-73931632D01*
X109053368Y-74138475D01*
X109227760Y-74255000D01*
X109053368Y-74371525D01*
X108846525Y-74578368D01*
X108684010Y-74821589D01*
X108572068Y-75091842D01*
X108515000Y-75378740D01*
X108515000Y-75671260D01*
X108572068Y-75958158D01*
X108684010Y-76228411D01*
X108846525Y-76471632D01*
X109053368Y-76678475D01*
X109227760Y-76795000D01*
X109053368Y-76911525D01*
X108846525Y-77118368D01*
X108684010Y-77361589D01*
X108572068Y-77631842D01*
X108515000Y-77918740D01*
X108515000Y-78211260D01*
X108572068Y-78498158D01*
X108684010Y-78768411D01*
X108846525Y-79011632D01*
X109053368Y-79218475D01*
X109227760Y-79335000D01*
X109053368Y-79451525D01*
X108846525Y-79658368D01*
X108684010Y-79901589D01*
X108572068Y-80171842D01*
X108515000Y-80458740D01*
X108515000Y-80751260D01*
X108572068Y-81038158D01*
X108684010Y-81308411D01*
X108846525Y-81551632D01*
X109053368Y-81758475D01*
X109227760Y-81875000D01*
X109053368Y-81991525D01*
X108846525Y-82198368D01*
X108684010Y-82441589D01*
X108572068Y-82711842D01*
X108515000Y-82998740D01*
X108515000Y-83291260D01*
X108572068Y-83578158D01*
X108684010Y-83848411D01*
X108846525Y-84091632D01*
X109053368Y-84298475D01*
X109227760Y-84415000D01*
X109053368Y-84531525D01*
X108846525Y-84738368D01*
X108684010Y-84981589D01*
X108572068Y-85251842D01*
X108515000Y-85538740D01*
X108515000Y-85831260D01*
X108572068Y-86118158D01*
X108684010Y-86388411D01*
X108846525Y-86631632D01*
X109053368Y-86838475D01*
X109227760Y-86955000D01*
X109053368Y-87071525D01*
X108846525Y-87278368D01*
X108684010Y-87521589D01*
X108572068Y-87791842D01*
X108515000Y-88078740D01*
X108515000Y-88371260D01*
X108572068Y-88658158D01*
X108684010Y-88928411D01*
X108846525Y-89171632D01*
X109053368Y-89378475D01*
X109227760Y-89495000D01*
X109053368Y-89611525D01*
X108846525Y-89818368D01*
X108684010Y-90061589D01*
X108572068Y-90331842D01*
X108515000Y-90618740D01*
X108515000Y-90911260D01*
X108572068Y-91198158D01*
X108684010Y-91468411D01*
X108846525Y-91711632D01*
X109053368Y-91918475D01*
X109227760Y-92035000D01*
X109053368Y-92151525D01*
X108846525Y-92358368D01*
X108684010Y-92601589D01*
X108572068Y-92871842D01*
X108515000Y-93158740D01*
X108515000Y-93451260D01*
X108572068Y-93738158D01*
X108684010Y-94008411D01*
X108846525Y-94251632D01*
X109053368Y-94458475D01*
X109227760Y-94575000D01*
X109053368Y-94691525D01*
X108846525Y-94898368D01*
X108684010Y-95141589D01*
X108572068Y-95411842D01*
X108515000Y-95698740D01*
X108515000Y-95991260D01*
X108572068Y-96278158D01*
X108684010Y-96548411D01*
X108846525Y-96791632D01*
X109053368Y-96998475D01*
X109227760Y-97115000D01*
X109053368Y-97231525D01*
X108846525Y-97438368D01*
X108684010Y-97681589D01*
X108572068Y-97951842D01*
X108515000Y-98238740D01*
X108515000Y-98531260D01*
X108572068Y-98818158D01*
X108684010Y-99088411D01*
X108846525Y-99331632D01*
X109053368Y-99538475D01*
X109227760Y-99655000D01*
X109053368Y-99771525D01*
X108846525Y-99978368D01*
X108684010Y-100221589D01*
X108572068Y-100491842D01*
X108515000Y-100778740D01*
X108515000Y-101071260D01*
X108572068Y-101358158D01*
X108684010Y-101628411D01*
X108846525Y-101871632D01*
X109053368Y-102078475D01*
X109227760Y-102195000D01*
X109053368Y-102311525D01*
X108846525Y-102518368D01*
X108684010Y-102761589D01*
X108572068Y-103031842D01*
X108515000Y-103318740D01*
X108515000Y-103611260D01*
X108572068Y-103898158D01*
X108684010Y-104168411D01*
X108846525Y-104411632D01*
X109053368Y-104618475D01*
X109227760Y-104735000D01*
X109053368Y-104851525D01*
X108846525Y-105058368D01*
X108684010Y-105301589D01*
X108572068Y-105571842D01*
X108515000Y-105858740D01*
X108515000Y-106151260D01*
X108572068Y-106438158D01*
X108684010Y-106708411D01*
X108846525Y-106951632D01*
X109053368Y-107158475D01*
X109227760Y-107275000D01*
X109053368Y-107391525D01*
X108846525Y-107598368D01*
X108684010Y-107841589D01*
X108572068Y-108111842D01*
X108515000Y-108398740D01*
X108515000Y-108691260D01*
X108572068Y-108978158D01*
X108684010Y-109248411D01*
X108846525Y-109491632D01*
X109053368Y-109698475D01*
X109227760Y-109815000D01*
X109053368Y-109931525D01*
X108846525Y-110138368D01*
X108684010Y-110381589D01*
X108572068Y-110651842D01*
X108515000Y-110938740D01*
X108515000Y-111231260D01*
X108572068Y-111518158D01*
X108684010Y-111788411D01*
X108846525Y-112031632D01*
X109053368Y-112238475D01*
X109227760Y-112355000D01*
X109053368Y-112471525D01*
X108846525Y-112678368D01*
X108684010Y-112921589D01*
X108572068Y-113191842D01*
X108515000Y-113478740D01*
X108515000Y-113771260D01*
X108572068Y-114058158D01*
X108684010Y-114328411D01*
X108846525Y-114571632D01*
X109053368Y-114778475D01*
X109227760Y-114895000D01*
X109053368Y-115011525D01*
X108846525Y-115218368D01*
X108684010Y-115461589D01*
X108572068Y-115731842D01*
X108515000Y-116018740D01*
X108515000Y-116311260D01*
X108572068Y-116598158D01*
X108684010Y-116868411D01*
X108846525Y-117111632D01*
X109053368Y-117318475D01*
X109227760Y-117435000D01*
X109053368Y-117551525D01*
X108846525Y-117758368D01*
X108684010Y-118001589D01*
X108572068Y-118271842D01*
X108515000Y-118558740D01*
X108515000Y-118851260D01*
X108572068Y-119138158D01*
X108684010Y-119408411D01*
X108846525Y-119651632D01*
X108978380Y-119783487D01*
X108905820Y-119805498D01*
X108795506Y-119864463D01*
X108698815Y-119943815D01*
X108619463Y-120040506D01*
X108560498Y-120150820D01*
X108524188Y-120270518D01*
X108511928Y-120395000D01*
X108515000Y-120959250D01*
X108673750Y-121118000D01*
X109873000Y-121118000D01*
X109873000Y-121098000D01*
X110127000Y-121098000D01*
X110127000Y-121118000D01*
X111326250Y-121118000D01*
X111485000Y-120959250D01*
X111488072Y-120395000D01*
X111475812Y-120270518D01*
X111439502Y-120150820D01*
X111380537Y-120040506D01*
X111301185Y-119943815D01*
X111204494Y-119864463D01*
X111094180Y-119805498D01*
X111021620Y-119783487D01*
X111153475Y-119651632D01*
X111315990Y-119408411D01*
X111427932Y-119138158D01*
X111485000Y-118851260D01*
X111485000Y-118558740D01*
X111427932Y-118271842D01*
X111315990Y-118001589D01*
X111153475Y-117758368D01*
X110946632Y-117551525D01*
X110772240Y-117435000D01*
X110946632Y-117318475D01*
X111153475Y-117111632D01*
X111315990Y-116868411D01*
X111427932Y-116598158D01*
X111485000Y-116311260D01*
X111485000Y-116018740D01*
X111427932Y-115731842D01*
X111315990Y-115461589D01*
X111153475Y-115218368D01*
X110946632Y-115011525D01*
X110772240Y-114895000D01*
X110946632Y-114778475D01*
X111153475Y-114571632D01*
X111315990Y-114328411D01*
X111427932Y-114058158D01*
X111485000Y-113771260D01*
X111485000Y-113478740D01*
X111427932Y-113191842D01*
X111315990Y-112921589D01*
X111153475Y-112678368D01*
X110946632Y-112471525D01*
X110772240Y-112355000D01*
X110946632Y-112238475D01*
X111153475Y-112031632D01*
X111315990Y-111788411D01*
X111427932Y-111518158D01*
X111485000Y-111231260D01*
X111485000Y-110938740D01*
X111427932Y-110651842D01*
X111315990Y-110381589D01*
X111153475Y-110138368D01*
X110946632Y-109931525D01*
X110772240Y-109815000D01*
X110946632Y-109698475D01*
X111153475Y-109491632D01*
X111315990Y-109248411D01*
X111427932Y-108978158D01*
X111485000Y-108691260D01*
X111485000Y-108398740D01*
X111427932Y-108111842D01*
X111315990Y-107841589D01*
X111153475Y-107598368D01*
X110946632Y-107391525D01*
X110772240Y-107275000D01*
X110946632Y-107158475D01*
X111153475Y-106951632D01*
X111315990Y-106708411D01*
X111427932Y-106438158D01*
X111485000Y-106151260D01*
X111485000Y-105858740D01*
X111427932Y-105571842D01*
X111315990Y-105301589D01*
X111153475Y-105058368D01*
X110946632Y-104851525D01*
X110772240Y-104735000D01*
X110946632Y-104618475D01*
X111153475Y-104411632D01*
X111315990Y-104168411D01*
X111427932Y-103898158D01*
X111485000Y-103611260D01*
X111485000Y-103318740D01*
X111427932Y-103031842D01*
X111315990Y-102761589D01*
X111153475Y-102518368D01*
X110946632Y-102311525D01*
X110772240Y-102195000D01*
X110946632Y-102078475D01*
X111153475Y-101871632D01*
X111315990Y-101628411D01*
X111427932Y-101358158D01*
X111485000Y-101071260D01*
X111485000Y-100778740D01*
X111427932Y-100491842D01*
X111315990Y-100221589D01*
X111153475Y-99978368D01*
X110946632Y-99771525D01*
X110772240Y-99655000D01*
X110946632Y-99538475D01*
X111153475Y-99331632D01*
X111315990Y-99088411D01*
X111427932Y-98818158D01*
X111485000Y-98531260D01*
X111485000Y-98238740D01*
X111427932Y-97951842D01*
X111315990Y-97681589D01*
X111153475Y-97438368D01*
X110946632Y-97231525D01*
X110772240Y-97115000D01*
X110946632Y-96998475D01*
X111153475Y-96791632D01*
X111315990Y-96548411D01*
X111427932Y-96278158D01*
X111485000Y-95991260D01*
X111485000Y-95698740D01*
X111427932Y-95411842D01*
X111315990Y-95141589D01*
X111153475Y-94898368D01*
X110946632Y-94691525D01*
X110772240Y-94575000D01*
X110946632Y-94458475D01*
X111153475Y-94251632D01*
X111315990Y-94008411D01*
X111427932Y-93738158D01*
X111485000Y-93451260D01*
X111485000Y-93158740D01*
X111427932Y-92871842D01*
X111315990Y-92601589D01*
X111153475Y-92358368D01*
X110946632Y-92151525D01*
X110772240Y-92035000D01*
X110946632Y-91918475D01*
X111153475Y-91711632D01*
X111315990Y-91468411D01*
X111427932Y-91198158D01*
X111485000Y-90911260D01*
X111485000Y-90618740D01*
X111427932Y-90331842D01*
X111315990Y-90061589D01*
X111153475Y-89818368D01*
X110946632Y-89611525D01*
X110772240Y-89495000D01*
X110946632Y-89378475D01*
X111153475Y-89171632D01*
X111315990Y-88928411D01*
X111427932Y-88658158D01*
X111485000Y-88371260D01*
X111485000Y-88078740D01*
X111427932Y-87791842D01*
X111315990Y-87521589D01*
X111153475Y-87278368D01*
X110946632Y-87071525D01*
X110772240Y-86955000D01*
X110946632Y-86838475D01*
X111153475Y-86631632D01*
X111315990Y-86388411D01*
X111427932Y-86118158D01*
X111485000Y-85831260D01*
X111485000Y-85538740D01*
X111427932Y-85251842D01*
X111315990Y-84981589D01*
X111153475Y-84738368D01*
X110946632Y-84531525D01*
X110772240Y-84415000D01*
X110946632Y-84298475D01*
X111153475Y-84091632D01*
X111315990Y-83848411D01*
X111427932Y-83578158D01*
X111485000Y-83291260D01*
X111485000Y-82998740D01*
X111427932Y-82711842D01*
X111315990Y-82441589D01*
X111153475Y-82198368D01*
X110946632Y-81991525D01*
X110772240Y-81875000D01*
X110946632Y-81758475D01*
X111153475Y-81551632D01*
X111315990Y-81308411D01*
X111427932Y-81038158D01*
X111485000Y-80751260D01*
X111485000Y-80458740D01*
X111427932Y-80171842D01*
X111315990Y-79901589D01*
X111153475Y-79658368D01*
X110946632Y-79451525D01*
X110772240Y-79335000D01*
X110946632Y-79218475D01*
X111153475Y-79011632D01*
X111315990Y-78768411D01*
X111427932Y-78498158D01*
X111485000Y-78211260D01*
X111485000Y-77918740D01*
X111427932Y-77631842D01*
X111315990Y-77361589D01*
X111153475Y-77118368D01*
X110946632Y-76911525D01*
X110772240Y-76795000D01*
X110946632Y-76678475D01*
X111153475Y-76471632D01*
X111315990Y-76228411D01*
X111427932Y-75958158D01*
X111485000Y-75671260D01*
X111485000Y-75378740D01*
X111427932Y-75091842D01*
X111315990Y-74821589D01*
X111153475Y-74578368D01*
X110946632Y-74371525D01*
X110772240Y-74255000D01*
X110946632Y-74138475D01*
X111153475Y-73931632D01*
X111315990Y-73688411D01*
X111427932Y-73418158D01*
X111485000Y-73131260D01*
X111485000Y-72838740D01*
X111427932Y-72551842D01*
X111315990Y-72281589D01*
X111153475Y-72038368D01*
X110946632Y-71831525D01*
X110772240Y-71715000D01*
X110946632Y-71598475D01*
X111153475Y-71391632D01*
X111315990Y-71148411D01*
X111427932Y-70878158D01*
X111485000Y-70591260D01*
X111485000Y-70298740D01*
X111427932Y-70011842D01*
X111315990Y-69741589D01*
X111153475Y-69498368D01*
X110946632Y-69291525D01*
X110703411Y-69129010D01*
X110433158Y-69017068D01*
X110146260Y-68960000D01*
X109853740Y-68960000D01*
X109566842Y-69017068D01*
X109296589Y-69129010D01*
X109053368Y-69291525D01*
X108909893Y-69435000D01*
X107304604Y-69435000D01*
X107254999Y-69430114D01*
X107205394Y-69435000D01*
X107205392Y-69435000D01*
X107057006Y-69449615D01*
X106866620Y-69507368D01*
X106691160Y-69601153D01*
X106537367Y-69727367D01*
X106505739Y-69765906D01*
X105020906Y-71250739D01*
X104982367Y-71282367D01*
X104856153Y-71436160D01*
X104791527Y-71557068D01*
X104762368Y-71611621D01*
X104704615Y-71802006D01*
X104685114Y-72000000D01*
X104690000Y-72049608D01*
X104690001Y-93553660D01*
X104581613Y-93611595D01*
X104447038Y-93722038D01*
X104336595Y-93856613D01*
X104254528Y-94010149D01*
X104203992Y-94176745D01*
X104186928Y-94349999D01*
X93101579Y-94349999D01*
X96295049Y-91156530D01*
X96328817Y-91128817D01*
X96439411Y-90994059D01*
X96521589Y-90840313D01*
X96572195Y-90673490D01*
X96585000Y-90543477D01*
X96585000Y-90543469D01*
X96589281Y-90500000D01*
X96585000Y-90456531D01*
X96585000Y-86479872D01*
X97465000Y-86479872D01*
X97465000Y-86920128D01*
X97550890Y-87351925D01*
X97719369Y-87758669D01*
X97963962Y-88124729D01*
X98275271Y-88436038D01*
X98641331Y-88680631D01*
X99048075Y-88849110D01*
X99479872Y-88935000D01*
X99920128Y-88935000D01*
X100351925Y-88849110D01*
X100758669Y-88680631D01*
X101124729Y-88436038D01*
X101436038Y-88124729D01*
X101680631Y-87758669D01*
X101849110Y-87351925D01*
X101935000Y-86920128D01*
X101935000Y-86479872D01*
X101849110Y-86048075D01*
X101680631Y-85641331D01*
X101436038Y-85275271D01*
X101124729Y-84963962D01*
X100758669Y-84719369D01*
X100351925Y-84550890D01*
X99920128Y-84465000D01*
X99479872Y-84465000D01*
X99048075Y-84550890D01*
X98641331Y-84719369D01*
X98275271Y-84963962D01*
X97963962Y-85275271D01*
X97719369Y-85641331D01*
X97550890Y-86048075D01*
X97465000Y-86479872D01*
X96585000Y-86479872D01*
X96585000Y-85266578D01*
X100695049Y-81156530D01*
X100728817Y-81128817D01*
X100839411Y-80994059D01*
X100883475Y-80911621D01*
X100921589Y-80840314D01*
X100972195Y-80673490D01*
X100977159Y-80623088D01*
X100985000Y-80543477D01*
X100985000Y-80543469D01*
X100989281Y-80500000D01*
X100985000Y-80456531D01*
X100985000Y-73166578D01*
X108766579Y-65385000D01*
X114133422Y-65385000D01*
X122328470Y-73580049D01*
X122356183Y-73613817D01*
X122389951Y-73641530D01*
X122389953Y-73641532D01*
X122427316Y-73672195D01*
X122490941Y-73724411D01*
X122644687Y-73806589D01*
X122811510Y-73857195D01*
X122941523Y-73870000D01*
X122941533Y-73870000D01*
X122984999Y-73874281D01*
X123028466Y-73870000D01*
X133805344Y-73870000D01*
X133846525Y-73931632D01*
X134053368Y-74138475D01*
X134227760Y-74255000D01*
X134053368Y-74371525D01*
X133846525Y-74578368D01*
X133684010Y-74821589D01*
X133572068Y-75091842D01*
X133515000Y-75378740D01*
X133515000Y-75671260D01*
X133572068Y-75958158D01*
X133684010Y-76228411D01*
X133846525Y-76471632D01*
X134053368Y-76678475D01*
X134227760Y-76795000D01*
X134053368Y-76911525D01*
X133846525Y-77118368D01*
X133684010Y-77361589D01*
X133572068Y-77631842D01*
X133515000Y-77918740D01*
X133515000Y-78211260D01*
X133572068Y-78498158D01*
X133684010Y-78768411D01*
X133846525Y-79011632D01*
X134053368Y-79218475D01*
X134227760Y-79335000D01*
X134053368Y-79451525D01*
X133846525Y-79658368D01*
X133684010Y-79901589D01*
X133572068Y-80171842D01*
X133515000Y-80458740D01*
X133515000Y-80751260D01*
X133572068Y-81038158D01*
X133684010Y-81308411D01*
X133846525Y-81551632D01*
X134053368Y-81758475D01*
X134227760Y-81875000D01*
X134053368Y-81991525D01*
X133846525Y-82198368D01*
X133684010Y-82441589D01*
X133572068Y-82711842D01*
X133515000Y-82998740D01*
X133515000Y-83291260D01*
X133572068Y-83578158D01*
X133684010Y-83848411D01*
X133846525Y-84091632D01*
X134053368Y-84298475D01*
X134227760Y-84415000D01*
X134053368Y-84531525D01*
X133846525Y-84738368D01*
X133684010Y-84981589D01*
X133572068Y-85251842D01*
X133515000Y-85538740D01*
X133515000Y-85831260D01*
X133572068Y-86118158D01*
X133684010Y-86388411D01*
X133846525Y-86631632D01*
X134053368Y-86838475D01*
X134227760Y-86955000D01*
X134053368Y-87071525D01*
X133846525Y-87278368D01*
X133684010Y-87521589D01*
X133572068Y-87791842D01*
X133515000Y-88078740D01*
X133515000Y-88371260D01*
X133572068Y-88658158D01*
X133684010Y-88928411D01*
X133846525Y-89171632D01*
X134053368Y-89378475D01*
X134227760Y-89495000D01*
X134053368Y-89611525D01*
X133846525Y-89818368D01*
X133684010Y-90061589D01*
X133572068Y-90331842D01*
X133515000Y-90618740D01*
X133515000Y-90911260D01*
X133572068Y-91198158D01*
X133684010Y-91468411D01*
X133846525Y-91711632D01*
X134053368Y-91918475D01*
X134227760Y-92035000D01*
X134053368Y-92151525D01*
X133846525Y-92358368D01*
X133684010Y-92601589D01*
X133572068Y-92871842D01*
X133515000Y-93158740D01*
X133515000Y-93451260D01*
X133572068Y-93738158D01*
X133684010Y-94008411D01*
X133846525Y-94251632D01*
X134053368Y-94458475D01*
X134227760Y-94575000D01*
X134053368Y-94691525D01*
X133846525Y-94898368D01*
X133684010Y-95141589D01*
X133572068Y-95411842D01*
X133515000Y-95698740D01*
X133515000Y-95991260D01*
X133572068Y-96278158D01*
X133684010Y-96548411D01*
X133846525Y-96791632D01*
X134053368Y-96998475D01*
X134227760Y-97115000D01*
X134053368Y-97231525D01*
X133846525Y-97438368D01*
X133684010Y-97681589D01*
X133572068Y-97951842D01*
X133515000Y-98238740D01*
X133515000Y-98531260D01*
X133572068Y-98818158D01*
X133684010Y-99088411D01*
X133846525Y-99331632D01*
X134053368Y-99538475D01*
X134227760Y-99655000D01*
X134053368Y-99771525D01*
X133846525Y-99978368D01*
X133684010Y-100221589D01*
X133572068Y-100491842D01*
X133515000Y-100778740D01*
X133515000Y-101071260D01*
X133572068Y-101358158D01*
X133684010Y-101628411D01*
X133846525Y-101871632D01*
X134053368Y-102078475D01*
X134227760Y-102195000D01*
X134053368Y-102311525D01*
X133846525Y-102518368D01*
X133684010Y-102761589D01*
X133572068Y-103031842D01*
X133515000Y-103318740D01*
X133515000Y-103611260D01*
X133572068Y-103898158D01*
X133684010Y-104168411D01*
X133846525Y-104411632D01*
X134053368Y-104618475D01*
X134227760Y-104735000D01*
X134053368Y-104851525D01*
X133846525Y-105058368D01*
X133684010Y-105301589D01*
X133572068Y-105571842D01*
X133515000Y-105858740D01*
X133515000Y-106151260D01*
X133572068Y-106438158D01*
X133684010Y-106708411D01*
X133846525Y-106951632D01*
X134053368Y-107158475D01*
X134227760Y-107275000D01*
X134053368Y-107391525D01*
X133846525Y-107598368D01*
X133684010Y-107841589D01*
X133572068Y-108111842D01*
X133515000Y-108398740D01*
X133515000Y-108691260D01*
X133572068Y-108978158D01*
X133684010Y-109248411D01*
X133846525Y-109491632D01*
X134053368Y-109698475D01*
X134227760Y-109815000D01*
X134053368Y-109931525D01*
X133846525Y-110138368D01*
X133684010Y-110381589D01*
X133572068Y-110651842D01*
X133515000Y-110938740D01*
X133515000Y-111231260D01*
X133572068Y-111518158D01*
X133684010Y-111788411D01*
X133846525Y-112031632D01*
X134053368Y-112238475D01*
X134227760Y-112355000D01*
X134053368Y-112471525D01*
X133846525Y-112678368D01*
X133684010Y-112921589D01*
X133572068Y-113191842D01*
X133515000Y-113478740D01*
X133515000Y-113771260D01*
X133572068Y-114058158D01*
X133684010Y-114328411D01*
X133846525Y-114571632D01*
X134053368Y-114778475D01*
X134227760Y-114895000D01*
X134053368Y-115011525D01*
X133846525Y-115218368D01*
X133684010Y-115461589D01*
X133572068Y-115731842D01*
X133515000Y-116018740D01*
X133515000Y-116311260D01*
X133572068Y-116598158D01*
X133684010Y-116868411D01*
X133846525Y-117111632D01*
X134053368Y-117318475D01*
X134227760Y-117435000D01*
X134053368Y-117551525D01*
X133846525Y-117758368D01*
X133684010Y-118001589D01*
X133572068Y-118271842D01*
X133515000Y-118558740D01*
X133515000Y-118851260D01*
X133572068Y-119138158D01*
X133684010Y-119408411D01*
X133846525Y-119651632D01*
X134053368Y-119858475D01*
X134227760Y-119975000D01*
X134053368Y-120091525D01*
X133846525Y-120298368D01*
X133684010Y-120541589D01*
X133572068Y-120811842D01*
X133515000Y-121098740D01*
X133515000Y-121391260D01*
X133572068Y-121678158D01*
X133684010Y-121948411D01*
X133846525Y-122191632D01*
X134027893Y-122373000D01*
X111421425Y-122373000D01*
X111439502Y-122339180D01*
X111475812Y-122219482D01*
X111488072Y-122095000D01*
X111485000Y-121530750D01*
X111326250Y-121372000D01*
X110127000Y-121372000D01*
X110127000Y-121392000D01*
X109873000Y-121392000D01*
X109873000Y-121372000D01*
X108673750Y-121372000D01*
X108515000Y-121530750D01*
X108511928Y-122095000D01*
X108524188Y-122219482D01*
X108560498Y-122339180D01*
X108578576Y-122373000D01*
X87760000Y-122373000D01*
X87760000Y-121228397D01*
X88851208Y-121228397D01*
X88928843Y-121477472D01*
X89192883Y-121603371D01*
X89476411Y-121675339D01*
X89768531Y-121690611D01*
X90058019Y-121648599D01*
X90333747Y-121550919D01*
X90471157Y-121477472D01*
X90548792Y-121228397D01*
X89700000Y-120379605D01*
X88851208Y-121228397D01*
X87760000Y-121228397D01*
X87760000Y-119292143D01*
X87943919Y-119368325D01*
X88279117Y-119435000D01*
X88419592Y-119435000D01*
X88296629Y-119692883D01*
X88224661Y-119976411D01*
X88209389Y-120268531D01*
X88251401Y-120558019D01*
X88349081Y-120833747D01*
X88422528Y-120971157D01*
X88671603Y-121048792D01*
X89520395Y-120200000D01*
X89879605Y-120200000D01*
X90728397Y-121048792D01*
X90977472Y-120971157D01*
X91103371Y-120707117D01*
X91175339Y-120423589D01*
X91190611Y-120131469D01*
X91148599Y-119841981D01*
X91050919Y-119566253D01*
X90977472Y-119428843D01*
X90728397Y-119351208D01*
X89879605Y-120200000D01*
X89520395Y-120200000D01*
X89506253Y-120185858D01*
X89685858Y-120006253D01*
X89700000Y-120020395D01*
X90548792Y-119171603D01*
X90471157Y-118922528D01*
X90207117Y-118796629D01*
X89923589Y-118724661D01*
X89854427Y-118721045D01*
X89987537Y-118521831D01*
X90118325Y-118206081D01*
X90185000Y-117870883D01*
X90185000Y-117529117D01*
X90118325Y-117193919D01*
X89987537Y-116878169D01*
X89797663Y-116594002D01*
X89555998Y-116352337D01*
X89271831Y-116162463D01*
X88956081Y-116031675D01*
X88620883Y-115965000D01*
X88279117Y-115965000D01*
X87943919Y-116031675D01*
X87760000Y-116107857D01*
X87760000Y-97309040D01*
X88058091Y-97309040D01*
X88152930Y-97573881D01*
X88297615Y-97815131D01*
X88486586Y-98023519D01*
X88712580Y-98191037D01*
X88966913Y-98311246D01*
X89100961Y-98351904D01*
X89323000Y-98229915D01*
X89323000Y-97087000D01*
X89577000Y-97087000D01*
X89577000Y-98229915D01*
X89799039Y-98351904D01*
X89933087Y-98311246D01*
X90187420Y-98191037D01*
X90413414Y-98023519D01*
X90602385Y-97815131D01*
X90747070Y-97573881D01*
X90841909Y-97309040D01*
X90720624Y-97087000D01*
X89577000Y-97087000D01*
X89323000Y-97087000D01*
X88179376Y-97087000D01*
X88058091Y-97309040D01*
X87760000Y-97309040D01*
X87760000Y-96610960D01*
X88058091Y-96610960D01*
X88179376Y-96833000D01*
X89323000Y-96833000D01*
X89323000Y-95690085D01*
X89577000Y-95690085D01*
X89577000Y-96833000D01*
X90720624Y-96833000D01*
X90841909Y-96610960D01*
X90747070Y-96346119D01*
X90602385Y-96104869D01*
X90413414Y-95896481D01*
X90187420Y-95728963D01*
X89933087Y-95608754D01*
X89799039Y-95568096D01*
X89577000Y-95690085D01*
X89323000Y-95690085D01*
X89100961Y-95568096D01*
X88966913Y-95608754D01*
X88712580Y-95728963D01*
X88486586Y-95896481D01*
X88297615Y-96104869D01*
X88152930Y-96346119D01*
X88058091Y-96610960D01*
X87760000Y-96610960D01*
X87760000Y-86658665D01*
X88015000Y-86658665D01*
X88015000Y-86941335D01*
X88070147Y-87218574D01*
X88178320Y-87479727D01*
X88335363Y-87714759D01*
X88535241Y-87914637D01*
X88770273Y-88071680D01*
X89031426Y-88179853D01*
X89308665Y-88235000D01*
X89591335Y-88235000D01*
X89868574Y-88179853D01*
X90129727Y-88071680D01*
X90364759Y-87914637D01*
X90564637Y-87714759D01*
X90584521Y-87685000D01*
X91945435Y-87685000D01*
X91946525Y-87686632D01*
X92153368Y-87893475D01*
X92396589Y-88055990D01*
X92666842Y-88167932D01*
X92953740Y-88225000D01*
X93246260Y-88225000D01*
X93533158Y-88167932D01*
X93803411Y-88055990D01*
X94046632Y-87893475D01*
X94253475Y-87686632D01*
X94415990Y-87443411D01*
X94527932Y-87173158D01*
X94585000Y-86886260D01*
X94585000Y-86593740D01*
X94527932Y-86306842D01*
X94415990Y-86036589D01*
X94253475Y-85793368D01*
X94121620Y-85661513D01*
X94194180Y-85639502D01*
X94304494Y-85580537D01*
X94401185Y-85501185D01*
X94480537Y-85404494D01*
X94539502Y-85294180D01*
X94575812Y-85174482D01*
X94588072Y-85050000D01*
X94588072Y-84140283D01*
X96679094Y-82049261D01*
X96717633Y-82017633D01*
X96843847Y-81863840D01*
X96937632Y-81688380D01*
X96995385Y-81497994D01*
X97010000Y-81349608D01*
X97010000Y-81349606D01*
X97014886Y-81300001D01*
X97010000Y-81250396D01*
X97010000Y-68849604D01*
X97014886Y-68799999D01*
X97009355Y-68743847D01*
X96995385Y-68602006D01*
X96937632Y-68411620D01*
X96843847Y-68236160D01*
X96717633Y-68082367D01*
X96679094Y-68050739D01*
X95849261Y-67220906D01*
X95817633Y-67182367D01*
X95663840Y-67056153D01*
X95488380Y-66962368D01*
X95297994Y-66904615D01*
X95149608Y-66890000D01*
X95100000Y-66885114D01*
X95050392Y-66890000D01*
X93965038Y-66890000D01*
X93939502Y-66805820D01*
X93880537Y-66695506D01*
X93801185Y-66598815D01*
X93704494Y-66519463D01*
X93594180Y-66460498D01*
X93474482Y-66424188D01*
X93350000Y-66411928D01*
X91650000Y-66411928D01*
X91525518Y-66424188D01*
X91405820Y-66460498D01*
X91295506Y-66519463D01*
X91198815Y-66598815D01*
X91119463Y-66695506D01*
X91060498Y-66805820D01*
X91024188Y-66925518D01*
X91011928Y-67050000D01*
X91011928Y-68750000D01*
X91024188Y-68874482D01*
X91060498Y-68994180D01*
X91119463Y-69104494D01*
X91198815Y-69201185D01*
X91295506Y-69280537D01*
X91405820Y-69339502D01*
X91486466Y-69363966D01*
X91402412Y-69439731D01*
X91228359Y-69673080D01*
X91103175Y-69935901D01*
X91058524Y-70083110D01*
X91179845Y-70313000D01*
X92373000Y-70313000D01*
X92373000Y-70293000D01*
X92627000Y-70293000D01*
X92627000Y-70313000D01*
X93820155Y-70313000D01*
X93941476Y-70083110D01*
X93896825Y-69935901D01*
X93771641Y-69673080D01*
X93597588Y-69439731D01*
X93513534Y-69363966D01*
X93594180Y-69339502D01*
X93704494Y-69280537D01*
X93801185Y-69201185D01*
X93880537Y-69104494D01*
X93939502Y-68994180D01*
X93965038Y-68910000D01*
X94681645Y-68910000D01*
X94990001Y-69218356D01*
X94990000Y-80881645D01*
X93159717Y-82711928D01*
X92250000Y-82711928D01*
X92125518Y-82724188D01*
X92005820Y-82760498D01*
X91895506Y-82819463D01*
X91798815Y-82898815D01*
X91719463Y-82995506D01*
X91660498Y-83105820D01*
X91624188Y-83225518D01*
X91611928Y-83350000D01*
X91611928Y-85050000D01*
X91624188Y-85174482D01*
X91660498Y-85294180D01*
X91719463Y-85404494D01*
X91798815Y-85501185D01*
X91895506Y-85580537D01*
X92005820Y-85639502D01*
X92078380Y-85661513D01*
X91946525Y-85793368D01*
X91865253Y-85915000D01*
X90584521Y-85915000D01*
X90564637Y-85885241D01*
X90364759Y-85685363D01*
X90129727Y-85528320D01*
X89868574Y-85420147D01*
X89591335Y-85365000D01*
X89308665Y-85365000D01*
X89031426Y-85420147D01*
X88770273Y-85528320D01*
X88535241Y-85685363D01*
X88335363Y-85885241D01*
X88178320Y-86120273D01*
X88070147Y-86381426D01*
X88015000Y-86658665D01*
X87760000Y-86658665D01*
X87760000Y-72833740D01*
X91015000Y-72833740D01*
X91015000Y-73126260D01*
X91072068Y-73413158D01*
X91184010Y-73683411D01*
X91346525Y-73926632D01*
X91553368Y-74133475D01*
X91727760Y-74250000D01*
X91553368Y-74366525D01*
X91346525Y-74573368D01*
X91184010Y-74816589D01*
X91072068Y-75086842D01*
X91015000Y-75373740D01*
X91015000Y-75666260D01*
X91072068Y-75953158D01*
X91184010Y-76223411D01*
X91346525Y-76466632D01*
X91553368Y-76673475D01*
X91727760Y-76790000D01*
X91553368Y-76906525D01*
X91346525Y-77113368D01*
X91184010Y-77356589D01*
X91072068Y-77626842D01*
X91015000Y-77913740D01*
X91015000Y-78206260D01*
X91072068Y-78493158D01*
X91184010Y-78763411D01*
X91346525Y-79006632D01*
X91553368Y-79213475D01*
X91727760Y-79330000D01*
X91553368Y-79446525D01*
X91346525Y-79653368D01*
X91184010Y-79896589D01*
X91072068Y-80166842D01*
X91015000Y-80453740D01*
X91015000Y-80746260D01*
X91072068Y-81033158D01*
X91184010Y-81303411D01*
X91346525Y-81546632D01*
X91553368Y-81753475D01*
X91796589Y-81915990D01*
X92066842Y-82027932D01*
X92353740Y-82085000D01*
X92646260Y-82085000D01*
X92933158Y-82027932D01*
X93203411Y-81915990D01*
X93446632Y-81753475D01*
X93653475Y-81546632D01*
X93815990Y-81303411D01*
X93927932Y-81033158D01*
X93985000Y-80746260D01*
X93985000Y-80453740D01*
X93927932Y-80166842D01*
X93815990Y-79896589D01*
X93653475Y-79653368D01*
X93446632Y-79446525D01*
X93272240Y-79330000D01*
X93446632Y-79213475D01*
X93653475Y-79006632D01*
X93815990Y-78763411D01*
X93927932Y-78493158D01*
X93985000Y-78206260D01*
X93985000Y-77913740D01*
X93927932Y-77626842D01*
X93815990Y-77356589D01*
X93653475Y-77113368D01*
X93446632Y-76906525D01*
X93272240Y-76790000D01*
X93446632Y-76673475D01*
X93653475Y-76466632D01*
X93815990Y-76223411D01*
X93927932Y-75953158D01*
X93985000Y-75666260D01*
X93985000Y-75373740D01*
X93927932Y-75086842D01*
X93815990Y-74816589D01*
X93653475Y-74573368D01*
X93446632Y-74366525D01*
X93272240Y-74250000D01*
X93446632Y-74133475D01*
X93653475Y-73926632D01*
X93815990Y-73683411D01*
X93927932Y-73413158D01*
X93985000Y-73126260D01*
X93985000Y-72833740D01*
X93927932Y-72546842D01*
X93815990Y-72276589D01*
X93653475Y-72033368D01*
X93446632Y-71826525D01*
X93264466Y-71704805D01*
X93381355Y-71635178D01*
X93597588Y-71440269D01*
X93771641Y-71206920D01*
X93896825Y-70944099D01*
X93941476Y-70796890D01*
X93820155Y-70567000D01*
X92627000Y-70567000D01*
X92627000Y-70587000D01*
X92373000Y-70587000D01*
X92373000Y-70567000D01*
X91179845Y-70567000D01*
X91058524Y-70796890D01*
X91103175Y-70944099D01*
X91228359Y-71206920D01*
X91402412Y-71440269D01*
X91618645Y-71635178D01*
X91735534Y-71704805D01*
X91553368Y-71826525D01*
X91346525Y-72033368D01*
X91184010Y-72276589D01*
X91072068Y-72546842D01*
X91015000Y-72833740D01*
X87760000Y-72833740D01*
X87760000Y-62260000D01*
X146240001Y-62260000D01*
X146240000Y-67940000D01*
G37*
%TD.AperFunction*%
%TD*%
M02*
