%TF.GenerationSoftware,KiCad,Pcbnew,5.1.10-88a1d61d58~89~ubuntu20.04.1*%
%TF.CreationDate,2021-07-14T19:33:18+02:00*%
%TF.ProjectId,schematic,73636865-6d61-4746-9963-2e6b69636164,rev?*%
%TF.SameCoordinates,Original*%
%TF.FileFunction,Soldermask,Bot*%
%TF.FilePolarity,Negative*%
%FSLAX46Y46*%
G04 Gerber Fmt 4.6, Leading zero omitted, Abs format (unit mm)*
G04 Created by KiCad (PCBNEW 5.1.10-88a1d61d58~89~ubuntu20.04.1) date 2021-07-14 19:33:18*
%MOMM*%
%LPD*%
G01*
G04 APERTURE LIST*
%ADD10O,1.750000X1.200000*%
%ADD11C,3.200000*%
%ADD12R,1.700000X1.700000*%
%ADD13O,1.700000X1.700000*%
G04 APERTURE END LIST*
D10*
%TO.C,J4*%
X105700000Y-108700000D03*
X105700000Y-106700000D03*
X105700000Y-104700000D03*
X105700000Y-102700000D03*
X105700000Y-100700000D03*
X105700000Y-98700000D03*
X105700000Y-96700000D03*
G36*
G01*
X105074999Y-94100000D02*
X106325001Y-94100000D01*
G75*
G02*
X106575000Y-94349999I0J-249999D01*
G01*
X106575000Y-95050001D01*
G75*
G02*
X106325001Y-95300000I-249999J0D01*
G01*
X105074999Y-95300000D01*
G75*
G02*
X104825000Y-95050001I0J249999D01*
G01*
X104825000Y-94349999D01*
G75*
G02*
X105074999Y-94100000I249999J0D01*
G01*
G37*
%TD*%
D11*
%TO.C, *%
X99700000Y-86700000D03*
%TD*%
%TO.C, *%
X99700000Y-114700000D03*
%TD*%
%TO.C, *%
X142700000Y-114700000D03*
%TD*%
%TO.C, *%
X142700000Y-86700000D03*
%TD*%
D12*
%TO.C,J1*%
X135000000Y-70445000D03*
D13*
X135000000Y-72985000D03*
X135000000Y-75525000D03*
X135000000Y-78065000D03*
X135000000Y-80605000D03*
X135000000Y-83145000D03*
X135000000Y-85685000D03*
X135000000Y-88225000D03*
X135000000Y-90765000D03*
X135000000Y-93305000D03*
X135000000Y-95845000D03*
X135000000Y-98385000D03*
X135000000Y-100925000D03*
X135000000Y-103465000D03*
X135000000Y-106005000D03*
X135000000Y-108545000D03*
X135000000Y-111085000D03*
X135000000Y-113625000D03*
X135000000Y-116165000D03*
X135000000Y-118705000D03*
X135000000Y-121245000D03*
%TD*%
D12*
%TO.C,J2*%
X92500000Y-67900000D03*
D13*
X92500000Y-70440000D03*
X92500000Y-72980000D03*
X92500000Y-75520000D03*
X92500000Y-78060000D03*
X92500000Y-80600000D03*
%TD*%
%TO.C,J3*%
X110000000Y-70445000D03*
X110000000Y-72985000D03*
X110000000Y-75525000D03*
X110000000Y-78065000D03*
X110000000Y-80605000D03*
X110000000Y-83145000D03*
X110000000Y-85685000D03*
X110000000Y-88225000D03*
X110000000Y-90765000D03*
X110000000Y-93305000D03*
X110000000Y-95845000D03*
X110000000Y-98385000D03*
X110000000Y-100925000D03*
X110000000Y-103465000D03*
X110000000Y-106005000D03*
X110000000Y-108545000D03*
X110000000Y-111085000D03*
X110000000Y-113625000D03*
X110000000Y-116165000D03*
X110000000Y-118705000D03*
D12*
X110000000Y-121245000D03*
%TD*%
M02*
