%TF.GenerationSoftware,KiCad,Pcbnew,5.1.10-88a1d61d58~89~ubuntu20.04.1*%
%TF.CreationDate,2021-07-11T19:38:29+02:00*%
%TF.ProjectId,schematic,73636865-6d61-4746-9963-2e6b69636164,rev?*%
%TF.SameCoordinates,PX52dfd20PY755cad8*%
%TF.FileFunction,Copper,L1,Top*%
%TF.FilePolarity,Positive*%
%FSLAX46Y46*%
G04 Gerber Fmt 4.6, Leading zero omitted, Abs format (unit mm)*
G04 Created by KiCad (PCBNEW 5.1.10-88a1d61d58~89~ubuntu20.04.1) date 2021-07-11 19:38:29*
%MOMM*%
%LPD*%
G01*
G04 APERTURE LIST*
%TA.AperFunction,ComponentPad*%
%ADD10O,1.750000X1.200000*%
%TD*%
%TA.AperFunction,ComponentPad*%
%ADD11R,1.700000X1.700000*%
%TD*%
%TA.AperFunction,ComponentPad*%
%ADD12O,1.700000X1.700000*%
%TD*%
G04 APERTURE END LIST*
D10*
%TO.P,J4,8*%
%TO.N,/3v3*%
X3300000Y43063000D03*
%TO.P,J4,7*%
%TO.N,GND*%
X3300000Y41063000D03*
%TO.P,J4,6*%
%TO.N,/MOSI*%
X3300000Y39063000D03*
%TO.P,J4,5*%
%TO.N,/CLK*%
X3300000Y37063000D03*
%TO.P,J4,4*%
%TO.N,/CS*%
X3300000Y35063000D03*
%TO.P,J4,3*%
%TO.N,/DC*%
X3300000Y33063000D03*
%TO.P,J4,2*%
%TO.N,/RST*%
X3300000Y31063000D03*
%TO.P,J4,1*%
%TO.N,/BUSY*%
%TA.AperFunction,ComponentPad*%
G36*
G01*
X3925001Y28463000D02*
X2674999Y28463000D01*
G75*
G02*
X2425000Y28712999I0J249999D01*
G01*
X2425000Y29413001D01*
G75*
G02*
X2674999Y29663000I249999J0D01*
G01*
X3925001Y29663000D01*
G75*
G02*
X4175000Y29413001I0J-249999D01*
G01*
X4175000Y28712999D01*
G75*
G02*
X3925001Y28463000I-249999J0D01*
G01*
G37*
%TD.AperFunction*%
%TD*%
D11*
%TO.P,J1,1*%
%TO.N,GND*%
X48100000Y55118000D03*
D12*
%TO.P,J1,2*%
%TO.N,N/C*%
X48100000Y52578000D03*
%TO.P,J1,3*%
X48100000Y50038000D03*
%TO.P,J1,4*%
X48100000Y47498000D03*
%TO.P,J1,5*%
X48100000Y44958000D03*
%TO.P,J1,6*%
X48100000Y42418000D03*
%TO.P,J1,7*%
X48100000Y39878000D03*
%TO.P,J1,8*%
X48100000Y37338000D03*
%TO.P,J1,9*%
X48100000Y34798000D03*
%TO.P,J1,10*%
X48100000Y32258000D03*
%TO.P,J1,11*%
X48100000Y29718000D03*
%TO.P,J1,12*%
X48100000Y27178000D03*
%TO.P,J1,13*%
X48100000Y24638000D03*
%TO.P,J1,14*%
X48100000Y22098000D03*
%TO.P,J1,15*%
X48100000Y19558000D03*
%TO.P,J1,16*%
X48100000Y17018000D03*
%TO.P,J1,17*%
X48100000Y14478000D03*
%TO.P,J1,18*%
X48100000Y11938000D03*
%TO.P,J1,19*%
X48100000Y9398000D03*
%TO.P,J1,20*%
X48100000Y6858000D03*
%TO.P,J1,21*%
X48100000Y4318000D03*
%TD*%
D11*
%TO.P,J2,1*%
%TO.N,/3v3*%
X28924000Y68547000D03*
D12*
%TO.P,J2,2*%
%TO.N,GND*%
X31464000Y68547000D03*
%TO.P,J2,3*%
%TO.N,/SDO*%
X34004000Y68547000D03*
%TO.P,J2,4*%
%TO.N,/CSB*%
X36544000Y68547000D03*
%TO.P,J2,5*%
%TO.N,/SDA*%
X39084000Y68547000D03*
%TO.P,J2,6*%
%TO.N,/SCL*%
X41624000Y68547000D03*
%TD*%
%TO.P,J3,21*%
%TO.N,/3v3*%
X23100000Y55118000D03*
%TO.P,J3,20*%
%TO.N,N/C*%
X23100000Y52578000D03*
%TO.P,J3,19*%
%TO.N,/SDO*%
X23100000Y50038000D03*
%TO.P,J3,18*%
%TO.N,/CSB*%
X23100000Y47498000D03*
%TO.P,J3,17*%
%TO.N,/SDA*%
X23100000Y44958000D03*
%TO.P,J3,16*%
%TO.N,/SCL*%
X23100000Y42418000D03*
%TO.P,J3,15*%
%TO.N,N/C*%
X23100000Y39878000D03*
%TO.P,J3,14*%
X23100000Y37338000D03*
%TO.P,J3,13*%
X23100000Y34798000D03*
%TO.P,J3,12*%
X23100000Y32258000D03*
%TO.P,J3,11*%
X23100000Y29718000D03*
%TO.P,J3,10*%
X23100000Y27178000D03*
%TO.P,J3,9*%
%TO.N,/MOSI*%
X23100000Y24638000D03*
%TO.P,J3,8*%
%TO.N,/CLK*%
X23100000Y22098000D03*
%TO.P,J3,7*%
%TO.N,/CS*%
X23100000Y19558000D03*
%TO.P,J3,6*%
%TO.N,/DC*%
X23100000Y17018000D03*
%TO.P,J3,5*%
%TO.N,/RST*%
X23100000Y14478000D03*
%TO.P,J3,4*%
%TO.N,/BUSY*%
X23100000Y11938000D03*
%TO.P,J3,3*%
%TO.N,N/C*%
X23100000Y9398000D03*
%TO.P,J3,2*%
X23100000Y6858000D03*
D11*
%TO.P,J3,1*%
%TO.N,GND*%
X23100000Y4318000D03*
%TD*%
M02*
