M48
; DRILL file {KiCad 5.1.9-73d0e3b20d~88~ubuntu20.04.1} date Sat Mar 13 18:10:57 2021
; FORMAT={-:-/ absolute / metric / decimal}
; #@! TF.CreationDate,2021-03-13T18:10:57+01:00
; #@! TF.GenerationSoftware,Kicad,Pcbnew,5.1.9-73d0e3b20d~88~ubuntu20.04.1
; #@! TF.FileFunction,Plated,1,2,PTH
FMAT,2
METRIC
T1C1.000
%
G90
G05
T1
X4.59Y55.118
X4.59Y52.578
X4.59Y50.038
X4.59Y47.498
X4.59Y44.958
X4.59Y42.418
X4.59Y39.878
X4.59Y37.338
X4.59Y34.798
X4.59Y32.258
X4.59Y29.718
X4.59Y27.178
X4.59Y24.638
X4.59Y22.098
X4.59Y19.558
X4.59Y17.018
X4.59Y14.478
X4.59Y11.938
X4.59Y9.398
X4.59Y6.858
X4.59Y4.318
X10.414Y68.547
X12.954Y68.547
X15.494Y68.547
X18.034Y68.547
X20.574Y68.547
X23.114Y68.547
X29.59Y55.118
X29.59Y52.578
X29.59Y50.038
X29.59Y47.498
X29.59Y44.958
X29.59Y42.418
X29.59Y39.878
X29.59Y37.338
X29.59Y34.798
X29.59Y32.258
X29.59Y29.718
X29.59Y27.178
X29.59Y24.638
X29.59Y22.098
X29.59Y19.558
X29.59Y17.018
X29.59Y14.478
X29.59Y11.938
X29.59Y9.398
X29.59Y6.858
X29.59Y4.318
T0
M30
