M48
; DRILL file {KiCad 5.1.10-88a1d61d58~90~ubuntu20.04.1} date Tue Mar 29 12:07:13 2022
; FORMAT={-:-/ absolute / metric / decimal}
; #@! TF.CreationDate,2022-03-29T12:07:13+02:00
; #@! TF.GenerationSoftware,Kicad,Pcbnew,5.1.10-88a1d61d58~90~ubuntu20.04.1
FMAT,2
METRIC
T1C0.750
T2C0.800
T3C1.000
T4C1.100
T5C1.300
T6C3.200
%
G90
G05
T1
X105.7Y-94.7
X105.7Y-96.7
X105.7Y-98.7
X105.7Y-100.7
X105.7Y-102.7
X105.7Y-104.7
X105.7Y-106.7
X105.7Y-108.7
T2
X89.45Y-86.8
X89.45Y-96.96
T3
X89.7Y-120.2
X92.5Y-67.9
X92.5Y-70.44
X92.5Y-72.98
X92.5Y-75.52
X92.5Y-78.06
X92.5Y-80.6
X93.1Y-84.2
X93.1Y-86.74
X94.2Y-120.2
X110.0Y-70.445
X110.0Y-72.985
X110.0Y-75.525
X110.0Y-78.065
X110.0Y-80.605
X110.0Y-83.145
X110.0Y-85.685
X110.0Y-88.225
X110.0Y-90.765
X110.0Y-93.305
X110.0Y-95.845
X110.0Y-98.385
X110.0Y-100.925
X110.0Y-103.465
X110.0Y-106.005
X110.0Y-108.545
X110.0Y-111.085
X110.0Y-113.625
X110.0Y-116.165
X110.0Y-118.705
X110.0Y-121.245
X135.0Y-70.445
X135.0Y-72.985
X135.0Y-75.525
X135.0Y-78.065
X135.0Y-80.605
X135.0Y-83.145
X135.0Y-85.685
X135.0Y-88.225
X135.0Y-90.765
X135.0Y-93.305
X135.0Y-95.845
X135.0Y-98.385
X135.0Y-100.925
X135.0Y-103.465
X135.0Y-106.005
X135.0Y-108.545
X135.0Y-111.085
X135.0Y-113.625
X135.0Y-116.165
X135.0Y-118.705
X135.0Y-121.245
T4
X140.4Y-74.6
X140.4Y-81.1
X144.9Y-74.6
X144.9Y-81.1
T5
X88.45Y-117.7
X95.45Y-117.7
T6
X99.7Y-86.7
X99.7Y-114.7
X142.7Y-86.7
X142.7Y-114.7
T0
M30
