%TF.GenerationSoftware,KiCad,Pcbnew,5.1.10-88a1d61d58~89~ubuntu20.04.1*%
%TF.CreationDate,2021-07-14T19:33:18+02:00*%
%TF.ProjectId,schematic,73636865-6d61-4746-9963-2e6b69636164,rev?*%
%TF.SameCoordinates,Original*%
%TF.FileFunction,Copper,L1,Top*%
%TF.FilePolarity,Positive*%
%FSLAX46Y46*%
G04 Gerber Fmt 4.6, Leading zero omitted, Abs format (unit mm)*
G04 Created by KiCad (PCBNEW 5.1.10-88a1d61d58~89~ubuntu20.04.1) date 2021-07-14 19:33:18*
%MOMM*%
%LPD*%
G01*
G04 APERTURE LIST*
%TA.AperFunction,ComponentPad*%
%ADD10O,1.750000X1.200000*%
%TD*%
%TA.AperFunction,ComponentPad*%
%ADD11R,1.700000X1.700000*%
%TD*%
%TA.AperFunction,ComponentPad*%
%ADD12O,1.700000X1.700000*%
%TD*%
G04 APERTURE END LIST*
D10*
%TO.P,J4,8*%
%TO.N,/BUSY*%
X105700000Y-108700000D03*
%TO.P,J4,7*%
%TO.N,/RST*%
X105700000Y-106700000D03*
%TO.P,J4,6*%
%TO.N,/DC*%
X105700000Y-104700000D03*
%TO.P,J4,5*%
%TO.N,/CS*%
X105700000Y-102700000D03*
%TO.P,J4,4*%
%TO.N,/CLK*%
X105700000Y-100700000D03*
%TO.P,J4,3*%
%TO.N,/MOSI*%
X105700000Y-98700000D03*
%TO.P,J4,2*%
%TO.N,GND*%
X105700000Y-96700000D03*
%TO.P,J4,1*%
%TO.N,/3v3*%
%TA.AperFunction,ComponentPad*%
G36*
G01*
X105074999Y-94100000D02*
X106325001Y-94100000D01*
G75*
G02*
X106575000Y-94349999I0J-249999D01*
G01*
X106575000Y-95050001D01*
G75*
G02*
X106325001Y-95300000I-249999J0D01*
G01*
X105074999Y-95300000D01*
G75*
G02*
X104825000Y-95050001I0J249999D01*
G01*
X104825000Y-94349999D01*
G75*
G02*
X105074999Y-94100000I249999J0D01*
G01*
G37*
%TD.AperFunction*%
%TD*%
D11*
%TO.P,J1,1*%
%TO.N,GND*%
X135000000Y-70445000D03*
D12*
%TO.P,J1,2*%
%TO.N,N/C*%
X135000000Y-72985000D03*
%TO.P,J1,3*%
X135000000Y-75525000D03*
%TO.P,J1,4*%
X135000000Y-78065000D03*
%TO.P,J1,5*%
X135000000Y-80605000D03*
%TO.P,J1,6*%
X135000000Y-83145000D03*
%TO.P,J1,7*%
X135000000Y-85685000D03*
%TO.P,J1,8*%
X135000000Y-88225000D03*
%TO.P,J1,9*%
X135000000Y-90765000D03*
%TO.P,J1,10*%
X135000000Y-93305000D03*
%TO.P,J1,11*%
X135000000Y-95845000D03*
%TO.P,J1,12*%
X135000000Y-98385000D03*
%TO.P,J1,13*%
X135000000Y-100925000D03*
%TO.P,J1,14*%
X135000000Y-103465000D03*
%TO.P,J1,15*%
X135000000Y-106005000D03*
%TO.P,J1,16*%
X135000000Y-108545000D03*
%TO.P,J1,17*%
X135000000Y-111085000D03*
%TO.P,J1,18*%
X135000000Y-113625000D03*
%TO.P,J1,19*%
X135000000Y-116165000D03*
%TO.P,J1,20*%
X135000000Y-118705000D03*
%TO.P,J1,21*%
X135000000Y-121245000D03*
%TD*%
D11*
%TO.P,J2,1*%
%TO.N,/3v3*%
X92500000Y-67900000D03*
D12*
%TO.P,J2,2*%
%TO.N,GND*%
X92500000Y-70440000D03*
%TO.P,J2,3*%
%TO.N,/SDO*%
X92500000Y-72980000D03*
%TO.P,J2,4*%
%TO.N,/CSB*%
X92500000Y-75520000D03*
%TO.P,J2,5*%
%TO.N,/SDA*%
X92500000Y-78060000D03*
%TO.P,J2,6*%
%TO.N,/SCL*%
X92500000Y-80600000D03*
%TD*%
%TO.P,J3,21*%
%TO.N,/3v3*%
X110000000Y-70445000D03*
%TO.P,J3,20*%
%TO.N,N/C*%
X110000000Y-72985000D03*
%TO.P,J3,19*%
%TO.N,/SDO*%
X110000000Y-75525000D03*
%TO.P,J3,18*%
%TO.N,/CSB*%
X110000000Y-78065000D03*
%TO.P,J3,17*%
%TO.N,/SDA*%
X110000000Y-80605000D03*
%TO.P,J3,16*%
%TO.N,/SCL*%
X110000000Y-83145000D03*
%TO.P,J3,15*%
%TO.N,N/C*%
X110000000Y-85685000D03*
%TO.P,J3,14*%
X110000000Y-88225000D03*
%TO.P,J3,13*%
X110000000Y-90765000D03*
%TO.P,J3,12*%
X110000000Y-93305000D03*
%TO.P,J3,11*%
X110000000Y-95845000D03*
%TO.P,J3,10*%
X110000000Y-98385000D03*
%TO.P,J3,9*%
%TO.N,/MOSI*%
X110000000Y-100925000D03*
%TO.P,J3,8*%
%TO.N,/CLK*%
X110000000Y-103465000D03*
%TO.P,J3,7*%
%TO.N,/CS*%
X110000000Y-106005000D03*
%TO.P,J3,6*%
%TO.N,/DC*%
X110000000Y-108545000D03*
%TO.P,J3,5*%
%TO.N,/RST*%
X110000000Y-111085000D03*
%TO.P,J3,4*%
%TO.N,/BUSY*%
X110000000Y-113625000D03*
%TO.P,J3,3*%
%TO.N,N/C*%
X110000000Y-116165000D03*
%TO.P,J3,2*%
X110000000Y-118705000D03*
D11*
%TO.P,J3,1*%
%TO.N,GND*%
X110000000Y-121245000D03*
%TD*%
M02*
