%TF.GenerationSoftware,KiCad,Pcbnew,5.1.10-88a1d61d58~90~ubuntu20.04.1*%
%TF.CreationDate,2022-07-31T10:38:46+02:00*%
%TF.ProjectId,schematic,73636865-6d61-4746-9963-2e6b69636164,rev?*%
%TF.SameCoordinates,Original*%
%TF.FileFunction,Copper,L2,Bot*%
%TF.FilePolarity,Positive*%
%FSLAX46Y46*%
G04 Gerber Fmt 4.6, Leading zero omitted, Abs format (unit mm)*
G04 Created by KiCad (PCBNEW 5.1.10-88a1d61d58~90~ubuntu20.04.1) date 2022-07-31 10:38:46*
%MOMM*%
%LPD*%
G01*
G04 APERTURE LIST*
%TA.AperFunction,Profile*%
%ADD10C,0.050000*%
%TD*%
%TA.AperFunction,ComponentPad*%
%ADD11R,1.700000X1.700000*%
%TD*%
%TA.AperFunction,ComponentPad*%
%ADD12O,1.700000X1.700000*%
%TD*%
%TA.AperFunction,ComponentPad*%
%ADD13C,2.000000*%
%TD*%
%TA.AperFunction,ComponentPad*%
%ADD14C,1.700000*%
%TD*%
%TA.AperFunction,ComponentPad*%
%ADD15C,2.200000*%
%TD*%
%TA.AperFunction,ComponentPad*%
%ADD16O,1.750000X1.200000*%
%TD*%
%TA.AperFunction,ViaPad*%
%ADD17C,0.800000*%
%TD*%
%TA.AperFunction,Conductor*%
%ADD18C,0.500000*%
%TD*%
%TA.AperFunction,Conductor*%
%ADD19C,0.750000*%
%TD*%
%TA.AperFunction,Conductor*%
%ADD20C,0.250000*%
%TD*%
%TA.AperFunction,Conductor*%
%ADD21C,0.254000*%
%TD*%
%TA.AperFunction,Conductor*%
%ADD22C,0.100000*%
%TD*%
G04 APERTURE END LIST*
D10*
X142100000Y-108800000D02*
X142100000Y-104300000D01*
X142100000Y-104300000D02*
X146900000Y-104300000D01*
X146900000Y-104300000D02*
X146900000Y-74100000D01*
X146900000Y-108800000D02*
X146900000Y-108800000D01*
X146900000Y-108800000D02*
X142100000Y-108800000D01*
X146900000Y-72600000D02*
X146900000Y-72600000D01*
X146900000Y-70300000D02*
X146900000Y-61600000D01*
X142900000Y-74100000D02*
X146900000Y-74100000D01*
X142900000Y-70300000D02*
X142900000Y-74100000D01*
X146900000Y-70300000D02*
X142900000Y-70300000D01*
X87100000Y-123063000D02*
X146900000Y-123079000D01*
X146900000Y-61600000D02*
X87100000Y-61600000D01*
X87100000Y-61600000D02*
X87100000Y-123063000D01*
X146900000Y-123079000D02*
X146900000Y-108800000D01*
D11*
%TO.P,J2,1*%
%TO.N,3v3*%
X91300000Y-67900000D03*
D12*
%TO.P,J2,2*%
%TO.N,GND*%
X91300000Y-70440000D03*
%TO.P,J2,3*%
%TO.N,/SDO*%
X91300000Y-72980000D03*
%TO.P,J2,4*%
%TO.N,/CSB*%
X91300000Y-75520000D03*
%TO.P,J2,5*%
%TO.N,/SDA*%
X91300000Y-78060000D03*
%TO.P,J2,6*%
%TO.N,/SCL*%
X91300000Y-80600000D03*
%TD*%
%TO.P,J5,6*%
%TO.N,Net-(J5-Pad6)*%
X95760000Y-64000000D03*
%TO.P,J5,5*%
%TO.N,GND*%
X98300000Y-64000000D03*
%TO.P,J5,4*%
%TO.N,/RX-TX*%
X100840000Y-64000000D03*
%TO.P,J5,3*%
%TO.N,/TX-RX*%
X103380000Y-64000000D03*
%TO.P,J5,2*%
%TO.N,Net-(J5-Pad2)*%
X105920000Y-64000000D03*
D11*
%TO.P,J5,1*%
%TO.N,3v3*%
X108460000Y-64000000D03*
%TD*%
D13*
%TO.P,SW1,1*%
%TO.N,GND*%
X144800000Y-63700000D03*
%TO.P,SW1,2*%
%TO.N,Net-(J3-Pad20)*%
X144800000Y-68200000D03*
%TO.P,SW1,1*%
%TO.N,GND*%
X138300000Y-63700000D03*
%TO.P,SW1,2*%
%TO.N,Net-(J3-Pad20)*%
X138300000Y-68200000D03*
%TD*%
D14*
%TO.P,SW2,1*%
%TO.N,Net-(J1-Pad2)*%
X94200000Y-120200000D03*
%TO.P,SW2,2*%
%TO.N,GND*%
X89700000Y-120200000D03*
D15*
%TO.P,SW2,*%
%TO.N,*%
X95450000Y-117700000D03*
X88450000Y-117700000D03*
%TD*%
D16*
%TO.P,J4,8*%
%TO.N,/BUSY*%
X105700000Y-108700000D03*
%TO.P,J4,7*%
%TO.N,/RST*%
X105700000Y-106700000D03*
%TO.P,J4,6*%
%TO.N,/DC*%
X105700000Y-104700000D03*
%TO.P,J4,5*%
%TO.N,/CS*%
X105700000Y-102700000D03*
%TO.P,J4,4*%
%TO.N,/CLK*%
X105700000Y-100700000D03*
%TO.P,J4,3*%
%TO.N,/MOSI*%
X105700000Y-98700000D03*
%TO.P,J4,2*%
%TO.N,GND*%
X105700000Y-96700000D03*
%TO.P,J4,1*%
%TO.N,3v3*%
%TA.AperFunction,ComponentPad*%
G36*
G01*
X105074999Y-94100000D02*
X106325001Y-94100000D01*
G75*
G02*
X106575000Y-94349999I0J-249999D01*
G01*
X106575000Y-95050001D01*
G75*
G02*
X106325001Y-95300000I-249999J0D01*
G01*
X105074999Y-95300000D01*
G75*
G02*
X104825000Y-95050001I0J249999D01*
G01*
X104825000Y-94349999D01*
G75*
G02*
X105074999Y-94100000I249999J0D01*
G01*
G37*
%TD.AperFunction*%
%TD*%
D11*
%TO.P,J1,1*%
%TO.N,GND*%
X135000000Y-70445000D03*
D12*
%TO.P,J1,2*%
%TO.N,Net-(J1-Pad2)*%
X135000000Y-72985000D03*
%TO.P,J1,3*%
%TO.N,Net-(J1-Pad3)*%
X135000000Y-75525000D03*
%TO.P,J1,4*%
%TO.N,Net-(J1-Pad4)*%
X135000000Y-78065000D03*
%TO.P,J1,5*%
%TO.N,/RX-TX*%
X135000000Y-80605000D03*
%TO.P,J1,6*%
%TO.N,/TX-RX*%
X135000000Y-83145000D03*
%TO.P,J1,7*%
%TO.N,Net-(J1-Pad7)*%
X135000000Y-85685000D03*
%TO.P,J1,8*%
%TO.N,Net-(J1-Pad8)*%
X135000000Y-88225000D03*
%TO.P,J1,9*%
%TO.N,Net-(J1-Pad9)*%
X135000000Y-90765000D03*
%TO.P,J1,10*%
%TO.N,Net-(J1-Pad10)*%
X135000000Y-93305000D03*
%TO.P,J1,11*%
%TO.N,Net-(J1-Pad11)*%
X135000000Y-95845000D03*
%TO.P,J1,12*%
%TO.N,Net-(J1-Pad12)*%
X135000000Y-98385000D03*
%TO.P,J1,13*%
%TO.N,Net-(J1-Pad13)*%
X135000000Y-100925000D03*
%TO.P,J1,14*%
%TO.N,Net-(J1-Pad14)*%
X135000000Y-103465000D03*
%TO.P,J1,15*%
%TO.N,Net-(J1-Pad15)*%
X135000000Y-106005000D03*
%TO.P,J1,16*%
%TO.N,Net-(J1-Pad16)*%
X135000000Y-108545000D03*
%TO.P,J1,17*%
%TO.N,Net-(J1-Pad17)*%
X135000000Y-111085000D03*
%TO.P,J1,18*%
%TO.N,Net-(J1-Pad18)*%
X135000000Y-113625000D03*
%TO.P,J1,19*%
%TO.N,Net-(J1-Pad19)*%
X135000000Y-116165000D03*
%TO.P,J1,20*%
%TO.N,Net-(J1-Pad20)*%
X135000000Y-118705000D03*
%TO.P,J1,21*%
%TO.N,Net-(J1-Pad21)*%
X135000000Y-121245000D03*
%TD*%
%TO.P,J3,21*%
%TO.N,3v3*%
X110000000Y-70445000D03*
%TO.P,J3,20*%
%TO.N,Net-(J3-Pad20)*%
X110000000Y-72985000D03*
%TO.P,J3,19*%
%TO.N,/SDO*%
X110000000Y-75525000D03*
%TO.P,J3,18*%
%TO.N,/CSB*%
X110000000Y-78065000D03*
%TO.P,J3,17*%
%TO.N,/SDA*%
X110000000Y-80605000D03*
%TO.P,J3,16*%
%TO.N,/SCL*%
X110000000Y-83145000D03*
%TO.P,J3,15*%
%TO.N,Net-(J3-Pad15)*%
X110000000Y-85685000D03*
%TO.P,J3,14*%
%TO.N,Net-(J3-Pad14)*%
X110000000Y-88225000D03*
%TO.P,J3,13*%
%TO.N,Net-(J3-Pad13)*%
X110000000Y-90765000D03*
%TO.P,J3,12*%
%TO.N,Net-(J3-Pad12)*%
X110000000Y-93305000D03*
%TO.P,J3,11*%
%TO.N,Net-(J3-Pad11)*%
X110000000Y-95845000D03*
%TO.P,J3,10*%
%TO.N,Net-(J3-Pad10)*%
X110000000Y-98385000D03*
%TO.P,J3,9*%
%TO.N,/MOSI*%
X110000000Y-100925000D03*
%TO.P,J3,8*%
%TO.N,/CLK*%
X110000000Y-103465000D03*
%TO.P,J3,7*%
%TO.N,/CS*%
X110000000Y-106005000D03*
%TO.P,J3,6*%
%TO.N,/DC*%
X110000000Y-108545000D03*
%TO.P,J3,5*%
%TO.N,/RST*%
X110000000Y-111085000D03*
%TO.P,J3,4*%
%TO.N,/BUSY*%
X110000000Y-113625000D03*
%TO.P,J3,3*%
%TO.N,Net-(J3-Pad3)*%
X110000000Y-116165000D03*
%TO.P,J3,2*%
%TO.N,Net-(J3-Pad2)*%
X110000000Y-118705000D03*
D11*
%TO.P,J3,1*%
%TO.N,GND*%
X110000000Y-121245000D03*
%TD*%
D17*
%TO.N,/RX-TX*%
X122100000Y-71300000D03*
%TO.N,/TX-RX*%
X107100000Y-68400000D03*
%TD*%
D18*
%TO.N,/SDO*%
X91300000Y-72980000D02*
X104980000Y-72980000D01*
X107525000Y-75525000D02*
X110000000Y-75525000D01*
X104980000Y-72980000D02*
X107525000Y-75525000D01*
%TO.N,/CSB*%
X91300000Y-75520000D02*
X103820000Y-75520000D01*
X106365000Y-78065000D02*
X110000000Y-78065000D01*
X103820000Y-75520000D02*
X106365000Y-78065000D01*
%TO.N,/SDA*%
X91300000Y-78060000D02*
X102760000Y-78060000D01*
X105305000Y-80605000D02*
X110000000Y-80605000D01*
X102760000Y-78060000D02*
X105305000Y-80605000D01*
%TO.N,/SCL*%
X91300000Y-80600000D02*
X101700000Y-80600000D01*
X104245000Y-83145000D02*
X110000000Y-83145000D01*
X101700000Y-80600000D02*
X104245000Y-83145000D01*
D19*
%TO.N,/MOSI*%
X109935000Y-100900000D02*
X110000000Y-100965000D01*
X110000000Y-100925000D02*
X109525000Y-100925000D01*
D20*
X109225000Y-100925000D02*
X110000000Y-100925000D01*
D18*
X105700000Y-98700000D02*
X107100000Y-98700000D01*
X109325000Y-100925000D02*
X110000000Y-100925000D01*
X107100000Y-98700000D02*
X109325000Y-100925000D01*
D20*
%TO.N,/CLK*%
X105700000Y-100700000D02*
X106500000Y-100700000D01*
X109265000Y-103465000D02*
X110000000Y-103465000D01*
D18*
X105700000Y-100700000D02*
X106600000Y-100700000D01*
X109365000Y-103465000D02*
X110000000Y-103465000D01*
X106600000Y-100700000D02*
X109365000Y-103465000D01*
D19*
%TO.N,/CS*%
X109805000Y-106200000D02*
X110000000Y-106005000D01*
X110000000Y-106005000D02*
X109605000Y-106005000D01*
D20*
X105700000Y-102700000D02*
X106400000Y-102700000D01*
X109705000Y-106005000D02*
X110000000Y-106005000D01*
X109905000Y-106005000D02*
X110000000Y-106005000D01*
D18*
X105700000Y-102700000D02*
X106200000Y-102700000D01*
X109505000Y-106005000D02*
X110000000Y-106005000D01*
X106200000Y-102700000D02*
X109505000Y-106005000D01*
D19*
%TO.N,/DC*%
X109845000Y-108200000D02*
X110000000Y-108045000D01*
D20*
X105700000Y-104700000D02*
X106155000Y-104700000D01*
D18*
X105700000Y-104700000D02*
X106200000Y-104700000D01*
X106200000Y-104700000D02*
X108700000Y-107200000D01*
X108700000Y-107200000D02*
X108700000Y-107900000D01*
X109345000Y-108545000D02*
X110000000Y-108545000D01*
X108700000Y-107900000D02*
X109345000Y-108545000D01*
D20*
%TO.N,/RST*%
X105700000Y-106700000D02*
X106200000Y-106700000D01*
X105700000Y-106700000D02*
X106500000Y-106700000D01*
D18*
X106200000Y-106700000D02*
X107700000Y-108200000D01*
X107700000Y-108200000D02*
X107700000Y-109900000D01*
X108885000Y-111085000D02*
X110000000Y-111085000D01*
X107700000Y-109900000D02*
X108885000Y-111085000D01*
%TO.N,/BUSY*%
X105700000Y-108700000D02*
X105700000Y-111600000D01*
X107725000Y-113625000D02*
X110000000Y-113625000D01*
X105700000Y-111600000D02*
X107725000Y-113625000D01*
%TO.N,Net-(J3-Pad20)*%
X134500000Y-64400000D02*
X138300000Y-68200000D01*
X126700000Y-64400000D02*
X134500000Y-64400000D01*
X118115000Y-72985000D02*
X126700000Y-64400000D01*
X110000000Y-72985000D02*
X118115000Y-72985000D01*
X138300000Y-68200000D02*
X144800000Y-68200000D01*
D19*
%TO.N,3v3*%
X105600000Y-94600000D02*
X105700000Y-94700000D01*
D18*
X110000000Y-65540000D02*
X108460000Y-64000000D01*
X110000000Y-70445000D02*
X110000000Y-65540000D01*
X110000000Y-70445000D02*
X96545000Y-70445000D01*
X94000000Y-67900000D02*
X91300000Y-67900000D01*
X96545000Y-70445000D02*
X94000000Y-67900000D01*
%TO.N,/RX-TX*%
X122100000Y-71300000D02*
X123600000Y-71300000D01*
X132905000Y-80605000D02*
X135000000Y-80605000D01*
X123600000Y-71300000D02*
X132905000Y-80605000D01*
%TO.N,/TX-RX*%
X103380000Y-64000000D02*
X103380000Y-65380000D01*
X103380000Y-65380000D02*
X106400000Y-68400000D01*
X106400000Y-68400000D02*
X107100000Y-68400000D01*
X107100000Y-68400000D02*
X107100000Y-68400000D01*
%TD*%
D21*
%TO.N,GND*%
X137439956Y-62300186D02*
X137344192Y-62564587D01*
X138300000Y-63520395D01*
X139255808Y-62564587D01*
X139160044Y-62300186D01*
X139077437Y-62260000D01*
X144015139Y-62260000D01*
X143939956Y-62300186D01*
X143844192Y-62564587D01*
X144800000Y-63520395D01*
X145755808Y-62564587D01*
X145660044Y-62300186D01*
X145577437Y-62260000D01*
X146240001Y-62260000D01*
X146240001Y-62915141D01*
X146199814Y-62839956D01*
X145935413Y-62744192D01*
X144979605Y-63700000D01*
X145935413Y-64655808D01*
X146199814Y-64560044D01*
X146240001Y-64477436D01*
X146240000Y-67412191D01*
X146069987Y-67157748D01*
X145842252Y-66930013D01*
X145574463Y-66751082D01*
X145276912Y-66627832D01*
X144961033Y-66565000D01*
X144638967Y-66565000D01*
X144323088Y-66627832D01*
X144025537Y-66751082D01*
X143757748Y-66930013D01*
X143530013Y-67157748D01*
X143424941Y-67315000D01*
X139675059Y-67315000D01*
X139569987Y-67157748D01*
X139342252Y-66930013D01*
X139074463Y-66751082D01*
X138776912Y-66627832D01*
X138461033Y-66565000D01*
X138138967Y-66565000D01*
X137953475Y-66601896D01*
X136186992Y-64835413D01*
X137344192Y-64835413D01*
X137439956Y-65099814D01*
X137729571Y-65240704D01*
X138041108Y-65322384D01*
X138362595Y-65341718D01*
X138681675Y-65297961D01*
X138986088Y-65192795D01*
X139160044Y-65099814D01*
X139255808Y-64835413D01*
X143844192Y-64835413D01*
X143939956Y-65099814D01*
X144229571Y-65240704D01*
X144541108Y-65322384D01*
X144862595Y-65341718D01*
X145181675Y-65297961D01*
X145486088Y-65192795D01*
X145660044Y-65099814D01*
X145755808Y-64835413D01*
X144800000Y-63879605D01*
X143844192Y-64835413D01*
X139255808Y-64835413D01*
X138300000Y-63879605D01*
X137344192Y-64835413D01*
X136186992Y-64835413D01*
X135156534Y-63804956D01*
X135128817Y-63771183D01*
X135118353Y-63762595D01*
X136658282Y-63762595D01*
X136702039Y-64081675D01*
X136807205Y-64386088D01*
X136900186Y-64560044D01*
X137164587Y-64655808D01*
X138120395Y-63700000D01*
X138479605Y-63700000D01*
X139435413Y-64655808D01*
X139699814Y-64560044D01*
X139840704Y-64270429D01*
X139922384Y-63958892D01*
X139934189Y-63762595D01*
X143158282Y-63762595D01*
X143202039Y-64081675D01*
X143307205Y-64386088D01*
X143400186Y-64560044D01*
X143664587Y-64655808D01*
X144620395Y-63700000D01*
X143664587Y-62744192D01*
X143400186Y-62839956D01*
X143259296Y-63129571D01*
X143177616Y-63441108D01*
X143158282Y-63762595D01*
X139934189Y-63762595D01*
X139941718Y-63637405D01*
X139897961Y-63318325D01*
X139792795Y-63013912D01*
X139699814Y-62839956D01*
X139435413Y-62744192D01*
X138479605Y-63700000D01*
X138120395Y-63700000D01*
X137164587Y-62744192D01*
X136900186Y-62839956D01*
X136759296Y-63129571D01*
X136677616Y-63441108D01*
X136658282Y-63762595D01*
X135118353Y-63762595D01*
X134994059Y-63660589D01*
X134840313Y-63578411D01*
X134673490Y-63527805D01*
X134543477Y-63515000D01*
X134543469Y-63515000D01*
X134500000Y-63510719D01*
X134456531Y-63515000D01*
X126743465Y-63515000D01*
X126699999Y-63510719D01*
X126656533Y-63515000D01*
X126656523Y-63515000D01*
X126526510Y-63527805D01*
X126359687Y-63578411D01*
X126205941Y-63660589D01*
X126205939Y-63660590D01*
X126205940Y-63660590D01*
X126104953Y-63743468D01*
X126104951Y-63743470D01*
X126071183Y-63771183D01*
X126043470Y-63804951D01*
X117748422Y-72100000D01*
X111194656Y-72100000D01*
X111153475Y-72038368D01*
X110946632Y-71831525D01*
X110772240Y-71715000D01*
X110946632Y-71598475D01*
X111153475Y-71391632D01*
X111315990Y-71148411D01*
X111427932Y-70878158D01*
X111485000Y-70591260D01*
X111485000Y-70298740D01*
X111427932Y-70011842D01*
X111315990Y-69741589D01*
X111153475Y-69498368D01*
X110946632Y-69291525D01*
X110885000Y-69250344D01*
X110885000Y-65583469D01*
X110889281Y-65540000D01*
X110885000Y-65496531D01*
X110885000Y-65496523D01*
X110872195Y-65366510D01*
X110821589Y-65199687D01*
X110739411Y-65045941D01*
X110680766Y-64974482D01*
X110656532Y-64944953D01*
X110656530Y-64944951D01*
X110628817Y-64911183D01*
X110595049Y-64883470D01*
X109948072Y-64236493D01*
X109948072Y-63150000D01*
X109935812Y-63025518D01*
X109899502Y-62905820D01*
X109840537Y-62795506D01*
X109761185Y-62698815D01*
X109664494Y-62619463D01*
X109554180Y-62560498D01*
X109434482Y-62524188D01*
X109310000Y-62511928D01*
X107610000Y-62511928D01*
X107485518Y-62524188D01*
X107365820Y-62560498D01*
X107255506Y-62619463D01*
X107158815Y-62698815D01*
X107079463Y-62795506D01*
X107020498Y-62905820D01*
X106998487Y-62978380D01*
X106866632Y-62846525D01*
X106623411Y-62684010D01*
X106353158Y-62572068D01*
X106066260Y-62515000D01*
X105773740Y-62515000D01*
X105486842Y-62572068D01*
X105216589Y-62684010D01*
X104973368Y-62846525D01*
X104766525Y-63053368D01*
X104650000Y-63227760D01*
X104533475Y-63053368D01*
X104326632Y-62846525D01*
X104083411Y-62684010D01*
X103813158Y-62572068D01*
X103526260Y-62515000D01*
X103233740Y-62515000D01*
X102946842Y-62572068D01*
X102676589Y-62684010D01*
X102433368Y-62846525D01*
X102226525Y-63053368D01*
X102110000Y-63227760D01*
X101993475Y-63053368D01*
X101786632Y-62846525D01*
X101543411Y-62684010D01*
X101273158Y-62572068D01*
X100986260Y-62515000D01*
X100693740Y-62515000D01*
X100406842Y-62572068D01*
X100136589Y-62684010D01*
X99893368Y-62846525D01*
X99686525Y-63053368D01*
X99564805Y-63235534D01*
X99495178Y-63118645D01*
X99300269Y-62902412D01*
X99066920Y-62728359D01*
X98804099Y-62603175D01*
X98656890Y-62558524D01*
X98427000Y-62679845D01*
X98427000Y-63873000D01*
X98447000Y-63873000D01*
X98447000Y-64127000D01*
X98427000Y-64127000D01*
X98427000Y-65320155D01*
X98656890Y-65441476D01*
X98804099Y-65396825D01*
X99066920Y-65271641D01*
X99300269Y-65097588D01*
X99495178Y-64881355D01*
X99564805Y-64764466D01*
X99686525Y-64946632D01*
X99893368Y-65153475D01*
X100136589Y-65315990D01*
X100406842Y-65427932D01*
X100693740Y-65485000D01*
X100986260Y-65485000D01*
X101273158Y-65427932D01*
X101543411Y-65315990D01*
X101786632Y-65153475D01*
X101993475Y-64946632D01*
X102110000Y-64772240D01*
X102226525Y-64946632D01*
X102433368Y-65153475D01*
X102495001Y-65194657D01*
X102495001Y-65336521D01*
X102490719Y-65380000D01*
X102507805Y-65553490D01*
X102558412Y-65720313D01*
X102640590Y-65874059D01*
X102723468Y-65975046D01*
X102723471Y-65975049D01*
X102751184Y-66008817D01*
X102784951Y-66036529D01*
X105743470Y-68995049D01*
X105771183Y-69028817D01*
X105804951Y-69056530D01*
X105804953Y-69056532D01*
X105844858Y-69089281D01*
X105905941Y-69139411D01*
X106059687Y-69221589D01*
X106175903Y-69256843D01*
X106226509Y-69272195D01*
X106241306Y-69273652D01*
X106356523Y-69285000D01*
X106356531Y-69285000D01*
X106400000Y-69289281D01*
X106443469Y-69285000D01*
X106561546Y-69285000D01*
X106609744Y-69317205D01*
X106798102Y-69395226D01*
X106998061Y-69435000D01*
X107201939Y-69435000D01*
X107401898Y-69395226D01*
X107590256Y-69317205D01*
X107759774Y-69203937D01*
X107903937Y-69059774D01*
X108017205Y-68890256D01*
X108095226Y-68701898D01*
X108135000Y-68501939D01*
X108135000Y-68298061D01*
X108095226Y-68098102D01*
X108017205Y-67909744D01*
X107903937Y-67740226D01*
X107759774Y-67596063D01*
X107590256Y-67482795D01*
X107401898Y-67404774D01*
X107201939Y-67365000D01*
X106998061Y-67365000D01*
X106798102Y-67404774D01*
X106697870Y-67446292D01*
X104365843Y-65114264D01*
X104533475Y-64946632D01*
X104650000Y-64772240D01*
X104766525Y-64946632D01*
X104973368Y-65153475D01*
X105216589Y-65315990D01*
X105486842Y-65427932D01*
X105773740Y-65485000D01*
X106066260Y-65485000D01*
X106353158Y-65427932D01*
X106623411Y-65315990D01*
X106866632Y-65153475D01*
X106998487Y-65021620D01*
X107020498Y-65094180D01*
X107079463Y-65204494D01*
X107158815Y-65301185D01*
X107255506Y-65380537D01*
X107365820Y-65439502D01*
X107485518Y-65475812D01*
X107610000Y-65488072D01*
X108696493Y-65488072D01*
X109115001Y-65906580D01*
X109115000Y-69250344D01*
X109053368Y-69291525D01*
X108846525Y-69498368D01*
X108805344Y-69560000D01*
X96911579Y-69560000D01*
X94656534Y-67304956D01*
X94628817Y-67271183D01*
X94494059Y-67160589D01*
X94340313Y-67078411D01*
X94173490Y-67027805D01*
X94043477Y-67015000D01*
X94043469Y-67015000D01*
X94000000Y-67010719D01*
X93956531Y-67015000D01*
X92784625Y-67015000D01*
X92775812Y-66925518D01*
X92739502Y-66805820D01*
X92680537Y-66695506D01*
X92601185Y-66598815D01*
X92504494Y-66519463D01*
X92394180Y-66460498D01*
X92274482Y-66424188D01*
X92150000Y-66411928D01*
X90450000Y-66411928D01*
X90325518Y-66424188D01*
X90205820Y-66460498D01*
X90095506Y-66519463D01*
X89998815Y-66598815D01*
X89919463Y-66695506D01*
X89860498Y-66805820D01*
X89824188Y-66925518D01*
X89811928Y-67050000D01*
X89811928Y-68750000D01*
X89824188Y-68874482D01*
X89860498Y-68994180D01*
X89919463Y-69104494D01*
X89998815Y-69201185D01*
X90095506Y-69280537D01*
X90205820Y-69339502D01*
X90286466Y-69363966D01*
X90202412Y-69439731D01*
X90028359Y-69673080D01*
X89903175Y-69935901D01*
X89858524Y-70083110D01*
X89979845Y-70313000D01*
X91173000Y-70313000D01*
X91173000Y-70293000D01*
X91427000Y-70293000D01*
X91427000Y-70313000D01*
X92620155Y-70313000D01*
X92741476Y-70083110D01*
X92696825Y-69935901D01*
X92571641Y-69673080D01*
X92397588Y-69439731D01*
X92313534Y-69363966D01*
X92394180Y-69339502D01*
X92504494Y-69280537D01*
X92601185Y-69201185D01*
X92680537Y-69104494D01*
X92739502Y-68994180D01*
X92775812Y-68874482D01*
X92784625Y-68785000D01*
X93633422Y-68785000D01*
X95888470Y-71040049D01*
X95916183Y-71073817D01*
X95949951Y-71101530D01*
X95949953Y-71101532D01*
X96050941Y-71184411D01*
X96204686Y-71266589D01*
X96371510Y-71317195D01*
X96501523Y-71330000D01*
X96501531Y-71330000D01*
X96545000Y-71334281D01*
X96588469Y-71330000D01*
X108805344Y-71330000D01*
X108846525Y-71391632D01*
X109053368Y-71598475D01*
X109227760Y-71715000D01*
X109053368Y-71831525D01*
X108846525Y-72038368D01*
X108684010Y-72281589D01*
X108572068Y-72551842D01*
X108515000Y-72838740D01*
X108515000Y-73131260D01*
X108572068Y-73418158D01*
X108684010Y-73688411D01*
X108846525Y-73931632D01*
X109053368Y-74138475D01*
X109227760Y-74255000D01*
X109053368Y-74371525D01*
X108846525Y-74578368D01*
X108805344Y-74640000D01*
X107891579Y-74640000D01*
X105636534Y-72384956D01*
X105608817Y-72351183D01*
X105474059Y-72240589D01*
X105320313Y-72158411D01*
X105153490Y-72107805D01*
X105023477Y-72095000D01*
X105023469Y-72095000D01*
X104980000Y-72090719D01*
X104936531Y-72095000D01*
X92494656Y-72095000D01*
X92453475Y-72033368D01*
X92246632Y-71826525D01*
X92064466Y-71704805D01*
X92181355Y-71635178D01*
X92397588Y-71440269D01*
X92571641Y-71206920D01*
X92696825Y-70944099D01*
X92741476Y-70796890D01*
X92620155Y-70567000D01*
X91427000Y-70567000D01*
X91427000Y-70587000D01*
X91173000Y-70587000D01*
X91173000Y-70567000D01*
X89979845Y-70567000D01*
X89858524Y-70796890D01*
X89903175Y-70944099D01*
X90028359Y-71206920D01*
X90202412Y-71440269D01*
X90418645Y-71635178D01*
X90535534Y-71704805D01*
X90353368Y-71826525D01*
X90146525Y-72033368D01*
X89984010Y-72276589D01*
X89872068Y-72546842D01*
X89815000Y-72833740D01*
X89815000Y-73126260D01*
X89872068Y-73413158D01*
X89984010Y-73683411D01*
X90146525Y-73926632D01*
X90353368Y-74133475D01*
X90527760Y-74250000D01*
X90353368Y-74366525D01*
X90146525Y-74573368D01*
X89984010Y-74816589D01*
X89872068Y-75086842D01*
X89815000Y-75373740D01*
X89815000Y-75666260D01*
X89872068Y-75953158D01*
X89984010Y-76223411D01*
X90146525Y-76466632D01*
X90353368Y-76673475D01*
X90527760Y-76790000D01*
X90353368Y-76906525D01*
X90146525Y-77113368D01*
X89984010Y-77356589D01*
X89872068Y-77626842D01*
X89815000Y-77913740D01*
X89815000Y-78206260D01*
X89872068Y-78493158D01*
X89984010Y-78763411D01*
X90146525Y-79006632D01*
X90353368Y-79213475D01*
X90527760Y-79330000D01*
X90353368Y-79446525D01*
X90146525Y-79653368D01*
X89984010Y-79896589D01*
X89872068Y-80166842D01*
X89815000Y-80453740D01*
X89815000Y-80746260D01*
X89872068Y-81033158D01*
X89984010Y-81303411D01*
X90146525Y-81546632D01*
X90353368Y-81753475D01*
X90596589Y-81915990D01*
X90866842Y-82027932D01*
X91153740Y-82085000D01*
X91446260Y-82085000D01*
X91733158Y-82027932D01*
X92003411Y-81915990D01*
X92246632Y-81753475D01*
X92453475Y-81546632D01*
X92494656Y-81485000D01*
X101333422Y-81485000D01*
X103588470Y-83740049D01*
X103616183Y-83773817D01*
X103649951Y-83801530D01*
X103649953Y-83801532D01*
X103750941Y-83884411D01*
X103904686Y-83966589D01*
X104071510Y-84017195D01*
X104201523Y-84030000D01*
X104201531Y-84030000D01*
X104245000Y-84034281D01*
X104288469Y-84030000D01*
X108805344Y-84030000D01*
X108846525Y-84091632D01*
X109053368Y-84298475D01*
X109227760Y-84415000D01*
X109053368Y-84531525D01*
X108846525Y-84738368D01*
X108684010Y-84981589D01*
X108572068Y-85251842D01*
X108515000Y-85538740D01*
X108515000Y-85831260D01*
X108572068Y-86118158D01*
X108684010Y-86388411D01*
X108846525Y-86631632D01*
X109053368Y-86838475D01*
X109227760Y-86955000D01*
X109053368Y-87071525D01*
X108846525Y-87278368D01*
X108684010Y-87521589D01*
X108572068Y-87791842D01*
X108515000Y-88078740D01*
X108515000Y-88371260D01*
X108572068Y-88658158D01*
X108684010Y-88928411D01*
X108846525Y-89171632D01*
X109053368Y-89378475D01*
X109227760Y-89495000D01*
X109053368Y-89611525D01*
X108846525Y-89818368D01*
X108684010Y-90061589D01*
X108572068Y-90331842D01*
X108515000Y-90618740D01*
X108515000Y-90911260D01*
X108572068Y-91198158D01*
X108684010Y-91468411D01*
X108846525Y-91711632D01*
X109053368Y-91918475D01*
X109227760Y-92035000D01*
X109053368Y-92151525D01*
X108846525Y-92358368D01*
X108684010Y-92601589D01*
X108572068Y-92871842D01*
X108515000Y-93158740D01*
X108515000Y-93451260D01*
X108572068Y-93738158D01*
X108684010Y-94008411D01*
X108846525Y-94251632D01*
X109053368Y-94458475D01*
X109227760Y-94575000D01*
X109053368Y-94691525D01*
X108846525Y-94898368D01*
X108684010Y-95141589D01*
X108572068Y-95411842D01*
X108515000Y-95698740D01*
X108515000Y-95991260D01*
X108572068Y-96278158D01*
X108684010Y-96548411D01*
X108846525Y-96791632D01*
X109053368Y-96998475D01*
X109227760Y-97115000D01*
X109053368Y-97231525D01*
X108846525Y-97438368D01*
X108684010Y-97681589D01*
X108572068Y-97951842D01*
X108515000Y-98238740D01*
X108515000Y-98531260D01*
X108572068Y-98818158D01*
X108644427Y-98992848D01*
X107756534Y-98104956D01*
X107728817Y-98071183D01*
X107594059Y-97960589D01*
X107440313Y-97878411D01*
X107273490Y-97827805D01*
X107143477Y-97815000D01*
X107143469Y-97815000D01*
X107100000Y-97810719D01*
X107056531Y-97815000D01*
X106843366Y-97815000D01*
X106702652Y-97699519D01*
X106766725Y-97656307D01*
X106938078Y-97483474D01*
X107072421Y-97280533D01*
X107164591Y-97055282D01*
X107168462Y-97017609D01*
X107043731Y-96827000D01*
X105827000Y-96827000D01*
X105827000Y-96847000D01*
X105573000Y-96847000D01*
X105573000Y-96827000D01*
X104356269Y-96827000D01*
X104231538Y-97017609D01*
X104235409Y-97055282D01*
X104327579Y-97280533D01*
X104461922Y-97483474D01*
X104633275Y-97656307D01*
X104697348Y-97699519D01*
X104547498Y-97822498D01*
X104393167Y-98010551D01*
X104278489Y-98225099D01*
X104207870Y-98457898D01*
X104184025Y-98700000D01*
X104207870Y-98942102D01*
X104278489Y-99174901D01*
X104393167Y-99389449D01*
X104547498Y-99577502D01*
X104696762Y-99700000D01*
X104547498Y-99822498D01*
X104393167Y-100010551D01*
X104278489Y-100225099D01*
X104207870Y-100457898D01*
X104184025Y-100700000D01*
X104207870Y-100942102D01*
X104278489Y-101174901D01*
X104393167Y-101389449D01*
X104547498Y-101577502D01*
X104696762Y-101700000D01*
X104547498Y-101822498D01*
X104393167Y-102010551D01*
X104278489Y-102225099D01*
X104207870Y-102457898D01*
X104184025Y-102700000D01*
X104207870Y-102942102D01*
X104278489Y-103174901D01*
X104393167Y-103389449D01*
X104547498Y-103577502D01*
X104696762Y-103700000D01*
X104547498Y-103822498D01*
X104393167Y-104010551D01*
X104278489Y-104225099D01*
X104207870Y-104457898D01*
X104184025Y-104700000D01*
X104207870Y-104942102D01*
X104278489Y-105174901D01*
X104393167Y-105389449D01*
X104547498Y-105577502D01*
X104696762Y-105700000D01*
X104547498Y-105822498D01*
X104393167Y-106010551D01*
X104278489Y-106225099D01*
X104207870Y-106457898D01*
X104184025Y-106700000D01*
X104207870Y-106942102D01*
X104278489Y-107174901D01*
X104393167Y-107389449D01*
X104547498Y-107577502D01*
X104696762Y-107700000D01*
X104547498Y-107822498D01*
X104393167Y-108010551D01*
X104278489Y-108225099D01*
X104207870Y-108457898D01*
X104184025Y-108700000D01*
X104207870Y-108942102D01*
X104278489Y-109174901D01*
X104393167Y-109389449D01*
X104547498Y-109577502D01*
X104735551Y-109731833D01*
X104815000Y-109774299D01*
X104815001Y-111556521D01*
X104810719Y-111600000D01*
X104827805Y-111773490D01*
X104878412Y-111940313D01*
X104960590Y-112094059D01*
X105043468Y-112195046D01*
X105043471Y-112195049D01*
X105071184Y-112228817D01*
X105104951Y-112256529D01*
X107068470Y-114220049D01*
X107096183Y-114253817D01*
X107129951Y-114281530D01*
X107129953Y-114281532D01*
X107187075Y-114328411D01*
X107230941Y-114364411D01*
X107384687Y-114446589D01*
X107551510Y-114497195D01*
X107681523Y-114510000D01*
X107681533Y-114510000D01*
X107724999Y-114514281D01*
X107768465Y-114510000D01*
X108805344Y-114510000D01*
X108846525Y-114571632D01*
X109053368Y-114778475D01*
X109227760Y-114895000D01*
X109053368Y-115011525D01*
X108846525Y-115218368D01*
X108684010Y-115461589D01*
X108572068Y-115731842D01*
X108515000Y-116018740D01*
X108515000Y-116311260D01*
X108572068Y-116598158D01*
X108684010Y-116868411D01*
X108846525Y-117111632D01*
X109053368Y-117318475D01*
X109227760Y-117435000D01*
X109053368Y-117551525D01*
X108846525Y-117758368D01*
X108684010Y-118001589D01*
X108572068Y-118271842D01*
X108515000Y-118558740D01*
X108515000Y-118851260D01*
X108572068Y-119138158D01*
X108684010Y-119408411D01*
X108846525Y-119651632D01*
X108978380Y-119783487D01*
X108905820Y-119805498D01*
X108795506Y-119864463D01*
X108698815Y-119943815D01*
X108619463Y-120040506D01*
X108560498Y-120150820D01*
X108524188Y-120270518D01*
X108511928Y-120395000D01*
X108515000Y-120959250D01*
X108673750Y-121118000D01*
X109873000Y-121118000D01*
X109873000Y-121098000D01*
X110127000Y-121098000D01*
X110127000Y-121118000D01*
X111326250Y-121118000D01*
X111485000Y-120959250D01*
X111488072Y-120395000D01*
X111475812Y-120270518D01*
X111439502Y-120150820D01*
X111380537Y-120040506D01*
X111301185Y-119943815D01*
X111204494Y-119864463D01*
X111094180Y-119805498D01*
X111021620Y-119783487D01*
X111153475Y-119651632D01*
X111315990Y-119408411D01*
X111427932Y-119138158D01*
X111485000Y-118851260D01*
X111485000Y-118558740D01*
X111427932Y-118271842D01*
X111315990Y-118001589D01*
X111153475Y-117758368D01*
X110946632Y-117551525D01*
X110772240Y-117435000D01*
X110946632Y-117318475D01*
X111153475Y-117111632D01*
X111315990Y-116868411D01*
X111427932Y-116598158D01*
X111485000Y-116311260D01*
X111485000Y-116018740D01*
X111427932Y-115731842D01*
X111315990Y-115461589D01*
X111153475Y-115218368D01*
X110946632Y-115011525D01*
X110772240Y-114895000D01*
X110946632Y-114778475D01*
X111153475Y-114571632D01*
X111315990Y-114328411D01*
X111427932Y-114058158D01*
X111485000Y-113771260D01*
X111485000Y-113478740D01*
X111427932Y-113191842D01*
X111315990Y-112921589D01*
X111153475Y-112678368D01*
X110946632Y-112471525D01*
X110772240Y-112355000D01*
X110946632Y-112238475D01*
X111153475Y-112031632D01*
X111315990Y-111788411D01*
X111427932Y-111518158D01*
X111485000Y-111231260D01*
X111485000Y-110938740D01*
X111427932Y-110651842D01*
X111315990Y-110381589D01*
X111153475Y-110138368D01*
X110946632Y-109931525D01*
X110772240Y-109815000D01*
X110946632Y-109698475D01*
X111153475Y-109491632D01*
X111315990Y-109248411D01*
X111427932Y-108978158D01*
X111485000Y-108691260D01*
X111485000Y-108398740D01*
X111427932Y-108111842D01*
X111315990Y-107841589D01*
X111153475Y-107598368D01*
X110946632Y-107391525D01*
X110772240Y-107275000D01*
X110946632Y-107158475D01*
X111153475Y-106951632D01*
X111315990Y-106708411D01*
X111427932Y-106438158D01*
X111485000Y-106151260D01*
X111485000Y-105858740D01*
X111427932Y-105571842D01*
X111315990Y-105301589D01*
X111153475Y-105058368D01*
X110946632Y-104851525D01*
X110772240Y-104735000D01*
X110946632Y-104618475D01*
X111153475Y-104411632D01*
X111315990Y-104168411D01*
X111427932Y-103898158D01*
X111485000Y-103611260D01*
X111485000Y-103318740D01*
X111427932Y-103031842D01*
X111315990Y-102761589D01*
X111153475Y-102518368D01*
X110946632Y-102311525D01*
X110772240Y-102195000D01*
X110946632Y-102078475D01*
X111153475Y-101871632D01*
X111315990Y-101628411D01*
X111427932Y-101358158D01*
X111485000Y-101071260D01*
X111485000Y-100778740D01*
X111427932Y-100491842D01*
X111315990Y-100221589D01*
X111153475Y-99978368D01*
X110946632Y-99771525D01*
X110772240Y-99655000D01*
X110946632Y-99538475D01*
X111153475Y-99331632D01*
X111315990Y-99088411D01*
X111427932Y-98818158D01*
X111485000Y-98531260D01*
X111485000Y-98238740D01*
X111427932Y-97951842D01*
X111315990Y-97681589D01*
X111153475Y-97438368D01*
X110946632Y-97231525D01*
X110772240Y-97115000D01*
X110946632Y-96998475D01*
X111153475Y-96791632D01*
X111315990Y-96548411D01*
X111427932Y-96278158D01*
X111485000Y-95991260D01*
X111485000Y-95698740D01*
X111427932Y-95411842D01*
X111315990Y-95141589D01*
X111153475Y-94898368D01*
X110946632Y-94691525D01*
X110772240Y-94575000D01*
X110946632Y-94458475D01*
X111153475Y-94251632D01*
X111315990Y-94008411D01*
X111427932Y-93738158D01*
X111485000Y-93451260D01*
X111485000Y-93158740D01*
X111427932Y-92871842D01*
X111315990Y-92601589D01*
X111153475Y-92358368D01*
X110946632Y-92151525D01*
X110772240Y-92035000D01*
X110946632Y-91918475D01*
X111153475Y-91711632D01*
X111315990Y-91468411D01*
X111427932Y-91198158D01*
X111485000Y-90911260D01*
X111485000Y-90618740D01*
X111427932Y-90331842D01*
X111315990Y-90061589D01*
X111153475Y-89818368D01*
X110946632Y-89611525D01*
X110772240Y-89495000D01*
X110946632Y-89378475D01*
X111153475Y-89171632D01*
X111315990Y-88928411D01*
X111427932Y-88658158D01*
X111485000Y-88371260D01*
X111485000Y-88078740D01*
X111427932Y-87791842D01*
X111315990Y-87521589D01*
X111153475Y-87278368D01*
X110946632Y-87071525D01*
X110772240Y-86955000D01*
X110946632Y-86838475D01*
X111153475Y-86631632D01*
X111315990Y-86388411D01*
X111427932Y-86118158D01*
X111485000Y-85831260D01*
X111485000Y-85538740D01*
X111427932Y-85251842D01*
X111315990Y-84981589D01*
X111153475Y-84738368D01*
X110946632Y-84531525D01*
X110772240Y-84415000D01*
X110946632Y-84298475D01*
X111153475Y-84091632D01*
X111315990Y-83848411D01*
X111427932Y-83578158D01*
X111485000Y-83291260D01*
X111485000Y-82998740D01*
X111427932Y-82711842D01*
X111315990Y-82441589D01*
X111153475Y-82198368D01*
X110946632Y-81991525D01*
X110772240Y-81875000D01*
X110946632Y-81758475D01*
X111153475Y-81551632D01*
X111315990Y-81308411D01*
X111427932Y-81038158D01*
X111485000Y-80751260D01*
X111485000Y-80458740D01*
X111427932Y-80171842D01*
X111315990Y-79901589D01*
X111153475Y-79658368D01*
X110946632Y-79451525D01*
X110772240Y-79335000D01*
X110946632Y-79218475D01*
X111153475Y-79011632D01*
X111315990Y-78768411D01*
X111427932Y-78498158D01*
X111485000Y-78211260D01*
X111485000Y-77918740D01*
X111427932Y-77631842D01*
X111315990Y-77361589D01*
X111153475Y-77118368D01*
X110946632Y-76911525D01*
X110772240Y-76795000D01*
X110946632Y-76678475D01*
X111153475Y-76471632D01*
X111315990Y-76228411D01*
X111427932Y-75958158D01*
X111485000Y-75671260D01*
X111485000Y-75378740D01*
X111427932Y-75091842D01*
X111315990Y-74821589D01*
X111153475Y-74578368D01*
X110946632Y-74371525D01*
X110772240Y-74255000D01*
X110946632Y-74138475D01*
X111153475Y-73931632D01*
X111194656Y-73870000D01*
X118071531Y-73870000D01*
X118115000Y-73874281D01*
X118158469Y-73870000D01*
X118158477Y-73870000D01*
X118288490Y-73857195D01*
X118455313Y-73806589D01*
X118609059Y-73724411D01*
X118743817Y-73613817D01*
X118771534Y-73580044D01*
X121065000Y-71286578D01*
X121065000Y-71401939D01*
X121104774Y-71601898D01*
X121182795Y-71790256D01*
X121296063Y-71959774D01*
X121440226Y-72103937D01*
X121609744Y-72217205D01*
X121798102Y-72295226D01*
X121998061Y-72335000D01*
X122201939Y-72335000D01*
X122401898Y-72295226D01*
X122590256Y-72217205D01*
X122638454Y-72185000D01*
X123233422Y-72185000D01*
X132248470Y-81200049D01*
X132276183Y-81233817D01*
X132309951Y-81261530D01*
X132309953Y-81261532D01*
X132360983Y-81303411D01*
X132410941Y-81344411D01*
X132564687Y-81426589D01*
X132731510Y-81477195D01*
X132861523Y-81490000D01*
X132861533Y-81490000D01*
X132904999Y-81494281D01*
X132948465Y-81490000D01*
X133805344Y-81490000D01*
X133846525Y-81551632D01*
X134053368Y-81758475D01*
X134227760Y-81875000D01*
X134053368Y-81991525D01*
X133846525Y-82198368D01*
X133684010Y-82441589D01*
X133572068Y-82711842D01*
X133515000Y-82998740D01*
X133515000Y-83291260D01*
X133572068Y-83578158D01*
X133684010Y-83848411D01*
X133846525Y-84091632D01*
X134053368Y-84298475D01*
X134227760Y-84415000D01*
X134053368Y-84531525D01*
X133846525Y-84738368D01*
X133684010Y-84981589D01*
X133572068Y-85251842D01*
X133515000Y-85538740D01*
X133515000Y-85831260D01*
X133572068Y-86118158D01*
X133684010Y-86388411D01*
X133846525Y-86631632D01*
X134053368Y-86838475D01*
X134227760Y-86955000D01*
X134053368Y-87071525D01*
X133846525Y-87278368D01*
X133684010Y-87521589D01*
X133572068Y-87791842D01*
X133515000Y-88078740D01*
X133515000Y-88371260D01*
X133572068Y-88658158D01*
X133684010Y-88928411D01*
X133846525Y-89171632D01*
X134053368Y-89378475D01*
X134227760Y-89495000D01*
X134053368Y-89611525D01*
X133846525Y-89818368D01*
X133684010Y-90061589D01*
X133572068Y-90331842D01*
X133515000Y-90618740D01*
X133515000Y-90911260D01*
X133572068Y-91198158D01*
X133684010Y-91468411D01*
X133846525Y-91711632D01*
X134053368Y-91918475D01*
X134227760Y-92035000D01*
X134053368Y-92151525D01*
X133846525Y-92358368D01*
X133684010Y-92601589D01*
X133572068Y-92871842D01*
X133515000Y-93158740D01*
X133515000Y-93451260D01*
X133572068Y-93738158D01*
X133684010Y-94008411D01*
X133846525Y-94251632D01*
X134053368Y-94458475D01*
X134227760Y-94575000D01*
X134053368Y-94691525D01*
X133846525Y-94898368D01*
X133684010Y-95141589D01*
X133572068Y-95411842D01*
X133515000Y-95698740D01*
X133515000Y-95991260D01*
X133572068Y-96278158D01*
X133684010Y-96548411D01*
X133846525Y-96791632D01*
X134053368Y-96998475D01*
X134227760Y-97115000D01*
X134053368Y-97231525D01*
X133846525Y-97438368D01*
X133684010Y-97681589D01*
X133572068Y-97951842D01*
X133515000Y-98238740D01*
X133515000Y-98531260D01*
X133572068Y-98818158D01*
X133684010Y-99088411D01*
X133846525Y-99331632D01*
X134053368Y-99538475D01*
X134227760Y-99655000D01*
X134053368Y-99771525D01*
X133846525Y-99978368D01*
X133684010Y-100221589D01*
X133572068Y-100491842D01*
X133515000Y-100778740D01*
X133515000Y-101071260D01*
X133572068Y-101358158D01*
X133684010Y-101628411D01*
X133846525Y-101871632D01*
X134053368Y-102078475D01*
X134227760Y-102195000D01*
X134053368Y-102311525D01*
X133846525Y-102518368D01*
X133684010Y-102761589D01*
X133572068Y-103031842D01*
X133515000Y-103318740D01*
X133515000Y-103611260D01*
X133572068Y-103898158D01*
X133684010Y-104168411D01*
X133846525Y-104411632D01*
X134053368Y-104618475D01*
X134227760Y-104735000D01*
X134053368Y-104851525D01*
X133846525Y-105058368D01*
X133684010Y-105301589D01*
X133572068Y-105571842D01*
X133515000Y-105858740D01*
X133515000Y-106151260D01*
X133572068Y-106438158D01*
X133684010Y-106708411D01*
X133846525Y-106951632D01*
X134053368Y-107158475D01*
X134227760Y-107275000D01*
X134053368Y-107391525D01*
X133846525Y-107598368D01*
X133684010Y-107841589D01*
X133572068Y-108111842D01*
X133515000Y-108398740D01*
X133515000Y-108691260D01*
X133572068Y-108978158D01*
X133684010Y-109248411D01*
X133846525Y-109491632D01*
X134053368Y-109698475D01*
X134227760Y-109815000D01*
X134053368Y-109931525D01*
X133846525Y-110138368D01*
X133684010Y-110381589D01*
X133572068Y-110651842D01*
X133515000Y-110938740D01*
X133515000Y-111231260D01*
X133572068Y-111518158D01*
X133684010Y-111788411D01*
X133846525Y-112031632D01*
X134053368Y-112238475D01*
X134227760Y-112355000D01*
X134053368Y-112471525D01*
X133846525Y-112678368D01*
X133684010Y-112921589D01*
X133572068Y-113191842D01*
X133515000Y-113478740D01*
X133515000Y-113771260D01*
X133572068Y-114058158D01*
X133684010Y-114328411D01*
X133846525Y-114571632D01*
X134053368Y-114778475D01*
X134227760Y-114895000D01*
X134053368Y-115011525D01*
X133846525Y-115218368D01*
X133684010Y-115461589D01*
X133572068Y-115731842D01*
X133515000Y-116018740D01*
X133515000Y-116311260D01*
X133572068Y-116598158D01*
X133684010Y-116868411D01*
X133846525Y-117111632D01*
X134053368Y-117318475D01*
X134227760Y-117435000D01*
X134053368Y-117551525D01*
X133846525Y-117758368D01*
X133684010Y-118001589D01*
X133572068Y-118271842D01*
X133515000Y-118558740D01*
X133515000Y-118851260D01*
X133572068Y-119138158D01*
X133684010Y-119408411D01*
X133846525Y-119651632D01*
X134053368Y-119858475D01*
X134227760Y-119975000D01*
X134053368Y-120091525D01*
X133846525Y-120298368D01*
X133684010Y-120541589D01*
X133572068Y-120811842D01*
X133515000Y-121098740D01*
X133515000Y-121391260D01*
X133572068Y-121678158D01*
X133684010Y-121948411D01*
X133846525Y-122191632D01*
X134027893Y-122373000D01*
X111421425Y-122373000D01*
X111439502Y-122339180D01*
X111475812Y-122219482D01*
X111488072Y-122095000D01*
X111485000Y-121530750D01*
X111326250Y-121372000D01*
X110127000Y-121372000D01*
X110127000Y-121392000D01*
X109873000Y-121392000D01*
X109873000Y-121372000D01*
X108673750Y-121372000D01*
X108515000Y-121530750D01*
X108511928Y-122095000D01*
X108524188Y-122219482D01*
X108560498Y-122339180D01*
X108578576Y-122373000D01*
X87826790Y-122373000D01*
X87824896Y-121228397D01*
X88851208Y-121228397D01*
X88928843Y-121477472D01*
X89192883Y-121603371D01*
X89476411Y-121675339D01*
X89768531Y-121690611D01*
X90058019Y-121648599D01*
X90333747Y-121550919D01*
X90471157Y-121477472D01*
X90548792Y-121228397D01*
X89700000Y-120379605D01*
X88851208Y-121228397D01*
X87824896Y-121228397D01*
X87821732Y-119317713D01*
X87943919Y-119368325D01*
X88279117Y-119435000D01*
X88419592Y-119435000D01*
X88296629Y-119692883D01*
X88224661Y-119976411D01*
X88209389Y-120268531D01*
X88251401Y-120558019D01*
X88349081Y-120833747D01*
X88422528Y-120971157D01*
X88671603Y-121048792D01*
X89520395Y-120200000D01*
X89879605Y-120200000D01*
X90728397Y-121048792D01*
X90977472Y-120971157D01*
X91103371Y-120707117D01*
X91175339Y-120423589D01*
X91190611Y-120131469D01*
X91179331Y-120053740D01*
X92715000Y-120053740D01*
X92715000Y-120346260D01*
X92772068Y-120633158D01*
X92884010Y-120903411D01*
X93046525Y-121146632D01*
X93253368Y-121353475D01*
X93496589Y-121515990D01*
X93766842Y-121627932D01*
X94053740Y-121685000D01*
X94346260Y-121685000D01*
X94633158Y-121627932D01*
X94903411Y-121515990D01*
X95146632Y-121353475D01*
X95353475Y-121146632D01*
X95515990Y-120903411D01*
X95627932Y-120633158D01*
X95685000Y-120346260D01*
X95685000Y-120053740D01*
X95627932Y-119766842D01*
X95515990Y-119496589D01*
X95474838Y-119435000D01*
X95620883Y-119435000D01*
X95956081Y-119368325D01*
X96271831Y-119237537D01*
X96555998Y-119047663D01*
X96797663Y-118805998D01*
X96987537Y-118521831D01*
X97118325Y-118206081D01*
X97185000Y-117870883D01*
X97185000Y-117529117D01*
X97118325Y-117193919D01*
X96987537Y-116878169D01*
X96797663Y-116594002D01*
X96555998Y-116352337D01*
X96271831Y-116162463D01*
X95956081Y-116031675D01*
X95620883Y-115965000D01*
X95279117Y-115965000D01*
X94943919Y-116031675D01*
X94628169Y-116162463D01*
X94344002Y-116352337D01*
X94102337Y-116594002D01*
X93912463Y-116878169D01*
X93781675Y-117193919D01*
X93715000Y-117529117D01*
X93715000Y-117870883D01*
X93781675Y-118206081D01*
X93912463Y-118521831D01*
X94042966Y-118717143D01*
X93766842Y-118772068D01*
X93496589Y-118884010D01*
X93253368Y-119046525D01*
X93046525Y-119253368D01*
X92884010Y-119496589D01*
X92772068Y-119766842D01*
X92715000Y-120053740D01*
X91179331Y-120053740D01*
X91148599Y-119841981D01*
X91050919Y-119566253D01*
X90977472Y-119428843D01*
X90728397Y-119351208D01*
X89879605Y-120200000D01*
X89520395Y-120200000D01*
X89506253Y-120185858D01*
X89685858Y-120006253D01*
X89700000Y-120020395D01*
X90548792Y-119171603D01*
X90471157Y-118922528D01*
X90207117Y-118796629D01*
X89923589Y-118724661D01*
X89854427Y-118721045D01*
X89987537Y-118521831D01*
X90118325Y-118206081D01*
X90185000Y-117870883D01*
X90185000Y-117529117D01*
X90118325Y-117193919D01*
X89987537Y-116878169D01*
X89797663Y-116594002D01*
X89555998Y-116352337D01*
X89271831Y-116162463D01*
X88956081Y-116031675D01*
X88620883Y-115965000D01*
X88279117Y-115965000D01*
X87943919Y-116031675D01*
X87816379Y-116084504D01*
X87813723Y-114479872D01*
X97465000Y-114479872D01*
X97465000Y-114920128D01*
X97550890Y-115351925D01*
X97719369Y-115758669D01*
X97963962Y-116124729D01*
X98275271Y-116436038D01*
X98641331Y-116680631D01*
X99048075Y-116849110D01*
X99479872Y-116935000D01*
X99920128Y-116935000D01*
X100351925Y-116849110D01*
X100758669Y-116680631D01*
X101124729Y-116436038D01*
X101436038Y-116124729D01*
X101680631Y-115758669D01*
X101849110Y-115351925D01*
X101935000Y-114920128D01*
X101935000Y-114479872D01*
X101849110Y-114048075D01*
X101680631Y-113641331D01*
X101436038Y-113275271D01*
X101124729Y-112963962D01*
X100758669Y-112719369D01*
X100351925Y-112550890D01*
X99920128Y-112465000D01*
X99479872Y-112465000D01*
X99048075Y-112550890D01*
X98641331Y-112719369D01*
X98275271Y-112963962D01*
X97963962Y-113275271D01*
X97719369Y-113641331D01*
X97550890Y-114048075D01*
X97465000Y-114479872D01*
X87813723Y-114479872D01*
X87780396Y-94349999D01*
X104186928Y-94349999D01*
X104186928Y-95050001D01*
X104203992Y-95223255D01*
X104254528Y-95389851D01*
X104336595Y-95543387D01*
X104447038Y-95677962D01*
X104581613Y-95788405D01*
X104586406Y-95790967D01*
X104461922Y-95916526D01*
X104327579Y-96119467D01*
X104235409Y-96344718D01*
X104231538Y-96382391D01*
X104356269Y-96573000D01*
X105573000Y-96573000D01*
X105573000Y-96553000D01*
X105827000Y-96553000D01*
X105827000Y-96573000D01*
X107043731Y-96573000D01*
X107168462Y-96382391D01*
X107164591Y-96344718D01*
X107072421Y-96119467D01*
X106938078Y-95916526D01*
X106813594Y-95790967D01*
X106818387Y-95788405D01*
X106952962Y-95677962D01*
X107063405Y-95543387D01*
X107145472Y-95389851D01*
X107196008Y-95223255D01*
X107213072Y-95050001D01*
X107213072Y-94349999D01*
X107196008Y-94176745D01*
X107145472Y-94010149D01*
X107063405Y-93856613D01*
X106952962Y-93722038D01*
X106818387Y-93611595D01*
X106664851Y-93529528D01*
X106498255Y-93478992D01*
X106325001Y-93461928D01*
X105074999Y-93461928D01*
X104901745Y-93478992D01*
X104735149Y-93529528D01*
X104581613Y-93611595D01*
X104447038Y-93722038D01*
X104336595Y-93856613D01*
X104254528Y-94010149D01*
X104203992Y-94176745D01*
X104186928Y-94349999D01*
X87780396Y-94349999D01*
X87767365Y-86479872D01*
X97465000Y-86479872D01*
X97465000Y-86920128D01*
X97550890Y-87351925D01*
X97719369Y-87758669D01*
X97963962Y-88124729D01*
X98275271Y-88436038D01*
X98641331Y-88680631D01*
X99048075Y-88849110D01*
X99479872Y-88935000D01*
X99920128Y-88935000D01*
X100351925Y-88849110D01*
X100758669Y-88680631D01*
X101124729Y-88436038D01*
X101436038Y-88124729D01*
X101680631Y-87758669D01*
X101849110Y-87351925D01*
X101935000Y-86920128D01*
X101935000Y-86479872D01*
X101849110Y-86048075D01*
X101680631Y-85641331D01*
X101436038Y-85275271D01*
X101124729Y-84963962D01*
X100758669Y-84719369D01*
X100351925Y-84550890D01*
X99920128Y-84465000D01*
X99479872Y-84465000D01*
X99048075Y-84550890D01*
X98641331Y-84719369D01*
X98275271Y-84963962D01*
X97963962Y-85275271D01*
X97719369Y-85641331D01*
X97550890Y-86048075D01*
X97465000Y-86479872D01*
X87767365Y-86479872D01*
X87760000Y-82031650D01*
X87760000Y-63853740D01*
X94275000Y-63853740D01*
X94275000Y-64146260D01*
X94332068Y-64433158D01*
X94444010Y-64703411D01*
X94606525Y-64946632D01*
X94813368Y-65153475D01*
X95056589Y-65315990D01*
X95326842Y-65427932D01*
X95613740Y-65485000D01*
X95906260Y-65485000D01*
X96193158Y-65427932D01*
X96463411Y-65315990D01*
X96706632Y-65153475D01*
X96913475Y-64946632D01*
X97035195Y-64764466D01*
X97104822Y-64881355D01*
X97299731Y-65097588D01*
X97533080Y-65271641D01*
X97795901Y-65396825D01*
X97943110Y-65441476D01*
X98173000Y-65320155D01*
X98173000Y-64127000D01*
X98153000Y-64127000D01*
X98153000Y-63873000D01*
X98173000Y-63873000D01*
X98173000Y-62679845D01*
X97943110Y-62558524D01*
X97795901Y-62603175D01*
X97533080Y-62728359D01*
X97299731Y-62902412D01*
X97104822Y-63118645D01*
X97035195Y-63235534D01*
X96913475Y-63053368D01*
X96706632Y-62846525D01*
X96463411Y-62684010D01*
X96193158Y-62572068D01*
X95906260Y-62515000D01*
X95613740Y-62515000D01*
X95326842Y-62572068D01*
X95056589Y-62684010D01*
X94813368Y-62846525D01*
X94606525Y-63053368D01*
X94444010Y-63296589D01*
X94332068Y-63566842D01*
X94275000Y-63853740D01*
X87760000Y-63853740D01*
X87760000Y-62260000D01*
X137515139Y-62260000D01*
X137439956Y-62300186D01*
%TA.AperFunction,Conductor*%
D22*
G36*
X137439956Y-62300186D02*
G01*
X137344192Y-62564587D01*
X138300000Y-63520395D01*
X139255808Y-62564587D01*
X139160044Y-62300186D01*
X139077437Y-62260000D01*
X144015139Y-62260000D01*
X143939956Y-62300186D01*
X143844192Y-62564587D01*
X144800000Y-63520395D01*
X145755808Y-62564587D01*
X145660044Y-62300186D01*
X145577437Y-62260000D01*
X146240001Y-62260000D01*
X146240001Y-62915141D01*
X146199814Y-62839956D01*
X145935413Y-62744192D01*
X144979605Y-63700000D01*
X145935413Y-64655808D01*
X146199814Y-64560044D01*
X146240001Y-64477436D01*
X146240000Y-67412191D01*
X146069987Y-67157748D01*
X145842252Y-66930013D01*
X145574463Y-66751082D01*
X145276912Y-66627832D01*
X144961033Y-66565000D01*
X144638967Y-66565000D01*
X144323088Y-66627832D01*
X144025537Y-66751082D01*
X143757748Y-66930013D01*
X143530013Y-67157748D01*
X143424941Y-67315000D01*
X139675059Y-67315000D01*
X139569987Y-67157748D01*
X139342252Y-66930013D01*
X139074463Y-66751082D01*
X138776912Y-66627832D01*
X138461033Y-66565000D01*
X138138967Y-66565000D01*
X137953475Y-66601896D01*
X136186992Y-64835413D01*
X137344192Y-64835413D01*
X137439956Y-65099814D01*
X137729571Y-65240704D01*
X138041108Y-65322384D01*
X138362595Y-65341718D01*
X138681675Y-65297961D01*
X138986088Y-65192795D01*
X139160044Y-65099814D01*
X139255808Y-64835413D01*
X143844192Y-64835413D01*
X143939956Y-65099814D01*
X144229571Y-65240704D01*
X144541108Y-65322384D01*
X144862595Y-65341718D01*
X145181675Y-65297961D01*
X145486088Y-65192795D01*
X145660044Y-65099814D01*
X145755808Y-64835413D01*
X144800000Y-63879605D01*
X143844192Y-64835413D01*
X139255808Y-64835413D01*
X138300000Y-63879605D01*
X137344192Y-64835413D01*
X136186992Y-64835413D01*
X135156534Y-63804956D01*
X135128817Y-63771183D01*
X135118353Y-63762595D01*
X136658282Y-63762595D01*
X136702039Y-64081675D01*
X136807205Y-64386088D01*
X136900186Y-64560044D01*
X137164587Y-64655808D01*
X138120395Y-63700000D01*
X138479605Y-63700000D01*
X139435413Y-64655808D01*
X139699814Y-64560044D01*
X139840704Y-64270429D01*
X139922384Y-63958892D01*
X139934189Y-63762595D01*
X143158282Y-63762595D01*
X143202039Y-64081675D01*
X143307205Y-64386088D01*
X143400186Y-64560044D01*
X143664587Y-64655808D01*
X144620395Y-63700000D01*
X143664587Y-62744192D01*
X143400186Y-62839956D01*
X143259296Y-63129571D01*
X143177616Y-63441108D01*
X143158282Y-63762595D01*
X139934189Y-63762595D01*
X139941718Y-63637405D01*
X139897961Y-63318325D01*
X139792795Y-63013912D01*
X139699814Y-62839956D01*
X139435413Y-62744192D01*
X138479605Y-63700000D01*
X138120395Y-63700000D01*
X137164587Y-62744192D01*
X136900186Y-62839956D01*
X136759296Y-63129571D01*
X136677616Y-63441108D01*
X136658282Y-63762595D01*
X135118353Y-63762595D01*
X134994059Y-63660589D01*
X134840313Y-63578411D01*
X134673490Y-63527805D01*
X134543477Y-63515000D01*
X134543469Y-63515000D01*
X134500000Y-63510719D01*
X134456531Y-63515000D01*
X126743465Y-63515000D01*
X126699999Y-63510719D01*
X126656533Y-63515000D01*
X126656523Y-63515000D01*
X126526510Y-63527805D01*
X126359687Y-63578411D01*
X126205941Y-63660589D01*
X126205939Y-63660590D01*
X126205940Y-63660590D01*
X126104953Y-63743468D01*
X126104951Y-63743470D01*
X126071183Y-63771183D01*
X126043470Y-63804951D01*
X117748422Y-72100000D01*
X111194656Y-72100000D01*
X111153475Y-72038368D01*
X110946632Y-71831525D01*
X110772240Y-71715000D01*
X110946632Y-71598475D01*
X111153475Y-71391632D01*
X111315990Y-71148411D01*
X111427932Y-70878158D01*
X111485000Y-70591260D01*
X111485000Y-70298740D01*
X111427932Y-70011842D01*
X111315990Y-69741589D01*
X111153475Y-69498368D01*
X110946632Y-69291525D01*
X110885000Y-69250344D01*
X110885000Y-65583469D01*
X110889281Y-65540000D01*
X110885000Y-65496531D01*
X110885000Y-65496523D01*
X110872195Y-65366510D01*
X110821589Y-65199687D01*
X110739411Y-65045941D01*
X110680766Y-64974482D01*
X110656532Y-64944953D01*
X110656530Y-64944951D01*
X110628817Y-64911183D01*
X110595049Y-64883470D01*
X109948072Y-64236493D01*
X109948072Y-63150000D01*
X109935812Y-63025518D01*
X109899502Y-62905820D01*
X109840537Y-62795506D01*
X109761185Y-62698815D01*
X109664494Y-62619463D01*
X109554180Y-62560498D01*
X109434482Y-62524188D01*
X109310000Y-62511928D01*
X107610000Y-62511928D01*
X107485518Y-62524188D01*
X107365820Y-62560498D01*
X107255506Y-62619463D01*
X107158815Y-62698815D01*
X107079463Y-62795506D01*
X107020498Y-62905820D01*
X106998487Y-62978380D01*
X106866632Y-62846525D01*
X106623411Y-62684010D01*
X106353158Y-62572068D01*
X106066260Y-62515000D01*
X105773740Y-62515000D01*
X105486842Y-62572068D01*
X105216589Y-62684010D01*
X104973368Y-62846525D01*
X104766525Y-63053368D01*
X104650000Y-63227760D01*
X104533475Y-63053368D01*
X104326632Y-62846525D01*
X104083411Y-62684010D01*
X103813158Y-62572068D01*
X103526260Y-62515000D01*
X103233740Y-62515000D01*
X102946842Y-62572068D01*
X102676589Y-62684010D01*
X102433368Y-62846525D01*
X102226525Y-63053368D01*
X102110000Y-63227760D01*
X101993475Y-63053368D01*
X101786632Y-62846525D01*
X101543411Y-62684010D01*
X101273158Y-62572068D01*
X100986260Y-62515000D01*
X100693740Y-62515000D01*
X100406842Y-62572068D01*
X100136589Y-62684010D01*
X99893368Y-62846525D01*
X99686525Y-63053368D01*
X99564805Y-63235534D01*
X99495178Y-63118645D01*
X99300269Y-62902412D01*
X99066920Y-62728359D01*
X98804099Y-62603175D01*
X98656890Y-62558524D01*
X98427000Y-62679845D01*
X98427000Y-63873000D01*
X98447000Y-63873000D01*
X98447000Y-64127000D01*
X98427000Y-64127000D01*
X98427000Y-65320155D01*
X98656890Y-65441476D01*
X98804099Y-65396825D01*
X99066920Y-65271641D01*
X99300269Y-65097588D01*
X99495178Y-64881355D01*
X99564805Y-64764466D01*
X99686525Y-64946632D01*
X99893368Y-65153475D01*
X100136589Y-65315990D01*
X100406842Y-65427932D01*
X100693740Y-65485000D01*
X100986260Y-65485000D01*
X101273158Y-65427932D01*
X101543411Y-65315990D01*
X101786632Y-65153475D01*
X101993475Y-64946632D01*
X102110000Y-64772240D01*
X102226525Y-64946632D01*
X102433368Y-65153475D01*
X102495001Y-65194657D01*
X102495001Y-65336521D01*
X102490719Y-65380000D01*
X102507805Y-65553490D01*
X102558412Y-65720313D01*
X102640590Y-65874059D01*
X102723468Y-65975046D01*
X102723471Y-65975049D01*
X102751184Y-66008817D01*
X102784951Y-66036529D01*
X105743470Y-68995049D01*
X105771183Y-69028817D01*
X105804951Y-69056530D01*
X105804953Y-69056532D01*
X105844858Y-69089281D01*
X105905941Y-69139411D01*
X106059687Y-69221589D01*
X106175903Y-69256843D01*
X106226509Y-69272195D01*
X106241306Y-69273652D01*
X106356523Y-69285000D01*
X106356531Y-69285000D01*
X106400000Y-69289281D01*
X106443469Y-69285000D01*
X106561546Y-69285000D01*
X106609744Y-69317205D01*
X106798102Y-69395226D01*
X106998061Y-69435000D01*
X107201939Y-69435000D01*
X107401898Y-69395226D01*
X107590256Y-69317205D01*
X107759774Y-69203937D01*
X107903937Y-69059774D01*
X108017205Y-68890256D01*
X108095226Y-68701898D01*
X108135000Y-68501939D01*
X108135000Y-68298061D01*
X108095226Y-68098102D01*
X108017205Y-67909744D01*
X107903937Y-67740226D01*
X107759774Y-67596063D01*
X107590256Y-67482795D01*
X107401898Y-67404774D01*
X107201939Y-67365000D01*
X106998061Y-67365000D01*
X106798102Y-67404774D01*
X106697870Y-67446292D01*
X104365843Y-65114264D01*
X104533475Y-64946632D01*
X104650000Y-64772240D01*
X104766525Y-64946632D01*
X104973368Y-65153475D01*
X105216589Y-65315990D01*
X105486842Y-65427932D01*
X105773740Y-65485000D01*
X106066260Y-65485000D01*
X106353158Y-65427932D01*
X106623411Y-65315990D01*
X106866632Y-65153475D01*
X106998487Y-65021620D01*
X107020498Y-65094180D01*
X107079463Y-65204494D01*
X107158815Y-65301185D01*
X107255506Y-65380537D01*
X107365820Y-65439502D01*
X107485518Y-65475812D01*
X107610000Y-65488072D01*
X108696493Y-65488072D01*
X109115001Y-65906580D01*
X109115000Y-69250344D01*
X109053368Y-69291525D01*
X108846525Y-69498368D01*
X108805344Y-69560000D01*
X96911579Y-69560000D01*
X94656534Y-67304956D01*
X94628817Y-67271183D01*
X94494059Y-67160589D01*
X94340313Y-67078411D01*
X94173490Y-67027805D01*
X94043477Y-67015000D01*
X94043469Y-67015000D01*
X94000000Y-67010719D01*
X93956531Y-67015000D01*
X92784625Y-67015000D01*
X92775812Y-66925518D01*
X92739502Y-66805820D01*
X92680537Y-66695506D01*
X92601185Y-66598815D01*
X92504494Y-66519463D01*
X92394180Y-66460498D01*
X92274482Y-66424188D01*
X92150000Y-66411928D01*
X90450000Y-66411928D01*
X90325518Y-66424188D01*
X90205820Y-66460498D01*
X90095506Y-66519463D01*
X89998815Y-66598815D01*
X89919463Y-66695506D01*
X89860498Y-66805820D01*
X89824188Y-66925518D01*
X89811928Y-67050000D01*
X89811928Y-68750000D01*
X89824188Y-68874482D01*
X89860498Y-68994180D01*
X89919463Y-69104494D01*
X89998815Y-69201185D01*
X90095506Y-69280537D01*
X90205820Y-69339502D01*
X90286466Y-69363966D01*
X90202412Y-69439731D01*
X90028359Y-69673080D01*
X89903175Y-69935901D01*
X89858524Y-70083110D01*
X89979845Y-70313000D01*
X91173000Y-70313000D01*
X91173000Y-70293000D01*
X91427000Y-70293000D01*
X91427000Y-70313000D01*
X92620155Y-70313000D01*
X92741476Y-70083110D01*
X92696825Y-69935901D01*
X92571641Y-69673080D01*
X92397588Y-69439731D01*
X92313534Y-69363966D01*
X92394180Y-69339502D01*
X92504494Y-69280537D01*
X92601185Y-69201185D01*
X92680537Y-69104494D01*
X92739502Y-68994180D01*
X92775812Y-68874482D01*
X92784625Y-68785000D01*
X93633422Y-68785000D01*
X95888470Y-71040049D01*
X95916183Y-71073817D01*
X95949951Y-71101530D01*
X95949953Y-71101532D01*
X96050941Y-71184411D01*
X96204686Y-71266589D01*
X96371510Y-71317195D01*
X96501523Y-71330000D01*
X96501531Y-71330000D01*
X96545000Y-71334281D01*
X96588469Y-71330000D01*
X108805344Y-71330000D01*
X108846525Y-71391632D01*
X109053368Y-71598475D01*
X109227760Y-71715000D01*
X109053368Y-71831525D01*
X108846525Y-72038368D01*
X108684010Y-72281589D01*
X108572068Y-72551842D01*
X108515000Y-72838740D01*
X108515000Y-73131260D01*
X108572068Y-73418158D01*
X108684010Y-73688411D01*
X108846525Y-73931632D01*
X109053368Y-74138475D01*
X109227760Y-74255000D01*
X109053368Y-74371525D01*
X108846525Y-74578368D01*
X108805344Y-74640000D01*
X107891579Y-74640000D01*
X105636534Y-72384956D01*
X105608817Y-72351183D01*
X105474059Y-72240589D01*
X105320313Y-72158411D01*
X105153490Y-72107805D01*
X105023477Y-72095000D01*
X105023469Y-72095000D01*
X104980000Y-72090719D01*
X104936531Y-72095000D01*
X92494656Y-72095000D01*
X92453475Y-72033368D01*
X92246632Y-71826525D01*
X92064466Y-71704805D01*
X92181355Y-71635178D01*
X92397588Y-71440269D01*
X92571641Y-71206920D01*
X92696825Y-70944099D01*
X92741476Y-70796890D01*
X92620155Y-70567000D01*
X91427000Y-70567000D01*
X91427000Y-70587000D01*
X91173000Y-70587000D01*
X91173000Y-70567000D01*
X89979845Y-70567000D01*
X89858524Y-70796890D01*
X89903175Y-70944099D01*
X90028359Y-71206920D01*
X90202412Y-71440269D01*
X90418645Y-71635178D01*
X90535534Y-71704805D01*
X90353368Y-71826525D01*
X90146525Y-72033368D01*
X89984010Y-72276589D01*
X89872068Y-72546842D01*
X89815000Y-72833740D01*
X89815000Y-73126260D01*
X89872068Y-73413158D01*
X89984010Y-73683411D01*
X90146525Y-73926632D01*
X90353368Y-74133475D01*
X90527760Y-74250000D01*
X90353368Y-74366525D01*
X90146525Y-74573368D01*
X89984010Y-74816589D01*
X89872068Y-75086842D01*
X89815000Y-75373740D01*
X89815000Y-75666260D01*
X89872068Y-75953158D01*
X89984010Y-76223411D01*
X90146525Y-76466632D01*
X90353368Y-76673475D01*
X90527760Y-76790000D01*
X90353368Y-76906525D01*
X90146525Y-77113368D01*
X89984010Y-77356589D01*
X89872068Y-77626842D01*
X89815000Y-77913740D01*
X89815000Y-78206260D01*
X89872068Y-78493158D01*
X89984010Y-78763411D01*
X90146525Y-79006632D01*
X90353368Y-79213475D01*
X90527760Y-79330000D01*
X90353368Y-79446525D01*
X90146525Y-79653368D01*
X89984010Y-79896589D01*
X89872068Y-80166842D01*
X89815000Y-80453740D01*
X89815000Y-80746260D01*
X89872068Y-81033158D01*
X89984010Y-81303411D01*
X90146525Y-81546632D01*
X90353368Y-81753475D01*
X90596589Y-81915990D01*
X90866842Y-82027932D01*
X91153740Y-82085000D01*
X91446260Y-82085000D01*
X91733158Y-82027932D01*
X92003411Y-81915990D01*
X92246632Y-81753475D01*
X92453475Y-81546632D01*
X92494656Y-81485000D01*
X101333422Y-81485000D01*
X103588470Y-83740049D01*
X103616183Y-83773817D01*
X103649951Y-83801530D01*
X103649953Y-83801532D01*
X103750941Y-83884411D01*
X103904686Y-83966589D01*
X104071510Y-84017195D01*
X104201523Y-84030000D01*
X104201531Y-84030000D01*
X104245000Y-84034281D01*
X104288469Y-84030000D01*
X108805344Y-84030000D01*
X108846525Y-84091632D01*
X109053368Y-84298475D01*
X109227760Y-84415000D01*
X109053368Y-84531525D01*
X108846525Y-84738368D01*
X108684010Y-84981589D01*
X108572068Y-85251842D01*
X108515000Y-85538740D01*
X108515000Y-85831260D01*
X108572068Y-86118158D01*
X108684010Y-86388411D01*
X108846525Y-86631632D01*
X109053368Y-86838475D01*
X109227760Y-86955000D01*
X109053368Y-87071525D01*
X108846525Y-87278368D01*
X108684010Y-87521589D01*
X108572068Y-87791842D01*
X108515000Y-88078740D01*
X108515000Y-88371260D01*
X108572068Y-88658158D01*
X108684010Y-88928411D01*
X108846525Y-89171632D01*
X109053368Y-89378475D01*
X109227760Y-89495000D01*
X109053368Y-89611525D01*
X108846525Y-89818368D01*
X108684010Y-90061589D01*
X108572068Y-90331842D01*
X108515000Y-90618740D01*
X108515000Y-90911260D01*
X108572068Y-91198158D01*
X108684010Y-91468411D01*
X108846525Y-91711632D01*
X109053368Y-91918475D01*
X109227760Y-92035000D01*
X109053368Y-92151525D01*
X108846525Y-92358368D01*
X108684010Y-92601589D01*
X108572068Y-92871842D01*
X108515000Y-93158740D01*
X108515000Y-93451260D01*
X108572068Y-93738158D01*
X108684010Y-94008411D01*
X108846525Y-94251632D01*
X109053368Y-94458475D01*
X109227760Y-94575000D01*
X109053368Y-94691525D01*
X108846525Y-94898368D01*
X108684010Y-95141589D01*
X108572068Y-95411842D01*
X108515000Y-95698740D01*
X108515000Y-95991260D01*
X108572068Y-96278158D01*
X108684010Y-96548411D01*
X108846525Y-96791632D01*
X109053368Y-96998475D01*
X109227760Y-97115000D01*
X109053368Y-97231525D01*
X108846525Y-97438368D01*
X108684010Y-97681589D01*
X108572068Y-97951842D01*
X108515000Y-98238740D01*
X108515000Y-98531260D01*
X108572068Y-98818158D01*
X108644427Y-98992848D01*
X107756534Y-98104956D01*
X107728817Y-98071183D01*
X107594059Y-97960589D01*
X107440313Y-97878411D01*
X107273490Y-97827805D01*
X107143477Y-97815000D01*
X107143469Y-97815000D01*
X107100000Y-97810719D01*
X107056531Y-97815000D01*
X106843366Y-97815000D01*
X106702652Y-97699519D01*
X106766725Y-97656307D01*
X106938078Y-97483474D01*
X107072421Y-97280533D01*
X107164591Y-97055282D01*
X107168462Y-97017609D01*
X107043731Y-96827000D01*
X105827000Y-96827000D01*
X105827000Y-96847000D01*
X105573000Y-96847000D01*
X105573000Y-96827000D01*
X104356269Y-96827000D01*
X104231538Y-97017609D01*
X104235409Y-97055282D01*
X104327579Y-97280533D01*
X104461922Y-97483474D01*
X104633275Y-97656307D01*
X104697348Y-97699519D01*
X104547498Y-97822498D01*
X104393167Y-98010551D01*
X104278489Y-98225099D01*
X104207870Y-98457898D01*
X104184025Y-98700000D01*
X104207870Y-98942102D01*
X104278489Y-99174901D01*
X104393167Y-99389449D01*
X104547498Y-99577502D01*
X104696762Y-99700000D01*
X104547498Y-99822498D01*
X104393167Y-100010551D01*
X104278489Y-100225099D01*
X104207870Y-100457898D01*
X104184025Y-100700000D01*
X104207870Y-100942102D01*
X104278489Y-101174901D01*
X104393167Y-101389449D01*
X104547498Y-101577502D01*
X104696762Y-101700000D01*
X104547498Y-101822498D01*
X104393167Y-102010551D01*
X104278489Y-102225099D01*
X104207870Y-102457898D01*
X104184025Y-102700000D01*
X104207870Y-102942102D01*
X104278489Y-103174901D01*
X104393167Y-103389449D01*
X104547498Y-103577502D01*
X104696762Y-103700000D01*
X104547498Y-103822498D01*
X104393167Y-104010551D01*
X104278489Y-104225099D01*
X104207870Y-104457898D01*
X104184025Y-104700000D01*
X104207870Y-104942102D01*
X104278489Y-105174901D01*
X104393167Y-105389449D01*
X104547498Y-105577502D01*
X104696762Y-105700000D01*
X104547498Y-105822498D01*
X104393167Y-106010551D01*
X104278489Y-106225099D01*
X104207870Y-106457898D01*
X104184025Y-106700000D01*
X104207870Y-106942102D01*
X104278489Y-107174901D01*
X104393167Y-107389449D01*
X104547498Y-107577502D01*
X104696762Y-107700000D01*
X104547498Y-107822498D01*
X104393167Y-108010551D01*
X104278489Y-108225099D01*
X104207870Y-108457898D01*
X104184025Y-108700000D01*
X104207870Y-108942102D01*
X104278489Y-109174901D01*
X104393167Y-109389449D01*
X104547498Y-109577502D01*
X104735551Y-109731833D01*
X104815000Y-109774299D01*
X104815001Y-111556521D01*
X104810719Y-111600000D01*
X104827805Y-111773490D01*
X104878412Y-111940313D01*
X104960590Y-112094059D01*
X105043468Y-112195046D01*
X105043471Y-112195049D01*
X105071184Y-112228817D01*
X105104951Y-112256529D01*
X107068470Y-114220049D01*
X107096183Y-114253817D01*
X107129951Y-114281530D01*
X107129953Y-114281532D01*
X107187075Y-114328411D01*
X107230941Y-114364411D01*
X107384687Y-114446589D01*
X107551510Y-114497195D01*
X107681523Y-114510000D01*
X107681533Y-114510000D01*
X107724999Y-114514281D01*
X107768465Y-114510000D01*
X108805344Y-114510000D01*
X108846525Y-114571632D01*
X109053368Y-114778475D01*
X109227760Y-114895000D01*
X109053368Y-115011525D01*
X108846525Y-115218368D01*
X108684010Y-115461589D01*
X108572068Y-115731842D01*
X108515000Y-116018740D01*
X108515000Y-116311260D01*
X108572068Y-116598158D01*
X108684010Y-116868411D01*
X108846525Y-117111632D01*
X109053368Y-117318475D01*
X109227760Y-117435000D01*
X109053368Y-117551525D01*
X108846525Y-117758368D01*
X108684010Y-118001589D01*
X108572068Y-118271842D01*
X108515000Y-118558740D01*
X108515000Y-118851260D01*
X108572068Y-119138158D01*
X108684010Y-119408411D01*
X108846525Y-119651632D01*
X108978380Y-119783487D01*
X108905820Y-119805498D01*
X108795506Y-119864463D01*
X108698815Y-119943815D01*
X108619463Y-120040506D01*
X108560498Y-120150820D01*
X108524188Y-120270518D01*
X108511928Y-120395000D01*
X108515000Y-120959250D01*
X108673750Y-121118000D01*
X109873000Y-121118000D01*
X109873000Y-121098000D01*
X110127000Y-121098000D01*
X110127000Y-121118000D01*
X111326250Y-121118000D01*
X111485000Y-120959250D01*
X111488072Y-120395000D01*
X111475812Y-120270518D01*
X111439502Y-120150820D01*
X111380537Y-120040506D01*
X111301185Y-119943815D01*
X111204494Y-119864463D01*
X111094180Y-119805498D01*
X111021620Y-119783487D01*
X111153475Y-119651632D01*
X111315990Y-119408411D01*
X111427932Y-119138158D01*
X111485000Y-118851260D01*
X111485000Y-118558740D01*
X111427932Y-118271842D01*
X111315990Y-118001589D01*
X111153475Y-117758368D01*
X110946632Y-117551525D01*
X110772240Y-117435000D01*
X110946632Y-117318475D01*
X111153475Y-117111632D01*
X111315990Y-116868411D01*
X111427932Y-116598158D01*
X111485000Y-116311260D01*
X111485000Y-116018740D01*
X111427932Y-115731842D01*
X111315990Y-115461589D01*
X111153475Y-115218368D01*
X110946632Y-115011525D01*
X110772240Y-114895000D01*
X110946632Y-114778475D01*
X111153475Y-114571632D01*
X111315990Y-114328411D01*
X111427932Y-114058158D01*
X111485000Y-113771260D01*
X111485000Y-113478740D01*
X111427932Y-113191842D01*
X111315990Y-112921589D01*
X111153475Y-112678368D01*
X110946632Y-112471525D01*
X110772240Y-112355000D01*
X110946632Y-112238475D01*
X111153475Y-112031632D01*
X111315990Y-111788411D01*
X111427932Y-111518158D01*
X111485000Y-111231260D01*
X111485000Y-110938740D01*
X111427932Y-110651842D01*
X111315990Y-110381589D01*
X111153475Y-110138368D01*
X110946632Y-109931525D01*
X110772240Y-109815000D01*
X110946632Y-109698475D01*
X111153475Y-109491632D01*
X111315990Y-109248411D01*
X111427932Y-108978158D01*
X111485000Y-108691260D01*
X111485000Y-108398740D01*
X111427932Y-108111842D01*
X111315990Y-107841589D01*
X111153475Y-107598368D01*
X110946632Y-107391525D01*
X110772240Y-107275000D01*
X110946632Y-107158475D01*
X111153475Y-106951632D01*
X111315990Y-106708411D01*
X111427932Y-106438158D01*
X111485000Y-106151260D01*
X111485000Y-105858740D01*
X111427932Y-105571842D01*
X111315990Y-105301589D01*
X111153475Y-105058368D01*
X110946632Y-104851525D01*
X110772240Y-104735000D01*
X110946632Y-104618475D01*
X111153475Y-104411632D01*
X111315990Y-104168411D01*
X111427932Y-103898158D01*
X111485000Y-103611260D01*
X111485000Y-103318740D01*
X111427932Y-103031842D01*
X111315990Y-102761589D01*
X111153475Y-102518368D01*
X110946632Y-102311525D01*
X110772240Y-102195000D01*
X110946632Y-102078475D01*
X111153475Y-101871632D01*
X111315990Y-101628411D01*
X111427932Y-101358158D01*
X111485000Y-101071260D01*
X111485000Y-100778740D01*
X111427932Y-100491842D01*
X111315990Y-100221589D01*
X111153475Y-99978368D01*
X110946632Y-99771525D01*
X110772240Y-99655000D01*
X110946632Y-99538475D01*
X111153475Y-99331632D01*
X111315990Y-99088411D01*
X111427932Y-98818158D01*
X111485000Y-98531260D01*
X111485000Y-98238740D01*
X111427932Y-97951842D01*
X111315990Y-97681589D01*
X111153475Y-97438368D01*
X110946632Y-97231525D01*
X110772240Y-97115000D01*
X110946632Y-96998475D01*
X111153475Y-96791632D01*
X111315990Y-96548411D01*
X111427932Y-96278158D01*
X111485000Y-95991260D01*
X111485000Y-95698740D01*
X111427932Y-95411842D01*
X111315990Y-95141589D01*
X111153475Y-94898368D01*
X110946632Y-94691525D01*
X110772240Y-94575000D01*
X110946632Y-94458475D01*
X111153475Y-94251632D01*
X111315990Y-94008411D01*
X111427932Y-93738158D01*
X111485000Y-93451260D01*
X111485000Y-93158740D01*
X111427932Y-92871842D01*
X111315990Y-92601589D01*
X111153475Y-92358368D01*
X110946632Y-92151525D01*
X110772240Y-92035000D01*
X110946632Y-91918475D01*
X111153475Y-91711632D01*
X111315990Y-91468411D01*
X111427932Y-91198158D01*
X111485000Y-90911260D01*
X111485000Y-90618740D01*
X111427932Y-90331842D01*
X111315990Y-90061589D01*
X111153475Y-89818368D01*
X110946632Y-89611525D01*
X110772240Y-89495000D01*
X110946632Y-89378475D01*
X111153475Y-89171632D01*
X111315990Y-88928411D01*
X111427932Y-88658158D01*
X111485000Y-88371260D01*
X111485000Y-88078740D01*
X111427932Y-87791842D01*
X111315990Y-87521589D01*
X111153475Y-87278368D01*
X110946632Y-87071525D01*
X110772240Y-86955000D01*
X110946632Y-86838475D01*
X111153475Y-86631632D01*
X111315990Y-86388411D01*
X111427932Y-86118158D01*
X111485000Y-85831260D01*
X111485000Y-85538740D01*
X111427932Y-85251842D01*
X111315990Y-84981589D01*
X111153475Y-84738368D01*
X110946632Y-84531525D01*
X110772240Y-84415000D01*
X110946632Y-84298475D01*
X111153475Y-84091632D01*
X111315990Y-83848411D01*
X111427932Y-83578158D01*
X111485000Y-83291260D01*
X111485000Y-82998740D01*
X111427932Y-82711842D01*
X111315990Y-82441589D01*
X111153475Y-82198368D01*
X110946632Y-81991525D01*
X110772240Y-81875000D01*
X110946632Y-81758475D01*
X111153475Y-81551632D01*
X111315990Y-81308411D01*
X111427932Y-81038158D01*
X111485000Y-80751260D01*
X111485000Y-80458740D01*
X111427932Y-80171842D01*
X111315990Y-79901589D01*
X111153475Y-79658368D01*
X110946632Y-79451525D01*
X110772240Y-79335000D01*
X110946632Y-79218475D01*
X111153475Y-79011632D01*
X111315990Y-78768411D01*
X111427932Y-78498158D01*
X111485000Y-78211260D01*
X111485000Y-77918740D01*
X111427932Y-77631842D01*
X111315990Y-77361589D01*
X111153475Y-77118368D01*
X110946632Y-76911525D01*
X110772240Y-76795000D01*
X110946632Y-76678475D01*
X111153475Y-76471632D01*
X111315990Y-76228411D01*
X111427932Y-75958158D01*
X111485000Y-75671260D01*
X111485000Y-75378740D01*
X111427932Y-75091842D01*
X111315990Y-74821589D01*
X111153475Y-74578368D01*
X110946632Y-74371525D01*
X110772240Y-74255000D01*
X110946632Y-74138475D01*
X111153475Y-73931632D01*
X111194656Y-73870000D01*
X118071531Y-73870000D01*
X118115000Y-73874281D01*
X118158469Y-73870000D01*
X118158477Y-73870000D01*
X118288490Y-73857195D01*
X118455313Y-73806589D01*
X118609059Y-73724411D01*
X118743817Y-73613817D01*
X118771534Y-73580044D01*
X121065000Y-71286578D01*
X121065000Y-71401939D01*
X121104774Y-71601898D01*
X121182795Y-71790256D01*
X121296063Y-71959774D01*
X121440226Y-72103937D01*
X121609744Y-72217205D01*
X121798102Y-72295226D01*
X121998061Y-72335000D01*
X122201939Y-72335000D01*
X122401898Y-72295226D01*
X122590256Y-72217205D01*
X122638454Y-72185000D01*
X123233422Y-72185000D01*
X132248470Y-81200049D01*
X132276183Y-81233817D01*
X132309951Y-81261530D01*
X132309953Y-81261532D01*
X132360983Y-81303411D01*
X132410941Y-81344411D01*
X132564687Y-81426589D01*
X132731510Y-81477195D01*
X132861523Y-81490000D01*
X132861533Y-81490000D01*
X132904999Y-81494281D01*
X132948465Y-81490000D01*
X133805344Y-81490000D01*
X133846525Y-81551632D01*
X134053368Y-81758475D01*
X134227760Y-81875000D01*
X134053368Y-81991525D01*
X133846525Y-82198368D01*
X133684010Y-82441589D01*
X133572068Y-82711842D01*
X133515000Y-82998740D01*
X133515000Y-83291260D01*
X133572068Y-83578158D01*
X133684010Y-83848411D01*
X133846525Y-84091632D01*
X134053368Y-84298475D01*
X134227760Y-84415000D01*
X134053368Y-84531525D01*
X133846525Y-84738368D01*
X133684010Y-84981589D01*
X133572068Y-85251842D01*
X133515000Y-85538740D01*
X133515000Y-85831260D01*
X133572068Y-86118158D01*
X133684010Y-86388411D01*
X133846525Y-86631632D01*
X134053368Y-86838475D01*
X134227760Y-86955000D01*
X134053368Y-87071525D01*
X133846525Y-87278368D01*
X133684010Y-87521589D01*
X133572068Y-87791842D01*
X133515000Y-88078740D01*
X133515000Y-88371260D01*
X133572068Y-88658158D01*
X133684010Y-88928411D01*
X133846525Y-89171632D01*
X134053368Y-89378475D01*
X134227760Y-89495000D01*
X134053368Y-89611525D01*
X133846525Y-89818368D01*
X133684010Y-90061589D01*
X133572068Y-90331842D01*
X133515000Y-90618740D01*
X133515000Y-90911260D01*
X133572068Y-91198158D01*
X133684010Y-91468411D01*
X133846525Y-91711632D01*
X134053368Y-91918475D01*
X134227760Y-92035000D01*
X134053368Y-92151525D01*
X133846525Y-92358368D01*
X133684010Y-92601589D01*
X133572068Y-92871842D01*
X133515000Y-93158740D01*
X133515000Y-93451260D01*
X133572068Y-93738158D01*
X133684010Y-94008411D01*
X133846525Y-94251632D01*
X134053368Y-94458475D01*
X134227760Y-94575000D01*
X134053368Y-94691525D01*
X133846525Y-94898368D01*
X133684010Y-95141589D01*
X133572068Y-95411842D01*
X133515000Y-95698740D01*
X133515000Y-95991260D01*
X133572068Y-96278158D01*
X133684010Y-96548411D01*
X133846525Y-96791632D01*
X134053368Y-96998475D01*
X134227760Y-97115000D01*
X134053368Y-97231525D01*
X133846525Y-97438368D01*
X133684010Y-97681589D01*
X133572068Y-97951842D01*
X133515000Y-98238740D01*
X133515000Y-98531260D01*
X133572068Y-98818158D01*
X133684010Y-99088411D01*
X133846525Y-99331632D01*
X134053368Y-99538475D01*
X134227760Y-99655000D01*
X134053368Y-99771525D01*
X133846525Y-99978368D01*
X133684010Y-100221589D01*
X133572068Y-100491842D01*
X133515000Y-100778740D01*
X133515000Y-101071260D01*
X133572068Y-101358158D01*
X133684010Y-101628411D01*
X133846525Y-101871632D01*
X134053368Y-102078475D01*
X134227760Y-102195000D01*
X134053368Y-102311525D01*
X133846525Y-102518368D01*
X133684010Y-102761589D01*
X133572068Y-103031842D01*
X133515000Y-103318740D01*
X133515000Y-103611260D01*
X133572068Y-103898158D01*
X133684010Y-104168411D01*
X133846525Y-104411632D01*
X134053368Y-104618475D01*
X134227760Y-104735000D01*
X134053368Y-104851525D01*
X133846525Y-105058368D01*
X133684010Y-105301589D01*
X133572068Y-105571842D01*
X133515000Y-105858740D01*
X133515000Y-106151260D01*
X133572068Y-106438158D01*
X133684010Y-106708411D01*
X133846525Y-106951632D01*
X134053368Y-107158475D01*
X134227760Y-107275000D01*
X134053368Y-107391525D01*
X133846525Y-107598368D01*
X133684010Y-107841589D01*
X133572068Y-108111842D01*
X133515000Y-108398740D01*
X133515000Y-108691260D01*
X133572068Y-108978158D01*
X133684010Y-109248411D01*
X133846525Y-109491632D01*
X134053368Y-109698475D01*
X134227760Y-109815000D01*
X134053368Y-109931525D01*
X133846525Y-110138368D01*
X133684010Y-110381589D01*
X133572068Y-110651842D01*
X133515000Y-110938740D01*
X133515000Y-111231260D01*
X133572068Y-111518158D01*
X133684010Y-111788411D01*
X133846525Y-112031632D01*
X134053368Y-112238475D01*
X134227760Y-112355000D01*
X134053368Y-112471525D01*
X133846525Y-112678368D01*
X133684010Y-112921589D01*
X133572068Y-113191842D01*
X133515000Y-113478740D01*
X133515000Y-113771260D01*
X133572068Y-114058158D01*
X133684010Y-114328411D01*
X133846525Y-114571632D01*
X134053368Y-114778475D01*
X134227760Y-114895000D01*
X134053368Y-115011525D01*
X133846525Y-115218368D01*
X133684010Y-115461589D01*
X133572068Y-115731842D01*
X133515000Y-116018740D01*
X133515000Y-116311260D01*
X133572068Y-116598158D01*
X133684010Y-116868411D01*
X133846525Y-117111632D01*
X134053368Y-117318475D01*
X134227760Y-117435000D01*
X134053368Y-117551525D01*
X133846525Y-117758368D01*
X133684010Y-118001589D01*
X133572068Y-118271842D01*
X133515000Y-118558740D01*
X133515000Y-118851260D01*
X133572068Y-119138158D01*
X133684010Y-119408411D01*
X133846525Y-119651632D01*
X134053368Y-119858475D01*
X134227760Y-119975000D01*
X134053368Y-120091525D01*
X133846525Y-120298368D01*
X133684010Y-120541589D01*
X133572068Y-120811842D01*
X133515000Y-121098740D01*
X133515000Y-121391260D01*
X133572068Y-121678158D01*
X133684010Y-121948411D01*
X133846525Y-122191632D01*
X134027893Y-122373000D01*
X111421425Y-122373000D01*
X111439502Y-122339180D01*
X111475812Y-122219482D01*
X111488072Y-122095000D01*
X111485000Y-121530750D01*
X111326250Y-121372000D01*
X110127000Y-121372000D01*
X110127000Y-121392000D01*
X109873000Y-121392000D01*
X109873000Y-121372000D01*
X108673750Y-121372000D01*
X108515000Y-121530750D01*
X108511928Y-122095000D01*
X108524188Y-122219482D01*
X108560498Y-122339180D01*
X108578576Y-122373000D01*
X87826790Y-122373000D01*
X87824896Y-121228397D01*
X88851208Y-121228397D01*
X88928843Y-121477472D01*
X89192883Y-121603371D01*
X89476411Y-121675339D01*
X89768531Y-121690611D01*
X90058019Y-121648599D01*
X90333747Y-121550919D01*
X90471157Y-121477472D01*
X90548792Y-121228397D01*
X89700000Y-120379605D01*
X88851208Y-121228397D01*
X87824896Y-121228397D01*
X87821732Y-119317713D01*
X87943919Y-119368325D01*
X88279117Y-119435000D01*
X88419592Y-119435000D01*
X88296629Y-119692883D01*
X88224661Y-119976411D01*
X88209389Y-120268531D01*
X88251401Y-120558019D01*
X88349081Y-120833747D01*
X88422528Y-120971157D01*
X88671603Y-121048792D01*
X89520395Y-120200000D01*
X89879605Y-120200000D01*
X90728397Y-121048792D01*
X90977472Y-120971157D01*
X91103371Y-120707117D01*
X91175339Y-120423589D01*
X91190611Y-120131469D01*
X91179331Y-120053740D01*
X92715000Y-120053740D01*
X92715000Y-120346260D01*
X92772068Y-120633158D01*
X92884010Y-120903411D01*
X93046525Y-121146632D01*
X93253368Y-121353475D01*
X93496589Y-121515990D01*
X93766842Y-121627932D01*
X94053740Y-121685000D01*
X94346260Y-121685000D01*
X94633158Y-121627932D01*
X94903411Y-121515990D01*
X95146632Y-121353475D01*
X95353475Y-121146632D01*
X95515990Y-120903411D01*
X95627932Y-120633158D01*
X95685000Y-120346260D01*
X95685000Y-120053740D01*
X95627932Y-119766842D01*
X95515990Y-119496589D01*
X95474838Y-119435000D01*
X95620883Y-119435000D01*
X95956081Y-119368325D01*
X96271831Y-119237537D01*
X96555998Y-119047663D01*
X96797663Y-118805998D01*
X96987537Y-118521831D01*
X97118325Y-118206081D01*
X97185000Y-117870883D01*
X97185000Y-117529117D01*
X97118325Y-117193919D01*
X96987537Y-116878169D01*
X96797663Y-116594002D01*
X96555998Y-116352337D01*
X96271831Y-116162463D01*
X95956081Y-116031675D01*
X95620883Y-115965000D01*
X95279117Y-115965000D01*
X94943919Y-116031675D01*
X94628169Y-116162463D01*
X94344002Y-116352337D01*
X94102337Y-116594002D01*
X93912463Y-116878169D01*
X93781675Y-117193919D01*
X93715000Y-117529117D01*
X93715000Y-117870883D01*
X93781675Y-118206081D01*
X93912463Y-118521831D01*
X94042966Y-118717143D01*
X93766842Y-118772068D01*
X93496589Y-118884010D01*
X93253368Y-119046525D01*
X93046525Y-119253368D01*
X92884010Y-119496589D01*
X92772068Y-119766842D01*
X92715000Y-120053740D01*
X91179331Y-120053740D01*
X91148599Y-119841981D01*
X91050919Y-119566253D01*
X90977472Y-119428843D01*
X90728397Y-119351208D01*
X89879605Y-120200000D01*
X89520395Y-120200000D01*
X89506253Y-120185858D01*
X89685858Y-120006253D01*
X89700000Y-120020395D01*
X90548792Y-119171603D01*
X90471157Y-118922528D01*
X90207117Y-118796629D01*
X89923589Y-118724661D01*
X89854427Y-118721045D01*
X89987537Y-118521831D01*
X90118325Y-118206081D01*
X90185000Y-117870883D01*
X90185000Y-117529117D01*
X90118325Y-117193919D01*
X89987537Y-116878169D01*
X89797663Y-116594002D01*
X89555998Y-116352337D01*
X89271831Y-116162463D01*
X88956081Y-116031675D01*
X88620883Y-115965000D01*
X88279117Y-115965000D01*
X87943919Y-116031675D01*
X87816379Y-116084504D01*
X87813723Y-114479872D01*
X97465000Y-114479872D01*
X97465000Y-114920128D01*
X97550890Y-115351925D01*
X97719369Y-115758669D01*
X97963962Y-116124729D01*
X98275271Y-116436038D01*
X98641331Y-116680631D01*
X99048075Y-116849110D01*
X99479872Y-116935000D01*
X99920128Y-116935000D01*
X100351925Y-116849110D01*
X100758669Y-116680631D01*
X101124729Y-116436038D01*
X101436038Y-116124729D01*
X101680631Y-115758669D01*
X101849110Y-115351925D01*
X101935000Y-114920128D01*
X101935000Y-114479872D01*
X101849110Y-114048075D01*
X101680631Y-113641331D01*
X101436038Y-113275271D01*
X101124729Y-112963962D01*
X100758669Y-112719369D01*
X100351925Y-112550890D01*
X99920128Y-112465000D01*
X99479872Y-112465000D01*
X99048075Y-112550890D01*
X98641331Y-112719369D01*
X98275271Y-112963962D01*
X97963962Y-113275271D01*
X97719369Y-113641331D01*
X97550890Y-114048075D01*
X97465000Y-114479872D01*
X87813723Y-114479872D01*
X87780396Y-94349999D01*
X104186928Y-94349999D01*
X104186928Y-95050001D01*
X104203992Y-95223255D01*
X104254528Y-95389851D01*
X104336595Y-95543387D01*
X104447038Y-95677962D01*
X104581613Y-95788405D01*
X104586406Y-95790967D01*
X104461922Y-95916526D01*
X104327579Y-96119467D01*
X104235409Y-96344718D01*
X104231538Y-96382391D01*
X104356269Y-96573000D01*
X105573000Y-96573000D01*
X105573000Y-96553000D01*
X105827000Y-96553000D01*
X105827000Y-96573000D01*
X107043731Y-96573000D01*
X107168462Y-96382391D01*
X107164591Y-96344718D01*
X107072421Y-96119467D01*
X106938078Y-95916526D01*
X106813594Y-95790967D01*
X106818387Y-95788405D01*
X106952962Y-95677962D01*
X107063405Y-95543387D01*
X107145472Y-95389851D01*
X107196008Y-95223255D01*
X107213072Y-95050001D01*
X107213072Y-94349999D01*
X107196008Y-94176745D01*
X107145472Y-94010149D01*
X107063405Y-93856613D01*
X106952962Y-93722038D01*
X106818387Y-93611595D01*
X106664851Y-93529528D01*
X106498255Y-93478992D01*
X106325001Y-93461928D01*
X105074999Y-93461928D01*
X104901745Y-93478992D01*
X104735149Y-93529528D01*
X104581613Y-93611595D01*
X104447038Y-93722038D01*
X104336595Y-93856613D01*
X104254528Y-94010149D01*
X104203992Y-94176745D01*
X104186928Y-94349999D01*
X87780396Y-94349999D01*
X87767365Y-86479872D01*
X97465000Y-86479872D01*
X97465000Y-86920128D01*
X97550890Y-87351925D01*
X97719369Y-87758669D01*
X97963962Y-88124729D01*
X98275271Y-88436038D01*
X98641331Y-88680631D01*
X99048075Y-88849110D01*
X99479872Y-88935000D01*
X99920128Y-88935000D01*
X100351925Y-88849110D01*
X100758669Y-88680631D01*
X101124729Y-88436038D01*
X101436038Y-88124729D01*
X101680631Y-87758669D01*
X101849110Y-87351925D01*
X101935000Y-86920128D01*
X101935000Y-86479872D01*
X101849110Y-86048075D01*
X101680631Y-85641331D01*
X101436038Y-85275271D01*
X101124729Y-84963962D01*
X100758669Y-84719369D01*
X100351925Y-84550890D01*
X99920128Y-84465000D01*
X99479872Y-84465000D01*
X99048075Y-84550890D01*
X98641331Y-84719369D01*
X98275271Y-84963962D01*
X97963962Y-85275271D01*
X97719369Y-85641331D01*
X97550890Y-86048075D01*
X97465000Y-86479872D01*
X87767365Y-86479872D01*
X87760000Y-82031650D01*
X87760000Y-63853740D01*
X94275000Y-63853740D01*
X94275000Y-64146260D01*
X94332068Y-64433158D01*
X94444010Y-64703411D01*
X94606525Y-64946632D01*
X94813368Y-65153475D01*
X95056589Y-65315990D01*
X95326842Y-65427932D01*
X95613740Y-65485000D01*
X95906260Y-65485000D01*
X96193158Y-65427932D01*
X96463411Y-65315990D01*
X96706632Y-65153475D01*
X96913475Y-64946632D01*
X97035195Y-64764466D01*
X97104822Y-64881355D01*
X97299731Y-65097588D01*
X97533080Y-65271641D01*
X97795901Y-65396825D01*
X97943110Y-65441476D01*
X98173000Y-65320155D01*
X98173000Y-64127000D01*
X98153000Y-64127000D01*
X98153000Y-63873000D01*
X98173000Y-63873000D01*
X98173000Y-62679845D01*
X97943110Y-62558524D01*
X97795901Y-62603175D01*
X97533080Y-62728359D01*
X97299731Y-62902412D01*
X97104822Y-63118645D01*
X97035195Y-63235534D01*
X96913475Y-63053368D01*
X96706632Y-62846525D01*
X96463411Y-62684010D01*
X96193158Y-62572068D01*
X95906260Y-62515000D01*
X95613740Y-62515000D01*
X95326842Y-62572068D01*
X95056589Y-62684010D01*
X94813368Y-62846525D01*
X94606525Y-63053368D01*
X94444010Y-63296589D01*
X94332068Y-63566842D01*
X94275000Y-63853740D01*
X87760000Y-63853740D01*
X87760000Y-62260000D01*
X137515139Y-62260000D01*
X137439956Y-62300186D01*
G37*
%TD.AperFunction*%
D21*
X136701896Y-67853475D02*
X136665000Y-68038967D01*
X136665000Y-68361033D01*
X136727832Y-68676912D01*
X136851082Y-68974463D01*
X137030013Y-69242252D01*
X137257748Y-69469987D01*
X137525537Y-69648918D01*
X137823088Y-69772168D01*
X138138967Y-69835000D01*
X138461033Y-69835000D01*
X138776912Y-69772168D01*
X139074463Y-69648918D01*
X139342252Y-69469987D01*
X139569987Y-69242252D01*
X139675059Y-69085000D01*
X143424941Y-69085000D01*
X143530013Y-69242252D01*
X143757748Y-69469987D01*
X143911918Y-69573000D01*
X142300000Y-69573000D01*
X142275224Y-69575440D01*
X142251399Y-69582667D01*
X142229443Y-69594403D01*
X142210197Y-69610197D01*
X142194403Y-69629443D01*
X142182667Y-69651399D01*
X142175440Y-69675224D01*
X142173000Y-69700000D01*
X142173000Y-74700000D01*
X142175440Y-74724776D01*
X142182667Y-74748601D01*
X142194403Y-74770557D01*
X142210197Y-74789803D01*
X142229443Y-74805597D01*
X142251399Y-74817333D01*
X142275224Y-74824560D01*
X142300000Y-74827000D01*
X146240001Y-74827000D01*
X146240000Y-103640000D01*
X142132419Y-103640000D01*
X142100000Y-103636807D01*
X142067581Y-103640000D01*
X141970617Y-103649550D01*
X141893314Y-103673000D01*
X141600000Y-103673000D01*
X141575224Y-103675440D01*
X141551399Y-103682667D01*
X141529443Y-103694403D01*
X141510197Y-103710197D01*
X141494403Y-103729443D01*
X141482667Y-103751399D01*
X141475440Y-103775224D01*
X141473000Y-103800000D01*
X141473000Y-104093314D01*
X141449550Y-104170617D01*
X141436807Y-104300000D01*
X141440001Y-104332429D01*
X141440000Y-108767580D01*
X141436807Y-108800000D01*
X141449550Y-108929383D01*
X141473000Y-109006686D01*
X141473000Y-109300000D01*
X141475440Y-109324776D01*
X141482667Y-109348601D01*
X141494403Y-109370557D01*
X141510197Y-109389803D01*
X141529443Y-109405597D01*
X141551399Y-109417333D01*
X141575224Y-109424560D01*
X141600000Y-109427000D01*
X141893314Y-109427000D01*
X141970617Y-109450450D01*
X142100000Y-109463193D01*
X142132419Y-109460000D01*
X146240001Y-109460000D01*
X146240000Y-122373000D01*
X135972107Y-122373000D01*
X136153475Y-122191632D01*
X136315990Y-121948411D01*
X136427932Y-121678158D01*
X136485000Y-121391260D01*
X136485000Y-121098740D01*
X136427932Y-120811842D01*
X136315990Y-120541589D01*
X136153475Y-120298368D01*
X135946632Y-120091525D01*
X135772240Y-119975000D01*
X135946632Y-119858475D01*
X136153475Y-119651632D01*
X136315990Y-119408411D01*
X136427932Y-119138158D01*
X136485000Y-118851260D01*
X136485000Y-118558740D01*
X136427932Y-118271842D01*
X136315990Y-118001589D01*
X136153475Y-117758368D01*
X135946632Y-117551525D01*
X135772240Y-117435000D01*
X135946632Y-117318475D01*
X136153475Y-117111632D01*
X136315990Y-116868411D01*
X136427932Y-116598158D01*
X136485000Y-116311260D01*
X136485000Y-116018740D01*
X136427932Y-115731842D01*
X136315990Y-115461589D01*
X136153475Y-115218368D01*
X135946632Y-115011525D01*
X135772240Y-114895000D01*
X135946632Y-114778475D01*
X136153475Y-114571632D01*
X136214787Y-114479872D01*
X140465000Y-114479872D01*
X140465000Y-114920128D01*
X140550890Y-115351925D01*
X140719369Y-115758669D01*
X140963962Y-116124729D01*
X141275271Y-116436038D01*
X141641331Y-116680631D01*
X142048075Y-116849110D01*
X142479872Y-116935000D01*
X142920128Y-116935000D01*
X143351925Y-116849110D01*
X143758669Y-116680631D01*
X144124729Y-116436038D01*
X144436038Y-116124729D01*
X144680631Y-115758669D01*
X144849110Y-115351925D01*
X144935000Y-114920128D01*
X144935000Y-114479872D01*
X144849110Y-114048075D01*
X144680631Y-113641331D01*
X144436038Y-113275271D01*
X144124729Y-112963962D01*
X143758669Y-112719369D01*
X143351925Y-112550890D01*
X142920128Y-112465000D01*
X142479872Y-112465000D01*
X142048075Y-112550890D01*
X141641331Y-112719369D01*
X141275271Y-112963962D01*
X140963962Y-113275271D01*
X140719369Y-113641331D01*
X140550890Y-114048075D01*
X140465000Y-114479872D01*
X136214787Y-114479872D01*
X136315990Y-114328411D01*
X136427932Y-114058158D01*
X136485000Y-113771260D01*
X136485000Y-113478740D01*
X136427932Y-113191842D01*
X136315990Y-112921589D01*
X136153475Y-112678368D01*
X135946632Y-112471525D01*
X135772240Y-112355000D01*
X135946632Y-112238475D01*
X136153475Y-112031632D01*
X136315990Y-111788411D01*
X136427932Y-111518158D01*
X136485000Y-111231260D01*
X136485000Y-110938740D01*
X136427932Y-110651842D01*
X136315990Y-110381589D01*
X136153475Y-110138368D01*
X135946632Y-109931525D01*
X135772240Y-109815000D01*
X135946632Y-109698475D01*
X136153475Y-109491632D01*
X136315990Y-109248411D01*
X136427932Y-108978158D01*
X136485000Y-108691260D01*
X136485000Y-108398740D01*
X136427932Y-108111842D01*
X136315990Y-107841589D01*
X136153475Y-107598368D01*
X135946632Y-107391525D01*
X135772240Y-107275000D01*
X135946632Y-107158475D01*
X136153475Y-106951632D01*
X136315990Y-106708411D01*
X136427932Y-106438158D01*
X136485000Y-106151260D01*
X136485000Y-105858740D01*
X136427932Y-105571842D01*
X136315990Y-105301589D01*
X136153475Y-105058368D01*
X135946632Y-104851525D01*
X135772240Y-104735000D01*
X135946632Y-104618475D01*
X136153475Y-104411632D01*
X136315990Y-104168411D01*
X136427932Y-103898158D01*
X136485000Y-103611260D01*
X136485000Y-103318740D01*
X136427932Y-103031842D01*
X136315990Y-102761589D01*
X136153475Y-102518368D01*
X135946632Y-102311525D01*
X135772240Y-102195000D01*
X135946632Y-102078475D01*
X136153475Y-101871632D01*
X136315990Y-101628411D01*
X136427932Y-101358158D01*
X136485000Y-101071260D01*
X136485000Y-100778740D01*
X136427932Y-100491842D01*
X136315990Y-100221589D01*
X136153475Y-99978368D01*
X135946632Y-99771525D01*
X135772240Y-99655000D01*
X135946632Y-99538475D01*
X136153475Y-99331632D01*
X136315990Y-99088411D01*
X136427932Y-98818158D01*
X136485000Y-98531260D01*
X136485000Y-98238740D01*
X136427932Y-97951842D01*
X136315990Y-97681589D01*
X136153475Y-97438368D01*
X135946632Y-97231525D01*
X135772240Y-97115000D01*
X135946632Y-96998475D01*
X136153475Y-96791632D01*
X136315990Y-96548411D01*
X136427932Y-96278158D01*
X136485000Y-95991260D01*
X136485000Y-95698740D01*
X136427932Y-95411842D01*
X136315990Y-95141589D01*
X136153475Y-94898368D01*
X135946632Y-94691525D01*
X135772240Y-94575000D01*
X135946632Y-94458475D01*
X136153475Y-94251632D01*
X136315990Y-94008411D01*
X136427932Y-93738158D01*
X136485000Y-93451260D01*
X136485000Y-93158740D01*
X136427932Y-92871842D01*
X136315990Y-92601589D01*
X136153475Y-92358368D01*
X135946632Y-92151525D01*
X135772240Y-92035000D01*
X135946632Y-91918475D01*
X136153475Y-91711632D01*
X136315990Y-91468411D01*
X136427932Y-91198158D01*
X136485000Y-90911260D01*
X136485000Y-90618740D01*
X136427932Y-90331842D01*
X136315990Y-90061589D01*
X136153475Y-89818368D01*
X135946632Y-89611525D01*
X135772240Y-89495000D01*
X135946632Y-89378475D01*
X136153475Y-89171632D01*
X136315990Y-88928411D01*
X136427932Y-88658158D01*
X136485000Y-88371260D01*
X136485000Y-88078740D01*
X136427932Y-87791842D01*
X136315990Y-87521589D01*
X136153475Y-87278368D01*
X135946632Y-87071525D01*
X135772240Y-86955000D01*
X135946632Y-86838475D01*
X136153475Y-86631632D01*
X136254877Y-86479872D01*
X140465000Y-86479872D01*
X140465000Y-86920128D01*
X140550890Y-87351925D01*
X140719369Y-87758669D01*
X140963962Y-88124729D01*
X141275271Y-88436038D01*
X141641331Y-88680631D01*
X142048075Y-88849110D01*
X142479872Y-88935000D01*
X142920128Y-88935000D01*
X143351925Y-88849110D01*
X143758669Y-88680631D01*
X144124729Y-88436038D01*
X144436038Y-88124729D01*
X144680631Y-87758669D01*
X144849110Y-87351925D01*
X144935000Y-86920128D01*
X144935000Y-86479872D01*
X144849110Y-86048075D01*
X144680631Y-85641331D01*
X144436038Y-85275271D01*
X144124729Y-84963962D01*
X143758669Y-84719369D01*
X143351925Y-84550890D01*
X142920128Y-84465000D01*
X142479872Y-84465000D01*
X142048075Y-84550890D01*
X141641331Y-84719369D01*
X141275271Y-84963962D01*
X140963962Y-85275271D01*
X140719369Y-85641331D01*
X140550890Y-86048075D01*
X140465000Y-86479872D01*
X136254877Y-86479872D01*
X136315990Y-86388411D01*
X136427932Y-86118158D01*
X136485000Y-85831260D01*
X136485000Y-85538740D01*
X136427932Y-85251842D01*
X136315990Y-84981589D01*
X136153475Y-84738368D01*
X135946632Y-84531525D01*
X135772240Y-84415000D01*
X135946632Y-84298475D01*
X136153475Y-84091632D01*
X136315990Y-83848411D01*
X136427932Y-83578158D01*
X136485000Y-83291260D01*
X136485000Y-82998740D01*
X136427932Y-82711842D01*
X136315990Y-82441589D01*
X136153475Y-82198368D01*
X135946632Y-81991525D01*
X135772240Y-81875000D01*
X135946632Y-81758475D01*
X136153475Y-81551632D01*
X136315990Y-81308411D01*
X136427932Y-81038158D01*
X136485000Y-80751260D01*
X136485000Y-80458740D01*
X136427932Y-80171842D01*
X136315990Y-79901589D01*
X136153475Y-79658368D01*
X135946632Y-79451525D01*
X135772240Y-79335000D01*
X135946632Y-79218475D01*
X136153475Y-79011632D01*
X136315990Y-78768411D01*
X136427932Y-78498158D01*
X136485000Y-78211260D01*
X136485000Y-77918740D01*
X136427932Y-77631842D01*
X136315990Y-77361589D01*
X136153475Y-77118368D01*
X135946632Y-76911525D01*
X135772240Y-76795000D01*
X135946632Y-76678475D01*
X136153475Y-76471632D01*
X136315990Y-76228411D01*
X136427932Y-75958158D01*
X136485000Y-75671260D01*
X136485000Y-75378740D01*
X136427932Y-75091842D01*
X136315990Y-74821589D01*
X136153475Y-74578368D01*
X135946632Y-74371525D01*
X135772240Y-74255000D01*
X135946632Y-74138475D01*
X136153475Y-73931632D01*
X136315990Y-73688411D01*
X136427932Y-73418158D01*
X136485000Y-73131260D01*
X136485000Y-72838740D01*
X136427932Y-72551842D01*
X136315990Y-72281589D01*
X136153475Y-72038368D01*
X136021620Y-71906513D01*
X136094180Y-71884502D01*
X136204494Y-71825537D01*
X136301185Y-71746185D01*
X136380537Y-71649494D01*
X136439502Y-71539180D01*
X136475812Y-71419482D01*
X136488072Y-71295000D01*
X136485000Y-70730750D01*
X136326250Y-70572000D01*
X135127000Y-70572000D01*
X135127000Y-70592000D01*
X134873000Y-70592000D01*
X134873000Y-70572000D01*
X133673750Y-70572000D01*
X133515000Y-70730750D01*
X133511928Y-71295000D01*
X133524188Y-71419482D01*
X133560498Y-71539180D01*
X133619463Y-71649494D01*
X133698815Y-71746185D01*
X133795506Y-71825537D01*
X133905820Y-71884502D01*
X133978380Y-71906513D01*
X133846525Y-72038368D01*
X133684010Y-72281589D01*
X133572068Y-72551842D01*
X133515000Y-72838740D01*
X133515000Y-73131260D01*
X133572068Y-73418158D01*
X133684010Y-73688411D01*
X133846525Y-73931632D01*
X134053368Y-74138475D01*
X134227760Y-74255000D01*
X134053368Y-74371525D01*
X133846525Y-74578368D01*
X133684010Y-74821589D01*
X133572068Y-75091842D01*
X133515000Y-75378740D01*
X133515000Y-75671260D01*
X133572068Y-75958158D01*
X133684010Y-76228411D01*
X133846525Y-76471632D01*
X134053368Y-76678475D01*
X134227760Y-76795000D01*
X134053368Y-76911525D01*
X133846525Y-77118368D01*
X133684010Y-77361589D01*
X133572068Y-77631842D01*
X133515000Y-77918740D01*
X133515000Y-78211260D01*
X133572068Y-78498158D01*
X133684010Y-78768411D01*
X133846525Y-79011632D01*
X134053368Y-79218475D01*
X134227760Y-79335000D01*
X134053368Y-79451525D01*
X133846525Y-79658368D01*
X133805344Y-79720000D01*
X133271579Y-79720000D01*
X124256534Y-70704956D01*
X124228817Y-70671183D01*
X124094059Y-70560589D01*
X123940313Y-70478411D01*
X123773490Y-70427805D01*
X123643477Y-70415000D01*
X123643469Y-70415000D01*
X123600000Y-70410719D01*
X123556531Y-70415000D01*
X122638454Y-70415000D01*
X122590256Y-70382795D01*
X122401898Y-70304774D01*
X122201939Y-70265000D01*
X122086578Y-70265000D01*
X122756578Y-69595000D01*
X133511928Y-69595000D01*
X133515000Y-70159250D01*
X133673750Y-70318000D01*
X134873000Y-70318000D01*
X134873000Y-69118750D01*
X135127000Y-69118750D01*
X135127000Y-70318000D01*
X136326250Y-70318000D01*
X136485000Y-70159250D01*
X136488072Y-69595000D01*
X136475812Y-69470518D01*
X136439502Y-69350820D01*
X136380537Y-69240506D01*
X136301185Y-69143815D01*
X136204494Y-69064463D01*
X136094180Y-69005498D01*
X135974482Y-68969188D01*
X135850000Y-68956928D01*
X135285750Y-68960000D01*
X135127000Y-69118750D01*
X134873000Y-69118750D01*
X134714250Y-68960000D01*
X134150000Y-68956928D01*
X134025518Y-68969188D01*
X133905820Y-69005498D01*
X133795506Y-69064463D01*
X133698815Y-69143815D01*
X133619463Y-69240506D01*
X133560498Y-69350820D01*
X133524188Y-69470518D01*
X133511928Y-69595000D01*
X122756578Y-69595000D01*
X127066579Y-65285000D01*
X134133422Y-65285000D01*
X136701896Y-67853475D01*
%TA.AperFunction,Conductor*%
D22*
G36*
X136701896Y-67853475D02*
G01*
X136665000Y-68038967D01*
X136665000Y-68361033D01*
X136727832Y-68676912D01*
X136851082Y-68974463D01*
X137030013Y-69242252D01*
X137257748Y-69469987D01*
X137525537Y-69648918D01*
X137823088Y-69772168D01*
X138138967Y-69835000D01*
X138461033Y-69835000D01*
X138776912Y-69772168D01*
X139074463Y-69648918D01*
X139342252Y-69469987D01*
X139569987Y-69242252D01*
X139675059Y-69085000D01*
X143424941Y-69085000D01*
X143530013Y-69242252D01*
X143757748Y-69469987D01*
X143911918Y-69573000D01*
X142300000Y-69573000D01*
X142275224Y-69575440D01*
X142251399Y-69582667D01*
X142229443Y-69594403D01*
X142210197Y-69610197D01*
X142194403Y-69629443D01*
X142182667Y-69651399D01*
X142175440Y-69675224D01*
X142173000Y-69700000D01*
X142173000Y-74700000D01*
X142175440Y-74724776D01*
X142182667Y-74748601D01*
X142194403Y-74770557D01*
X142210197Y-74789803D01*
X142229443Y-74805597D01*
X142251399Y-74817333D01*
X142275224Y-74824560D01*
X142300000Y-74827000D01*
X146240001Y-74827000D01*
X146240000Y-103640000D01*
X142132419Y-103640000D01*
X142100000Y-103636807D01*
X142067581Y-103640000D01*
X141970617Y-103649550D01*
X141893314Y-103673000D01*
X141600000Y-103673000D01*
X141575224Y-103675440D01*
X141551399Y-103682667D01*
X141529443Y-103694403D01*
X141510197Y-103710197D01*
X141494403Y-103729443D01*
X141482667Y-103751399D01*
X141475440Y-103775224D01*
X141473000Y-103800000D01*
X141473000Y-104093314D01*
X141449550Y-104170617D01*
X141436807Y-104300000D01*
X141440001Y-104332429D01*
X141440000Y-108767580D01*
X141436807Y-108800000D01*
X141449550Y-108929383D01*
X141473000Y-109006686D01*
X141473000Y-109300000D01*
X141475440Y-109324776D01*
X141482667Y-109348601D01*
X141494403Y-109370557D01*
X141510197Y-109389803D01*
X141529443Y-109405597D01*
X141551399Y-109417333D01*
X141575224Y-109424560D01*
X141600000Y-109427000D01*
X141893314Y-109427000D01*
X141970617Y-109450450D01*
X142100000Y-109463193D01*
X142132419Y-109460000D01*
X146240001Y-109460000D01*
X146240000Y-122373000D01*
X135972107Y-122373000D01*
X136153475Y-122191632D01*
X136315990Y-121948411D01*
X136427932Y-121678158D01*
X136485000Y-121391260D01*
X136485000Y-121098740D01*
X136427932Y-120811842D01*
X136315990Y-120541589D01*
X136153475Y-120298368D01*
X135946632Y-120091525D01*
X135772240Y-119975000D01*
X135946632Y-119858475D01*
X136153475Y-119651632D01*
X136315990Y-119408411D01*
X136427932Y-119138158D01*
X136485000Y-118851260D01*
X136485000Y-118558740D01*
X136427932Y-118271842D01*
X136315990Y-118001589D01*
X136153475Y-117758368D01*
X135946632Y-117551525D01*
X135772240Y-117435000D01*
X135946632Y-117318475D01*
X136153475Y-117111632D01*
X136315990Y-116868411D01*
X136427932Y-116598158D01*
X136485000Y-116311260D01*
X136485000Y-116018740D01*
X136427932Y-115731842D01*
X136315990Y-115461589D01*
X136153475Y-115218368D01*
X135946632Y-115011525D01*
X135772240Y-114895000D01*
X135946632Y-114778475D01*
X136153475Y-114571632D01*
X136214787Y-114479872D01*
X140465000Y-114479872D01*
X140465000Y-114920128D01*
X140550890Y-115351925D01*
X140719369Y-115758669D01*
X140963962Y-116124729D01*
X141275271Y-116436038D01*
X141641331Y-116680631D01*
X142048075Y-116849110D01*
X142479872Y-116935000D01*
X142920128Y-116935000D01*
X143351925Y-116849110D01*
X143758669Y-116680631D01*
X144124729Y-116436038D01*
X144436038Y-116124729D01*
X144680631Y-115758669D01*
X144849110Y-115351925D01*
X144935000Y-114920128D01*
X144935000Y-114479872D01*
X144849110Y-114048075D01*
X144680631Y-113641331D01*
X144436038Y-113275271D01*
X144124729Y-112963962D01*
X143758669Y-112719369D01*
X143351925Y-112550890D01*
X142920128Y-112465000D01*
X142479872Y-112465000D01*
X142048075Y-112550890D01*
X141641331Y-112719369D01*
X141275271Y-112963962D01*
X140963962Y-113275271D01*
X140719369Y-113641331D01*
X140550890Y-114048075D01*
X140465000Y-114479872D01*
X136214787Y-114479872D01*
X136315990Y-114328411D01*
X136427932Y-114058158D01*
X136485000Y-113771260D01*
X136485000Y-113478740D01*
X136427932Y-113191842D01*
X136315990Y-112921589D01*
X136153475Y-112678368D01*
X135946632Y-112471525D01*
X135772240Y-112355000D01*
X135946632Y-112238475D01*
X136153475Y-112031632D01*
X136315990Y-111788411D01*
X136427932Y-111518158D01*
X136485000Y-111231260D01*
X136485000Y-110938740D01*
X136427932Y-110651842D01*
X136315990Y-110381589D01*
X136153475Y-110138368D01*
X135946632Y-109931525D01*
X135772240Y-109815000D01*
X135946632Y-109698475D01*
X136153475Y-109491632D01*
X136315990Y-109248411D01*
X136427932Y-108978158D01*
X136485000Y-108691260D01*
X136485000Y-108398740D01*
X136427932Y-108111842D01*
X136315990Y-107841589D01*
X136153475Y-107598368D01*
X135946632Y-107391525D01*
X135772240Y-107275000D01*
X135946632Y-107158475D01*
X136153475Y-106951632D01*
X136315990Y-106708411D01*
X136427932Y-106438158D01*
X136485000Y-106151260D01*
X136485000Y-105858740D01*
X136427932Y-105571842D01*
X136315990Y-105301589D01*
X136153475Y-105058368D01*
X135946632Y-104851525D01*
X135772240Y-104735000D01*
X135946632Y-104618475D01*
X136153475Y-104411632D01*
X136315990Y-104168411D01*
X136427932Y-103898158D01*
X136485000Y-103611260D01*
X136485000Y-103318740D01*
X136427932Y-103031842D01*
X136315990Y-102761589D01*
X136153475Y-102518368D01*
X135946632Y-102311525D01*
X135772240Y-102195000D01*
X135946632Y-102078475D01*
X136153475Y-101871632D01*
X136315990Y-101628411D01*
X136427932Y-101358158D01*
X136485000Y-101071260D01*
X136485000Y-100778740D01*
X136427932Y-100491842D01*
X136315990Y-100221589D01*
X136153475Y-99978368D01*
X135946632Y-99771525D01*
X135772240Y-99655000D01*
X135946632Y-99538475D01*
X136153475Y-99331632D01*
X136315990Y-99088411D01*
X136427932Y-98818158D01*
X136485000Y-98531260D01*
X136485000Y-98238740D01*
X136427932Y-97951842D01*
X136315990Y-97681589D01*
X136153475Y-97438368D01*
X135946632Y-97231525D01*
X135772240Y-97115000D01*
X135946632Y-96998475D01*
X136153475Y-96791632D01*
X136315990Y-96548411D01*
X136427932Y-96278158D01*
X136485000Y-95991260D01*
X136485000Y-95698740D01*
X136427932Y-95411842D01*
X136315990Y-95141589D01*
X136153475Y-94898368D01*
X135946632Y-94691525D01*
X135772240Y-94575000D01*
X135946632Y-94458475D01*
X136153475Y-94251632D01*
X136315990Y-94008411D01*
X136427932Y-93738158D01*
X136485000Y-93451260D01*
X136485000Y-93158740D01*
X136427932Y-92871842D01*
X136315990Y-92601589D01*
X136153475Y-92358368D01*
X135946632Y-92151525D01*
X135772240Y-92035000D01*
X135946632Y-91918475D01*
X136153475Y-91711632D01*
X136315990Y-91468411D01*
X136427932Y-91198158D01*
X136485000Y-90911260D01*
X136485000Y-90618740D01*
X136427932Y-90331842D01*
X136315990Y-90061589D01*
X136153475Y-89818368D01*
X135946632Y-89611525D01*
X135772240Y-89495000D01*
X135946632Y-89378475D01*
X136153475Y-89171632D01*
X136315990Y-88928411D01*
X136427932Y-88658158D01*
X136485000Y-88371260D01*
X136485000Y-88078740D01*
X136427932Y-87791842D01*
X136315990Y-87521589D01*
X136153475Y-87278368D01*
X135946632Y-87071525D01*
X135772240Y-86955000D01*
X135946632Y-86838475D01*
X136153475Y-86631632D01*
X136254877Y-86479872D01*
X140465000Y-86479872D01*
X140465000Y-86920128D01*
X140550890Y-87351925D01*
X140719369Y-87758669D01*
X140963962Y-88124729D01*
X141275271Y-88436038D01*
X141641331Y-88680631D01*
X142048075Y-88849110D01*
X142479872Y-88935000D01*
X142920128Y-88935000D01*
X143351925Y-88849110D01*
X143758669Y-88680631D01*
X144124729Y-88436038D01*
X144436038Y-88124729D01*
X144680631Y-87758669D01*
X144849110Y-87351925D01*
X144935000Y-86920128D01*
X144935000Y-86479872D01*
X144849110Y-86048075D01*
X144680631Y-85641331D01*
X144436038Y-85275271D01*
X144124729Y-84963962D01*
X143758669Y-84719369D01*
X143351925Y-84550890D01*
X142920128Y-84465000D01*
X142479872Y-84465000D01*
X142048075Y-84550890D01*
X141641331Y-84719369D01*
X141275271Y-84963962D01*
X140963962Y-85275271D01*
X140719369Y-85641331D01*
X140550890Y-86048075D01*
X140465000Y-86479872D01*
X136254877Y-86479872D01*
X136315990Y-86388411D01*
X136427932Y-86118158D01*
X136485000Y-85831260D01*
X136485000Y-85538740D01*
X136427932Y-85251842D01*
X136315990Y-84981589D01*
X136153475Y-84738368D01*
X135946632Y-84531525D01*
X135772240Y-84415000D01*
X135946632Y-84298475D01*
X136153475Y-84091632D01*
X136315990Y-83848411D01*
X136427932Y-83578158D01*
X136485000Y-83291260D01*
X136485000Y-82998740D01*
X136427932Y-82711842D01*
X136315990Y-82441589D01*
X136153475Y-82198368D01*
X135946632Y-81991525D01*
X135772240Y-81875000D01*
X135946632Y-81758475D01*
X136153475Y-81551632D01*
X136315990Y-81308411D01*
X136427932Y-81038158D01*
X136485000Y-80751260D01*
X136485000Y-80458740D01*
X136427932Y-80171842D01*
X136315990Y-79901589D01*
X136153475Y-79658368D01*
X135946632Y-79451525D01*
X135772240Y-79335000D01*
X135946632Y-79218475D01*
X136153475Y-79011632D01*
X136315990Y-78768411D01*
X136427932Y-78498158D01*
X136485000Y-78211260D01*
X136485000Y-77918740D01*
X136427932Y-77631842D01*
X136315990Y-77361589D01*
X136153475Y-77118368D01*
X135946632Y-76911525D01*
X135772240Y-76795000D01*
X135946632Y-76678475D01*
X136153475Y-76471632D01*
X136315990Y-76228411D01*
X136427932Y-75958158D01*
X136485000Y-75671260D01*
X136485000Y-75378740D01*
X136427932Y-75091842D01*
X136315990Y-74821589D01*
X136153475Y-74578368D01*
X135946632Y-74371525D01*
X135772240Y-74255000D01*
X135946632Y-74138475D01*
X136153475Y-73931632D01*
X136315990Y-73688411D01*
X136427932Y-73418158D01*
X136485000Y-73131260D01*
X136485000Y-72838740D01*
X136427932Y-72551842D01*
X136315990Y-72281589D01*
X136153475Y-72038368D01*
X136021620Y-71906513D01*
X136094180Y-71884502D01*
X136204494Y-71825537D01*
X136301185Y-71746185D01*
X136380537Y-71649494D01*
X136439502Y-71539180D01*
X136475812Y-71419482D01*
X136488072Y-71295000D01*
X136485000Y-70730750D01*
X136326250Y-70572000D01*
X135127000Y-70572000D01*
X135127000Y-70592000D01*
X134873000Y-70592000D01*
X134873000Y-70572000D01*
X133673750Y-70572000D01*
X133515000Y-70730750D01*
X133511928Y-71295000D01*
X133524188Y-71419482D01*
X133560498Y-71539180D01*
X133619463Y-71649494D01*
X133698815Y-71746185D01*
X133795506Y-71825537D01*
X133905820Y-71884502D01*
X133978380Y-71906513D01*
X133846525Y-72038368D01*
X133684010Y-72281589D01*
X133572068Y-72551842D01*
X133515000Y-72838740D01*
X133515000Y-73131260D01*
X133572068Y-73418158D01*
X133684010Y-73688411D01*
X133846525Y-73931632D01*
X134053368Y-74138475D01*
X134227760Y-74255000D01*
X134053368Y-74371525D01*
X133846525Y-74578368D01*
X133684010Y-74821589D01*
X133572068Y-75091842D01*
X133515000Y-75378740D01*
X133515000Y-75671260D01*
X133572068Y-75958158D01*
X133684010Y-76228411D01*
X133846525Y-76471632D01*
X134053368Y-76678475D01*
X134227760Y-76795000D01*
X134053368Y-76911525D01*
X133846525Y-77118368D01*
X133684010Y-77361589D01*
X133572068Y-77631842D01*
X133515000Y-77918740D01*
X133515000Y-78211260D01*
X133572068Y-78498158D01*
X133684010Y-78768411D01*
X133846525Y-79011632D01*
X134053368Y-79218475D01*
X134227760Y-79335000D01*
X134053368Y-79451525D01*
X133846525Y-79658368D01*
X133805344Y-79720000D01*
X133271579Y-79720000D01*
X124256534Y-70704956D01*
X124228817Y-70671183D01*
X124094059Y-70560589D01*
X123940313Y-70478411D01*
X123773490Y-70427805D01*
X123643477Y-70415000D01*
X123643469Y-70415000D01*
X123600000Y-70410719D01*
X123556531Y-70415000D01*
X122638454Y-70415000D01*
X122590256Y-70382795D01*
X122401898Y-70304774D01*
X122201939Y-70265000D01*
X122086578Y-70265000D01*
X122756578Y-69595000D01*
X133511928Y-69595000D01*
X133515000Y-70159250D01*
X133673750Y-70318000D01*
X134873000Y-70318000D01*
X134873000Y-69118750D01*
X135127000Y-69118750D01*
X135127000Y-70318000D01*
X136326250Y-70318000D01*
X136485000Y-70159250D01*
X136488072Y-69595000D01*
X136475812Y-69470518D01*
X136439502Y-69350820D01*
X136380537Y-69240506D01*
X136301185Y-69143815D01*
X136204494Y-69064463D01*
X136094180Y-69005498D01*
X135974482Y-68969188D01*
X135850000Y-68956928D01*
X135285750Y-68960000D01*
X135127000Y-69118750D01*
X134873000Y-69118750D01*
X134714250Y-68960000D01*
X134150000Y-68956928D01*
X134025518Y-68969188D01*
X133905820Y-69005498D01*
X133795506Y-69064463D01*
X133698815Y-69143815D01*
X133619463Y-69240506D01*
X133560498Y-69350820D01*
X133524188Y-69470518D01*
X133511928Y-69595000D01*
X122756578Y-69595000D01*
X127066579Y-65285000D01*
X134133422Y-65285000D01*
X136701896Y-67853475D01*
G37*
%TD.AperFunction*%
%TD*%
M02*
