%TF.GenerationSoftware,KiCad,Pcbnew,5.1.10-88a1d61d58~90~ubuntu20.04.1*%
%TF.CreationDate,2022-07-31T10:38:46+02:00*%
%TF.ProjectId,schematic,73636865-6d61-4746-9963-2e6b69636164,rev?*%
%TF.SameCoordinates,Original*%
%TF.FileFunction,Legend,Top*%
%TF.FilePolarity,Positive*%
%FSLAX46Y46*%
G04 Gerber Fmt 4.6, Leading zero omitted, Abs format (unit mm)*
G04 Created by KiCad (PCBNEW 5.1.10-88a1d61d58~90~ubuntu20.04.1) date 2022-07-31 10:38:46*
%MOMM*%
%LPD*%
G01*
G04 APERTURE LIST*
%ADD10C,0.150000*%
%TA.AperFunction,Profile*%
%ADD11C,0.050000*%
%TD*%
%ADD12C,0.120000*%
G04 APERTURE END LIST*
D10*
X121638095Y-63928571D02*
X121304761Y-63928571D01*
X121304761Y-64452380D02*
X121304761Y-63452380D01*
X121780952Y-63452380D01*
X122161904Y-64452380D02*
X122161904Y-63785714D01*
X122161904Y-63976190D02*
X122209523Y-63880952D01*
X122257142Y-63833333D01*
X122352380Y-63785714D01*
X122447619Y-63785714D01*
X122923809Y-64452380D02*
X122828571Y-64404761D01*
X122780952Y-64357142D01*
X122733333Y-64261904D01*
X122733333Y-63976190D01*
X122780952Y-63880952D01*
X122828571Y-63833333D01*
X122923809Y-63785714D01*
X123066666Y-63785714D01*
X123161904Y-63833333D01*
X123209523Y-63880952D01*
X123257142Y-63976190D01*
X123257142Y-64261904D01*
X123209523Y-64357142D01*
X123161904Y-64404761D01*
X123066666Y-64452380D01*
X122923809Y-64452380D01*
X123685714Y-63785714D02*
X123685714Y-64452380D01*
X123685714Y-63880952D02*
X123733333Y-63833333D01*
X123828571Y-63785714D01*
X123971428Y-63785714D01*
X124066666Y-63833333D01*
X124114285Y-63928571D01*
X124114285Y-64452380D01*
X124447619Y-63785714D02*
X124828571Y-63785714D01*
X124590476Y-63452380D02*
X124590476Y-64309523D01*
X124638095Y-64404761D01*
X124733333Y-64452380D01*
X124828571Y-64452380D01*
X125876190Y-64404761D02*
X125971428Y-64452380D01*
X126161904Y-64452380D01*
X126257142Y-64404761D01*
X126304761Y-64309523D01*
X126304761Y-64261904D01*
X126257142Y-64166666D01*
X126161904Y-64119047D01*
X126019047Y-64119047D01*
X125923809Y-64071428D01*
X125876190Y-63976190D01*
X125876190Y-63928571D01*
X125923809Y-63833333D01*
X126019047Y-63785714D01*
X126161904Y-63785714D01*
X126257142Y-63833333D01*
X126733333Y-64452380D02*
X126733333Y-63785714D01*
X126733333Y-63452380D02*
X126685714Y-63500000D01*
X126733333Y-63547619D01*
X126780952Y-63500000D01*
X126733333Y-63452380D01*
X126733333Y-63547619D01*
X127638095Y-64452380D02*
X127638095Y-63452380D01*
X127638095Y-64404761D02*
X127542857Y-64452380D01*
X127352380Y-64452380D01*
X127257142Y-64404761D01*
X127209523Y-64357142D01*
X127161904Y-64261904D01*
X127161904Y-63976190D01*
X127209523Y-63880952D01*
X127257142Y-63833333D01*
X127352380Y-63785714D01*
X127542857Y-63785714D01*
X127638095Y-63833333D01*
X128495238Y-64404761D02*
X128400000Y-64452380D01*
X128209523Y-64452380D01*
X128114285Y-64404761D01*
X128066666Y-64309523D01*
X128066666Y-63928571D01*
X128114285Y-63833333D01*
X128209523Y-63785714D01*
X128400000Y-63785714D01*
X128495238Y-63833333D01*
X128542857Y-63928571D01*
X128542857Y-64023809D01*
X128066666Y-64119047D01*
X97385714Y-67152380D02*
X97052380Y-66676190D01*
X96814285Y-67152380D02*
X96814285Y-66152380D01*
X97195238Y-66152380D01*
X97290476Y-66200000D01*
X97338095Y-66247619D01*
X97385714Y-66342857D01*
X97385714Y-66485714D01*
X97338095Y-66580952D01*
X97290476Y-66628571D01*
X97195238Y-66676190D01*
X96814285Y-66676190D01*
X97766666Y-67104761D02*
X97909523Y-67152380D01*
X98147619Y-67152380D01*
X98242857Y-67104761D01*
X98290476Y-67057142D01*
X98338095Y-66961904D01*
X98338095Y-66866666D01*
X98290476Y-66771428D01*
X98242857Y-66723809D01*
X98147619Y-66676190D01*
X97957142Y-66628571D01*
X97861904Y-66580952D01*
X97814285Y-66533333D01*
X97766666Y-66438095D01*
X97766666Y-66342857D01*
X97814285Y-66247619D01*
X97861904Y-66200000D01*
X97957142Y-66152380D01*
X98195238Y-66152380D01*
X98338095Y-66200000D01*
X98719047Y-66247619D02*
X98766666Y-66200000D01*
X98861904Y-66152380D01*
X99100000Y-66152380D01*
X99195238Y-66200000D01*
X99242857Y-66247619D01*
X99290476Y-66342857D01*
X99290476Y-66438095D01*
X99242857Y-66580952D01*
X98671428Y-67152380D01*
X99290476Y-67152380D01*
X99623809Y-66152380D02*
X100242857Y-66152380D01*
X99909523Y-66533333D01*
X100052380Y-66533333D01*
X100147619Y-66580952D01*
X100195238Y-66628571D01*
X100242857Y-66723809D01*
X100242857Y-66961904D01*
X100195238Y-67057142D01*
X100147619Y-67104761D01*
X100052380Y-67152380D01*
X99766666Y-67152380D01*
X99671428Y-67104761D01*
X99623809Y-67057142D01*
X100623809Y-66247619D02*
X100671428Y-66200000D01*
X100766666Y-66152380D01*
X101004761Y-66152380D01*
X101100000Y-66200000D01*
X101147619Y-66247619D01*
X101195238Y-66342857D01*
X101195238Y-66438095D01*
X101147619Y-66580952D01*
X100576190Y-67152380D01*
X101195238Y-67152380D01*
X101623809Y-66771428D02*
X102385714Y-66771428D01*
X102861904Y-66152380D02*
X102861904Y-66961904D01*
X102909523Y-67057142D01*
X102957142Y-67104761D01*
X103052380Y-67152380D01*
X103242857Y-67152380D01*
X103338095Y-67104761D01*
X103385714Y-67057142D01*
X103433333Y-66961904D01*
X103433333Y-66152380D01*
X103861904Y-67104761D02*
X104004761Y-67152380D01*
X104242857Y-67152380D01*
X104338095Y-67104761D01*
X104385714Y-67057142D01*
X104433333Y-66961904D01*
X104433333Y-66866666D01*
X104385714Y-66771428D01*
X104338095Y-66723809D01*
X104242857Y-66676190D01*
X104052380Y-66628571D01*
X103957142Y-66580952D01*
X103909523Y-66533333D01*
X103861904Y-66438095D01*
X103861904Y-66342857D01*
X103909523Y-66247619D01*
X103957142Y-66200000D01*
X104052380Y-66152380D01*
X104290476Y-66152380D01*
X104433333Y-66200000D01*
X105195238Y-66628571D02*
X105338095Y-66676190D01*
X105385714Y-66723809D01*
X105433333Y-66819047D01*
X105433333Y-66961904D01*
X105385714Y-67057142D01*
X105338095Y-67104761D01*
X105242857Y-67152380D01*
X104861904Y-67152380D01*
X104861904Y-66152380D01*
X105195238Y-66152380D01*
X105290476Y-66200000D01*
X105338095Y-66247619D01*
X105385714Y-66342857D01*
X105385714Y-66438095D01*
X105338095Y-66533333D01*
X105290476Y-66580952D01*
X105195238Y-66628571D01*
X104861904Y-66628571D01*
D11*
X142100000Y-108800000D02*
X142100000Y-104300000D01*
X142100000Y-104300000D02*
X146900000Y-104300000D01*
X146900000Y-104300000D02*
X146900000Y-74100000D01*
X146900000Y-108800000D02*
X146900000Y-108800000D01*
X146900000Y-108800000D02*
X142100000Y-108800000D01*
D10*
X118685714Y-121252380D02*
X118685714Y-122061904D01*
X118733333Y-122157142D01*
X118780952Y-122204761D01*
X118876190Y-122252380D01*
X119066666Y-122252380D01*
X119161904Y-122204761D01*
X119209523Y-122157142D01*
X119257142Y-122061904D01*
X119257142Y-121252380D01*
X119685714Y-122204761D02*
X119828571Y-122252380D01*
X120066666Y-122252380D01*
X120161904Y-122204761D01*
X120209523Y-122157142D01*
X120257142Y-122061904D01*
X120257142Y-121966666D01*
X120209523Y-121871428D01*
X120161904Y-121823809D01*
X120066666Y-121776190D01*
X119876190Y-121728571D01*
X119780952Y-121680952D01*
X119733333Y-121633333D01*
X119685714Y-121538095D01*
X119685714Y-121442857D01*
X119733333Y-121347619D01*
X119780952Y-121300000D01*
X119876190Y-121252380D01*
X120114285Y-121252380D01*
X120257142Y-121300000D01*
X121019047Y-121728571D02*
X121161904Y-121776190D01*
X121209523Y-121823809D01*
X121257142Y-121919047D01*
X121257142Y-122061904D01*
X121209523Y-122157142D01*
X121161904Y-122204761D01*
X121066666Y-122252380D01*
X120685714Y-122252380D01*
X120685714Y-121252380D01*
X121019047Y-121252380D01*
X121114285Y-121300000D01*
X121161904Y-121347619D01*
X121209523Y-121442857D01*
X121209523Y-121538095D01*
X121161904Y-121633333D01*
X121114285Y-121680952D01*
X121019047Y-121728571D01*
X120685714Y-121728571D01*
X123019047Y-122157142D02*
X122971428Y-122204761D01*
X122828571Y-122252380D01*
X122733333Y-122252380D01*
X122590476Y-122204761D01*
X122495238Y-122109523D01*
X122447619Y-122014285D01*
X122400000Y-121823809D01*
X122400000Y-121680952D01*
X122447619Y-121490476D01*
X122495238Y-121395238D01*
X122590476Y-121300000D01*
X122733333Y-121252380D01*
X122828571Y-121252380D01*
X122971428Y-121300000D01*
X123019047Y-121347619D01*
X123638095Y-121252380D02*
X123828571Y-121252380D01*
X123923809Y-121300000D01*
X124019047Y-121395238D01*
X124066666Y-121585714D01*
X124066666Y-121919047D01*
X124019047Y-122109523D01*
X123923809Y-122204761D01*
X123828571Y-122252380D01*
X123638095Y-122252380D01*
X123542857Y-122204761D01*
X123447619Y-122109523D01*
X123400000Y-121919047D01*
X123400000Y-121585714D01*
X123447619Y-121395238D01*
X123542857Y-121300000D01*
X123638095Y-121252380D01*
X124495238Y-122252380D02*
X124495238Y-121252380D01*
X125066666Y-122252380D01*
X125066666Y-121252380D01*
X125542857Y-122252380D02*
X125542857Y-121252380D01*
X126114285Y-122252380D01*
X126114285Y-121252380D01*
X98452380Y-103838095D02*
X97452380Y-103838095D01*
X97452380Y-103600000D01*
X97500000Y-103457142D01*
X97595238Y-103361904D01*
X97690476Y-103314285D01*
X97880952Y-103266666D01*
X98023809Y-103266666D01*
X98214285Y-103314285D01*
X98309523Y-103361904D01*
X98404761Y-103457142D01*
X98452380Y-103600000D01*
X98452380Y-103838095D01*
X98452380Y-102838095D02*
X97452380Y-102838095D01*
X98404761Y-102409523D02*
X98452380Y-102266666D01*
X98452380Y-102028571D01*
X98404761Y-101933333D01*
X98357142Y-101885714D01*
X98261904Y-101838095D01*
X98166666Y-101838095D01*
X98071428Y-101885714D01*
X98023809Y-101933333D01*
X97976190Y-102028571D01*
X97928571Y-102219047D01*
X97880952Y-102314285D01*
X97833333Y-102361904D01*
X97738095Y-102409523D01*
X97642857Y-102409523D01*
X97547619Y-102361904D01*
X97500000Y-102314285D01*
X97452380Y-102219047D01*
X97452380Y-101980952D01*
X97500000Y-101838095D01*
X98452380Y-101409523D02*
X97452380Y-101409523D01*
X97452380Y-101028571D01*
X97500000Y-100933333D01*
X97547619Y-100885714D01*
X97642857Y-100838095D01*
X97785714Y-100838095D01*
X97880952Y-100885714D01*
X97928571Y-100933333D01*
X97976190Y-101028571D01*
X97976190Y-101409523D01*
X98452380Y-99933333D02*
X98452380Y-100409523D01*
X97452380Y-100409523D01*
X98166666Y-99647619D02*
X98166666Y-99171428D01*
X98452380Y-99742857D02*
X97452380Y-99409523D01*
X98452380Y-99076190D01*
X97976190Y-98552380D02*
X98452380Y-98552380D01*
X97452380Y-98885714D02*
X97976190Y-98552380D01*
X97452380Y-98219047D01*
X88419047Y-65028571D02*
X88561904Y-65076190D01*
X88609523Y-65123809D01*
X88657142Y-65219047D01*
X88657142Y-65361904D01*
X88609523Y-65457142D01*
X88561904Y-65504761D01*
X88466666Y-65552380D01*
X88085714Y-65552380D01*
X88085714Y-64552380D01*
X88419047Y-64552380D01*
X88514285Y-64600000D01*
X88561904Y-64647619D01*
X88609523Y-64742857D01*
X88609523Y-64838095D01*
X88561904Y-64933333D01*
X88514285Y-64980952D01*
X88419047Y-65028571D01*
X88085714Y-65028571D01*
X89085714Y-65552380D02*
X89085714Y-64552380D01*
X89419047Y-65266666D01*
X89752380Y-64552380D01*
X89752380Y-65552380D01*
X90228571Y-65028571D02*
X90561904Y-65028571D01*
X90704761Y-65552380D02*
X90228571Y-65552380D01*
X90228571Y-64552380D01*
X90704761Y-64552380D01*
X91085714Y-64647619D02*
X91133333Y-64600000D01*
X91228571Y-64552380D01*
X91466666Y-64552380D01*
X91561904Y-64600000D01*
X91609523Y-64647619D01*
X91657142Y-64742857D01*
X91657142Y-64838095D01*
X91609523Y-64980952D01*
X91038095Y-65552380D01*
X91657142Y-65552380D01*
X92228571Y-64980952D02*
X92133333Y-64933333D01*
X92085714Y-64885714D01*
X92038095Y-64790476D01*
X92038095Y-64742857D01*
X92085714Y-64647619D01*
X92133333Y-64600000D01*
X92228571Y-64552380D01*
X92419047Y-64552380D01*
X92514285Y-64600000D01*
X92561904Y-64647619D01*
X92609523Y-64742857D01*
X92609523Y-64790476D01*
X92561904Y-64885714D01*
X92514285Y-64933333D01*
X92419047Y-64980952D01*
X92228571Y-64980952D01*
X92133333Y-65028571D01*
X92085714Y-65076190D01*
X92038095Y-65171428D01*
X92038095Y-65361904D01*
X92085714Y-65457142D01*
X92133333Y-65504761D01*
X92228571Y-65552380D01*
X92419047Y-65552380D01*
X92514285Y-65504761D01*
X92561904Y-65457142D01*
X92609523Y-65361904D01*
X92609523Y-65171428D01*
X92561904Y-65076190D01*
X92514285Y-65028571D01*
X92419047Y-64980952D01*
X93228571Y-64552380D02*
X93323809Y-64552380D01*
X93419047Y-64600000D01*
X93466666Y-64647619D01*
X93514285Y-64742857D01*
X93561904Y-64933333D01*
X93561904Y-65171428D01*
X93514285Y-65361904D01*
X93466666Y-65457142D01*
X93419047Y-65504761D01*
X93323809Y-65552380D01*
X93228571Y-65552380D01*
X93133333Y-65504761D01*
X93085714Y-65457142D01*
X93038095Y-65361904D01*
X92990476Y-65171428D01*
X92990476Y-64933333D01*
X93038095Y-64742857D01*
X93085714Y-64647619D01*
X93133333Y-64600000D01*
X93228571Y-64552380D01*
X137842857Y-71428571D02*
X137985714Y-71476190D01*
X138033333Y-71523809D01*
X138080952Y-71619047D01*
X138080952Y-71761904D01*
X138033333Y-71857142D01*
X137985714Y-71904761D01*
X137890476Y-71952380D01*
X137509523Y-71952380D01*
X137509523Y-70952380D01*
X137842857Y-70952380D01*
X137938095Y-71000000D01*
X137985714Y-71047619D01*
X138033333Y-71142857D01*
X138033333Y-71238095D01*
X137985714Y-71333333D01*
X137938095Y-71380952D01*
X137842857Y-71428571D01*
X137509523Y-71428571D01*
X138700000Y-70952380D02*
X138890476Y-70952380D01*
X138985714Y-71000000D01*
X139080952Y-71095238D01*
X139128571Y-71285714D01*
X139128571Y-71619047D01*
X139080952Y-71809523D01*
X138985714Y-71904761D01*
X138890476Y-71952380D01*
X138700000Y-71952380D01*
X138604761Y-71904761D01*
X138509523Y-71809523D01*
X138461904Y-71619047D01*
X138461904Y-71285714D01*
X138509523Y-71095238D01*
X138604761Y-71000000D01*
X138700000Y-70952380D01*
X139747619Y-70952380D02*
X139938095Y-70952380D01*
X140033333Y-71000000D01*
X140128571Y-71095238D01*
X140176190Y-71285714D01*
X140176190Y-71619047D01*
X140128571Y-71809523D01*
X140033333Y-71904761D01*
X139938095Y-71952380D01*
X139747619Y-71952380D01*
X139652380Y-71904761D01*
X139557142Y-71809523D01*
X139509523Y-71619047D01*
X139509523Y-71285714D01*
X139557142Y-71095238D01*
X139652380Y-71000000D01*
X139747619Y-70952380D01*
X140461904Y-70952380D02*
X141033333Y-70952380D01*
X140747619Y-71952380D02*
X140747619Y-70952380D01*
X91352380Y-114952380D02*
X91019047Y-114476190D01*
X90780952Y-114952380D02*
X90780952Y-113952380D01*
X91161904Y-113952380D01*
X91257142Y-114000000D01*
X91304761Y-114047619D01*
X91352380Y-114142857D01*
X91352380Y-114285714D01*
X91304761Y-114380952D01*
X91257142Y-114428571D01*
X91161904Y-114476190D01*
X90780952Y-114476190D01*
X91733333Y-114904761D02*
X91876190Y-114952380D01*
X92114285Y-114952380D01*
X92209523Y-114904761D01*
X92257142Y-114857142D01*
X92304761Y-114761904D01*
X92304761Y-114666666D01*
X92257142Y-114571428D01*
X92209523Y-114523809D01*
X92114285Y-114476190D01*
X91923809Y-114428571D01*
X91828571Y-114380952D01*
X91780952Y-114333333D01*
X91733333Y-114238095D01*
X91733333Y-114142857D01*
X91780952Y-114047619D01*
X91828571Y-114000000D01*
X91923809Y-113952380D01*
X92161904Y-113952380D01*
X92304761Y-114000000D01*
X92590476Y-113952380D02*
X93161904Y-113952380D01*
X92876190Y-114952380D02*
X92876190Y-113952380D01*
X119204761Y-113228571D02*
X119538095Y-113228571D01*
X119680952Y-113752380D02*
X119204761Y-113752380D01*
X119204761Y-112752380D01*
X119680952Y-112752380D01*
X120061904Y-113704761D02*
X120204761Y-113752380D01*
X120442857Y-113752380D01*
X120538095Y-113704761D01*
X120585714Y-113657142D01*
X120633333Y-113561904D01*
X120633333Y-113466666D01*
X120585714Y-113371428D01*
X120538095Y-113323809D01*
X120442857Y-113276190D01*
X120252380Y-113228571D01*
X120157142Y-113180952D01*
X120109523Y-113133333D01*
X120061904Y-113038095D01*
X120061904Y-112942857D01*
X120109523Y-112847619D01*
X120157142Y-112800000D01*
X120252380Y-112752380D01*
X120490476Y-112752380D01*
X120633333Y-112800000D01*
X121061904Y-113752380D02*
X121061904Y-112752380D01*
X121442857Y-112752380D01*
X121538095Y-112800000D01*
X121585714Y-112847619D01*
X121633333Y-112942857D01*
X121633333Y-113085714D01*
X121585714Y-113180952D01*
X121538095Y-113228571D01*
X121442857Y-113276190D01*
X121061904Y-113276190D01*
X121966666Y-112752380D02*
X122585714Y-112752380D01*
X122252380Y-113133333D01*
X122395238Y-113133333D01*
X122490476Y-113180952D01*
X122538095Y-113228571D01*
X122585714Y-113323809D01*
X122585714Y-113561904D01*
X122538095Y-113657142D01*
X122490476Y-113704761D01*
X122395238Y-113752380D01*
X122109523Y-113752380D01*
X122014285Y-113704761D01*
X121966666Y-113657142D01*
X122966666Y-112847619D02*
X123014285Y-112800000D01*
X123109523Y-112752380D01*
X123347619Y-112752380D01*
X123442857Y-112800000D01*
X123490476Y-112847619D01*
X123538095Y-112942857D01*
X123538095Y-113038095D01*
X123490476Y-113180952D01*
X122919047Y-113752380D01*
X123538095Y-113752380D01*
X123919047Y-113704761D02*
X124061904Y-113752380D01*
X124300000Y-113752380D01*
X124395238Y-113704761D01*
X124442857Y-113657142D01*
X124490476Y-113561904D01*
X124490476Y-113466666D01*
X124442857Y-113371428D01*
X124395238Y-113323809D01*
X124300000Y-113276190D01*
X124109523Y-113228571D01*
X124014285Y-113180952D01*
X123966666Y-113133333D01*
X123919047Y-113038095D01*
X123919047Y-112942857D01*
X123966666Y-112847619D01*
X124014285Y-112800000D01*
X124109523Y-112752380D01*
X124347619Y-112752380D01*
X124490476Y-112800000D01*
X124871428Y-112847619D02*
X124919047Y-112800000D01*
X125014285Y-112752380D01*
X125252380Y-112752380D01*
X125347619Y-112800000D01*
X125395238Y-112847619D01*
X125442857Y-112942857D01*
X125442857Y-113038095D01*
X125395238Y-113180952D01*
X124823809Y-113752380D01*
X125442857Y-113752380D01*
D11*
X146900000Y-72600000D02*
X146900000Y-72600000D01*
X146900000Y-70300000D02*
X146900000Y-61600000D01*
X142900000Y-74100000D02*
X146900000Y-74100000D01*
X142900000Y-70300000D02*
X142900000Y-74100000D01*
X146900000Y-70300000D02*
X142900000Y-70300000D01*
X87100000Y-123063000D02*
X146900000Y-123079000D01*
X146900000Y-61600000D02*
X87100000Y-61600000D01*
X87100000Y-61600000D02*
X87100000Y-123063000D01*
X146900000Y-123079000D02*
X146900000Y-108800000D01*
D12*
%TO.C,J2*%
X89970000Y-81930000D02*
X92630000Y-81930000D01*
X89970000Y-69170000D02*
X89970000Y-81930000D01*
X92630000Y-69170000D02*
X92630000Y-81930000D01*
X89970000Y-69170000D02*
X92630000Y-69170000D01*
X89970000Y-67900000D02*
X89970000Y-66570000D01*
X89970000Y-66570000D02*
X91300000Y-66570000D01*
%TO.C,J5*%
X94430000Y-62670000D02*
X94430000Y-65330000D01*
X107190000Y-62670000D02*
X94430000Y-62670000D01*
X107190000Y-65330000D02*
X94430000Y-65330000D01*
X107190000Y-62670000D02*
X107190000Y-65330000D01*
X108460000Y-62670000D02*
X109790000Y-62670000D01*
X109790000Y-62670000D02*
X109790000Y-64000000D01*
%TO.C,SW1*%
X139300000Y-69200000D02*
X143800000Y-69200000D01*
X138050000Y-65200000D02*
X138050000Y-66700000D01*
X143800000Y-62700000D02*
X139300000Y-62700000D01*
X145050000Y-66700000D02*
X145050000Y-65200000D01*
%TO.C,SW2*%
X95820000Y-116380000D02*
X95820000Y-116080000D01*
X94930000Y-116080000D02*
X94930000Y-116430000D01*
X94930000Y-116080000D02*
X95820000Y-116080000D01*
X94440000Y-118630000D02*
X89460000Y-118630000D01*
X95820000Y-122870000D02*
X95820000Y-119020000D01*
X88080000Y-122870000D02*
X95820000Y-122870000D01*
X88080000Y-119020000D02*
X88080000Y-122870000D01*
X88080000Y-116380000D02*
X88080000Y-116080000D01*
X88080000Y-116080000D02*
X88970000Y-116080000D01*
X88970000Y-116080000D02*
X88970000Y-116430000D01*
%TO.C,J4*%
X105560000Y-93840000D02*
X105560000Y-93560000D01*
X105560000Y-93560000D02*
X107160000Y-93560000D01*
X107160000Y-93560000D02*
X107160000Y-92640000D01*
X107160000Y-92640000D02*
X99340000Y-92640000D01*
X99340000Y-92640000D02*
X99340000Y-110760000D01*
X99340000Y-110760000D02*
X107160000Y-110760000D01*
X107160000Y-110760000D02*
X107160000Y-109840000D01*
X107160000Y-109840000D02*
X105560000Y-109840000D01*
X105560000Y-109840000D02*
X105560000Y-109560000D01*
X99340000Y-95200000D02*
X103700000Y-95200000D01*
X103700000Y-95200000D02*
X103700000Y-108200000D01*
X103700000Y-108200000D02*
X99340000Y-108200000D01*
X105560000Y-92640000D02*
X105560000Y-93560000D01*
X105560000Y-110760000D02*
X105560000Y-109840000D01*
X103200000Y-93400000D02*
X101600000Y-93400000D01*
X101600000Y-93400000D02*
X101600000Y-94400000D01*
X101600000Y-94400000D02*
X103200000Y-94400000D01*
X103200000Y-94400000D02*
X103200000Y-93400000D01*
X103200000Y-110000000D02*
X101600000Y-110000000D01*
X101600000Y-110000000D02*
X101600000Y-109000000D01*
X101600000Y-109000000D02*
X103200000Y-109000000D01*
X103200000Y-109000000D02*
X103200000Y-110000000D01*
X101600000Y-94400000D02*
X99340000Y-94400000D01*
X101600000Y-93900000D02*
X99340000Y-93900000D01*
X105560000Y-93840000D02*
X106775000Y-93840000D01*
%TO.C,J1*%
X133670000Y-122575000D02*
X136330000Y-122575000D01*
X133670000Y-71715000D02*
X133670000Y-122575000D01*
X136330000Y-71715000D02*
X136330000Y-122575000D01*
X133670000Y-71715000D02*
X136330000Y-71715000D01*
X133670000Y-70445000D02*
X133670000Y-69115000D01*
X133670000Y-69115000D02*
X135000000Y-69115000D01*
%TO.C,J3*%
X111330000Y-122575000D02*
X110000000Y-122575000D01*
X111330000Y-121245000D02*
X111330000Y-122575000D01*
X111330000Y-119975000D02*
X108670000Y-119975000D01*
X108670000Y-119975000D02*
X108670000Y-69115000D01*
X111330000Y-119975000D02*
X111330000Y-69115000D01*
X111330000Y-69115000D02*
X108670000Y-69115000D01*
%TD*%
%TO.C, *%
D10*
%TO.C,J5*%
X110242380Y-64333333D02*
X110956666Y-64333333D01*
X111099523Y-64380952D01*
X111194761Y-64476190D01*
X111242380Y-64619047D01*
X111242380Y-64714285D01*
X110242380Y-63380952D02*
X110242380Y-63857142D01*
X110718571Y-63904761D01*
X110670952Y-63857142D01*
X110623333Y-63761904D01*
X110623333Y-63523809D01*
X110670952Y-63428571D01*
X110718571Y-63380952D01*
X110813809Y-63333333D01*
X111051904Y-63333333D01*
X111147142Y-63380952D01*
X111194761Y-63428571D01*
X111242380Y-63523809D01*
X111242380Y-63761904D01*
X111194761Y-63857142D01*
X111147142Y-63904761D01*
%TO.C,J4*%
X107702380Y-102033333D02*
X108416666Y-102033333D01*
X108559523Y-102080952D01*
X108654761Y-102176190D01*
X108702380Y-102319047D01*
X108702380Y-102414285D01*
X108035714Y-101128571D02*
X108702380Y-101128571D01*
X107654761Y-101366666D02*
X108369047Y-101604761D01*
X108369047Y-100985714D01*
%TD*%
M02*
