M48
; DRILL file {KiCad 5.1.10-88a1d61d58~90~ubuntu20.04.1} date Sun Jul 31 10:38:52 2022
; FORMAT={-:-/ absolute / metric / decimal}
; #@! TF.CreationDate,2022-07-31T10:38:52+02:00
; #@! TF.GenerationSoftware,Kicad,Pcbnew,5.1.10-88a1d61d58~90~ubuntu20.04.1
FMAT,2
METRIC
T1C0.400
T2C0.750
T3C1.000
T4C1.100
T5C1.300
T6C3.200
%
G90
G05
T1
X107.1Y-68.4
X122.1Y-71.3
T2
X105.7Y-94.7
X105.7Y-96.7
X105.7Y-98.7
X105.7Y-100.7
X105.7Y-102.7
X105.7Y-104.7
X105.7Y-106.7
X105.7Y-108.7
T3
X89.7Y-120.2
X91.3Y-67.9
X91.3Y-70.44
X91.3Y-72.98
X91.3Y-75.52
X91.3Y-78.06
X91.3Y-80.6
X94.2Y-120.2
X95.76Y-64.0
X98.3Y-64.0
X100.84Y-64.0
X103.38Y-64.0
X105.92Y-64.0
X108.46Y-64.0
X110.0Y-70.445
X110.0Y-72.985
X110.0Y-75.525
X110.0Y-78.065
X110.0Y-80.605
X110.0Y-83.145
X110.0Y-85.685
X110.0Y-88.225
X110.0Y-90.765
X110.0Y-93.305
X110.0Y-95.845
X110.0Y-98.385
X110.0Y-100.925
X110.0Y-103.465
X110.0Y-106.005
X110.0Y-108.545
X110.0Y-111.085
X110.0Y-113.625
X110.0Y-116.165
X110.0Y-118.705
X110.0Y-121.245
X135.0Y-70.445
X135.0Y-72.985
X135.0Y-75.525
X135.0Y-78.065
X135.0Y-80.605
X135.0Y-83.145
X135.0Y-85.685
X135.0Y-88.225
X135.0Y-90.765
X135.0Y-93.305
X135.0Y-95.845
X135.0Y-98.385
X135.0Y-100.925
X135.0Y-103.465
X135.0Y-106.005
X135.0Y-108.545
X135.0Y-111.085
X135.0Y-113.625
X135.0Y-116.165
X135.0Y-118.705
X135.0Y-121.245
T4
X138.3Y-63.7
X138.3Y-68.2
X144.8Y-63.7
X144.8Y-68.2
T5
X88.45Y-117.7
X95.45Y-117.7
T6
X99.7Y-86.7
X99.7Y-114.7
X142.7Y-86.7
X142.7Y-114.7
T0
M30
