%TF.GenerationSoftware,KiCad,Pcbnew,5.1.9-73d0e3b20d~88~ubuntu20.04.1*%
%TF.CreationDate,2021-03-13T18:10:52+01:00*%
%TF.ProjectId,schematic,73636865-6d61-4746-9963-2e6b69636164,rev?*%
%TF.SameCoordinates,PX6486dd0PY755cad8*%
%TF.FileFunction,Copper,L2,Bot*%
%TF.FilePolarity,Positive*%
%FSLAX46Y46*%
G04 Gerber Fmt 4.6, Leading zero omitted, Abs format (unit mm)*
G04 Created by KiCad (PCBNEW 5.1.9-73d0e3b20d~88~ubuntu20.04.1) date 2021-03-13 18:10:52*
%MOMM*%
%LPD*%
G01*
G04 APERTURE LIST*
%TA.AperFunction,ComponentPad*%
%ADD10R,1.700000X1.700000*%
%TD*%
%TA.AperFunction,ComponentPad*%
%ADD11O,1.700000X1.700000*%
%TD*%
%TA.AperFunction,Conductor*%
%ADD12C,0.750000*%
%TD*%
%TA.AperFunction,Conductor*%
%ADD13C,0.254000*%
%TD*%
%TA.AperFunction,Conductor*%
%ADD14C,0.100000*%
%TD*%
G04 APERTURE END LIST*
D10*
%TO.P,J1,1*%
%TO.N,GND*%
X29590000Y55118000D03*
D11*
%TO.P,J1,2*%
%TO.N,N/C*%
X29590000Y52578000D03*
%TO.P,J1,3*%
X29590000Y50038000D03*
%TO.P,J1,4*%
X29590000Y47498000D03*
%TO.P,J1,5*%
X29590000Y44958000D03*
%TO.P,J1,6*%
X29590000Y42418000D03*
%TO.P,J1,7*%
X29590000Y39878000D03*
%TO.P,J1,8*%
X29590000Y37338000D03*
%TO.P,J1,9*%
X29590000Y34798000D03*
%TO.P,J1,10*%
X29590000Y32258000D03*
%TO.P,J1,11*%
X29590000Y29718000D03*
%TO.P,J1,12*%
X29590000Y27178000D03*
%TO.P,J1,13*%
X29590000Y24638000D03*
%TO.P,J1,14*%
X29590000Y22098000D03*
%TO.P,J1,15*%
X29590000Y19558000D03*
%TO.P,J1,16*%
X29590000Y17018000D03*
%TO.P,J1,17*%
X29590000Y14478000D03*
%TO.P,J1,18*%
X29590000Y11938000D03*
%TO.P,J1,19*%
X29590000Y9398000D03*
%TO.P,J1,20*%
X29590000Y6858000D03*
%TO.P,J1,21*%
X29590000Y4318000D03*
%TD*%
D10*
%TO.P,J2,1*%
%TO.N,/3v3*%
X10414000Y68547000D03*
D11*
%TO.P,J2,2*%
%TO.N,GND*%
X12954000Y68547000D03*
%TO.P,J2,3*%
%TO.N,/SDO*%
X15494000Y68547000D03*
%TO.P,J2,4*%
%TO.N,/CSB*%
X18034000Y68547000D03*
%TO.P,J2,5*%
%TO.N,/SDA*%
X20574000Y68547000D03*
%TO.P,J2,6*%
%TO.N,/SCL*%
X23114000Y68547000D03*
%TD*%
%TO.P,J3,21*%
%TO.N,/3v3*%
X4590000Y55118000D03*
%TO.P,J3,20*%
%TO.N,N/C*%
X4590000Y52578000D03*
%TO.P,J3,19*%
%TO.N,/SDO*%
X4590000Y50038000D03*
%TO.P,J3,18*%
%TO.N,/CSB*%
X4590000Y47498000D03*
%TO.P,J3,17*%
%TO.N,/SDA*%
X4590000Y44958000D03*
%TO.P,J3,16*%
%TO.N,/SCL*%
X4590000Y42418000D03*
%TO.P,J3,15*%
%TO.N,N/C*%
X4590000Y39878000D03*
%TO.P,J3,14*%
X4590000Y37338000D03*
%TO.P,J3,13*%
X4590000Y34798000D03*
%TO.P,J3,12*%
X4590000Y32258000D03*
%TO.P,J3,11*%
X4590000Y29718000D03*
%TO.P,J3,10*%
X4590000Y27178000D03*
%TO.P,J3,9*%
X4590000Y24638000D03*
%TO.P,J3,8*%
X4590000Y22098000D03*
%TO.P,J3,7*%
X4590000Y19558000D03*
%TO.P,J3,6*%
X4590000Y17018000D03*
%TO.P,J3,5*%
X4590000Y14478000D03*
%TO.P,J3,4*%
X4590000Y11938000D03*
%TO.P,J3,3*%
X4590000Y9398000D03*
%TO.P,J3,2*%
X4590000Y6858000D03*
D10*
%TO.P,J3,1*%
%TO.N,GND*%
X4590000Y4318000D03*
%TD*%
D12*
%TO.N,/3v3*%
X10414000Y60942000D02*
X4590000Y55118000D01*
X10414000Y68547000D02*
X10414000Y60942000D01*
%TO.N,/SDO*%
X7493000Y50038000D02*
X4590000Y50038000D01*
X15494000Y58039000D02*
X7493000Y50038000D01*
X15494000Y68547000D02*
X15494000Y58039000D01*
%TO.N,/CSB*%
X8890000Y47498000D02*
X4590000Y47498000D01*
X18034000Y56642000D02*
X8890000Y47498000D01*
X18034000Y68547000D02*
X18034000Y56642000D01*
%TO.N,/SDA*%
X20574000Y68547000D02*
X20574000Y68326000D01*
X20574000Y55372000D02*
X10160000Y44958000D01*
X10160000Y44958000D02*
X4590000Y44958000D01*
X20574000Y68547000D02*
X20574000Y55372000D01*
%TO.N,/SCL*%
X11049000Y42418000D02*
X4590000Y42418000D01*
X23114000Y54483000D02*
X11049000Y42418000D01*
X23114000Y68547000D02*
X23114000Y54483000D01*
%TD*%
D13*
%TO.N,GND*%
X33019772Y1397000D02*
X1397000Y1397000D01*
X1397000Y3468000D01*
X3101928Y3468000D01*
X3114188Y3343518D01*
X3150498Y3223820D01*
X3209463Y3113506D01*
X3288815Y3016815D01*
X3385506Y2937463D01*
X3495820Y2878498D01*
X3615518Y2842188D01*
X3740000Y2829928D01*
X4304250Y2833000D01*
X4463000Y2991750D01*
X4463000Y4191000D01*
X4717000Y4191000D01*
X4717000Y2991750D01*
X4875750Y2833000D01*
X5440000Y2829928D01*
X5564482Y2842188D01*
X5684180Y2878498D01*
X5794494Y2937463D01*
X5891185Y3016815D01*
X5970537Y3113506D01*
X6029502Y3223820D01*
X6065812Y3343518D01*
X6078072Y3468000D01*
X6075000Y4032250D01*
X5916250Y4191000D01*
X4717000Y4191000D01*
X4463000Y4191000D01*
X3263750Y4191000D01*
X3105000Y4032250D01*
X3101928Y3468000D01*
X1397000Y3468000D01*
X1397000Y5168000D01*
X3101928Y5168000D01*
X3105000Y4603750D01*
X3263750Y4445000D01*
X4463000Y4445000D01*
X4463000Y4465000D01*
X4717000Y4465000D01*
X4717000Y4445000D01*
X5916250Y4445000D01*
X6075000Y4603750D01*
X6078072Y5168000D01*
X6065812Y5292482D01*
X6029502Y5412180D01*
X5970537Y5522494D01*
X5891185Y5619185D01*
X5794494Y5698537D01*
X5684180Y5757502D01*
X5611620Y5779513D01*
X5743475Y5911368D01*
X5905990Y6154589D01*
X6017932Y6424842D01*
X6075000Y6711740D01*
X6075000Y7004260D01*
X6017932Y7291158D01*
X5905990Y7561411D01*
X5743475Y7804632D01*
X5536632Y8011475D01*
X5362240Y8128000D01*
X5536632Y8244525D01*
X5743475Y8451368D01*
X5905990Y8694589D01*
X6017932Y8964842D01*
X6075000Y9251740D01*
X6075000Y9544260D01*
X6017932Y9831158D01*
X5905990Y10101411D01*
X5743475Y10344632D01*
X5536632Y10551475D01*
X5362240Y10668000D01*
X5536632Y10784525D01*
X5743475Y10991368D01*
X5905990Y11234589D01*
X6017932Y11504842D01*
X6075000Y11791740D01*
X6075000Y12084260D01*
X6017932Y12371158D01*
X5905990Y12641411D01*
X5743475Y12884632D01*
X5536632Y13091475D01*
X5362240Y13208000D01*
X5536632Y13324525D01*
X5743475Y13531368D01*
X5905990Y13774589D01*
X6017932Y14044842D01*
X6075000Y14331740D01*
X6075000Y14624260D01*
X6017932Y14911158D01*
X5905990Y15181411D01*
X5743475Y15424632D01*
X5536632Y15631475D01*
X5362240Y15748000D01*
X5536632Y15864525D01*
X5743475Y16071368D01*
X5905990Y16314589D01*
X6017932Y16584842D01*
X6075000Y16871740D01*
X6075000Y17164260D01*
X6017932Y17451158D01*
X5905990Y17721411D01*
X5743475Y17964632D01*
X5536632Y18171475D01*
X5362240Y18288000D01*
X5536632Y18404525D01*
X5743475Y18611368D01*
X5905990Y18854589D01*
X6017932Y19124842D01*
X6075000Y19411740D01*
X6075000Y19704260D01*
X6017932Y19991158D01*
X5905990Y20261411D01*
X5743475Y20504632D01*
X5536632Y20711475D01*
X5362240Y20828000D01*
X5536632Y20944525D01*
X5743475Y21151368D01*
X5905990Y21394589D01*
X6017932Y21664842D01*
X6075000Y21951740D01*
X6075000Y22244260D01*
X6017932Y22531158D01*
X5905990Y22801411D01*
X5743475Y23044632D01*
X5536632Y23251475D01*
X5362240Y23368000D01*
X5536632Y23484525D01*
X5743475Y23691368D01*
X5905990Y23934589D01*
X6017932Y24204842D01*
X6075000Y24491740D01*
X6075000Y24784260D01*
X6017932Y25071158D01*
X5905990Y25341411D01*
X5743475Y25584632D01*
X5536632Y25791475D01*
X5362240Y25908000D01*
X5536632Y26024525D01*
X5743475Y26231368D01*
X5905990Y26474589D01*
X6017932Y26744842D01*
X6075000Y27031740D01*
X6075000Y27324260D01*
X6017932Y27611158D01*
X5905990Y27881411D01*
X5743475Y28124632D01*
X5536632Y28331475D01*
X5362240Y28448000D01*
X5536632Y28564525D01*
X5743475Y28771368D01*
X5905990Y29014589D01*
X6017932Y29284842D01*
X6075000Y29571740D01*
X6075000Y29864260D01*
X6017932Y30151158D01*
X5905990Y30421411D01*
X5743475Y30664632D01*
X5536632Y30871475D01*
X5362240Y30988000D01*
X5536632Y31104525D01*
X5743475Y31311368D01*
X5905990Y31554589D01*
X6017932Y31824842D01*
X6075000Y32111740D01*
X6075000Y32404260D01*
X6017932Y32691158D01*
X5905990Y32961411D01*
X5743475Y33204632D01*
X5536632Y33411475D01*
X5362240Y33528000D01*
X5536632Y33644525D01*
X5743475Y33851368D01*
X5905990Y34094589D01*
X6017932Y34364842D01*
X6075000Y34651740D01*
X6075000Y34944260D01*
X6017932Y35231158D01*
X5905990Y35501411D01*
X5743475Y35744632D01*
X5536632Y35951475D01*
X5362240Y36068000D01*
X5536632Y36184525D01*
X5743475Y36391368D01*
X5905990Y36634589D01*
X6017932Y36904842D01*
X6075000Y37191740D01*
X6075000Y37484260D01*
X6017932Y37771158D01*
X5905990Y38041411D01*
X5743475Y38284632D01*
X5536632Y38491475D01*
X5362240Y38608000D01*
X5536632Y38724525D01*
X5743475Y38931368D01*
X5905990Y39174589D01*
X6017932Y39444842D01*
X6075000Y39731740D01*
X6075000Y40024260D01*
X6017932Y40311158D01*
X5905990Y40581411D01*
X5743475Y40824632D01*
X5536632Y41031475D01*
X5362240Y41148000D01*
X5536632Y41264525D01*
X5680107Y41408000D01*
X10999392Y41408000D01*
X11049000Y41403114D01*
X11246994Y41422615D01*
X11437380Y41480368D01*
X11612840Y41574153D01*
X11766633Y41700367D01*
X11798261Y41738906D01*
X23793100Y53733744D01*
X23831633Y53765367D01*
X23957847Y53919160D01*
X24051632Y54094620D01*
X24074913Y54171368D01*
X24104226Y54268000D01*
X28101928Y54268000D01*
X28114188Y54143518D01*
X28150498Y54023820D01*
X28209463Y53913506D01*
X28288815Y53816815D01*
X28385506Y53737463D01*
X28495820Y53678498D01*
X28568380Y53656487D01*
X28436525Y53524632D01*
X28274010Y53281411D01*
X28162068Y53011158D01*
X28105000Y52724260D01*
X28105000Y52431740D01*
X28162068Y52144842D01*
X28274010Y51874589D01*
X28436525Y51631368D01*
X28643368Y51424525D01*
X28817760Y51308000D01*
X28643368Y51191475D01*
X28436525Y50984632D01*
X28274010Y50741411D01*
X28162068Y50471158D01*
X28105000Y50184260D01*
X28105000Y49891740D01*
X28162068Y49604842D01*
X28274010Y49334589D01*
X28436525Y49091368D01*
X28643368Y48884525D01*
X28817760Y48768000D01*
X28643368Y48651475D01*
X28436525Y48444632D01*
X28274010Y48201411D01*
X28162068Y47931158D01*
X28105000Y47644260D01*
X28105000Y47351740D01*
X28162068Y47064842D01*
X28274010Y46794589D01*
X28436525Y46551368D01*
X28643368Y46344525D01*
X28817760Y46228000D01*
X28643368Y46111475D01*
X28436525Y45904632D01*
X28274010Y45661411D01*
X28162068Y45391158D01*
X28105000Y45104260D01*
X28105000Y44811740D01*
X28162068Y44524842D01*
X28274010Y44254589D01*
X28436525Y44011368D01*
X28643368Y43804525D01*
X28817760Y43688000D01*
X28643368Y43571475D01*
X28436525Y43364632D01*
X28274010Y43121411D01*
X28162068Y42851158D01*
X28105000Y42564260D01*
X28105000Y42271740D01*
X28162068Y41984842D01*
X28274010Y41714589D01*
X28436525Y41471368D01*
X28643368Y41264525D01*
X28817760Y41148000D01*
X28643368Y41031475D01*
X28436525Y40824632D01*
X28274010Y40581411D01*
X28162068Y40311158D01*
X28105000Y40024260D01*
X28105000Y39731740D01*
X28162068Y39444842D01*
X28274010Y39174589D01*
X28436525Y38931368D01*
X28643368Y38724525D01*
X28817760Y38608000D01*
X28643368Y38491475D01*
X28436525Y38284632D01*
X28274010Y38041411D01*
X28162068Y37771158D01*
X28105000Y37484260D01*
X28105000Y37191740D01*
X28162068Y36904842D01*
X28274010Y36634589D01*
X28436525Y36391368D01*
X28643368Y36184525D01*
X28817760Y36068000D01*
X28643368Y35951475D01*
X28436525Y35744632D01*
X28274010Y35501411D01*
X28162068Y35231158D01*
X28105000Y34944260D01*
X28105000Y34651740D01*
X28162068Y34364842D01*
X28274010Y34094589D01*
X28436525Y33851368D01*
X28643368Y33644525D01*
X28817760Y33528000D01*
X28643368Y33411475D01*
X28436525Y33204632D01*
X28274010Y32961411D01*
X28162068Y32691158D01*
X28105000Y32404260D01*
X28105000Y32111740D01*
X28162068Y31824842D01*
X28274010Y31554589D01*
X28436525Y31311368D01*
X28643368Y31104525D01*
X28817760Y30988000D01*
X28643368Y30871475D01*
X28436525Y30664632D01*
X28274010Y30421411D01*
X28162068Y30151158D01*
X28105000Y29864260D01*
X28105000Y29571740D01*
X28162068Y29284842D01*
X28274010Y29014589D01*
X28436525Y28771368D01*
X28643368Y28564525D01*
X28817760Y28448000D01*
X28643368Y28331475D01*
X28436525Y28124632D01*
X28274010Y27881411D01*
X28162068Y27611158D01*
X28105000Y27324260D01*
X28105000Y27031740D01*
X28162068Y26744842D01*
X28274010Y26474589D01*
X28436525Y26231368D01*
X28643368Y26024525D01*
X28817760Y25908000D01*
X28643368Y25791475D01*
X28436525Y25584632D01*
X28274010Y25341411D01*
X28162068Y25071158D01*
X28105000Y24784260D01*
X28105000Y24491740D01*
X28162068Y24204842D01*
X28274010Y23934589D01*
X28436525Y23691368D01*
X28643368Y23484525D01*
X28817760Y23368000D01*
X28643368Y23251475D01*
X28436525Y23044632D01*
X28274010Y22801411D01*
X28162068Y22531158D01*
X28105000Y22244260D01*
X28105000Y21951740D01*
X28162068Y21664842D01*
X28274010Y21394589D01*
X28436525Y21151368D01*
X28643368Y20944525D01*
X28817760Y20828000D01*
X28643368Y20711475D01*
X28436525Y20504632D01*
X28274010Y20261411D01*
X28162068Y19991158D01*
X28105000Y19704260D01*
X28105000Y19411740D01*
X28162068Y19124842D01*
X28274010Y18854589D01*
X28436525Y18611368D01*
X28643368Y18404525D01*
X28817760Y18288000D01*
X28643368Y18171475D01*
X28436525Y17964632D01*
X28274010Y17721411D01*
X28162068Y17451158D01*
X28105000Y17164260D01*
X28105000Y16871740D01*
X28162068Y16584842D01*
X28274010Y16314589D01*
X28436525Y16071368D01*
X28643368Y15864525D01*
X28817760Y15748000D01*
X28643368Y15631475D01*
X28436525Y15424632D01*
X28274010Y15181411D01*
X28162068Y14911158D01*
X28105000Y14624260D01*
X28105000Y14331740D01*
X28162068Y14044842D01*
X28274010Y13774589D01*
X28436525Y13531368D01*
X28643368Y13324525D01*
X28817760Y13208000D01*
X28643368Y13091475D01*
X28436525Y12884632D01*
X28274010Y12641411D01*
X28162068Y12371158D01*
X28105000Y12084260D01*
X28105000Y11791740D01*
X28162068Y11504842D01*
X28274010Y11234589D01*
X28436525Y10991368D01*
X28643368Y10784525D01*
X28817760Y10668000D01*
X28643368Y10551475D01*
X28436525Y10344632D01*
X28274010Y10101411D01*
X28162068Y9831158D01*
X28105000Y9544260D01*
X28105000Y9251740D01*
X28162068Y8964842D01*
X28274010Y8694589D01*
X28436525Y8451368D01*
X28643368Y8244525D01*
X28817760Y8128000D01*
X28643368Y8011475D01*
X28436525Y7804632D01*
X28274010Y7561411D01*
X28162068Y7291158D01*
X28105000Y7004260D01*
X28105000Y6711740D01*
X28162068Y6424842D01*
X28274010Y6154589D01*
X28436525Y5911368D01*
X28643368Y5704525D01*
X28817760Y5588000D01*
X28643368Y5471475D01*
X28436525Y5264632D01*
X28274010Y5021411D01*
X28162068Y4751158D01*
X28105000Y4464260D01*
X28105000Y4171740D01*
X28162068Y3884842D01*
X28274010Y3614589D01*
X28436525Y3371368D01*
X28643368Y3164525D01*
X28886589Y3002010D01*
X29156842Y2890068D01*
X29443740Y2833000D01*
X29736260Y2833000D01*
X30023158Y2890068D01*
X30293411Y3002010D01*
X30536632Y3164525D01*
X30743475Y3371368D01*
X30905990Y3614589D01*
X31017932Y3884842D01*
X31075000Y4171740D01*
X31075000Y4464260D01*
X31017932Y4751158D01*
X30905990Y5021411D01*
X30743475Y5264632D01*
X30536632Y5471475D01*
X30362240Y5588000D01*
X30536632Y5704525D01*
X30743475Y5911368D01*
X30905990Y6154589D01*
X31017932Y6424842D01*
X31075000Y6711740D01*
X31075000Y7004260D01*
X31017932Y7291158D01*
X30905990Y7561411D01*
X30743475Y7804632D01*
X30536632Y8011475D01*
X30362240Y8128000D01*
X30536632Y8244525D01*
X30743475Y8451368D01*
X30905990Y8694589D01*
X31017932Y8964842D01*
X31075000Y9251740D01*
X31075000Y9544260D01*
X31017932Y9831158D01*
X30905990Y10101411D01*
X30743475Y10344632D01*
X30536632Y10551475D01*
X30362240Y10668000D01*
X30536632Y10784525D01*
X30743475Y10991368D01*
X30905990Y11234589D01*
X31017932Y11504842D01*
X31075000Y11791740D01*
X31075000Y12084260D01*
X31017932Y12371158D01*
X30905990Y12641411D01*
X30743475Y12884632D01*
X30536632Y13091475D01*
X30362240Y13208000D01*
X30536632Y13324525D01*
X30743475Y13531368D01*
X30905990Y13774589D01*
X31017932Y14044842D01*
X31075000Y14331740D01*
X31075000Y14624260D01*
X31017932Y14911158D01*
X30905990Y15181411D01*
X30743475Y15424632D01*
X30536632Y15631475D01*
X30362240Y15748000D01*
X30536632Y15864525D01*
X30743475Y16071368D01*
X30905990Y16314589D01*
X31017932Y16584842D01*
X31075000Y16871740D01*
X31075000Y17164260D01*
X31017932Y17451158D01*
X30905990Y17721411D01*
X30743475Y17964632D01*
X30536632Y18171475D01*
X30362240Y18288000D01*
X30536632Y18404525D01*
X30743475Y18611368D01*
X30905990Y18854589D01*
X31017932Y19124842D01*
X31075000Y19411740D01*
X31075000Y19704260D01*
X31017932Y19991158D01*
X30905990Y20261411D01*
X30743475Y20504632D01*
X30536632Y20711475D01*
X30362240Y20828000D01*
X30536632Y20944525D01*
X30743475Y21151368D01*
X30905990Y21394589D01*
X31017932Y21664842D01*
X31075000Y21951740D01*
X31075000Y22244260D01*
X31017932Y22531158D01*
X30905990Y22801411D01*
X30743475Y23044632D01*
X30536632Y23251475D01*
X30362240Y23368000D01*
X30536632Y23484525D01*
X30743475Y23691368D01*
X30905990Y23934589D01*
X31017932Y24204842D01*
X31075000Y24491740D01*
X31075000Y24784260D01*
X31017932Y25071158D01*
X30905990Y25341411D01*
X30743475Y25584632D01*
X30536632Y25791475D01*
X30362240Y25908000D01*
X30536632Y26024525D01*
X30743475Y26231368D01*
X30905990Y26474589D01*
X31017932Y26744842D01*
X31075000Y27031740D01*
X31075000Y27324260D01*
X31017932Y27611158D01*
X30905990Y27881411D01*
X30743475Y28124632D01*
X30536632Y28331475D01*
X30362240Y28448000D01*
X30536632Y28564525D01*
X30743475Y28771368D01*
X30905990Y29014589D01*
X31017932Y29284842D01*
X31075000Y29571740D01*
X31075000Y29864260D01*
X31017932Y30151158D01*
X30905990Y30421411D01*
X30743475Y30664632D01*
X30536632Y30871475D01*
X30362240Y30988000D01*
X30536632Y31104525D01*
X30743475Y31311368D01*
X30905990Y31554589D01*
X31017932Y31824842D01*
X31075000Y32111740D01*
X31075000Y32404260D01*
X31017932Y32691158D01*
X30905990Y32961411D01*
X30743475Y33204632D01*
X30536632Y33411475D01*
X30362240Y33528000D01*
X30536632Y33644525D01*
X30743475Y33851368D01*
X30905990Y34094589D01*
X31017932Y34364842D01*
X31075000Y34651740D01*
X31075000Y34944260D01*
X31017932Y35231158D01*
X30905990Y35501411D01*
X30743475Y35744632D01*
X30536632Y35951475D01*
X30362240Y36068000D01*
X30536632Y36184525D01*
X30743475Y36391368D01*
X30905990Y36634589D01*
X31017932Y36904842D01*
X31075000Y37191740D01*
X31075000Y37484260D01*
X31017932Y37771158D01*
X30905990Y38041411D01*
X30743475Y38284632D01*
X30536632Y38491475D01*
X30362240Y38608000D01*
X30536632Y38724525D01*
X30743475Y38931368D01*
X30905990Y39174589D01*
X31017932Y39444842D01*
X31075000Y39731740D01*
X31075000Y40024260D01*
X31017932Y40311158D01*
X30905990Y40581411D01*
X30743475Y40824632D01*
X30536632Y41031475D01*
X30362240Y41148000D01*
X30536632Y41264525D01*
X30743475Y41471368D01*
X30905990Y41714589D01*
X31017932Y41984842D01*
X31075000Y42271740D01*
X31075000Y42564260D01*
X31017932Y42851158D01*
X30905990Y43121411D01*
X30743475Y43364632D01*
X30536632Y43571475D01*
X30362240Y43688000D01*
X30536632Y43804525D01*
X30743475Y44011368D01*
X30905990Y44254589D01*
X31017932Y44524842D01*
X31075000Y44811740D01*
X31075000Y45104260D01*
X31017932Y45391158D01*
X30905990Y45661411D01*
X30743475Y45904632D01*
X30536632Y46111475D01*
X30362240Y46228000D01*
X30536632Y46344525D01*
X30743475Y46551368D01*
X30905990Y46794589D01*
X31017932Y47064842D01*
X31075000Y47351740D01*
X31075000Y47644260D01*
X31017932Y47931158D01*
X30905990Y48201411D01*
X30743475Y48444632D01*
X30536632Y48651475D01*
X30362240Y48768000D01*
X30536632Y48884525D01*
X30743475Y49091368D01*
X30905990Y49334589D01*
X31017932Y49604842D01*
X31075000Y49891740D01*
X31075000Y50184260D01*
X31017932Y50471158D01*
X30905990Y50741411D01*
X30743475Y50984632D01*
X30536632Y51191475D01*
X30362240Y51308000D01*
X30536632Y51424525D01*
X30743475Y51631368D01*
X30905990Y51874589D01*
X31017932Y52144842D01*
X31075000Y52431740D01*
X31075000Y52724260D01*
X31017932Y53011158D01*
X30905990Y53281411D01*
X30743475Y53524632D01*
X30611620Y53656487D01*
X30684180Y53678498D01*
X30794494Y53737463D01*
X30891185Y53816815D01*
X30970537Y53913506D01*
X31029502Y54023820D01*
X31065812Y54143518D01*
X31078072Y54268000D01*
X31075000Y54832250D01*
X30916250Y54991000D01*
X29717000Y54991000D01*
X29717000Y54971000D01*
X29463000Y54971000D01*
X29463000Y54991000D01*
X28263750Y54991000D01*
X28105000Y54832250D01*
X28101928Y54268000D01*
X24104226Y54268000D01*
X24109385Y54285005D01*
X24128886Y54483000D01*
X24124000Y54532608D01*
X24124000Y55968000D01*
X28101928Y55968000D01*
X28105000Y55403750D01*
X28263750Y55245000D01*
X29463000Y55245000D01*
X29463000Y56444250D01*
X29717000Y56444250D01*
X29717000Y55245000D01*
X30916250Y55245000D01*
X31075000Y55403750D01*
X31078072Y55968000D01*
X31065812Y56092482D01*
X31029502Y56212180D01*
X30970537Y56322494D01*
X30891185Y56419185D01*
X30794494Y56498537D01*
X30684180Y56557502D01*
X30564482Y56593812D01*
X30440000Y56606072D01*
X29875750Y56603000D01*
X29717000Y56444250D01*
X29463000Y56444250D01*
X29304250Y56603000D01*
X28740000Y56606072D01*
X28615518Y56593812D01*
X28495820Y56557502D01*
X28385506Y56498537D01*
X28288815Y56419185D01*
X28209463Y56322494D01*
X28150498Y56212180D01*
X28114188Y56092482D01*
X28101928Y55968000D01*
X24124000Y55968000D01*
X24124000Y67456893D01*
X24267475Y67600368D01*
X24429990Y67843589D01*
X24541932Y68113842D01*
X24599000Y68400740D01*
X24599000Y68693260D01*
X24541932Y68980158D01*
X24429990Y69250411D01*
X24267475Y69493632D01*
X24060632Y69700475D01*
X23817411Y69862990D01*
X23547158Y69974932D01*
X23260260Y70032000D01*
X22967740Y70032000D01*
X22680842Y69974932D01*
X22410589Y69862990D01*
X22167368Y69700475D01*
X21960525Y69493632D01*
X21844000Y69319240D01*
X21727475Y69493632D01*
X21520632Y69700475D01*
X21277411Y69862990D01*
X21007158Y69974932D01*
X20720260Y70032000D01*
X20427740Y70032000D01*
X20140842Y69974932D01*
X19870589Y69862990D01*
X19627368Y69700475D01*
X19420525Y69493632D01*
X19304000Y69319240D01*
X19187475Y69493632D01*
X18980632Y69700475D01*
X18737411Y69862990D01*
X18467158Y69974932D01*
X18180260Y70032000D01*
X17887740Y70032000D01*
X17600842Y69974932D01*
X17330589Y69862990D01*
X17087368Y69700475D01*
X16880525Y69493632D01*
X16764000Y69319240D01*
X16647475Y69493632D01*
X16440632Y69700475D01*
X16197411Y69862990D01*
X15927158Y69974932D01*
X15640260Y70032000D01*
X15347740Y70032000D01*
X15060842Y69974932D01*
X14790589Y69862990D01*
X14547368Y69700475D01*
X14340525Y69493632D01*
X14218805Y69311466D01*
X14149178Y69428355D01*
X13954269Y69644588D01*
X13720920Y69818641D01*
X13458099Y69943825D01*
X13310890Y69988476D01*
X13081000Y69867155D01*
X13081000Y68674000D01*
X13101000Y68674000D01*
X13101000Y68420000D01*
X13081000Y68420000D01*
X13081000Y67226845D01*
X13310890Y67105524D01*
X13458099Y67150175D01*
X13720920Y67275359D01*
X13954269Y67449412D01*
X14149178Y67665645D01*
X14218805Y67782534D01*
X14340525Y67600368D01*
X14484000Y67456893D01*
X14484001Y58457357D01*
X7074645Y51048000D01*
X5680107Y51048000D01*
X5536632Y51191475D01*
X5362240Y51308000D01*
X5536632Y51424525D01*
X5743475Y51631368D01*
X5905990Y51874589D01*
X6017932Y52144842D01*
X6075000Y52431740D01*
X6075000Y52724260D01*
X6017932Y53011158D01*
X5905990Y53281411D01*
X5743475Y53524632D01*
X5536632Y53731475D01*
X5362240Y53848000D01*
X5536632Y53964525D01*
X5743475Y54171368D01*
X5905990Y54414589D01*
X6017932Y54684842D01*
X6075000Y54971740D01*
X6075000Y55174645D01*
X11093100Y60192744D01*
X11131633Y60224367D01*
X11257847Y60378160D01*
X11351632Y60553620D01*
X11409385Y60744006D01*
X11424000Y60892392D01*
X11428886Y60942000D01*
X11424000Y60991608D01*
X11424000Y67081962D01*
X11508180Y67107498D01*
X11618494Y67166463D01*
X11715185Y67245815D01*
X11794537Y67342506D01*
X11853502Y67452820D01*
X11877966Y67533466D01*
X11953731Y67449412D01*
X12187080Y67275359D01*
X12449901Y67150175D01*
X12597110Y67105524D01*
X12827000Y67226845D01*
X12827000Y68420000D01*
X12807000Y68420000D01*
X12807000Y68674000D01*
X12827000Y68674000D01*
X12827000Y69867155D01*
X12597110Y69988476D01*
X12449901Y69943825D01*
X12187080Y69818641D01*
X11953731Y69644588D01*
X11877966Y69560534D01*
X11853502Y69641180D01*
X11794537Y69751494D01*
X11715185Y69848185D01*
X11618494Y69927537D01*
X11508180Y69986502D01*
X11388482Y70022812D01*
X11264000Y70035072D01*
X9564000Y70035072D01*
X9439518Y70022812D01*
X9319820Y69986502D01*
X9209506Y69927537D01*
X9112815Y69848185D01*
X9033463Y69751494D01*
X8974498Y69641180D01*
X8938188Y69521482D01*
X8925928Y69397000D01*
X8925928Y67697000D01*
X8938188Y67572518D01*
X8974498Y67452820D01*
X9033463Y67342506D01*
X9112815Y67245815D01*
X9209506Y67166463D01*
X9319820Y67107498D01*
X9404000Y67081962D01*
X9404001Y61360357D01*
X4646645Y56603000D01*
X4443740Y56603000D01*
X4156842Y56545932D01*
X3886589Y56433990D01*
X3643368Y56271475D01*
X3436525Y56064632D01*
X3274010Y55821411D01*
X3162068Y55551158D01*
X3105000Y55264260D01*
X3105000Y54971740D01*
X3162068Y54684842D01*
X3274010Y54414589D01*
X3436525Y54171368D01*
X3643368Y53964525D01*
X3817760Y53848000D01*
X3643368Y53731475D01*
X3436525Y53524632D01*
X3274010Y53281411D01*
X3162068Y53011158D01*
X3105000Y52724260D01*
X3105000Y52431740D01*
X3162068Y52144842D01*
X3274010Y51874589D01*
X3436525Y51631368D01*
X3643368Y51424525D01*
X3817760Y51308000D01*
X3643368Y51191475D01*
X3436525Y50984632D01*
X3274010Y50741411D01*
X3162068Y50471158D01*
X3105000Y50184260D01*
X3105000Y49891740D01*
X3162068Y49604842D01*
X3274010Y49334589D01*
X3436525Y49091368D01*
X3643368Y48884525D01*
X3817760Y48768000D01*
X3643368Y48651475D01*
X3436525Y48444632D01*
X3274010Y48201411D01*
X3162068Y47931158D01*
X3105000Y47644260D01*
X3105000Y47351740D01*
X3162068Y47064842D01*
X3274010Y46794589D01*
X3436525Y46551368D01*
X3643368Y46344525D01*
X3817760Y46228000D01*
X3643368Y46111475D01*
X3436525Y45904632D01*
X3274010Y45661411D01*
X3162068Y45391158D01*
X3105000Y45104260D01*
X3105000Y44811740D01*
X3162068Y44524842D01*
X3274010Y44254589D01*
X3436525Y44011368D01*
X3643368Y43804525D01*
X3817760Y43688000D01*
X3643368Y43571475D01*
X3436525Y43364632D01*
X3274010Y43121411D01*
X3162068Y42851158D01*
X3105000Y42564260D01*
X3105000Y42271740D01*
X3162068Y41984842D01*
X3274010Y41714589D01*
X3436525Y41471368D01*
X3643368Y41264525D01*
X3817760Y41148000D01*
X3643368Y41031475D01*
X3436525Y40824632D01*
X3274010Y40581411D01*
X3162068Y40311158D01*
X3105000Y40024260D01*
X3105000Y39731740D01*
X3162068Y39444842D01*
X3274010Y39174589D01*
X3436525Y38931368D01*
X3643368Y38724525D01*
X3817760Y38608000D01*
X3643368Y38491475D01*
X3436525Y38284632D01*
X3274010Y38041411D01*
X3162068Y37771158D01*
X3105000Y37484260D01*
X3105000Y37191740D01*
X3162068Y36904842D01*
X3274010Y36634589D01*
X3436525Y36391368D01*
X3643368Y36184525D01*
X3817760Y36068000D01*
X3643368Y35951475D01*
X3436525Y35744632D01*
X3274010Y35501411D01*
X3162068Y35231158D01*
X3105000Y34944260D01*
X3105000Y34651740D01*
X3162068Y34364842D01*
X3274010Y34094589D01*
X3436525Y33851368D01*
X3643368Y33644525D01*
X3817760Y33528000D01*
X3643368Y33411475D01*
X3436525Y33204632D01*
X3274010Y32961411D01*
X3162068Y32691158D01*
X3105000Y32404260D01*
X3105000Y32111740D01*
X3162068Y31824842D01*
X3274010Y31554589D01*
X3436525Y31311368D01*
X3643368Y31104525D01*
X3817760Y30988000D01*
X3643368Y30871475D01*
X3436525Y30664632D01*
X3274010Y30421411D01*
X3162068Y30151158D01*
X3105000Y29864260D01*
X3105000Y29571740D01*
X3162068Y29284842D01*
X3274010Y29014589D01*
X3436525Y28771368D01*
X3643368Y28564525D01*
X3817760Y28448000D01*
X3643368Y28331475D01*
X3436525Y28124632D01*
X3274010Y27881411D01*
X3162068Y27611158D01*
X3105000Y27324260D01*
X3105000Y27031740D01*
X3162068Y26744842D01*
X3274010Y26474589D01*
X3436525Y26231368D01*
X3643368Y26024525D01*
X3817760Y25908000D01*
X3643368Y25791475D01*
X3436525Y25584632D01*
X3274010Y25341411D01*
X3162068Y25071158D01*
X3105000Y24784260D01*
X3105000Y24491740D01*
X3162068Y24204842D01*
X3274010Y23934589D01*
X3436525Y23691368D01*
X3643368Y23484525D01*
X3817760Y23368000D01*
X3643368Y23251475D01*
X3436525Y23044632D01*
X3274010Y22801411D01*
X3162068Y22531158D01*
X3105000Y22244260D01*
X3105000Y21951740D01*
X3162068Y21664842D01*
X3274010Y21394589D01*
X3436525Y21151368D01*
X3643368Y20944525D01*
X3817760Y20828000D01*
X3643368Y20711475D01*
X3436525Y20504632D01*
X3274010Y20261411D01*
X3162068Y19991158D01*
X3105000Y19704260D01*
X3105000Y19411740D01*
X3162068Y19124842D01*
X3274010Y18854589D01*
X3436525Y18611368D01*
X3643368Y18404525D01*
X3817760Y18288000D01*
X3643368Y18171475D01*
X3436525Y17964632D01*
X3274010Y17721411D01*
X3162068Y17451158D01*
X3105000Y17164260D01*
X3105000Y16871740D01*
X3162068Y16584842D01*
X3274010Y16314589D01*
X3436525Y16071368D01*
X3643368Y15864525D01*
X3817760Y15748000D01*
X3643368Y15631475D01*
X3436525Y15424632D01*
X3274010Y15181411D01*
X3162068Y14911158D01*
X3105000Y14624260D01*
X3105000Y14331740D01*
X3162068Y14044842D01*
X3274010Y13774589D01*
X3436525Y13531368D01*
X3643368Y13324525D01*
X3817760Y13208000D01*
X3643368Y13091475D01*
X3436525Y12884632D01*
X3274010Y12641411D01*
X3162068Y12371158D01*
X3105000Y12084260D01*
X3105000Y11791740D01*
X3162068Y11504842D01*
X3274010Y11234589D01*
X3436525Y10991368D01*
X3643368Y10784525D01*
X3817760Y10668000D01*
X3643368Y10551475D01*
X3436525Y10344632D01*
X3274010Y10101411D01*
X3162068Y9831158D01*
X3105000Y9544260D01*
X3105000Y9251740D01*
X3162068Y8964842D01*
X3274010Y8694589D01*
X3436525Y8451368D01*
X3643368Y8244525D01*
X3817760Y8128000D01*
X3643368Y8011475D01*
X3436525Y7804632D01*
X3274010Y7561411D01*
X3162068Y7291158D01*
X3105000Y7004260D01*
X3105000Y6711740D01*
X3162068Y6424842D01*
X3274010Y6154589D01*
X3436525Y5911368D01*
X3568380Y5779513D01*
X3495820Y5757502D01*
X3385506Y5698537D01*
X3288815Y5619185D01*
X3209463Y5522494D01*
X3150498Y5412180D01*
X3114188Y5292482D01*
X3101928Y5168000D01*
X1397000Y5168000D01*
X1397000Y72009000D01*
X32893227Y72009000D01*
X33019772Y1397000D01*
%TA.AperFunction,Conductor*%
D14*
G36*
X33019772Y1397000D02*
G01*
X1397000Y1397000D01*
X1397000Y3468000D01*
X3101928Y3468000D01*
X3114188Y3343518D01*
X3150498Y3223820D01*
X3209463Y3113506D01*
X3288815Y3016815D01*
X3385506Y2937463D01*
X3495820Y2878498D01*
X3615518Y2842188D01*
X3740000Y2829928D01*
X4304250Y2833000D01*
X4463000Y2991750D01*
X4463000Y4191000D01*
X4717000Y4191000D01*
X4717000Y2991750D01*
X4875750Y2833000D01*
X5440000Y2829928D01*
X5564482Y2842188D01*
X5684180Y2878498D01*
X5794494Y2937463D01*
X5891185Y3016815D01*
X5970537Y3113506D01*
X6029502Y3223820D01*
X6065812Y3343518D01*
X6078072Y3468000D01*
X6075000Y4032250D01*
X5916250Y4191000D01*
X4717000Y4191000D01*
X4463000Y4191000D01*
X3263750Y4191000D01*
X3105000Y4032250D01*
X3101928Y3468000D01*
X1397000Y3468000D01*
X1397000Y5168000D01*
X3101928Y5168000D01*
X3105000Y4603750D01*
X3263750Y4445000D01*
X4463000Y4445000D01*
X4463000Y4465000D01*
X4717000Y4465000D01*
X4717000Y4445000D01*
X5916250Y4445000D01*
X6075000Y4603750D01*
X6078072Y5168000D01*
X6065812Y5292482D01*
X6029502Y5412180D01*
X5970537Y5522494D01*
X5891185Y5619185D01*
X5794494Y5698537D01*
X5684180Y5757502D01*
X5611620Y5779513D01*
X5743475Y5911368D01*
X5905990Y6154589D01*
X6017932Y6424842D01*
X6075000Y6711740D01*
X6075000Y7004260D01*
X6017932Y7291158D01*
X5905990Y7561411D01*
X5743475Y7804632D01*
X5536632Y8011475D01*
X5362240Y8128000D01*
X5536632Y8244525D01*
X5743475Y8451368D01*
X5905990Y8694589D01*
X6017932Y8964842D01*
X6075000Y9251740D01*
X6075000Y9544260D01*
X6017932Y9831158D01*
X5905990Y10101411D01*
X5743475Y10344632D01*
X5536632Y10551475D01*
X5362240Y10668000D01*
X5536632Y10784525D01*
X5743475Y10991368D01*
X5905990Y11234589D01*
X6017932Y11504842D01*
X6075000Y11791740D01*
X6075000Y12084260D01*
X6017932Y12371158D01*
X5905990Y12641411D01*
X5743475Y12884632D01*
X5536632Y13091475D01*
X5362240Y13208000D01*
X5536632Y13324525D01*
X5743475Y13531368D01*
X5905990Y13774589D01*
X6017932Y14044842D01*
X6075000Y14331740D01*
X6075000Y14624260D01*
X6017932Y14911158D01*
X5905990Y15181411D01*
X5743475Y15424632D01*
X5536632Y15631475D01*
X5362240Y15748000D01*
X5536632Y15864525D01*
X5743475Y16071368D01*
X5905990Y16314589D01*
X6017932Y16584842D01*
X6075000Y16871740D01*
X6075000Y17164260D01*
X6017932Y17451158D01*
X5905990Y17721411D01*
X5743475Y17964632D01*
X5536632Y18171475D01*
X5362240Y18288000D01*
X5536632Y18404525D01*
X5743475Y18611368D01*
X5905990Y18854589D01*
X6017932Y19124842D01*
X6075000Y19411740D01*
X6075000Y19704260D01*
X6017932Y19991158D01*
X5905990Y20261411D01*
X5743475Y20504632D01*
X5536632Y20711475D01*
X5362240Y20828000D01*
X5536632Y20944525D01*
X5743475Y21151368D01*
X5905990Y21394589D01*
X6017932Y21664842D01*
X6075000Y21951740D01*
X6075000Y22244260D01*
X6017932Y22531158D01*
X5905990Y22801411D01*
X5743475Y23044632D01*
X5536632Y23251475D01*
X5362240Y23368000D01*
X5536632Y23484525D01*
X5743475Y23691368D01*
X5905990Y23934589D01*
X6017932Y24204842D01*
X6075000Y24491740D01*
X6075000Y24784260D01*
X6017932Y25071158D01*
X5905990Y25341411D01*
X5743475Y25584632D01*
X5536632Y25791475D01*
X5362240Y25908000D01*
X5536632Y26024525D01*
X5743475Y26231368D01*
X5905990Y26474589D01*
X6017932Y26744842D01*
X6075000Y27031740D01*
X6075000Y27324260D01*
X6017932Y27611158D01*
X5905990Y27881411D01*
X5743475Y28124632D01*
X5536632Y28331475D01*
X5362240Y28448000D01*
X5536632Y28564525D01*
X5743475Y28771368D01*
X5905990Y29014589D01*
X6017932Y29284842D01*
X6075000Y29571740D01*
X6075000Y29864260D01*
X6017932Y30151158D01*
X5905990Y30421411D01*
X5743475Y30664632D01*
X5536632Y30871475D01*
X5362240Y30988000D01*
X5536632Y31104525D01*
X5743475Y31311368D01*
X5905990Y31554589D01*
X6017932Y31824842D01*
X6075000Y32111740D01*
X6075000Y32404260D01*
X6017932Y32691158D01*
X5905990Y32961411D01*
X5743475Y33204632D01*
X5536632Y33411475D01*
X5362240Y33528000D01*
X5536632Y33644525D01*
X5743475Y33851368D01*
X5905990Y34094589D01*
X6017932Y34364842D01*
X6075000Y34651740D01*
X6075000Y34944260D01*
X6017932Y35231158D01*
X5905990Y35501411D01*
X5743475Y35744632D01*
X5536632Y35951475D01*
X5362240Y36068000D01*
X5536632Y36184525D01*
X5743475Y36391368D01*
X5905990Y36634589D01*
X6017932Y36904842D01*
X6075000Y37191740D01*
X6075000Y37484260D01*
X6017932Y37771158D01*
X5905990Y38041411D01*
X5743475Y38284632D01*
X5536632Y38491475D01*
X5362240Y38608000D01*
X5536632Y38724525D01*
X5743475Y38931368D01*
X5905990Y39174589D01*
X6017932Y39444842D01*
X6075000Y39731740D01*
X6075000Y40024260D01*
X6017932Y40311158D01*
X5905990Y40581411D01*
X5743475Y40824632D01*
X5536632Y41031475D01*
X5362240Y41148000D01*
X5536632Y41264525D01*
X5680107Y41408000D01*
X10999392Y41408000D01*
X11049000Y41403114D01*
X11246994Y41422615D01*
X11437380Y41480368D01*
X11612840Y41574153D01*
X11766633Y41700367D01*
X11798261Y41738906D01*
X23793100Y53733744D01*
X23831633Y53765367D01*
X23957847Y53919160D01*
X24051632Y54094620D01*
X24074913Y54171368D01*
X24104226Y54268000D01*
X28101928Y54268000D01*
X28114188Y54143518D01*
X28150498Y54023820D01*
X28209463Y53913506D01*
X28288815Y53816815D01*
X28385506Y53737463D01*
X28495820Y53678498D01*
X28568380Y53656487D01*
X28436525Y53524632D01*
X28274010Y53281411D01*
X28162068Y53011158D01*
X28105000Y52724260D01*
X28105000Y52431740D01*
X28162068Y52144842D01*
X28274010Y51874589D01*
X28436525Y51631368D01*
X28643368Y51424525D01*
X28817760Y51308000D01*
X28643368Y51191475D01*
X28436525Y50984632D01*
X28274010Y50741411D01*
X28162068Y50471158D01*
X28105000Y50184260D01*
X28105000Y49891740D01*
X28162068Y49604842D01*
X28274010Y49334589D01*
X28436525Y49091368D01*
X28643368Y48884525D01*
X28817760Y48768000D01*
X28643368Y48651475D01*
X28436525Y48444632D01*
X28274010Y48201411D01*
X28162068Y47931158D01*
X28105000Y47644260D01*
X28105000Y47351740D01*
X28162068Y47064842D01*
X28274010Y46794589D01*
X28436525Y46551368D01*
X28643368Y46344525D01*
X28817760Y46228000D01*
X28643368Y46111475D01*
X28436525Y45904632D01*
X28274010Y45661411D01*
X28162068Y45391158D01*
X28105000Y45104260D01*
X28105000Y44811740D01*
X28162068Y44524842D01*
X28274010Y44254589D01*
X28436525Y44011368D01*
X28643368Y43804525D01*
X28817760Y43688000D01*
X28643368Y43571475D01*
X28436525Y43364632D01*
X28274010Y43121411D01*
X28162068Y42851158D01*
X28105000Y42564260D01*
X28105000Y42271740D01*
X28162068Y41984842D01*
X28274010Y41714589D01*
X28436525Y41471368D01*
X28643368Y41264525D01*
X28817760Y41148000D01*
X28643368Y41031475D01*
X28436525Y40824632D01*
X28274010Y40581411D01*
X28162068Y40311158D01*
X28105000Y40024260D01*
X28105000Y39731740D01*
X28162068Y39444842D01*
X28274010Y39174589D01*
X28436525Y38931368D01*
X28643368Y38724525D01*
X28817760Y38608000D01*
X28643368Y38491475D01*
X28436525Y38284632D01*
X28274010Y38041411D01*
X28162068Y37771158D01*
X28105000Y37484260D01*
X28105000Y37191740D01*
X28162068Y36904842D01*
X28274010Y36634589D01*
X28436525Y36391368D01*
X28643368Y36184525D01*
X28817760Y36068000D01*
X28643368Y35951475D01*
X28436525Y35744632D01*
X28274010Y35501411D01*
X28162068Y35231158D01*
X28105000Y34944260D01*
X28105000Y34651740D01*
X28162068Y34364842D01*
X28274010Y34094589D01*
X28436525Y33851368D01*
X28643368Y33644525D01*
X28817760Y33528000D01*
X28643368Y33411475D01*
X28436525Y33204632D01*
X28274010Y32961411D01*
X28162068Y32691158D01*
X28105000Y32404260D01*
X28105000Y32111740D01*
X28162068Y31824842D01*
X28274010Y31554589D01*
X28436525Y31311368D01*
X28643368Y31104525D01*
X28817760Y30988000D01*
X28643368Y30871475D01*
X28436525Y30664632D01*
X28274010Y30421411D01*
X28162068Y30151158D01*
X28105000Y29864260D01*
X28105000Y29571740D01*
X28162068Y29284842D01*
X28274010Y29014589D01*
X28436525Y28771368D01*
X28643368Y28564525D01*
X28817760Y28448000D01*
X28643368Y28331475D01*
X28436525Y28124632D01*
X28274010Y27881411D01*
X28162068Y27611158D01*
X28105000Y27324260D01*
X28105000Y27031740D01*
X28162068Y26744842D01*
X28274010Y26474589D01*
X28436525Y26231368D01*
X28643368Y26024525D01*
X28817760Y25908000D01*
X28643368Y25791475D01*
X28436525Y25584632D01*
X28274010Y25341411D01*
X28162068Y25071158D01*
X28105000Y24784260D01*
X28105000Y24491740D01*
X28162068Y24204842D01*
X28274010Y23934589D01*
X28436525Y23691368D01*
X28643368Y23484525D01*
X28817760Y23368000D01*
X28643368Y23251475D01*
X28436525Y23044632D01*
X28274010Y22801411D01*
X28162068Y22531158D01*
X28105000Y22244260D01*
X28105000Y21951740D01*
X28162068Y21664842D01*
X28274010Y21394589D01*
X28436525Y21151368D01*
X28643368Y20944525D01*
X28817760Y20828000D01*
X28643368Y20711475D01*
X28436525Y20504632D01*
X28274010Y20261411D01*
X28162068Y19991158D01*
X28105000Y19704260D01*
X28105000Y19411740D01*
X28162068Y19124842D01*
X28274010Y18854589D01*
X28436525Y18611368D01*
X28643368Y18404525D01*
X28817760Y18288000D01*
X28643368Y18171475D01*
X28436525Y17964632D01*
X28274010Y17721411D01*
X28162068Y17451158D01*
X28105000Y17164260D01*
X28105000Y16871740D01*
X28162068Y16584842D01*
X28274010Y16314589D01*
X28436525Y16071368D01*
X28643368Y15864525D01*
X28817760Y15748000D01*
X28643368Y15631475D01*
X28436525Y15424632D01*
X28274010Y15181411D01*
X28162068Y14911158D01*
X28105000Y14624260D01*
X28105000Y14331740D01*
X28162068Y14044842D01*
X28274010Y13774589D01*
X28436525Y13531368D01*
X28643368Y13324525D01*
X28817760Y13208000D01*
X28643368Y13091475D01*
X28436525Y12884632D01*
X28274010Y12641411D01*
X28162068Y12371158D01*
X28105000Y12084260D01*
X28105000Y11791740D01*
X28162068Y11504842D01*
X28274010Y11234589D01*
X28436525Y10991368D01*
X28643368Y10784525D01*
X28817760Y10668000D01*
X28643368Y10551475D01*
X28436525Y10344632D01*
X28274010Y10101411D01*
X28162068Y9831158D01*
X28105000Y9544260D01*
X28105000Y9251740D01*
X28162068Y8964842D01*
X28274010Y8694589D01*
X28436525Y8451368D01*
X28643368Y8244525D01*
X28817760Y8128000D01*
X28643368Y8011475D01*
X28436525Y7804632D01*
X28274010Y7561411D01*
X28162068Y7291158D01*
X28105000Y7004260D01*
X28105000Y6711740D01*
X28162068Y6424842D01*
X28274010Y6154589D01*
X28436525Y5911368D01*
X28643368Y5704525D01*
X28817760Y5588000D01*
X28643368Y5471475D01*
X28436525Y5264632D01*
X28274010Y5021411D01*
X28162068Y4751158D01*
X28105000Y4464260D01*
X28105000Y4171740D01*
X28162068Y3884842D01*
X28274010Y3614589D01*
X28436525Y3371368D01*
X28643368Y3164525D01*
X28886589Y3002010D01*
X29156842Y2890068D01*
X29443740Y2833000D01*
X29736260Y2833000D01*
X30023158Y2890068D01*
X30293411Y3002010D01*
X30536632Y3164525D01*
X30743475Y3371368D01*
X30905990Y3614589D01*
X31017932Y3884842D01*
X31075000Y4171740D01*
X31075000Y4464260D01*
X31017932Y4751158D01*
X30905990Y5021411D01*
X30743475Y5264632D01*
X30536632Y5471475D01*
X30362240Y5588000D01*
X30536632Y5704525D01*
X30743475Y5911368D01*
X30905990Y6154589D01*
X31017932Y6424842D01*
X31075000Y6711740D01*
X31075000Y7004260D01*
X31017932Y7291158D01*
X30905990Y7561411D01*
X30743475Y7804632D01*
X30536632Y8011475D01*
X30362240Y8128000D01*
X30536632Y8244525D01*
X30743475Y8451368D01*
X30905990Y8694589D01*
X31017932Y8964842D01*
X31075000Y9251740D01*
X31075000Y9544260D01*
X31017932Y9831158D01*
X30905990Y10101411D01*
X30743475Y10344632D01*
X30536632Y10551475D01*
X30362240Y10668000D01*
X30536632Y10784525D01*
X30743475Y10991368D01*
X30905990Y11234589D01*
X31017932Y11504842D01*
X31075000Y11791740D01*
X31075000Y12084260D01*
X31017932Y12371158D01*
X30905990Y12641411D01*
X30743475Y12884632D01*
X30536632Y13091475D01*
X30362240Y13208000D01*
X30536632Y13324525D01*
X30743475Y13531368D01*
X30905990Y13774589D01*
X31017932Y14044842D01*
X31075000Y14331740D01*
X31075000Y14624260D01*
X31017932Y14911158D01*
X30905990Y15181411D01*
X30743475Y15424632D01*
X30536632Y15631475D01*
X30362240Y15748000D01*
X30536632Y15864525D01*
X30743475Y16071368D01*
X30905990Y16314589D01*
X31017932Y16584842D01*
X31075000Y16871740D01*
X31075000Y17164260D01*
X31017932Y17451158D01*
X30905990Y17721411D01*
X30743475Y17964632D01*
X30536632Y18171475D01*
X30362240Y18288000D01*
X30536632Y18404525D01*
X30743475Y18611368D01*
X30905990Y18854589D01*
X31017932Y19124842D01*
X31075000Y19411740D01*
X31075000Y19704260D01*
X31017932Y19991158D01*
X30905990Y20261411D01*
X30743475Y20504632D01*
X30536632Y20711475D01*
X30362240Y20828000D01*
X30536632Y20944525D01*
X30743475Y21151368D01*
X30905990Y21394589D01*
X31017932Y21664842D01*
X31075000Y21951740D01*
X31075000Y22244260D01*
X31017932Y22531158D01*
X30905990Y22801411D01*
X30743475Y23044632D01*
X30536632Y23251475D01*
X30362240Y23368000D01*
X30536632Y23484525D01*
X30743475Y23691368D01*
X30905990Y23934589D01*
X31017932Y24204842D01*
X31075000Y24491740D01*
X31075000Y24784260D01*
X31017932Y25071158D01*
X30905990Y25341411D01*
X30743475Y25584632D01*
X30536632Y25791475D01*
X30362240Y25908000D01*
X30536632Y26024525D01*
X30743475Y26231368D01*
X30905990Y26474589D01*
X31017932Y26744842D01*
X31075000Y27031740D01*
X31075000Y27324260D01*
X31017932Y27611158D01*
X30905990Y27881411D01*
X30743475Y28124632D01*
X30536632Y28331475D01*
X30362240Y28448000D01*
X30536632Y28564525D01*
X30743475Y28771368D01*
X30905990Y29014589D01*
X31017932Y29284842D01*
X31075000Y29571740D01*
X31075000Y29864260D01*
X31017932Y30151158D01*
X30905990Y30421411D01*
X30743475Y30664632D01*
X30536632Y30871475D01*
X30362240Y30988000D01*
X30536632Y31104525D01*
X30743475Y31311368D01*
X30905990Y31554589D01*
X31017932Y31824842D01*
X31075000Y32111740D01*
X31075000Y32404260D01*
X31017932Y32691158D01*
X30905990Y32961411D01*
X30743475Y33204632D01*
X30536632Y33411475D01*
X30362240Y33528000D01*
X30536632Y33644525D01*
X30743475Y33851368D01*
X30905990Y34094589D01*
X31017932Y34364842D01*
X31075000Y34651740D01*
X31075000Y34944260D01*
X31017932Y35231158D01*
X30905990Y35501411D01*
X30743475Y35744632D01*
X30536632Y35951475D01*
X30362240Y36068000D01*
X30536632Y36184525D01*
X30743475Y36391368D01*
X30905990Y36634589D01*
X31017932Y36904842D01*
X31075000Y37191740D01*
X31075000Y37484260D01*
X31017932Y37771158D01*
X30905990Y38041411D01*
X30743475Y38284632D01*
X30536632Y38491475D01*
X30362240Y38608000D01*
X30536632Y38724525D01*
X30743475Y38931368D01*
X30905990Y39174589D01*
X31017932Y39444842D01*
X31075000Y39731740D01*
X31075000Y40024260D01*
X31017932Y40311158D01*
X30905990Y40581411D01*
X30743475Y40824632D01*
X30536632Y41031475D01*
X30362240Y41148000D01*
X30536632Y41264525D01*
X30743475Y41471368D01*
X30905990Y41714589D01*
X31017932Y41984842D01*
X31075000Y42271740D01*
X31075000Y42564260D01*
X31017932Y42851158D01*
X30905990Y43121411D01*
X30743475Y43364632D01*
X30536632Y43571475D01*
X30362240Y43688000D01*
X30536632Y43804525D01*
X30743475Y44011368D01*
X30905990Y44254589D01*
X31017932Y44524842D01*
X31075000Y44811740D01*
X31075000Y45104260D01*
X31017932Y45391158D01*
X30905990Y45661411D01*
X30743475Y45904632D01*
X30536632Y46111475D01*
X30362240Y46228000D01*
X30536632Y46344525D01*
X30743475Y46551368D01*
X30905990Y46794589D01*
X31017932Y47064842D01*
X31075000Y47351740D01*
X31075000Y47644260D01*
X31017932Y47931158D01*
X30905990Y48201411D01*
X30743475Y48444632D01*
X30536632Y48651475D01*
X30362240Y48768000D01*
X30536632Y48884525D01*
X30743475Y49091368D01*
X30905990Y49334589D01*
X31017932Y49604842D01*
X31075000Y49891740D01*
X31075000Y50184260D01*
X31017932Y50471158D01*
X30905990Y50741411D01*
X30743475Y50984632D01*
X30536632Y51191475D01*
X30362240Y51308000D01*
X30536632Y51424525D01*
X30743475Y51631368D01*
X30905990Y51874589D01*
X31017932Y52144842D01*
X31075000Y52431740D01*
X31075000Y52724260D01*
X31017932Y53011158D01*
X30905990Y53281411D01*
X30743475Y53524632D01*
X30611620Y53656487D01*
X30684180Y53678498D01*
X30794494Y53737463D01*
X30891185Y53816815D01*
X30970537Y53913506D01*
X31029502Y54023820D01*
X31065812Y54143518D01*
X31078072Y54268000D01*
X31075000Y54832250D01*
X30916250Y54991000D01*
X29717000Y54991000D01*
X29717000Y54971000D01*
X29463000Y54971000D01*
X29463000Y54991000D01*
X28263750Y54991000D01*
X28105000Y54832250D01*
X28101928Y54268000D01*
X24104226Y54268000D01*
X24109385Y54285005D01*
X24128886Y54483000D01*
X24124000Y54532608D01*
X24124000Y55968000D01*
X28101928Y55968000D01*
X28105000Y55403750D01*
X28263750Y55245000D01*
X29463000Y55245000D01*
X29463000Y56444250D01*
X29717000Y56444250D01*
X29717000Y55245000D01*
X30916250Y55245000D01*
X31075000Y55403750D01*
X31078072Y55968000D01*
X31065812Y56092482D01*
X31029502Y56212180D01*
X30970537Y56322494D01*
X30891185Y56419185D01*
X30794494Y56498537D01*
X30684180Y56557502D01*
X30564482Y56593812D01*
X30440000Y56606072D01*
X29875750Y56603000D01*
X29717000Y56444250D01*
X29463000Y56444250D01*
X29304250Y56603000D01*
X28740000Y56606072D01*
X28615518Y56593812D01*
X28495820Y56557502D01*
X28385506Y56498537D01*
X28288815Y56419185D01*
X28209463Y56322494D01*
X28150498Y56212180D01*
X28114188Y56092482D01*
X28101928Y55968000D01*
X24124000Y55968000D01*
X24124000Y67456893D01*
X24267475Y67600368D01*
X24429990Y67843589D01*
X24541932Y68113842D01*
X24599000Y68400740D01*
X24599000Y68693260D01*
X24541932Y68980158D01*
X24429990Y69250411D01*
X24267475Y69493632D01*
X24060632Y69700475D01*
X23817411Y69862990D01*
X23547158Y69974932D01*
X23260260Y70032000D01*
X22967740Y70032000D01*
X22680842Y69974932D01*
X22410589Y69862990D01*
X22167368Y69700475D01*
X21960525Y69493632D01*
X21844000Y69319240D01*
X21727475Y69493632D01*
X21520632Y69700475D01*
X21277411Y69862990D01*
X21007158Y69974932D01*
X20720260Y70032000D01*
X20427740Y70032000D01*
X20140842Y69974932D01*
X19870589Y69862990D01*
X19627368Y69700475D01*
X19420525Y69493632D01*
X19304000Y69319240D01*
X19187475Y69493632D01*
X18980632Y69700475D01*
X18737411Y69862990D01*
X18467158Y69974932D01*
X18180260Y70032000D01*
X17887740Y70032000D01*
X17600842Y69974932D01*
X17330589Y69862990D01*
X17087368Y69700475D01*
X16880525Y69493632D01*
X16764000Y69319240D01*
X16647475Y69493632D01*
X16440632Y69700475D01*
X16197411Y69862990D01*
X15927158Y69974932D01*
X15640260Y70032000D01*
X15347740Y70032000D01*
X15060842Y69974932D01*
X14790589Y69862990D01*
X14547368Y69700475D01*
X14340525Y69493632D01*
X14218805Y69311466D01*
X14149178Y69428355D01*
X13954269Y69644588D01*
X13720920Y69818641D01*
X13458099Y69943825D01*
X13310890Y69988476D01*
X13081000Y69867155D01*
X13081000Y68674000D01*
X13101000Y68674000D01*
X13101000Y68420000D01*
X13081000Y68420000D01*
X13081000Y67226845D01*
X13310890Y67105524D01*
X13458099Y67150175D01*
X13720920Y67275359D01*
X13954269Y67449412D01*
X14149178Y67665645D01*
X14218805Y67782534D01*
X14340525Y67600368D01*
X14484000Y67456893D01*
X14484001Y58457357D01*
X7074645Y51048000D01*
X5680107Y51048000D01*
X5536632Y51191475D01*
X5362240Y51308000D01*
X5536632Y51424525D01*
X5743475Y51631368D01*
X5905990Y51874589D01*
X6017932Y52144842D01*
X6075000Y52431740D01*
X6075000Y52724260D01*
X6017932Y53011158D01*
X5905990Y53281411D01*
X5743475Y53524632D01*
X5536632Y53731475D01*
X5362240Y53848000D01*
X5536632Y53964525D01*
X5743475Y54171368D01*
X5905990Y54414589D01*
X6017932Y54684842D01*
X6075000Y54971740D01*
X6075000Y55174645D01*
X11093100Y60192744D01*
X11131633Y60224367D01*
X11257847Y60378160D01*
X11351632Y60553620D01*
X11409385Y60744006D01*
X11424000Y60892392D01*
X11428886Y60942000D01*
X11424000Y60991608D01*
X11424000Y67081962D01*
X11508180Y67107498D01*
X11618494Y67166463D01*
X11715185Y67245815D01*
X11794537Y67342506D01*
X11853502Y67452820D01*
X11877966Y67533466D01*
X11953731Y67449412D01*
X12187080Y67275359D01*
X12449901Y67150175D01*
X12597110Y67105524D01*
X12827000Y67226845D01*
X12827000Y68420000D01*
X12807000Y68420000D01*
X12807000Y68674000D01*
X12827000Y68674000D01*
X12827000Y69867155D01*
X12597110Y69988476D01*
X12449901Y69943825D01*
X12187080Y69818641D01*
X11953731Y69644588D01*
X11877966Y69560534D01*
X11853502Y69641180D01*
X11794537Y69751494D01*
X11715185Y69848185D01*
X11618494Y69927537D01*
X11508180Y69986502D01*
X11388482Y70022812D01*
X11264000Y70035072D01*
X9564000Y70035072D01*
X9439518Y70022812D01*
X9319820Y69986502D01*
X9209506Y69927537D01*
X9112815Y69848185D01*
X9033463Y69751494D01*
X8974498Y69641180D01*
X8938188Y69521482D01*
X8925928Y69397000D01*
X8925928Y67697000D01*
X8938188Y67572518D01*
X8974498Y67452820D01*
X9033463Y67342506D01*
X9112815Y67245815D01*
X9209506Y67166463D01*
X9319820Y67107498D01*
X9404000Y67081962D01*
X9404001Y61360357D01*
X4646645Y56603000D01*
X4443740Y56603000D01*
X4156842Y56545932D01*
X3886589Y56433990D01*
X3643368Y56271475D01*
X3436525Y56064632D01*
X3274010Y55821411D01*
X3162068Y55551158D01*
X3105000Y55264260D01*
X3105000Y54971740D01*
X3162068Y54684842D01*
X3274010Y54414589D01*
X3436525Y54171368D01*
X3643368Y53964525D01*
X3817760Y53848000D01*
X3643368Y53731475D01*
X3436525Y53524632D01*
X3274010Y53281411D01*
X3162068Y53011158D01*
X3105000Y52724260D01*
X3105000Y52431740D01*
X3162068Y52144842D01*
X3274010Y51874589D01*
X3436525Y51631368D01*
X3643368Y51424525D01*
X3817760Y51308000D01*
X3643368Y51191475D01*
X3436525Y50984632D01*
X3274010Y50741411D01*
X3162068Y50471158D01*
X3105000Y50184260D01*
X3105000Y49891740D01*
X3162068Y49604842D01*
X3274010Y49334589D01*
X3436525Y49091368D01*
X3643368Y48884525D01*
X3817760Y48768000D01*
X3643368Y48651475D01*
X3436525Y48444632D01*
X3274010Y48201411D01*
X3162068Y47931158D01*
X3105000Y47644260D01*
X3105000Y47351740D01*
X3162068Y47064842D01*
X3274010Y46794589D01*
X3436525Y46551368D01*
X3643368Y46344525D01*
X3817760Y46228000D01*
X3643368Y46111475D01*
X3436525Y45904632D01*
X3274010Y45661411D01*
X3162068Y45391158D01*
X3105000Y45104260D01*
X3105000Y44811740D01*
X3162068Y44524842D01*
X3274010Y44254589D01*
X3436525Y44011368D01*
X3643368Y43804525D01*
X3817760Y43688000D01*
X3643368Y43571475D01*
X3436525Y43364632D01*
X3274010Y43121411D01*
X3162068Y42851158D01*
X3105000Y42564260D01*
X3105000Y42271740D01*
X3162068Y41984842D01*
X3274010Y41714589D01*
X3436525Y41471368D01*
X3643368Y41264525D01*
X3817760Y41148000D01*
X3643368Y41031475D01*
X3436525Y40824632D01*
X3274010Y40581411D01*
X3162068Y40311158D01*
X3105000Y40024260D01*
X3105000Y39731740D01*
X3162068Y39444842D01*
X3274010Y39174589D01*
X3436525Y38931368D01*
X3643368Y38724525D01*
X3817760Y38608000D01*
X3643368Y38491475D01*
X3436525Y38284632D01*
X3274010Y38041411D01*
X3162068Y37771158D01*
X3105000Y37484260D01*
X3105000Y37191740D01*
X3162068Y36904842D01*
X3274010Y36634589D01*
X3436525Y36391368D01*
X3643368Y36184525D01*
X3817760Y36068000D01*
X3643368Y35951475D01*
X3436525Y35744632D01*
X3274010Y35501411D01*
X3162068Y35231158D01*
X3105000Y34944260D01*
X3105000Y34651740D01*
X3162068Y34364842D01*
X3274010Y34094589D01*
X3436525Y33851368D01*
X3643368Y33644525D01*
X3817760Y33528000D01*
X3643368Y33411475D01*
X3436525Y33204632D01*
X3274010Y32961411D01*
X3162068Y32691158D01*
X3105000Y32404260D01*
X3105000Y32111740D01*
X3162068Y31824842D01*
X3274010Y31554589D01*
X3436525Y31311368D01*
X3643368Y31104525D01*
X3817760Y30988000D01*
X3643368Y30871475D01*
X3436525Y30664632D01*
X3274010Y30421411D01*
X3162068Y30151158D01*
X3105000Y29864260D01*
X3105000Y29571740D01*
X3162068Y29284842D01*
X3274010Y29014589D01*
X3436525Y28771368D01*
X3643368Y28564525D01*
X3817760Y28448000D01*
X3643368Y28331475D01*
X3436525Y28124632D01*
X3274010Y27881411D01*
X3162068Y27611158D01*
X3105000Y27324260D01*
X3105000Y27031740D01*
X3162068Y26744842D01*
X3274010Y26474589D01*
X3436525Y26231368D01*
X3643368Y26024525D01*
X3817760Y25908000D01*
X3643368Y25791475D01*
X3436525Y25584632D01*
X3274010Y25341411D01*
X3162068Y25071158D01*
X3105000Y24784260D01*
X3105000Y24491740D01*
X3162068Y24204842D01*
X3274010Y23934589D01*
X3436525Y23691368D01*
X3643368Y23484525D01*
X3817760Y23368000D01*
X3643368Y23251475D01*
X3436525Y23044632D01*
X3274010Y22801411D01*
X3162068Y22531158D01*
X3105000Y22244260D01*
X3105000Y21951740D01*
X3162068Y21664842D01*
X3274010Y21394589D01*
X3436525Y21151368D01*
X3643368Y20944525D01*
X3817760Y20828000D01*
X3643368Y20711475D01*
X3436525Y20504632D01*
X3274010Y20261411D01*
X3162068Y19991158D01*
X3105000Y19704260D01*
X3105000Y19411740D01*
X3162068Y19124842D01*
X3274010Y18854589D01*
X3436525Y18611368D01*
X3643368Y18404525D01*
X3817760Y18288000D01*
X3643368Y18171475D01*
X3436525Y17964632D01*
X3274010Y17721411D01*
X3162068Y17451158D01*
X3105000Y17164260D01*
X3105000Y16871740D01*
X3162068Y16584842D01*
X3274010Y16314589D01*
X3436525Y16071368D01*
X3643368Y15864525D01*
X3817760Y15748000D01*
X3643368Y15631475D01*
X3436525Y15424632D01*
X3274010Y15181411D01*
X3162068Y14911158D01*
X3105000Y14624260D01*
X3105000Y14331740D01*
X3162068Y14044842D01*
X3274010Y13774589D01*
X3436525Y13531368D01*
X3643368Y13324525D01*
X3817760Y13208000D01*
X3643368Y13091475D01*
X3436525Y12884632D01*
X3274010Y12641411D01*
X3162068Y12371158D01*
X3105000Y12084260D01*
X3105000Y11791740D01*
X3162068Y11504842D01*
X3274010Y11234589D01*
X3436525Y10991368D01*
X3643368Y10784525D01*
X3817760Y10668000D01*
X3643368Y10551475D01*
X3436525Y10344632D01*
X3274010Y10101411D01*
X3162068Y9831158D01*
X3105000Y9544260D01*
X3105000Y9251740D01*
X3162068Y8964842D01*
X3274010Y8694589D01*
X3436525Y8451368D01*
X3643368Y8244525D01*
X3817760Y8128000D01*
X3643368Y8011475D01*
X3436525Y7804632D01*
X3274010Y7561411D01*
X3162068Y7291158D01*
X3105000Y7004260D01*
X3105000Y6711740D01*
X3162068Y6424842D01*
X3274010Y6154589D01*
X3436525Y5911368D01*
X3568380Y5779513D01*
X3495820Y5757502D01*
X3385506Y5698537D01*
X3288815Y5619185D01*
X3209463Y5522494D01*
X3150498Y5412180D01*
X3114188Y5292482D01*
X3101928Y5168000D01*
X1397000Y5168000D01*
X1397000Y72009000D01*
X32893227Y72009000D01*
X33019772Y1397000D01*
G37*
%TD.AperFunction*%
%TD*%
M02*
